G04*
G04 #@! TF.GenerationSoftware,Altium Limited,Altium Designer,23.10.1 (27)*
G04*
G04 Layer_Color=15132400*
%FSLAX25Y25*%
%MOIN*%
G70*
G04*
G04 #@! TF.SameCoordinates,175ED7C4-C9F6-4816-8E68-65F318BF6B2B*
G04*
G04*
G04 #@! TF.FilePolarity,Positive*
G04*
G01*
G75*
G36*
X26400Y67633D02*
X26427Y67629D01*
X26465Y67626D01*
X26507Y67619D01*
X26549Y67612D01*
X26646Y67584D01*
X26695Y67570D01*
X26747Y67549D01*
X26795Y67525D01*
X26847Y67497D01*
X26896Y67466D01*
X26941Y67428D01*
X26944Y67424D01*
X26951Y67418D01*
X26965Y67407D01*
X26979Y67390D01*
X27000Y67369D01*
X27021Y67341D01*
X27045Y67313D01*
X27069Y67275D01*
X27094Y67237D01*
X27121Y67192D01*
X27146Y67143D01*
X27170Y67091D01*
X27194Y67032D01*
X27215Y66970D01*
X27232Y66904D01*
X27246Y66831D01*
X26653Y66769D01*
Y66772D01*
Y66776D01*
X26649Y66800D01*
X26639Y66831D01*
X26629Y66869D01*
X26615Y66914D01*
X26594Y66956D01*
X26566Y67001D01*
X26535Y67036D01*
X26531Y67039D01*
X26518Y67050D01*
X26500Y67064D01*
X26472Y67081D01*
X26438Y67098D01*
X26396Y67112D01*
X26351Y67123D01*
X26299Y67126D01*
X26282D01*
X26268Y67123D01*
X26230Y67116D01*
X26184Y67105D01*
X26132Y67084D01*
X26077Y67053D01*
X26049Y67032D01*
X26021Y67008D01*
X25997Y66980D01*
X25969Y66949D01*
Y66946D01*
X25962Y66942D01*
X25955Y66928D01*
X25949Y66914D01*
X25938Y66894D01*
X25924Y66866D01*
X25914Y66831D01*
X25900Y66793D01*
X25886Y66748D01*
X25869Y66696D01*
X25855Y66637D01*
X25841Y66567D01*
X25831Y66495D01*
X25817Y66411D01*
X25806Y66321D01*
X25799Y66220D01*
X25803Y66224D01*
X25810Y66231D01*
X25824Y66245D01*
X25841Y66262D01*
X25865Y66283D01*
X25890Y66307D01*
X25921Y66331D01*
X25959Y66359D01*
X25997Y66383D01*
X26042Y66408D01*
X26087Y66432D01*
X26139Y66453D01*
X26191Y66470D01*
X26250Y66484D01*
X26309Y66491D01*
X26372Y66495D01*
X26389D01*
X26410Y66491D01*
X26438D01*
X26469Y66484D01*
X26507Y66481D01*
X26552Y66470D01*
X26597Y66456D01*
X26649Y66442D01*
X26702Y66422D01*
X26757Y66397D01*
X26812Y66370D01*
X26868Y66335D01*
X26924Y66297D01*
X26979Y66252D01*
X27031Y66199D01*
X27035Y66196D01*
X27042Y66186D01*
X27055Y66168D01*
X27073Y66148D01*
X27094Y66116D01*
X27118Y66082D01*
X27142Y66043D01*
X27170Y65995D01*
X27194Y65946D01*
X27218Y65887D01*
X27243Y65825D01*
X27264Y65759D01*
X27281Y65686D01*
X27295Y65613D01*
X27302Y65530D01*
X27305Y65447D01*
Y65440D01*
Y65426D01*
X27302Y65398D01*
Y65367D01*
X27295Y65325D01*
X27291Y65276D01*
X27281Y65221D01*
X27271Y65162D01*
X27253Y65103D01*
X27236Y65037D01*
X27212Y64971D01*
X27184Y64905D01*
X27149Y64843D01*
X27111Y64777D01*
X27066Y64718D01*
X27014Y64659D01*
X27010Y64655D01*
X27000Y64645D01*
X26986Y64631D01*
X26962Y64614D01*
X26934Y64589D01*
X26899Y64565D01*
X26858Y64537D01*
X26812Y64513D01*
X26764Y64485D01*
X26708Y64458D01*
X26646Y64433D01*
X26580Y64409D01*
X26511Y64392D01*
X26438Y64378D01*
X26358Y64367D01*
X26275Y64364D01*
X26254D01*
X26230Y64367D01*
X26195Y64371D01*
X26153Y64374D01*
X26105Y64385D01*
X26053Y64395D01*
X25994Y64412D01*
X25931Y64430D01*
X25865Y64454D01*
X25799Y64485D01*
X25733Y64524D01*
X25667Y64565D01*
X25602Y64614D01*
X25536Y64673D01*
X25477Y64739D01*
X25473Y64742D01*
X25463Y64756D01*
X25449Y64780D01*
X25428Y64811D01*
X25404Y64853D01*
X25379Y64905D01*
X25352Y64964D01*
X25324Y65034D01*
X25293Y65117D01*
X25265Y65207D01*
X25241Y65308D01*
X25216Y65419D01*
X25196Y65540D01*
X25182Y65676D01*
X25171Y65818D01*
X25168Y65974D01*
Y65977D01*
Y65984D01*
Y65995D01*
Y66012D01*
Y66033D01*
X25171Y66057D01*
Y66085D01*
Y66116D01*
X25178Y66189D01*
X25185Y66272D01*
X25196Y66366D01*
X25209Y66463D01*
X25227Y66567D01*
X25248Y66672D01*
X25272Y66779D01*
X25303Y66883D01*
X25341Y66984D01*
X25383Y67077D01*
X25435Y67164D01*
X25490Y67244D01*
X25494Y67247D01*
X25504Y67261D01*
X25525Y67279D01*
X25549Y67307D01*
X25581Y67334D01*
X25622Y67369D01*
X25667Y67404D01*
X25719Y67442D01*
X25775Y67476D01*
X25841Y67511D01*
X25910Y67546D01*
X25987Y67574D01*
X26066Y67601D01*
X26150Y67619D01*
X26243Y67633D01*
X26337Y67636D01*
X26372D01*
X26400Y67633D01*
D02*
G37*
G36*
X22458Y65276D02*
X21250D01*
Y65891D01*
X22458D01*
Y65276D01*
D02*
G37*
G36*
X15993D02*
X14785D01*
Y65891D01*
X15993D01*
Y65276D01*
D02*
G37*
G36*
X13293Y67633D02*
X13325D01*
X13363Y67626D01*
X13408Y67622D01*
X13456Y67612D01*
X13509Y67601D01*
X13567Y67584D01*
X13626Y67567D01*
X13686Y67542D01*
X13745Y67515D01*
X13807Y67480D01*
X13866Y67442D01*
X13922Y67397D01*
X13973Y67345D01*
X13977Y67341D01*
X13984Y67334D01*
X13994Y67320D01*
X14008Y67303D01*
X14026Y67282D01*
X14046Y67254D01*
X14067Y67223D01*
X14088Y67189D01*
X14130Y67112D01*
X14168Y67022D01*
X14182Y66973D01*
X14192Y66921D01*
X14199Y66869D01*
X14202Y66814D01*
Y66810D01*
Y66796D01*
X14199Y66772D01*
X14196Y66744D01*
X14189Y66710D01*
X14178Y66668D01*
X14164Y66619D01*
X14143Y66571D01*
X14119Y66519D01*
X14092Y66463D01*
X14053Y66408D01*
X14008Y66352D01*
X13956Y66297D01*
X13894Y66241D01*
X13821Y66189D01*
X13741Y66141D01*
X13745D01*
X13755Y66137D01*
X13769Y66134D01*
X13786Y66127D01*
X13810Y66120D01*
X13838Y66109D01*
X13897Y66085D01*
X13970Y66050D01*
X14043Y66002D01*
X14112Y65946D01*
X14147Y65912D01*
X14178Y65873D01*
X14182Y65870D01*
X14185Y65863D01*
X14192Y65852D01*
X14206Y65839D01*
X14216Y65818D01*
X14230Y65794D01*
X14248Y65766D01*
X14262Y65735D01*
X14293Y65662D01*
X14321Y65578D01*
X14338Y65481D01*
X14341Y65429D01*
X14345Y65377D01*
Y65374D01*
Y65360D01*
X14341Y65336D01*
Y65308D01*
X14334Y65270D01*
X14327Y65228D01*
X14321Y65183D01*
X14307Y65131D01*
X14289Y65075D01*
X14268Y65016D01*
X14244Y64957D01*
X14213Y64898D01*
X14178Y64836D01*
X14137Y64777D01*
X14092Y64718D01*
X14036Y64659D01*
X14032Y64655D01*
X14022Y64645D01*
X14005Y64631D01*
X13981Y64614D01*
X13949Y64589D01*
X13915Y64565D01*
X13873Y64537D01*
X13824Y64513D01*
X13772Y64485D01*
X13713Y64458D01*
X13647Y64433D01*
X13581Y64409D01*
X13509Y64392D01*
X13432Y64378D01*
X13349Y64367D01*
X13266Y64364D01*
X13245D01*
X13224Y64367D01*
X13193D01*
X13158Y64371D01*
X13113Y64378D01*
X13064Y64385D01*
X13012Y64395D01*
X12957Y64409D01*
X12898Y64426D01*
X12839Y64444D01*
X12780Y64468D01*
X12717Y64499D01*
X12658Y64530D01*
X12599Y64569D01*
X12544Y64614D01*
X12540Y64617D01*
X12530Y64624D01*
X12516Y64638D01*
X12499Y64659D01*
X12478Y64683D01*
X12450Y64714D01*
X12426Y64749D01*
X12395Y64791D01*
X12367Y64836D01*
X12339Y64884D01*
X12311Y64937D01*
X12284Y64995D01*
X12263Y65058D01*
X12242Y65124D01*
X12225Y65197D01*
X12214Y65270D01*
X12808Y65342D01*
Y65339D01*
Y65332D01*
X12811Y65322D01*
X12814Y65304D01*
X12822Y65263D01*
X12839Y65214D01*
X12856Y65155D01*
X12884Y65100D01*
X12919Y65040D01*
X12960Y64992D01*
X12967Y64988D01*
X12981Y64975D01*
X13009Y64954D01*
X13044Y64933D01*
X13089Y64912D01*
X13141Y64891D01*
X13200Y64877D01*
X13262Y64874D01*
X13280D01*
X13293Y64877D01*
X13328Y64881D01*
X13373Y64891D01*
X13425Y64909D01*
X13477Y64933D01*
X13533Y64968D01*
X13585Y65016D01*
X13592Y65023D01*
X13606Y65044D01*
X13626Y65075D01*
X13651Y65120D01*
X13675Y65176D01*
X13696Y65242D01*
X13710Y65318D01*
X13717Y65405D01*
Y65408D01*
Y65415D01*
Y65426D01*
X13713Y65443D01*
Y65464D01*
X13710Y65485D01*
X13703Y65537D01*
X13686Y65596D01*
X13665Y65658D01*
X13634Y65717D01*
X13592Y65773D01*
X13585Y65780D01*
X13571Y65794D01*
X13543Y65818D01*
X13509Y65842D01*
X13463Y65866D01*
X13411Y65891D01*
X13352Y65905D01*
X13286Y65912D01*
X13266D01*
X13241Y65908D01*
X13207Y65905D01*
X13165Y65901D01*
X13120Y65891D01*
X13064Y65880D01*
X13005Y65863D01*
X13071Y66363D01*
X13113D01*
X13134Y66366D01*
X13158D01*
X13214Y66373D01*
X13276Y66383D01*
X13339Y66404D01*
X13397Y66432D01*
X13453Y66467D01*
X13460Y66474D01*
X13474Y66487D01*
X13495Y66512D01*
X13522Y66546D01*
X13547Y66592D01*
X13567Y66644D01*
X13581Y66703D01*
X13588Y66772D01*
Y66776D01*
Y66779D01*
Y66800D01*
X13585Y66828D01*
X13578Y66866D01*
X13564Y66904D01*
X13547Y66949D01*
X13522Y66991D01*
X13491Y67029D01*
X13488Y67032D01*
X13474Y67043D01*
X13453Y67060D01*
X13422Y67077D01*
X13384Y67095D01*
X13342Y67112D01*
X13290Y67123D01*
X13231Y67126D01*
X13203D01*
X13175Y67119D01*
X13137Y67112D01*
X13096Y67098D01*
X13050Y67081D01*
X13005Y67053D01*
X12960Y67015D01*
X12957Y67011D01*
X12943Y66994D01*
X12926Y66970D01*
X12901Y66935D01*
X12877Y66890D01*
X12856Y66838D01*
X12839Y66772D01*
X12825Y66699D01*
X12259Y66793D01*
Y66796D01*
X12263Y66807D01*
X12266Y66821D01*
X12270Y66842D01*
X12277Y66866D01*
X12284Y66894D01*
X12304Y66960D01*
X12329Y67036D01*
X12360Y67112D01*
X12395Y67189D01*
X12436Y67258D01*
Y67261D01*
X12443Y67265D01*
X12457Y67286D01*
X12485Y67320D01*
X12523Y67358D01*
X12568Y67404D01*
X12624Y67449D01*
X12690Y67494D01*
X12766Y67536D01*
X12769D01*
X12776Y67539D01*
X12787Y67546D01*
X12804Y67553D01*
X12825Y67560D01*
X12849Y67567D01*
X12877Y67577D01*
X12908Y67588D01*
X12978Y67605D01*
X13061Y67622D01*
X13151Y67633D01*
X13248Y67636D01*
X13269D01*
X13293Y67633D01*
D02*
G37*
G36*
X23814D02*
X23853Y67629D01*
X23898Y67622D01*
X23950Y67615D01*
X24005Y67605D01*
X24064Y67591D01*
X24123Y67574D01*
X24186Y67553D01*
X24248Y67528D01*
X24307Y67497D01*
X24366Y67463D01*
X24425Y67424D01*
X24477Y67379D01*
X24481Y67376D01*
X24488Y67369D01*
X24501Y67352D01*
X24519Y67334D01*
X24540Y67310D01*
X24564Y67279D01*
X24588Y67244D01*
X24616Y67202D01*
X24640Y67161D01*
X24665Y67112D01*
X24689Y67060D01*
X24710Y67005D01*
X24727Y66942D01*
X24741Y66880D01*
X24748Y66814D01*
X24751Y66744D01*
Y66741D01*
Y66734D01*
Y66724D01*
Y66706D01*
X24748Y66689D01*
Y66664D01*
X24741Y66612D01*
X24731Y66546D01*
X24717Y66477D01*
X24699Y66404D01*
X24671Y66331D01*
Y66328D01*
X24668Y66325D01*
X24665Y66311D01*
X24658Y66297D01*
X24647Y66279D01*
X24637Y66259D01*
X24612Y66207D01*
X24578Y66148D01*
X24536Y66078D01*
X24484Y66002D01*
X24425Y65922D01*
X24418Y65915D01*
X24404Y65894D01*
X24373Y65863D01*
X24335Y65818D01*
X24307Y65790D01*
X24279Y65759D01*
X24245Y65728D01*
X24210Y65689D01*
X24168Y65651D01*
X24123Y65606D01*
X24075Y65561D01*
X24023Y65513D01*
X24019Y65509D01*
X24009Y65502D01*
X23995Y65488D01*
X23978Y65471D01*
X23953Y65450D01*
X23925Y65426D01*
X23866Y65370D01*
X23804Y65311D01*
X23745Y65252D01*
X23717Y65224D01*
X23693Y65200D01*
X23672Y65176D01*
X23655Y65158D01*
X23651Y65155D01*
X23641Y65145D01*
X23627Y65127D01*
X23610Y65106D01*
X23592Y65079D01*
X23572Y65051D01*
X23530Y64992D01*
X24751D01*
Y64423D01*
X22600D01*
Y64426D01*
X22603Y64437D01*
Y64454D01*
X22607Y64478D01*
X22614Y64506D01*
X22621Y64541D01*
X22628Y64579D01*
X22638Y64621D01*
X22666Y64714D01*
X22704Y64819D01*
X22749Y64926D01*
X22808Y65034D01*
X22812Y65037D01*
X22815Y65048D01*
X22829Y65065D01*
X22843Y65086D01*
X22864Y65113D01*
X22891Y65152D01*
X22923Y65190D01*
X22961Y65238D01*
X23002Y65290D01*
X23054Y65346D01*
X23110Y65412D01*
X23173Y65478D01*
X23242Y65551D01*
X23322Y65630D01*
X23405Y65714D01*
X23499Y65800D01*
X23502Y65804D01*
X23516Y65818D01*
X23537Y65839D01*
X23565Y65863D01*
X23599Y65894D01*
X23634Y65929D01*
X23676Y65970D01*
X23717Y66012D01*
X23808Y66099D01*
X23891Y66186D01*
X23925Y66224D01*
X23960Y66262D01*
X23988Y66297D01*
X24009Y66325D01*
Y66328D01*
X24016Y66331D01*
X24019Y66342D01*
X24030Y66356D01*
X24050Y66394D01*
X24075Y66442D01*
X24095Y66498D01*
X24116Y66560D01*
X24130Y66630D01*
X24137Y66699D01*
Y66703D01*
Y66710D01*
Y66720D01*
Y66734D01*
X24130Y66769D01*
X24123Y66817D01*
X24109Y66866D01*
X24092Y66918D01*
X24064Y66970D01*
X24026Y67015D01*
X24023Y67018D01*
X24005Y67032D01*
X23981Y67050D01*
X23946Y67071D01*
X23901Y67091D01*
X23849Y67109D01*
X23790Y67123D01*
X23721Y67126D01*
X23689D01*
X23655Y67119D01*
X23610Y67112D01*
X23561Y67098D01*
X23509Y67077D01*
X23457Y67046D01*
X23412Y67008D01*
X23408Y67001D01*
X23395Y66987D01*
X23377Y66960D01*
X23353Y66918D01*
X23332Y66866D01*
X23311Y66800D01*
X23294Y66720D01*
X23287Y66675D01*
X23283Y66626D01*
X22673Y66685D01*
Y66692D01*
X22676Y66706D01*
X22680Y66734D01*
X22687Y66769D01*
X22694Y66810D01*
X22704Y66859D01*
X22718Y66911D01*
X22735Y66966D01*
X22756Y67025D01*
X22780Y67084D01*
X22808Y67147D01*
X22839Y67206D01*
X22874Y67265D01*
X22916Y67320D01*
X22961Y67369D01*
X23013Y67414D01*
X23016Y67418D01*
X23027Y67424D01*
X23044Y67435D01*
X23065Y67449D01*
X23093Y67466D01*
X23127Y67483D01*
X23166Y67504D01*
X23211Y67525D01*
X23263Y67546D01*
X23315Y67567D01*
X23374Y67584D01*
X23440Y67601D01*
X23506Y67615D01*
X23578Y67626D01*
X23655Y67633D01*
X23735Y67636D01*
X23780D01*
X23814Y67633D01*
D02*
G37*
G36*
X19838D02*
X19876Y67629D01*
X19921Y67622D01*
X19973Y67615D01*
X20029Y67605D01*
X20088Y67591D01*
X20147Y67574D01*
X20209Y67553D01*
X20272Y67528D01*
X20331Y67497D01*
X20390Y67463D01*
X20448Y67424D01*
X20501Y67379D01*
X20504Y67376D01*
X20511Y67369D01*
X20525Y67352D01*
X20542Y67334D01*
X20563Y67310D01*
X20587Y67279D01*
X20612Y67244D01*
X20639Y67202D01*
X20664Y67161D01*
X20688Y67112D01*
X20712Y67060D01*
X20733Y67005D01*
X20750Y66942D01*
X20764Y66880D01*
X20771Y66814D01*
X20775Y66744D01*
Y66741D01*
Y66734D01*
Y66724D01*
Y66706D01*
X20771Y66689D01*
Y66664D01*
X20764Y66612D01*
X20754Y66546D01*
X20740Y66477D01*
X20723Y66404D01*
X20695Y66331D01*
Y66328D01*
X20691Y66325D01*
X20688Y66311D01*
X20681Y66297D01*
X20671Y66279D01*
X20660Y66259D01*
X20636Y66207D01*
X20601Y66148D01*
X20560Y66078D01*
X20507Y66002D01*
X20448Y65922D01*
X20442Y65915D01*
X20428Y65894D01*
X20396Y65863D01*
X20358Y65818D01*
X20331Y65790D01*
X20303Y65759D01*
X20268Y65728D01*
X20233Y65689D01*
X20192Y65651D01*
X20147Y65606D01*
X20098Y65561D01*
X20046Y65513D01*
X20042Y65509D01*
X20032Y65502D01*
X20018Y65488D01*
X20001Y65471D01*
X19977Y65450D01*
X19949Y65426D01*
X19890Y65370D01*
X19827Y65311D01*
X19768Y65252D01*
X19741Y65224D01*
X19716Y65200D01*
X19696Y65176D01*
X19678Y65158D01*
X19675Y65155D01*
X19664Y65145D01*
X19650Y65127D01*
X19633Y65106D01*
X19616Y65079D01*
X19595Y65051D01*
X19553Y64992D01*
X20775D01*
Y64423D01*
X18623D01*
Y64426D01*
X18627Y64437D01*
Y64454D01*
X18630Y64478D01*
X18637Y64506D01*
X18644Y64541D01*
X18651Y64579D01*
X18662Y64621D01*
X18689Y64714D01*
X18727Y64819D01*
X18772Y64926D01*
X18832Y65034D01*
X18835Y65037D01*
X18838Y65048D01*
X18852Y65065D01*
X18866Y65086D01*
X18887Y65113D01*
X18915Y65152D01*
X18946Y65190D01*
X18984Y65238D01*
X19026Y65290D01*
X19078Y65346D01*
X19133Y65412D01*
X19196Y65478D01*
X19265Y65551D01*
X19345Y65630D01*
X19428Y65714D01*
X19522Y65800D01*
X19525Y65804D01*
X19539Y65818D01*
X19560Y65839D01*
X19588Y65863D01*
X19623Y65894D01*
X19657Y65929D01*
X19699Y65970D01*
X19741Y66012D01*
X19831Y66099D01*
X19914Y66186D01*
X19949Y66224D01*
X19984Y66262D01*
X20011Y66297D01*
X20032Y66325D01*
Y66328D01*
X20039Y66331D01*
X20042Y66342D01*
X20053Y66356D01*
X20074Y66394D01*
X20098Y66442D01*
X20119Y66498D01*
X20140Y66560D01*
X20154Y66630D01*
X20161Y66699D01*
Y66703D01*
Y66710D01*
Y66720D01*
Y66734D01*
X20154Y66769D01*
X20147Y66817D01*
X20133Y66866D01*
X20115Y66918D01*
X20088Y66970D01*
X20050Y67015D01*
X20046Y67018D01*
X20029Y67032D01*
X20004Y67050D01*
X19970Y67071D01*
X19925Y67091D01*
X19873Y67109D01*
X19814Y67123D01*
X19744Y67126D01*
X19713D01*
X19678Y67119D01*
X19633Y67112D01*
X19584Y67098D01*
X19533Y67077D01*
X19480Y67046D01*
X19435Y67008D01*
X19432Y67001D01*
X19418Y66987D01*
X19401Y66960D01*
X19376Y66918D01*
X19355Y66866D01*
X19335Y66800D01*
X19317Y66720D01*
X19310Y66675D01*
X19307Y66626D01*
X18696Y66685D01*
Y66692D01*
X18700Y66706D01*
X18703Y66734D01*
X18710Y66769D01*
X18717Y66810D01*
X18727Y66859D01*
X18741Y66911D01*
X18759Y66966D01*
X18779Y67025D01*
X18804Y67084D01*
X18832Y67147D01*
X18863Y67206D01*
X18898Y67265D01*
X18939Y67320D01*
X18984Y67369D01*
X19036Y67414D01*
X19040Y67418D01*
X19050Y67424D01*
X19068Y67435D01*
X19088Y67449D01*
X19116Y67466D01*
X19151Y67483D01*
X19189Y67504D01*
X19234Y67525D01*
X19286Y67546D01*
X19338Y67567D01*
X19397Y67584D01*
X19463Y67601D01*
X19529Y67615D01*
X19602Y67626D01*
X19678Y67633D01*
X19758Y67636D01*
X19803D01*
X19838Y67633D01*
D02*
G37*
G36*
X17784Y64423D02*
X17169D01*
Y66730D01*
X17166Y66727D01*
X17155Y66717D01*
X17135Y66699D01*
X17110Y66678D01*
X17079Y66654D01*
X17038Y66623D01*
X16996Y66588D01*
X16944Y66553D01*
X16888Y66515D01*
X16829Y66477D01*
X16763Y66439D01*
X16694Y66401D01*
X16621Y66363D01*
X16541Y66328D01*
X16462Y66297D01*
X16378Y66265D01*
Y66824D01*
X16382D01*
X16389Y66828D01*
X16402Y66831D01*
X16420Y66838D01*
X16444Y66848D01*
X16468Y66859D01*
X16500Y66873D01*
X16534Y66890D01*
X16611Y66928D01*
X16698Y66980D01*
X16795Y67043D01*
X16899Y67119D01*
X16902Y67123D01*
X16913Y67129D01*
X16927Y67140D01*
X16944Y67157D01*
X16968Y67178D01*
X16992Y67206D01*
X17020Y67234D01*
X17051Y67268D01*
X17117Y67345D01*
X17180Y67431D01*
X17239Y67528D01*
X17263Y67581D01*
X17284Y67636D01*
X17784D01*
Y64423D01*
D02*
G37*
G36*
X10885Y67633D02*
X10923Y67629D01*
X10968Y67622D01*
X11021Y67615D01*
X11076Y67605D01*
X11135Y67591D01*
X11194Y67574D01*
X11257Y67553D01*
X11319Y67528D01*
X11378Y67497D01*
X11437Y67463D01*
X11496Y67424D01*
X11548Y67379D01*
X11552Y67376D01*
X11558Y67369D01*
X11572Y67352D01*
X11590Y67334D01*
X11610Y67310D01*
X11635Y67279D01*
X11659Y67244D01*
X11687Y67202D01*
X11711Y67161D01*
X11735Y67112D01*
X11760Y67060D01*
X11780Y67005D01*
X11798Y66942D01*
X11812Y66880D01*
X11819Y66814D01*
X11822Y66744D01*
Y66741D01*
Y66734D01*
Y66724D01*
Y66706D01*
X11819Y66689D01*
Y66664D01*
X11812Y66612D01*
X11801Y66546D01*
X11787Y66477D01*
X11770Y66404D01*
X11742Y66331D01*
Y66328D01*
X11739Y66325D01*
X11735Y66311D01*
X11728Y66297D01*
X11718Y66279D01*
X11708Y66259D01*
X11683Y66207D01*
X11649Y66148D01*
X11607Y66078D01*
X11555Y66002D01*
X11496Y65922D01*
X11489Y65915D01*
X11475Y65894D01*
X11444Y65863D01*
X11406Y65818D01*
X11378Y65790D01*
X11350Y65759D01*
X11315Y65728D01*
X11281Y65689D01*
X11239Y65651D01*
X11194Y65606D01*
X11146Y65561D01*
X11093Y65513D01*
X11090Y65509D01*
X11079Y65502D01*
X11066Y65488D01*
X11048Y65471D01*
X11024Y65450D01*
X10996Y65426D01*
X10937Y65370D01*
X10875Y65311D01*
X10816Y65252D01*
X10788Y65224D01*
X10764Y65200D01*
X10743Y65176D01*
X10726Y65158D01*
X10722Y65155D01*
X10712Y65145D01*
X10698Y65127D01*
X10680Y65106D01*
X10663Y65079D01*
X10642Y65051D01*
X10601Y64992D01*
X11822D01*
Y64423D01*
X9671D01*
Y64426D01*
X9674Y64437D01*
Y64454D01*
X9678Y64478D01*
X9685Y64506D01*
X9691Y64541D01*
X9698Y64579D01*
X9709Y64621D01*
X9737Y64714D01*
X9775Y64819D01*
X9820Y64926D01*
X9879Y65034D01*
X9882Y65037D01*
X9886Y65048D01*
X9900Y65065D01*
X9914Y65086D01*
X9934Y65113D01*
X9962Y65152D01*
X9993Y65190D01*
X10032Y65238D01*
X10073Y65290D01*
X10125Y65346D01*
X10181Y65412D01*
X10243Y65478D01*
X10313Y65551D01*
X10392Y65630D01*
X10476Y65714D01*
X10570Y65800D01*
X10573Y65804D01*
X10587Y65818D01*
X10608Y65839D01*
X10635Y65863D01*
X10670Y65894D01*
X10705Y65929D01*
X10746Y65970D01*
X10788Y66012D01*
X10878Y66099D01*
X10962Y66186D01*
X10996Y66224D01*
X11031Y66262D01*
X11059Y66297D01*
X11079Y66325D01*
Y66328D01*
X11086Y66331D01*
X11090Y66342D01*
X11100Y66356D01*
X11121Y66394D01*
X11146Y66442D01*
X11166Y66498D01*
X11187Y66560D01*
X11201Y66630D01*
X11208Y66699D01*
Y66703D01*
Y66710D01*
Y66720D01*
Y66734D01*
X11201Y66769D01*
X11194Y66817D01*
X11180Y66866D01*
X11163Y66918D01*
X11135Y66970D01*
X11097Y67015D01*
X11093Y67018D01*
X11076Y67032D01*
X11052Y67050D01*
X11017Y67071D01*
X10972Y67091D01*
X10920Y67109D01*
X10861Y67123D01*
X10791Y67126D01*
X10760D01*
X10726Y67119D01*
X10680Y67112D01*
X10632Y67098D01*
X10580Y67077D01*
X10528Y67046D01*
X10483Y67008D01*
X10479Y67001D01*
X10465Y66987D01*
X10448Y66960D01*
X10424Y66918D01*
X10403Y66866D01*
X10382Y66800D01*
X10365Y66720D01*
X10358Y66675D01*
X10354Y66626D01*
X9744Y66685D01*
Y66692D01*
X9747Y66706D01*
X9751Y66734D01*
X9758Y66769D01*
X9764Y66810D01*
X9775Y66859D01*
X9789Y66911D01*
X9806Y66966D01*
X9827Y67025D01*
X9851Y67084D01*
X9879Y67147D01*
X9910Y67206D01*
X9945Y67265D01*
X9986Y67320D01*
X10032Y67369D01*
X10084Y67414D01*
X10087Y67418D01*
X10097Y67424D01*
X10115Y67435D01*
X10136Y67449D01*
X10164Y67466D01*
X10198Y67483D01*
X10236Y67504D01*
X10281Y67525D01*
X10334Y67546D01*
X10385Y67567D01*
X10445Y67584D01*
X10510Y67601D01*
X10576Y67615D01*
X10649Y67626D01*
X10726Y67633D01*
X10805Y67636D01*
X10851D01*
X10885Y67633D01*
D02*
G37*
G36*
X5909D02*
X5947Y67629D01*
X5993Y67622D01*
X6045Y67615D01*
X6100Y67605D01*
X6159Y67591D01*
X6218Y67574D01*
X6280Y67553D01*
X6343Y67528D01*
X6402Y67497D01*
X6461Y67463D01*
X6520Y67424D01*
X6572Y67379D01*
X6576Y67376D01*
X6582Y67369D01*
X6596Y67352D01*
X6614Y67334D01*
X6634Y67310D01*
X6659Y67279D01*
X6683Y67244D01*
X6711Y67202D01*
X6735Y67161D01*
X6759Y67112D01*
X6784Y67060D01*
X6804Y67005D01*
X6822Y66942D01*
X6836Y66880D01*
X6843Y66814D01*
X6846Y66744D01*
Y66741D01*
Y66734D01*
Y66724D01*
Y66706D01*
X6843Y66689D01*
Y66664D01*
X6836Y66612D01*
X6825Y66546D01*
X6811Y66477D01*
X6794Y66404D01*
X6766Y66331D01*
Y66328D01*
X6763Y66325D01*
X6759Y66311D01*
X6752Y66297D01*
X6742Y66279D01*
X6732Y66259D01*
X6707Y66207D01*
X6673Y66148D01*
X6631Y66078D01*
X6579Y66002D01*
X6520Y65922D01*
X6513Y65915D01*
X6499Y65894D01*
X6468Y65863D01*
X6430Y65818D01*
X6402Y65790D01*
X6374Y65759D01*
X6340Y65728D01*
X6305Y65689D01*
X6263Y65651D01*
X6218Y65606D01*
X6169Y65561D01*
X6117Y65513D01*
X6114Y65509D01*
X6104Y65502D01*
X6090Y65488D01*
X6072Y65471D01*
X6048Y65450D01*
X6020Y65426D01*
X5961Y65370D01*
X5899Y65311D01*
X5840Y65252D01*
X5812Y65224D01*
X5788Y65200D01*
X5767Y65176D01*
X5750Y65158D01*
X5746Y65155D01*
X5736Y65145D01*
X5722Y65127D01*
X5705Y65106D01*
X5687Y65079D01*
X5666Y65051D01*
X5625Y64992D01*
X6846D01*
Y64423D01*
X4695D01*
Y64426D01*
X4698Y64437D01*
Y64454D01*
X4702Y64478D01*
X4709Y64506D01*
X4716Y64541D01*
X4722Y64579D01*
X4733Y64621D01*
X4761Y64714D01*
X4799Y64819D01*
X4844Y64926D01*
X4903Y65034D01*
X4906Y65037D01*
X4910Y65048D01*
X4924Y65065D01*
X4938Y65086D01*
X4958Y65113D01*
X4986Y65152D01*
X5017Y65190D01*
X5056Y65238D01*
X5097Y65290D01*
X5149Y65346D01*
X5205Y65412D01*
X5267Y65478D01*
X5337Y65551D01*
X5416Y65630D01*
X5500Y65714D01*
X5593Y65800D01*
X5597Y65804D01*
X5611Y65818D01*
X5632Y65839D01*
X5659Y65863D01*
X5694Y65894D01*
X5729Y65929D01*
X5770Y65970D01*
X5812Y66012D01*
X5902Y66099D01*
X5986Y66186D01*
X6020Y66224D01*
X6055Y66262D01*
X6083Y66297D01*
X6104Y66325D01*
Y66328D01*
X6111Y66331D01*
X6114Y66342D01*
X6124Y66356D01*
X6145Y66394D01*
X6169Y66442D01*
X6190Y66498D01*
X6211Y66560D01*
X6225Y66630D01*
X6232Y66699D01*
Y66703D01*
Y66710D01*
Y66720D01*
Y66734D01*
X6225Y66769D01*
X6218Y66817D01*
X6204Y66866D01*
X6187Y66918D01*
X6159Y66970D01*
X6121Y67015D01*
X6117Y67018D01*
X6100Y67032D01*
X6076Y67050D01*
X6041Y67071D01*
X5996Y67091D01*
X5944Y67109D01*
X5885Y67123D01*
X5816Y67126D01*
X5784D01*
X5750Y67119D01*
X5705Y67112D01*
X5656Y67098D01*
X5604Y67077D01*
X5552Y67046D01*
X5507Y67008D01*
X5503Y67001D01*
X5489Y66987D01*
X5472Y66960D01*
X5448Y66918D01*
X5427Y66866D01*
X5406Y66800D01*
X5389Y66720D01*
X5382Y66675D01*
X5378Y66626D01*
X4768Y66685D01*
Y66692D01*
X4771Y66706D01*
X4775Y66734D01*
X4781Y66769D01*
X4788Y66810D01*
X4799Y66859D01*
X4813Y66911D01*
X4830Y66966D01*
X4851Y67025D01*
X4875Y67084D01*
X4903Y67147D01*
X4934Y67206D01*
X4969Y67265D01*
X5011Y67320D01*
X5056Y67369D01*
X5108Y67414D01*
X5111Y67418D01*
X5122Y67424D01*
X5139Y67435D01*
X5160Y67449D01*
X5187Y67466D01*
X5222Y67483D01*
X5260Y67504D01*
X5305Y67525D01*
X5358Y67546D01*
X5410Y67567D01*
X5469Y67584D01*
X5534Y67601D01*
X5600Y67615D01*
X5673Y67626D01*
X5750Y67633D01*
X5829Y67636D01*
X5875D01*
X5909Y67633D01*
D02*
G37*
G36*
X8342D02*
X8373D01*
X8411Y67626D01*
X8456Y67619D01*
X8508Y67608D01*
X8564Y67594D01*
X8619Y67577D01*
X8678Y67556D01*
X8741Y67528D01*
X8800Y67497D01*
X8859Y67459D01*
X8918Y67414D01*
X8973Y67362D01*
X9025Y67303D01*
X9029Y67299D01*
X9039Y67286D01*
X9053Y67261D01*
X9074Y67227D01*
X9098Y67185D01*
X9126Y67129D01*
X9154Y67067D01*
X9181Y66991D01*
X9209Y66907D01*
X9240Y66810D01*
X9265Y66703D01*
X9289Y66585D01*
X9310Y66456D01*
X9324Y66314D01*
X9334Y66161D01*
X9338Y65998D01*
Y65995D01*
Y65988D01*
Y65974D01*
Y65960D01*
Y65936D01*
X9334Y65912D01*
Y65884D01*
Y65849D01*
X9327Y65776D01*
X9320Y65689D01*
X9310Y65596D01*
X9299Y65495D01*
X9282Y65387D01*
X9261Y65280D01*
X9234Y65169D01*
X9206Y65061D01*
X9168Y64961D01*
X9126Y64860D01*
X9077Y64770D01*
X9022Y64690D01*
X9018Y64687D01*
X9011Y64676D01*
X8994Y64659D01*
X8973Y64638D01*
X8949Y64614D01*
X8914Y64586D01*
X8876Y64558D01*
X8834Y64527D01*
X8786Y64496D01*
X8730Y64468D01*
X8671Y64440D01*
X8605Y64416D01*
X8536Y64395D01*
X8460Y64378D01*
X8380Y64367D01*
X8297Y64364D01*
X8276D01*
X8252Y64367D01*
X8220Y64371D01*
X8179Y64374D01*
X8134Y64381D01*
X8082Y64395D01*
X8026Y64409D01*
X7967Y64426D01*
X7908Y64451D01*
X7846Y64482D01*
X7783Y64513D01*
X7721Y64555D01*
X7658Y64603D01*
X7599Y64659D01*
X7544Y64721D01*
X7540Y64725D01*
X7533Y64739D01*
X7516Y64759D01*
X7498Y64791D01*
X7478Y64832D01*
X7453Y64884D01*
X7429Y64947D01*
X7401Y65016D01*
X7374Y65100D01*
X7349Y65193D01*
X7325Y65297D01*
X7304Y65415D01*
X7287Y65544D01*
X7273Y65686D01*
X7262Y65839D01*
X7259Y66005D01*
Y66009D01*
Y66016D01*
Y66030D01*
Y66043D01*
Y66068D01*
X7262Y66092D01*
Y66120D01*
Y66151D01*
X7270Y66227D01*
X7276Y66311D01*
X7287Y66404D01*
X7297Y66505D01*
X7315Y66612D01*
X7335Y66720D01*
X7360Y66828D01*
X7391Y66935D01*
X7426Y67039D01*
X7467Y67136D01*
X7516Y67227D01*
X7571Y67307D01*
X7575Y67310D01*
X7585Y67320D01*
X7599Y67338D01*
X7620Y67358D01*
X7648Y67383D01*
X7679Y67411D01*
X7717Y67442D01*
X7759Y67473D01*
X7807Y67501D01*
X7863Y67532D01*
X7922Y67560D01*
X7988Y67584D01*
X8057Y67605D01*
X8134Y67622D01*
X8213Y67633D01*
X8297Y67636D01*
X8317D01*
X8342Y67633D01*
D02*
G37*
G36*
X39608Y67899D02*
X33392D01*
Y74101D01*
X39608D01*
Y67899D01*
D02*
G37*
G36*
X11008Y73154D02*
X11050Y73150D01*
X11098Y73146D01*
X11157Y73140D01*
X11223Y73129D01*
X11293Y73112D01*
X11365Y73094D01*
X11442Y73070D01*
X11522Y73042D01*
X11601Y73008D01*
X11681Y72970D01*
X11761Y72921D01*
X11834Y72869D01*
X11907Y72807D01*
X11910Y72803D01*
X11917Y72796D01*
X11928Y72786D01*
X11941Y72768D01*
X11962Y72747D01*
X11983Y72723D01*
X12004Y72692D01*
X12032Y72657D01*
X12056Y72616D01*
X12084Y72574D01*
X12111Y72525D01*
X12139Y72473D01*
X12163Y72414D01*
X12191Y72355D01*
X12216Y72289D01*
X12236Y72220D01*
X11598Y72067D01*
Y72071D01*
X11594Y72078D01*
X11591Y72092D01*
X11587Y72109D01*
X11581Y72130D01*
X11570Y72154D01*
X11546Y72210D01*
X11515Y72272D01*
X11473Y72338D01*
X11421Y72400D01*
X11358Y72460D01*
X11355Y72463D01*
X11351Y72466D01*
X11341Y72473D01*
X11327Y72484D01*
X11310Y72494D01*
X11289Y72505D01*
X11237Y72532D01*
X11171Y72560D01*
X11098Y72581D01*
X11015Y72598D01*
X10921Y72605D01*
X10887D01*
X10862Y72602D01*
X10831Y72598D01*
X10796Y72591D01*
X10758Y72584D01*
X10717Y72574D01*
X10671Y72560D01*
X10623Y72543D01*
X10574Y72522D01*
X10526Y72498D01*
X10477Y72466D01*
X10432Y72432D01*
X10383Y72394D01*
X10342Y72348D01*
X10338Y72345D01*
X10331Y72338D01*
X10321Y72321D01*
X10307Y72300D01*
X10290Y72272D01*
X10272Y72237D01*
X10251Y72196D01*
X10234Y72147D01*
X10213Y72095D01*
X10193Y72033D01*
X10175Y71967D01*
X10158Y71890D01*
X10144Y71807D01*
X10133Y71720D01*
X10127Y71623D01*
X10123Y71519D01*
Y71512D01*
Y71491D01*
Y71460D01*
X10127Y71422D01*
X10130Y71370D01*
X10133Y71314D01*
X10140Y71252D01*
X10151Y71183D01*
X10175Y71040D01*
X10193Y70971D01*
X10213Y70898D01*
X10238Y70829D01*
X10269Y70766D01*
X10300Y70707D01*
X10338Y70655D01*
X10342Y70652D01*
X10349Y70645D01*
X10362Y70631D01*
X10376Y70613D01*
X10401Y70596D01*
X10425Y70575D01*
X10456Y70551D01*
X10491Y70527D01*
X10529Y70502D01*
X10574Y70478D01*
X10619Y70457D01*
X10671Y70440D01*
X10723Y70423D01*
X10782Y70409D01*
X10845Y70402D01*
X10907Y70398D01*
X10932D01*
X10949Y70402D01*
X10973D01*
X10998Y70409D01*
X11060Y70419D01*
X11129Y70440D01*
X11202Y70468D01*
X11275Y70509D01*
X11313Y70534D01*
X11348Y70561D01*
X11351Y70565D01*
X11355Y70568D01*
X11365Y70579D01*
X11379Y70593D01*
X11393Y70610D01*
X11411Y70631D01*
X11431Y70658D01*
X11452Y70686D01*
X11473Y70721D01*
X11497Y70759D01*
X11518Y70801D01*
X11542Y70849D01*
X11563Y70898D01*
X11584Y70954D01*
X11601Y71016D01*
X11619Y71078D01*
X12247Y70884D01*
Y70877D01*
X12240Y70860D01*
X12233Y70836D01*
X12219Y70797D01*
X12202Y70756D01*
X12184Y70704D01*
X12160Y70648D01*
X12132Y70589D01*
X12101Y70527D01*
X12066Y70461D01*
X12025Y70395D01*
X11983Y70332D01*
X11934Y70266D01*
X11882Y70207D01*
X11827Y70152D01*
X11764Y70100D01*
X11761Y70096D01*
X11750Y70089D01*
X11730Y70076D01*
X11705Y70062D01*
X11671Y70041D01*
X11633Y70020D01*
X11587Y69996D01*
X11532Y69975D01*
X11476Y69951D01*
X11411Y69926D01*
X11341Y69906D01*
X11265Y69885D01*
X11185Y69871D01*
X11098Y69857D01*
X11008Y69850D01*
X10914Y69847D01*
X10887D01*
X10852Y69850D01*
X10807Y69854D01*
X10755Y69860D01*
X10692Y69871D01*
X10619Y69881D01*
X10543Y69902D01*
X10463Y69923D01*
X10376Y69954D01*
X10290Y69989D01*
X10203Y70030D01*
X10116Y70079D01*
X10029Y70138D01*
X9946Y70204D01*
X9866Y70280D01*
X9863Y70284D01*
X9849Y70301D01*
X9828Y70325D01*
X9804Y70360D01*
X9773Y70405D01*
X9738Y70457D01*
X9700Y70520D01*
X9662Y70593D01*
X9623Y70672D01*
X9585Y70763D01*
X9550Y70860D01*
X9519Y70967D01*
X9495Y71082D01*
X9474Y71203D01*
X9460Y71332D01*
X9457Y71470D01*
Y71474D01*
Y71481D01*
Y71491D01*
Y71505D01*
Y71526D01*
X9460Y71547D01*
X9464Y71602D01*
X9471Y71668D01*
X9478Y71748D01*
X9492Y71835D01*
X9509Y71925D01*
X9530Y72026D01*
X9557Y72126D01*
X9589Y72230D01*
X9630Y72334D01*
X9675Y72435D01*
X9731Y72532D01*
X9793Y72626D01*
X9866Y72713D01*
X9870Y72716D01*
X9887Y72734D01*
X9908Y72754D01*
X9943Y72782D01*
X9984Y72817D01*
X10033Y72855D01*
X10092Y72893D01*
X10158Y72935D01*
X10231Y72976D01*
X10314Y73018D01*
X10401Y73053D01*
X10498Y73088D01*
X10602Y73115D01*
X10713Y73140D01*
X10831Y73154D01*
X10952Y73157D01*
X10980D01*
X11008Y73154D01*
D02*
G37*
G36*
X17164Y70756D02*
X15956D01*
Y71370D01*
X17164D01*
Y70756D01*
D02*
G37*
G36*
X26418Y69902D02*
X25804D01*
Y72210D01*
X25801Y72206D01*
X25790Y72196D01*
X25769Y72178D01*
X25745Y72158D01*
X25714Y72133D01*
X25672Y72102D01*
X25631Y72067D01*
X25578Y72033D01*
X25523Y71995D01*
X25464Y71956D01*
X25398Y71918D01*
X25329Y71880D01*
X25256Y71842D01*
X25176Y71807D01*
X25096Y71776D01*
X25013Y71745D01*
Y72303D01*
X25016D01*
X25023Y72307D01*
X25037Y72310D01*
X25054Y72317D01*
X25079Y72328D01*
X25103Y72338D01*
X25134Y72352D01*
X25169Y72369D01*
X25245Y72407D01*
X25332Y72460D01*
X25429Y72522D01*
X25533Y72598D01*
X25537Y72602D01*
X25547Y72609D01*
X25561Y72619D01*
X25578Y72636D01*
X25603Y72657D01*
X25627Y72685D01*
X25655Y72713D01*
X25686Y72747D01*
X25752Y72824D01*
X25814Y72911D01*
X25873Y73008D01*
X25898Y73060D01*
X25918Y73115D01*
X26418D01*
Y69902D01*
D02*
G37*
G36*
X18954D02*
X18340D01*
Y72210D01*
X18337Y72206D01*
X18326Y72196D01*
X18305Y72178D01*
X18281Y72158D01*
X18250Y72133D01*
X18208Y72102D01*
X18167Y72067D01*
X18114Y72033D01*
X18059Y71995D01*
X18000Y71956D01*
X17934Y71918D01*
X17865Y71880D01*
X17792Y71842D01*
X17712Y71807D01*
X17632Y71776D01*
X17549Y71745D01*
Y72303D01*
X17552D01*
X17559Y72307D01*
X17573Y72310D01*
X17591Y72317D01*
X17615Y72328D01*
X17639Y72338D01*
X17670Y72352D01*
X17705Y72369D01*
X17781Y72407D01*
X17868Y72460D01*
X17965Y72522D01*
X18069Y72598D01*
X18073Y72602D01*
X18083Y72609D01*
X18097Y72619D01*
X18114Y72636D01*
X18139Y72657D01*
X18163Y72685D01*
X18191Y72713D01*
X18222Y72747D01*
X18288Y72824D01*
X18350Y72911D01*
X18409Y73008D01*
X18434Y73060D01*
X18455Y73115D01*
X18954D01*
Y69902D01*
D02*
G37*
G36*
X14252Y73101D02*
X14294D01*
X14388Y73098D01*
X14481Y73091D01*
X14572Y73081D01*
X14610Y73077D01*
X14648Y73070D01*
X14655D01*
X14665Y73067D01*
X14679Y73063D01*
X14714Y73056D01*
X14759Y73042D01*
X14811Y73025D01*
X14867Y73001D01*
X14926Y72973D01*
X14981Y72938D01*
X14985D01*
X14988Y72935D01*
X15005Y72921D01*
X15033Y72897D01*
X15068Y72869D01*
X15106Y72827D01*
X15148Y72782D01*
X15189Y72730D01*
X15227Y72671D01*
Y72668D01*
X15231Y72664D01*
X15238Y72654D01*
X15245Y72643D01*
X15259Y72609D01*
X15280Y72564D01*
X15297Y72508D01*
X15314Y72442D01*
X15325Y72373D01*
X15328Y72296D01*
Y72293D01*
Y72286D01*
Y72276D01*
X15325Y72258D01*
Y72237D01*
X15321Y72217D01*
X15314Y72161D01*
X15297Y72095D01*
X15276Y72026D01*
X15248Y71956D01*
X15207Y71883D01*
Y71880D01*
X15200Y71877D01*
X15193Y71866D01*
X15186Y71852D01*
X15158Y71821D01*
X15120Y71779D01*
X15071Y71734D01*
X15016Y71686D01*
X14950Y71640D01*
X14877Y71602D01*
X14881D01*
X14891Y71599D01*
X14905Y71592D01*
X14926Y71585D01*
X14950Y71575D01*
X14978Y71564D01*
X15044Y71533D01*
X15113Y71495D01*
X15189Y71443D01*
X15262Y71384D01*
X15325Y71311D01*
X15328Y71307D01*
X15332Y71301D01*
X15338Y71290D01*
X15349Y71276D01*
X15363Y71255D01*
X15377Y71231D01*
X15391Y71203D01*
X15404Y71176D01*
X15432Y71103D01*
X15460Y71023D01*
X15477Y70929D01*
X15484Y70881D01*
Y70829D01*
Y70825D01*
Y70818D01*
Y70808D01*
Y70790D01*
X15481Y70773D01*
X15477Y70749D01*
X15470Y70693D01*
X15460Y70627D01*
X15439Y70558D01*
X15415Y70482D01*
X15380Y70402D01*
Y70398D01*
X15377Y70391D01*
X15370Y70381D01*
X15363Y70367D01*
X15338Y70329D01*
X15307Y70284D01*
X15269Y70232D01*
X15221Y70176D01*
X15165Y70121D01*
X15102Y70072D01*
X15099D01*
X15096Y70069D01*
X15085Y70062D01*
X15071Y70051D01*
X15054Y70044D01*
X15033Y70034D01*
X14985Y70010D01*
X14922Y69982D01*
X14846Y69958D01*
X14762Y69937D01*
X14669Y69923D01*
X14651D01*
X14634Y69919D01*
X14613D01*
X14585Y69916D01*
X14551D01*
X14513Y69912D01*
X14464D01*
X14409Y69909D01*
X14346D01*
X14273Y69906D01*
X14103D01*
X14003Y69902D01*
X12802D01*
Y73105D01*
X14211D01*
X14252Y73101D01*
D02*
G37*
G36*
X7823D02*
X7878D01*
X7941Y73098D01*
X8072Y73094D01*
X8135Y73088D01*
X8197Y73084D01*
X8256Y73081D01*
X8308Y73074D01*
X8353Y73063D01*
X8392Y73056D01*
X8395D01*
X8405Y73053D01*
X8419Y73049D01*
X8437Y73042D01*
X8461Y73032D01*
X8489Y73022D01*
X8551Y72990D01*
X8624Y72949D01*
X8700Y72893D01*
X8742Y72859D01*
X8780Y72824D01*
X8818Y72786D01*
X8853Y72741D01*
X8857Y72737D01*
X8860Y72730D01*
X8870Y72716D01*
X8881Y72699D01*
X8898Y72675D01*
X8912Y72643D01*
X8929Y72612D01*
X8947Y72574D01*
X8964Y72529D01*
X8981Y72484D01*
X8999Y72432D01*
X9013Y72376D01*
X9023Y72317D01*
X9033Y72255D01*
X9037Y72185D01*
X9041Y72116D01*
Y72113D01*
Y72102D01*
Y72088D01*
Y72067D01*
X9037Y72043D01*
X9033Y72012D01*
X9030Y71981D01*
X9027Y71942D01*
X9013Y71866D01*
X8995Y71783D01*
X8968Y71700D01*
X8933Y71620D01*
Y71616D01*
X8929Y71613D01*
X8923Y71602D01*
X8912Y71588D01*
X8891Y71550D01*
X8860Y71505D01*
X8818Y71457D01*
X8773Y71405D01*
X8718Y71352D01*
X8659Y71304D01*
X8655D01*
X8652Y71301D01*
X8631Y71287D01*
X8600Y71266D01*
X8555Y71241D01*
X8506Y71217D01*
X8451Y71193D01*
X8388Y71172D01*
X8326Y71155D01*
X8322D01*
X8315Y71151D01*
X8301D01*
X8284Y71148D01*
X8260Y71144D01*
X8229Y71141D01*
X8194Y71137D01*
X8156Y71134D01*
X8111Y71127D01*
X8059Y71123D01*
X8003Y71120D01*
X7944Y71117D01*
X7878Y71113D01*
X7809D01*
X7732Y71110D01*
X7233D01*
Y69902D01*
X6587D01*
Y73105D01*
X7767D01*
X7823Y73101D01*
D02*
G37*
G36*
X28417Y73112D02*
X28448D01*
X28486Y73105D01*
X28532Y73098D01*
X28583Y73088D01*
X28639Y73074D01*
X28694Y73056D01*
X28754Y73036D01*
X28816Y73008D01*
X28875Y72976D01*
X28934Y72938D01*
X28993Y72893D01*
X29048Y72841D01*
X29100Y72782D01*
X29104Y72779D01*
X29114Y72765D01*
X29128Y72741D01*
X29149Y72706D01*
X29173Y72664D01*
X29201Y72609D01*
X29229Y72546D01*
X29257Y72470D01*
X29284Y72387D01*
X29316Y72289D01*
X29340Y72182D01*
X29364Y72064D01*
X29385Y71935D01*
X29399Y71793D01*
X29409Y71640D01*
X29413Y71477D01*
Y71474D01*
Y71467D01*
Y71453D01*
Y71439D01*
Y71415D01*
X29409Y71391D01*
Y71363D01*
Y71328D01*
X29402Y71255D01*
X29395Y71169D01*
X29385Y71075D01*
X29375Y70974D01*
X29357Y70867D01*
X29337Y70759D01*
X29309Y70648D01*
X29281Y70540D01*
X29243Y70440D01*
X29201Y70339D01*
X29153Y70249D01*
X29097Y70169D01*
X29094Y70166D01*
X29087Y70155D01*
X29069Y70138D01*
X29048Y70117D01*
X29024Y70093D01*
X28989Y70065D01*
X28951Y70037D01*
X28910Y70006D01*
X28861Y69975D01*
X28806Y69947D01*
X28747Y69919D01*
X28681Y69895D01*
X28611Y69874D01*
X28535Y69857D01*
X28455Y69847D01*
X28372Y69843D01*
X28351D01*
X28327Y69847D01*
X28295Y69850D01*
X28254Y69854D01*
X28209Y69860D01*
X28157Y69874D01*
X28101Y69888D01*
X28042Y69906D01*
X27983Y69930D01*
X27921Y69961D01*
X27858Y69992D01*
X27796Y70034D01*
X27733Y70082D01*
X27674Y70138D01*
X27619Y70201D01*
X27615Y70204D01*
X27608Y70218D01*
X27591Y70239D01*
X27574Y70270D01*
X27553Y70311D01*
X27529Y70364D01*
X27504Y70426D01*
X27477Y70495D01*
X27449Y70579D01*
X27424Y70672D01*
X27400Y70776D01*
X27379Y70894D01*
X27362Y71023D01*
X27348Y71165D01*
X27338Y71318D01*
X27334Y71484D01*
Y71488D01*
Y71495D01*
Y71509D01*
Y71523D01*
Y71547D01*
X27338Y71571D01*
Y71599D01*
Y71630D01*
X27345Y71706D01*
X27352Y71790D01*
X27362Y71883D01*
X27373Y71984D01*
X27390Y72092D01*
X27411Y72199D01*
X27435Y72307D01*
X27466Y72414D01*
X27501Y72518D01*
X27542Y72616D01*
X27591Y72706D01*
X27647Y72786D01*
X27650Y72789D01*
X27661Y72799D01*
X27674Y72817D01*
X27695Y72838D01*
X27723Y72862D01*
X27754Y72890D01*
X27792Y72921D01*
X27834Y72952D01*
X27883Y72980D01*
X27938Y73011D01*
X27997Y73039D01*
X28063Y73063D01*
X28132Y73084D01*
X28209Y73101D01*
X28288Y73112D01*
X28372Y73115D01*
X28393D01*
X28417Y73112D01*
D02*
G37*
G36*
X23441D02*
X23472D01*
X23510Y73105D01*
X23555Y73098D01*
X23607Y73088D01*
X23663Y73074D01*
X23719Y73056D01*
X23777Y73036D01*
X23840Y73008D01*
X23899Y72976D01*
X23958Y72938D01*
X24017Y72893D01*
X24072Y72841D01*
X24125Y72782D01*
X24128Y72779D01*
X24138Y72765D01*
X24152Y72741D01*
X24173Y72706D01*
X24197Y72664D01*
X24225Y72609D01*
X24253Y72546D01*
X24281Y72470D01*
X24308Y72387D01*
X24340Y72289D01*
X24364Y72182D01*
X24388Y72064D01*
X24409Y71935D01*
X24423Y71793D01*
X24433Y71640D01*
X24437Y71477D01*
Y71474D01*
Y71467D01*
Y71453D01*
Y71439D01*
Y71415D01*
X24433Y71391D01*
Y71363D01*
Y71328D01*
X24426Y71255D01*
X24419Y71169D01*
X24409Y71075D01*
X24399Y70974D01*
X24381Y70867D01*
X24361Y70759D01*
X24333Y70648D01*
X24305Y70540D01*
X24267Y70440D01*
X24225Y70339D01*
X24177Y70249D01*
X24121Y70169D01*
X24118Y70166D01*
X24111Y70155D01*
X24093Y70138D01*
X24072Y70117D01*
X24048Y70093D01*
X24013Y70065D01*
X23975Y70037D01*
X23934Y70006D01*
X23885Y69975D01*
X23830Y69947D01*
X23771Y69919D01*
X23705Y69895D01*
X23635Y69874D01*
X23559Y69857D01*
X23479Y69847D01*
X23396Y69843D01*
X23375D01*
X23351Y69847D01*
X23320Y69850D01*
X23278Y69854D01*
X23233Y69860D01*
X23181Y69874D01*
X23125Y69888D01*
X23066Y69906D01*
X23007Y69930D01*
X22945Y69961D01*
X22882Y69992D01*
X22820Y70034D01*
X22757Y70082D01*
X22698Y70138D01*
X22643Y70201D01*
X22639Y70204D01*
X22633Y70218D01*
X22615Y70239D01*
X22598Y70270D01*
X22577Y70311D01*
X22553Y70364D01*
X22528Y70426D01*
X22501Y70495D01*
X22473Y70579D01*
X22448Y70672D01*
X22424Y70776D01*
X22403Y70894D01*
X22386Y71023D01*
X22372Y71165D01*
X22362Y71318D01*
X22358Y71484D01*
Y71488D01*
Y71495D01*
Y71509D01*
Y71523D01*
Y71547D01*
X22362Y71571D01*
Y71599D01*
Y71630D01*
X22369Y71706D01*
X22376Y71790D01*
X22386Y71883D01*
X22397Y71984D01*
X22414Y72092D01*
X22435Y72199D01*
X22459Y72307D01*
X22490Y72414D01*
X22525Y72518D01*
X22567Y72616D01*
X22615Y72706D01*
X22671Y72786D01*
X22674Y72789D01*
X22684Y72799D01*
X22698Y72817D01*
X22719Y72838D01*
X22747Y72862D01*
X22778Y72890D01*
X22816Y72921D01*
X22858Y72952D01*
X22907Y72980D01*
X22962Y73011D01*
X23021Y73039D01*
X23087Y73063D01*
X23156Y73084D01*
X23233Y73101D01*
X23313Y73112D01*
X23396Y73115D01*
X23417D01*
X23441Y73112D01*
D02*
G37*
G36*
X20953D02*
X20984D01*
X21022Y73105D01*
X21068Y73098D01*
X21120Y73088D01*
X21175Y73074D01*
X21231Y73056D01*
X21290Y73036D01*
X21352Y73008D01*
X21411Y72976D01*
X21470Y72938D01*
X21529Y72893D01*
X21585Y72841D01*
X21637Y72782D01*
X21640Y72779D01*
X21650Y72765D01*
X21664Y72741D01*
X21685Y72706D01*
X21709Y72664D01*
X21737Y72609D01*
X21765Y72546D01*
X21793Y72470D01*
X21821Y72387D01*
X21852Y72289D01*
X21876Y72182D01*
X21900Y72064D01*
X21921Y71935D01*
X21935Y71793D01*
X21945Y71640D01*
X21949Y71477D01*
Y71474D01*
Y71467D01*
Y71453D01*
Y71439D01*
Y71415D01*
X21945Y71391D01*
Y71363D01*
Y71328D01*
X21938Y71255D01*
X21932Y71169D01*
X21921Y71075D01*
X21911Y70974D01*
X21893Y70867D01*
X21872Y70759D01*
X21845Y70648D01*
X21817Y70540D01*
X21779Y70440D01*
X21737Y70339D01*
X21689Y70249D01*
X21633Y70169D01*
X21630Y70166D01*
X21623Y70155D01*
X21605Y70138D01*
X21585Y70117D01*
X21560Y70093D01*
X21526Y70065D01*
X21487Y70037D01*
X21446Y70006D01*
X21397Y69975D01*
X21342Y69947D01*
X21283Y69919D01*
X21217Y69895D01*
X21147Y69874D01*
X21071Y69857D01*
X20991Y69847D01*
X20908Y69843D01*
X20887D01*
X20863Y69847D01*
X20831Y69850D01*
X20790Y69854D01*
X20745Y69860D01*
X20693Y69874D01*
X20637Y69888D01*
X20578Y69906D01*
X20519Y69930D01*
X20457Y69961D01*
X20394Y69992D01*
X20332Y70034D01*
X20269Y70082D01*
X20210Y70138D01*
X20155Y70201D01*
X20151Y70204D01*
X20144Y70218D01*
X20127Y70239D01*
X20110Y70270D01*
X20089Y70311D01*
X20065Y70364D01*
X20040Y70426D01*
X20013Y70495D01*
X19985Y70579D01*
X19961Y70672D01*
X19936Y70776D01*
X19915Y70894D01*
X19898Y71023D01*
X19884Y71165D01*
X19874Y71318D01*
X19870Y71484D01*
Y71488D01*
Y71495D01*
Y71509D01*
Y71523D01*
Y71547D01*
X19874Y71571D01*
Y71599D01*
Y71630D01*
X19881Y71706D01*
X19888Y71790D01*
X19898Y71883D01*
X19908Y71984D01*
X19926Y72092D01*
X19947Y72199D01*
X19971Y72307D01*
X20002Y72414D01*
X20037Y72518D01*
X20078Y72616D01*
X20127Y72706D01*
X20183Y72786D01*
X20186Y72789D01*
X20197Y72799D01*
X20210Y72817D01*
X20231Y72838D01*
X20259Y72862D01*
X20290Y72890D01*
X20328Y72921D01*
X20370Y72952D01*
X20419Y72980D01*
X20474Y73011D01*
X20533Y73039D01*
X20599Y73063D01*
X20668Y73084D01*
X20745Y73101D01*
X20825Y73112D01*
X20908Y73115D01*
X20929D01*
X20953Y73112D01*
D02*
G37*
G36*
X27886Y96299D02*
X27913Y96292D01*
X27955Y96272D01*
X28011Y96251D01*
X28066Y96223D01*
X28136Y96195D01*
X28212Y96161D01*
X28385Y96091D01*
X28580Y96008D01*
X28788Y95918D01*
X29003Y95827D01*
X29211Y95737D01*
X29419Y95647D01*
X29614Y95564D01*
X29787Y95487D01*
X29871Y95460D01*
X29940Y95425D01*
X30002Y95397D01*
X30058Y95376D01*
X30100Y95355D01*
X30134Y95335D01*
X30155Y95328D01*
X30162Y95321D01*
Y95307D01*
X27837Y94349D01*
X27816D01*
Y94370D01*
Y94377D01*
X27830Y94398D01*
X27844Y94425D01*
X27858Y94460D01*
X27879Y94509D01*
X27900Y94557D01*
X27948Y94668D01*
X27997Y94779D01*
X28038Y94877D01*
X28059Y94925D01*
X28066Y94960D01*
X28080Y94988D01*
Y95002D01*
X5185D01*
X5171Y95008D01*
X5157Y95022D01*
X5150Y95043D01*
Y95619D01*
Y95626D01*
X5157Y95640D01*
X5171Y95654D01*
X5192Y95661D01*
X28080D01*
X28073Y95675D01*
X28066Y95702D01*
X28059Y95723D01*
X28045Y95751D01*
X28032Y95786D01*
X28018Y95827D01*
X27997Y95883D01*
X27969Y95945D01*
X27941Y96015D01*
X27907Y96098D01*
X27865Y96188D01*
X27816Y96299D01*
X27858Y96313D01*
X27865D01*
X27886Y96299D01*
D02*
G37*
G36*
X27636Y91254D02*
X27643Y91240D01*
X27650Y91219D01*
Y90491D01*
Y90484D01*
X27643Y90470D01*
X27636Y90456D01*
X27615Y90449D01*
X26296D01*
X26283Y90456D01*
X26269Y90470D01*
X26262Y90491D01*
Y91219D01*
Y91226D01*
X26269Y91240D01*
X26283Y91254D01*
X26303Y91261D01*
X27622D01*
X27636Y91254D01*
D02*
G37*
G36*
X29898Y93516D02*
X29912Y93509D01*
X29919Y93489D01*
Y89103D01*
Y89096D01*
X29912Y89089D01*
X29905Y89075D01*
X29877Y89068D01*
X29052D01*
X29038Y89075D01*
X29024Y89082D01*
X29017Y89103D01*
Y92420D01*
X29003D01*
X28365Y92045D01*
X28358Y92059D01*
X28351Y92073D01*
X28344Y92094D01*
X28337Y92121D01*
X28330Y92163D01*
X28316Y92212D01*
X28302Y92267D01*
X28288Y92343D01*
X28274Y92434D01*
X28253Y92538D01*
X28240Y92656D01*
X28212Y92801D01*
X28191Y92961D01*
X28205Y92968D01*
X28233Y92989D01*
X28274Y93017D01*
X28337Y93051D01*
X28406Y93093D01*
X28490Y93142D01*
X28663Y93246D01*
X28837Y93343D01*
X28920Y93391D01*
X28996Y93433D01*
X29065Y93475D01*
X29121Y93502D01*
X29163Y93516D01*
X29184Y93523D01*
X29884D01*
X29898Y93516D01*
D02*
G37*
G36*
X21966Y93162D02*
X22007D01*
X22056Y93155D01*
X22105Y93142D01*
X22167Y93128D01*
X22306Y93086D01*
X22466Y93031D01*
X22639Y92947D01*
X22736Y92899D01*
X22833Y92836D01*
X22938Y92774D01*
X23035Y92697D01*
X23146Y92614D01*
X23250Y92524D01*
X23361Y92420D01*
X23472Y92309D01*
X23576Y92191D01*
X23687Y92052D01*
X23798Y91906D01*
X23909Y91754D01*
X24013Y91580D01*
X24117Y91400D01*
X24221Y91198D01*
X24326Y90990D01*
X24423Y90768D01*
X24520Y90525D01*
X24527Y90511D01*
X24534Y90497D01*
X24541Y90477D01*
X24554Y90442D01*
X24575Y90400D01*
X24596Y90345D01*
X24624Y90275D01*
X24652Y90192D01*
X24693Y90095D01*
X24735Y89984D01*
X24791Y89852D01*
X24846Y89706D01*
X24908Y89540D01*
X24985Y89345D01*
X25061Y89137D01*
X25151Y88908D01*
X25249Y88651D01*
X25359Y88367D01*
X25477Y88061D01*
X25540Y87895D01*
X25602Y87728D01*
X25672Y87548D01*
X25741Y87361D01*
X25811Y87166D01*
X25887Y86972D01*
X25970Y86764D01*
X26047Y86549D01*
X26130Y86326D01*
X26220Y86090D01*
X26310Y85855D01*
X26401Y85605D01*
X26498Y85348D01*
X26602Y85084D01*
X26706Y84807D01*
X26810Y84529D01*
X26921Y84238D01*
X27032Y83932D01*
X27150Y83620D01*
X27268Y83301D01*
X27393Y82974D01*
X27518Y82634D01*
X27650Y82287D01*
X27782Y81927D01*
X27747Y81913D01*
X26359D01*
X26352Y81920D01*
X26345Y81927D01*
X26338Y81947D01*
X26317Y81982D01*
X26296Y82031D01*
X26269Y82100D01*
X26234Y82190D01*
X26213Y82246D01*
X26185Y82308D01*
X26158Y82378D01*
X26130Y82454D01*
X26102Y82537D01*
X26067Y82627D01*
X26033Y82732D01*
X25991Y82843D01*
X25949Y82968D01*
X25901Y83099D01*
X25852Y83238D01*
X25797Y83391D01*
X25741Y83557D01*
X25686Y83731D01*
X25623Y83918D01*
X25554Y84120D01*
Y84127D01*
X25547Y84140D01*
X25540Y84161D01*
X25526Y84196D01*
X25505Y84238D01*
X25491Y84293D01*
X25464Y84349D01*
X25443Y84418D01*
X25408Y84494D01*
X25380Y84578D01*
X25346Y84675D01*
X25311Y84772D01*
X25269Y84876D01*
X25235Y84987D01*
X25144Y85237D01*
X25054Y85501D01*
X24950Y85792D01*
X24846Y86098D01*
X24742Y86424D01*
X24631Y86771D01*
X24520Y87125D01*
X24409Y87492D01*
X24298Y87867D01*
X24221D01*
Y87853D01*
X24207Y87819D01*
X24201Y87791D01*
X24194Y87763D01*
X24180Y87721D01*
X24173Y87673D01*
X24152Y87610D01*
X24138Y87548D01*
X24110Y87472D01*
X24090Y87388D01*
X24062Y87298D01*
X24027Y87194D01*
X23992Y87083D01*
X23958Y86958D01*
X23916Y86826D01*
X23867Y86680D01*
X23819Y86528D01*
X23763Y86361D01*
X23708Y86181D01*
X23638Y85986D01*
X23569Y85785D01*
X23500Y85563D01*
X23416Y85334D01*
X23333Y85091D01*
X23243Y84834D01*
X23153Y84557D01*
X23049Y84272D01*
X22944Y83967D01*
X22826Y83648D01*
X22708Y83315D01*
Y83308D01*
X22702Y83301D01*
X22695Y83280D01*
X22688Y83259D01*
X22660Y83190D01*
X22632Y83099D01*
X22591Y82995D01*
X22549Y82877D01*
X22507Y82752D01*
X22459Y82627D01*
X22410Y82496D01*
X22362Y82371D01*
X22320Y82253D01*
X22278Y82142D01*
X22243Y82051D01*
X22216Y81982D01*
X22195Y81933D01*
X22188Y81920D01*
X22181Y81913D01*
X20793D01*
X20758Y81927D01*
Y81933D01*
X20765Y81947D01*
X20779Y81968D01*
X20786Y82003D01*
X20807Y82045D01*
X20828Y82100D01*
X20849Y82156D01*
X20876Y82225D01*
X20904Y82301D01*
X20939Y82378D01*
X20974Y82468D01*
X21008Y82565D01*
X21091Y82773D01*
X21182Y83009D01*
X21279Y83259D01*
X21390Y83537D01*
X21501Y83821D01*
X21619Y84127D01*
X21744Y84439D01*
X21869Y84758D01*
X22126Y85417D01*
X22382Y86077D01*
X22507Y86403D01*
X22632Y86722D01*
X22750Y87034D01*
X22868Y87333D01*
X22979Y87617D01*
X23083Y87888D01*
X23180Y88145D01*
X23271Y88374D01*
X23347Y88582D01*
X23382Y88672D01*
X23416Y88762D01*
X23444Y88839D01*
X23472Y88915D01*
X23500Y88978D01*
X23520Y89040D01*
X23534Y89089D01*
X23548Y89123D01*
X23562Y89158D01*
X23569Y89179D01*
Y89311D01*
Y89318D01*
Y89332D01*
X23562Y89352D01*
X23555Y89387D01*
X23548Y89436D01*
X23534Y89498D01*
X23507Y89574D01*
X23479Y89665D01*
X23444Y89769D01*
X23395Y89894D01*
X23340Y90039D01*
X23271Y90206D01*
X23187Y90386D01*
X23090Y90595D01*
X22979Y90824D01*
X22854Y91074D01*
X22847Y91087D01*
X22826Y91115D01*
X22792Y91164D01*
X22750Y91219D01*
X22695Y91295D01*
X22625Y91372D01*
X22549Y91462D01*
X22466Y91552D01*
X22368Y91636D01*
X22271Y91726D01*
X22167Y91802D01*
X22049Y91878D01*
X21938Y91934D01*
X21813Y91983D01*
X21688Y92010D01*
X21563Y92024D01*
X21244D01*
Y92045D01*
Y92059D01*
X21251Y92094D01*
X21258Y92142D01*
X21265Y92212D01*
X21272Y92295D01*
X21286Y92385D01*
X21307Y92579D01*
X21334Y92774D01*
X21348Y92864D01*
X21362Y92947D01*
X21376Y93017D01*
X21390Y93065D01*
X21397Y93100D01*
X21411Y93114D01*
X21896Y93169D01*
X21938D01*
X21966Y93162D01*
D02*
G37*
G36*
X20425Y89450D02*
X20432Y89443D01*
X20439Y89422D01*
Y89408D01*
X20432Y89380D01*
X20425Y89325D01*
X20418Y89255D01*
X20404Y89179D01*
X20398Y89089D01*
X20370Y88901D01*
X20335Y88707D01*
X20321Y88617D01*
X20307Y88540D01*
X20286Y88471D01*
X20272Y88422D01*
X20266Y88388D01*
X20252Y88374D01*
X19239D01*
Y84363D01*
Y84355D01*
Y84342D01*
Y84321D01*
Y84293D01*
Y84258D01*
Y84210D01*
X19245Y84106D01*
Y83974D01*
X19252Y83821D01*
X19259Y83648D01*
X19266Y83467D01*
X19273Y83273D01*
X19287Y83072D01*
X19329Y82662D01*
X19350Y82461D01*
X19377Y82267D01*
X19412Y82086D01*
X19447Y81913D01*
X18135D01*
Y81920D01*
X18128Y81933D01*
X18114Y81961D01*
X18100Y81996D01*
X18079Y82051D01*
X18059Y82114D01*
X18038Y82190D01*
X18017Y82287D01*
X17989Y82398D01*
X17968Y82523D01*
X17948Y82669D01*
X17934Y82836D01*
X17913Y83016D01*
X17906Y83217D01*
X17892Y83446D01*
Y83689D01*
Y88374D01*
X15401D01*
Y88353D01*
Y88346D01*
Y88332D01*
Y88297D01*
Y88256D01*
Y88207D01*
X15394Y88145D01*
Y88068D01*
X15387Y87978D01*
Y87881D01*
X15380Y87770D01*
X15373Y87652D01*
X15359Y87527D01*
X15352Y87381D01*
X15338Y87236D01*
X15324Y87069D01*
X15310Y86902D01*
X15290Y86715D01*
X15269Y86528D01*
X15248Y86326D01*
X15220Y86111D01*
X15192Y85889D01*
X15165Y85660D01*
X15130Y85424D01*
X15095Y85175D01*
X15054Y84918D01*
X15012Y84647D01*
X14963Y84369D01*
X14915Y84085D01*
X14859Y83793D01*
X14804Y83495D01*
X14741Y83183D01*
X14672Y82863D01*
Y82857D01*
X14665Y82836D01*
X14651Y82801D01*
X14637Y82752D01*
X14623Y82697D01*
X14603Y82634D01*
X14554Y82496D01*
X14505Y82336D01*
X14450Y82176D01*
X14387Y82031D01*
X14360Y81968D01*
X14332Y81913D01*
X13055D01*
X13020Y81927D01*
X13027Y81940D01*
X13041Y81975D01*
X13062Y82038D01*
X13090Y82121D01*
X13124Y82225D01*
X13159Y82357D01*
X13208Y82509D01*
X13256Y82683D01*
X13312Y82877D01*
X13360Y83092D01*
X13423Y83321D01*
X13478Y83578D01*
X13541Y83849D01*
X13596Y84140D01*
X13659Y84453D01*
X13714Y84779D01*
Y84786D01*
X13721Y84807D01*
Y84841D01*
X13728Y84883D01*
X13735Y84939D01*
X13749Y85008D01*
X13756Y85084D01*
X13770Y85175D01*
X13784Y85265D01*
X13798Y85369D01*
X13811Y85480D01*
X13825Y85598D01*
X13860Y85855D01*
X13895Y86125D01*
X13922Y86410D01*
X13957Y86708D01*
X14013Y87305D01*
X14033Y87596D01*
X14054Y87874D01*
X14061Y88138D01*
X14068Y88374D01*
X13881D01*
X13798Y88367D01*
X13707D01*
X13603Y88360D01*
X13492D01*
X13256Y88339D01*
X13013Y88318D01*
X12770Y88284D01*
X12659Y88263D01*
X12555Y88242D01*
Y88249D01*
X12548Y88263D01*
X12534Y88304D01*
X12528Y88332D01*
X12514Y88367D01*
X12500Y88408D01*
X12486Y88464D01*
X12472Y88533D01*
X12451Y88610D01*
X12430Y88700D01*
X12403Y88797D01*
X12375Y88915D01*
X12347Y89047D01*
X12354Y89054D01*
X12375Y89068D01*
X12410Y89082D01*
X12458Y89109D01*
X12528Y89144D01*
X12604Y89179D01*
X12701Y89214D01*
X12805Y89255D01*
X12930Y89290D01*
X13076Y89325D01*
X13228Y89359D01*
X13402Y89394D01*
X13589Y89422D01*
X13798Y89436D01*
X14020Y89450D01*
X14255Y89456D01*
X20411D01*
X20425Y89450D01*
D02*
G37*
G36*
X8225Y92225D02*
X8273D01*
X8329Y92219D01*
X8384Y92212D01*
X8523Y92191D01*
X8683Y92163D01*
X8863Y92121D01*
X9050Y92066D01*
X9252Y91997D01*
X9460Y91906D01*
X9675Y91795D01*
X9883Y91663D01*
X10091Y91511D01*
X10293Y91330D01*
X10390Y91233D01*
X10487Y91122D01*
X10577Y91011D01*
X10661Y90886D01*
X10668Y90879D01*
X10681Y90851D01*
X10695Y90810D01*
X10723Y90761D01*
X10758Y90692D01*
X10792Y90615D01*
X10827Y90525D01*
X10869Y90421D01*
X10904Y90317D01*
X10938Y90199D01*
X11008Y89949D01*
X11035Y89817D01*
X11049Y89679D01*
X11063Y89540D01*
X11070Y89401D01*
Y89158D01*
Y89151D01*
Y89137D01*
Y89109D01*
X11063Y89075D01*
Y89026D01*
X11056Y88964D01*
X11042Y88901D01*
X11028Y88825D01*
X11015Y88735D01*
X10994Y88644D01*
X10966Y88540D01*
X10938Y88429D01*
X10904Y88311D01*
X10862Y88179D01*
X10813Y88048D01*
X10758Y87902D01*
X10695Y87749D01*
X10626Y87596D01*
X10543Y87430D01*
X10459Y87256D01*
X10362Y87083D01*
X10258Y86902D01*
X10140Y86708D01*
X10015Y86521D01*
X9876Y86320D01*
X9724Y86111D01*
X9564Y85903D01*
X9391Y85688D01*
X9203Y85473D01*
X9009Y85251D01*
X8794Y85022D01*
X8565Y84793D01*
X8558Y84786D01*
X8544Y84765D01*
X8509Y84737D01*
X8468Y84696D01*
X8405Y84633D01*
X8336Y84564D01*
X8252Y84481D01*
X8155Y84383D01*
X8037Y84272D01*
X7905Y84147D01*
X7760Y84002D01*
X7600Y83849D01*
X7420Y83675D01*
X7225Y83488D01*
X7010Y83287D01*
X6781Y83072D01*
Y83051D01*
X11306D01*
X11320Y83044D01*
X11327Y83037D01*
X11334Y83016D01*
Y81947D01*
Y81940D01*
X11327Y81933D01*
X11320Y81920D01*
X11299Y81913D01*
X4866D01*
X4859Y81920D01*
X4845Y81927D01*
X4838Y81947D01*
Y82732D01*
X4845Y82739D01*
X4880Y82773D01*
X4928Y82815D01*
X4991Y82877D01*
X5067Y82961D01*
X5164Y83051D01*
X5268Y83155D01*
X5386Y83273D01*
X5518Y83398D01*
X5657Y83530D01*
X5803Y83675D01*
X5948Y83828D01*
X6268Y84140D01*
X6601Y84467D01*
X6927Y84793D01*
X7246Y85112D01*
X7392Y85265D01*
X7538Y85410D01*
X7676Y85549D01*
X7808Y85681D01*
X7926Y85806D01*
X8030Y85917D01*
X8128Y86014D01*
X8204Y86104D01*
X8266Y86174D01*
X8315Y86229D01*
X8350Y86271D01*
X8357Y86292D01*
X8364Y86299D01*
X8370Y86313D01*
X8391Y86333D01*
X8412Y86361D01*
X8447Y86396D01*
X8482Y86444D01*
X8523Y86493D01*
X8565Y86549D01*
X8669Y86687D01*
X8780Y86840D01*
X8898Y87020D01*
X9023Y87215D01*
X9148Y87423D01*
X9266Y87638D01*
X9384Y87867D01*
X9481Y88110D01*
X9564Y88346D01*
X9634Y88589D01*
X9675Y88832D01*
X9682Y88950D01*
X9689Y89068D01*
Y89179D01*
Y89186D01*
Y89193D01*
Y89234D01*
X9682Y89304D01*
X9675Y89387D01*
X9654Y89491D01*
X9634Y89616D01*
X9599Y89748D01*
X9550Y89887D01*
X9495Y90033D01*
X9425Y90178D01*
X9335Y90324D01*
X9231Y90470D01*
X9106Y90609D01*
X8960Y90733D01*
X8794Y90844D01*
X8600Y90942D01*
X8592D01*
X8579Y90948D01*
X8558Y90956D01*
X8523Y90962D01*
X8482Y90976D01*
X8433Y90990D01*
X8315Y91018D01*
X8176Y91039D01*
X8023Y91066D01*
X7857Y91080D01*
X7683Y91087D01*
X7635D01*
X7579Y91080D01*
X7503Y91074D01*
X7406Y91060D01*
X7295Y91046D01*
X7163Y91018D01*
X7024Y90983D01*
X6864Y90935D01*
X6698Y90879D01*
X6524Y90817D01*
X6337Y90733D01*
X6143Y90636D01*
X5948Y90525D01*
X5747Y90393D01*
X5546Y90248D01*
X5511D01*
X5504Y90262D01*
X5490Y90289D01*
X5469Y90331D01*
X5449Y90393D01*
X5414Y90463D01*
X5379Y90546D01*
X5303Y90719D01*
X5227Y90893D01*
X5192Y90976D01*
X5157Y91053D01*
X5136Y91115D01*
X5116Y91164D01*
X5102Y91198D01*
X5095Y91219D01*
X5102D01*
X5109Y91233D01*
X5129Y91247D01*
X5150Y91261D01*
X5227Y91316D01*
X5324Y91379D01*
X5442Y91455D01*
X5581Y91538D01*
X5747Y91629D01*
X5928Y91726D01*
X6122Y91823D01*
X6337Y91913D01*
X6566Y91997D01*
X6802Y92073D01*
X7052Y92142D01*
X7316Y92191D01*
X7579Y92219D01*
X7850Y92232D01*
X8190D01*
X8225Y92225D01*
D02*
G37*
G36*
X16587Y79040D02*
X16615D01*
X16691Y79019D01*
X16782Y78977D01*
X16837Y78949D01*
X16886Y78908D01*
X16941Y78866D01*
X16997Y78811D01*
X17052Y78748D01*
X17101Y78672D01*
X17150Y78582D01*
X17198Y78484D01*
Y78477D01*
X17205Y78456D01*
X17212Y78422D01*
X17219Y78380D01*
X17226Y78290D01*
X17233Y78241D01*
Y78200D01*
Y76777D01*
Y76770D01*
X17226Y76763D01*
X17219Y76749D01*
X17198Y76742D01*
X17039D01*
X17031Y76749D01*
X17018Y76756D01*
X17011Y76777D01*
Y77804D01*
Y77811D01*
Y77839D01*
Y77881D01*
X17004Y77929D01*
Y77992D01*
X16997Y78061D01*
X16983Y78214D01*
X16948Y78373D01*
X16907Y78526D01*
X16879Y78588D01*
X16851Y78651D01*
X16809Y78693D01*
X16768Y78727D01*
X16761Y78734D01*
X16747Y78741D01*
X16719Y78762D01*
X16678Y78783D01*
X16629Y78803D01*
X16567Y78824D01*
X16483Y78845D01*
X16393Y78859D01*
X16372D01*
X16344Y78852D01*
X16317D01*
X16233Y78831D01*
X16129Y78790D01*
X16074Y78762D01*
X16011Y78720D01*
X15956Y78679D01*
X15900Y78623D01*
X15845Y78561D01*
X15789Y78484D01*
X15741Y78394D01*
X15699Y78297D01*
Y78290D01*
Y78262D01*
X15692Y78221D01*
Y78172D01*
X15685Y78068D01*
X15678Y78019D01*
Y77978D01*
Y76777D01*
Y76770D01*
X15671Y76763D01*
X15664Y76749D01*
X15643Y76742D01*
X15484D01*
X15477Y76749D01*
X15463Y76756D01*
X15456Y76777D01*
Y77901D01*
Y77908D01*
Y77915D01*
Y77943D01*
Y77971D01*
Y78005D01*
Y78054D01*
Y78110D01*
Y78172D01*
X15449Y78241D01*
Y78318D01*
Y78408D01*
Y78505D01*
X15442Y78609D01*
Y78720D01*
Y78838D01*
X15435Y78970D01*
X15477Y78991D01*
X15630D01*
X15643Y78984D01*
X15657Y78970D01*
X15664Y78949D01*
Y78616D01*
X15678D01*
Y78623D01*
X15692Y78637D01*
X15706Y78658D01*
X15727Y78686D01*
X15782Y78755D01*
X15859Y78831D01*
X15963Y78908D01*
X16081Y78977D01*
X16143Y79005D01*
X16220Y79026D01*
X16296Y79040D01*
X16372Y79046D01*
X16567D01*
X16587Y79040D01*
D02*
G37*
G36*
X30086D02*
X30100Y79026D01*
X30106Y79005D01*
Y78859D01*
Y78852D01*
X30100Y78838D01*
X30093Y78824D01*
X30065Y78817D01*
X29968D01*
X29940Y78811D01*
X29898Y78803D01*
X29850Y78783D01*
X29801Y78762D01*
X29739Y78727D01*
X29683Y78686D01*
X29628Y78623D01*
X29572Y78554D01*
X29517Y78464D01*
X29468Y78359D01*
X29426Y78234D01*
X29399Y78096D01*
X29378Y77922D01*
X29371Y77735D01*
Y76777D01*
Y76770D01*
X29364Y76763D01*
X29357Y76749D01*
X29336Y76742D01*
X29177D01*
X29170Y76749D01*
X29156Y76756D01*
X29149Y76777D01*
Y77561D01*
Y77568D01*
Y77582D01*
Y77610D01*
Y77645D01*
Y77693D01*
Y77756D01*
Y77825D01*
Y77908D01*
X29142Y77999D01*
Y78103D01*
Y78221D01*
Y78346D01*
X29135Y78484D01*
Y78637D01*
Y78797D01*
X29128Y78970D01*
X29170Y78991D01*
X29322D01*
X29336Y78984D01*
X29350Y78970D01*
X29357Y78949D01*
Y78575D01*
X29371D01*
Y78582D01*
X29378Y78595D01*
X29392Y78616D01*
X29406Y78651D01*
X29454Y78727D01*
X29524Y78811D01*
X29607Y78901D01*
X29711Y78970D01*
X29766Y79005D01*
X29836Y79026D01*
X29898Y79040D01*
X29975Y79046D01*
X30072D01*
X30086Y79040D01*
D02*
G37*
G36*
X22951D02*
X22979D01*
X23055Y79019D01*
X23146Y78977D01*
X23194Y78942D01*
X23243Y78908D01*
X23298Y78859D01*
X23347Y78803D01*
X23395Y78734D01*
X23444Y78658D01*
X23486Y78568D01*
X23527Y78464D01*
Y78456D01*
X23534Y78443D01*
X23541Y78415D01*
X23548Y78380D01*
X23562Y78297D01*
X23569Y78200D01*
Y76777D01*
Y76770D01*
X23562Y76763D01*
X23555Y76749D01*
X23527Y76742D01*
X23375D01*
X23361Y76749D01*
X23347Y76756D01*
X23340Y76777D01*
Y77749D01*
Y77756D01*
Y77783D01*
Y77832D01*
X23333Y77887D01*
Y77950D01*
X23326Y78026D01*
X23305Y78200D01*
X23278Y78373D01*
X23257Y78456D01*
X23229Y78540D01*
X23201Y78609D01*
X23167Y78672D01*
X23132Y78727D01*
X23083Y78762D01*
X23076Y78769D01*
X23055Y78776D01*
X23021Y78790D01*
X22979Y78803D01*
X22875Y78838D01*
X22764Y78859D01*
X22743D01*
X22715Y78852D01*
X22681D01*
X22597Y78824D01*
X22549Y78803D01*
X22500Y78776D01*
X22445Y78741D01*
X22389Y78699D01*
X22334Y78644D01*
X22285Y78582D01*
X22237Y78505D01*
X22195Y78415D01*
X22153Y78318D01*
X22126Y78200D01*
Y76777D01*
Y76770D01*
X22119Y76763D01*
X22112Y76749D01*
X22084Y76742D01*
X21931D01*
X21917Y76749D01*
X21903Y76756D01*
X21896Y76777D01*
Y77901D01*
Y77908D01*
Y77936D01*
Y77971D01*
X21890Y78019D01*
Y78075D01*
X21883Y78144D01*
X21862Y78290D01*
X21827Y78443D01*
X21779Y78588D01*
X21751Y78651D01*
X21709Y78706D01*
X21667Y78748D01*
X21619Y78783D01*
X21612D01*
X21591Y78790D01*
X21563Y78803D01*
X21529Y78811D01*
X21439Y78838D01*
X21341Y78859D01*
X21320D01*
X21300Y78852D01*
X21272D01*
X21196Y78831D01*
X21098Y78790D01*
X21043Y78755D01*
X20994Y78720D01*
X20939Y78672D01*
X20890Y78616D01*
X20835Y78547D01*
X20786Y78470D01*
X20744Y78380D01*
X20703Y78276D01*
Y78269D01*
Y78241D01*
X20696Y78200D01*
Y78151D01*
X20689Y78040D01*
X20682Y77922D01*
Y76777D01*
Y76770D01*
X20675Y76763D01*
X20668Y76749D01*
X20647Y76742D01*
X20488D01*
X20481Y76749D01*
X20467Y76756D01*
X20460Y76777D01*
Y77901D01*
Y77908D01*
Y77915D01*
Y77943D01*
Y77971D01*
Y78005D01*
Y78054D01*
Y78110D01*
Y78172D01*
X20453Y78241D01*
Y78318D01*
Y78408D01*
Y78505D01*
X20446Y78609D01*
Y78720D01*
Y78838D01*
X20439Y78970D01*
X20474Y78991D01*
X20633D01*
X20647Y78984D01*
X20654Y78970D01*
X20661Y78949D01*
Y78616D01*
X20682D01*
Y78623D01*
X20696Y78637D01*
X20710Y78658D01*
X20724Y78686D01*
X20779Y78755D01*
X20855Y78831D01*
X20946Y78908D01*
X21057Y78977D01*
X21126Y79005D01*
X21189Y79026D01*
X21265Y79040D01*
X21341Y79046D01*
X21501D01*
X21542Y79040D01*
X21612Y79019D01*
X21688Y78991D01*
X21779Y78929D01*
X21827Y78894D01*
X21876Y78845D01*
X21917Y78797D01*
X21966Y78727D01*
X22007Y78658D01*
X22049Y78575D01*
X22070D01*
Y78582D01*
X22084Y78595D01*
X22098Y78616D01*
X22119Y78651D01*
X22174Y78727D01*
X22250Y78811D01*
X22348Y78901D01*
X22466Y78970D01*
X22528Y79005D01*
X22597Y79026D01*
X22667Y79040D01*
X22743Y79046D01*
X22930D01*
X22951Y79040D01*
D02*
G37*
G36*
X8717Y79900D02*
X8724Y79886D01*
X8731Y79865D01*
Y79858D01*
X8724Y79831D01*
X8710Y79789D01*
X8690Y79734D01*
X8669Y79664D01*
X8648Y79588D01*
X8620Y79497D01*
X8592Y79393D01*
X8558Y79282D01*
X8523Y79164D01*
X8440Y78908D01*
X8357Y78630D01*
X8273Y78346D01*
X8183Y78054D01*
X8100Y77776D01*
X8023Y77513D01*
X7982Y77388D01*
X7947Y77277D01*
X7912Y77166D01*
X7885Y77069D01*
X7857Y76985D01*
X7829Y76909D01*
X7808Y76846D01*
X7794Y76798D01*
X7780Y76763D01*
X7774Y76742D01*
X7586D01*
Y76749D01*
X7579Y76756D01*
X7572Y76770D01*
X7565Y76791D01*
X7552Y76833D01*
X7531Y76881D01*
X7510Y76951D01*
X7489Y77041D01*
X7454Y77152D01*
X7420Y77284D01*
X7399Y77360D01*
X7378Y77443D01*
X7357Y77534D01*
X7329Y77638D01*
X7302Y77742D01*
X7274Y77860D01*
X7246Y77985D01*
X7211Y78117D01*
X7177Y78255D01*
X7142Y78408D01*
Y78422D01*
X7128Y78450D01*
X7114Y78498D01*
X7100Y78561D01*
X7080Y78637D01*
X7052Y78720D01*
X7024Y78817D01*
X7003Y78915D01*
X6948Y79116D01*
X6899Y79317D01*
X6885Y79407D01*
X6871Y79484D01*
X6858Y79553D01*
Y79609D01*
X6837D01*
Y79595D01*
X6830Y79574D01*
X6823Y79539D01*
X6809Y79484D01*
X6795Y79407D01*
X6781Y79359D01*
X6767Y79303D01*
X6753Y79248D01*
X6740Y79178D01*
X6719Y79102D01*
X6691Y79019D01*
X6670Y78929D01*
X6642Y78824D01*
X6608Y78713D01*
X6573Y78595D01*
X6538Y78464D01*
X6497Y78318D01*
X6455Y78165D01*
X6406Y78005D01*
X6351Y77825D01*
X6295Y77638D01*
X6240Y77436D01*
X6171Y77228D01*
X6108Y76999D01*
X6032Y76756D01*
X5997Y76742D01*
X5830D01*
Y76749D01*
X5823Y76756D01*
X5810Y76784D01*
X5803Y76819D01*
X5782Y76881D01*
X5754Y76957D01*
X5740Y77006D01*
X5726Y77069D01*
X5706Y77131D01*
X5685Y77200D01*
X5664Y77284D01*
X5643Y77374D01*
X5615Y77471D01*
X5581Y77582D01*
X5553Y77700D01*
X5518Y77832D01*
X5483Y77971D01*
X5442Y78130D01*
X5400Y78290D01*
X5351Y78470D01*
X5303Y78665D01*
X5247Y78873D01*
X5199Y79088D01*
X5136Y79324D01*
Y79331D01*
X5122Y79359D01*
X5109Y79407D01*
X5088Y79470D01*
X5067Y79546D01*
X5039Y79650D01*
X5012Y79768D01*
X4984Y79907D01*
X5192D01*
X5206Y79893D01*
X5213Y79872D01*
X5220Y79852D01*
X5234Y79824D01*
X5247Y79775D01*
X5261Y79727D01*
X5282Y79657D01*
X5303Y79574D01*
X5331Y79470D01*
X5359Y79352D01*
X5393Y79213D01*
X5428Y79053D01*
X5469Y78873D01*
Y78866D01*
X5483Y78838D01*
X5490Y78797D01*
X5511Y78741D01*
X5532Y78672D01*
X5553Y78582D01*
X5581Y78484D01*
X5615Y78373D01*
X5643Y78248D01*
X5678Y78110D01*
X5719Y77964D01*
X5754Y77804D01*
X5796Y77638D01*
X5837Y77457D01*
X5879Y77270D01*
X5921Y77075D01*
X5941D01*
Y77082D01*
X5948Y77103D01*
X5955Y77138D01*
X5969Y77193D01*
X5990Y77270D01*
X6011Y77360D01*
X6045Y77478D01*
X6087Y77624D01*
X6108Y77707D01*
X6129Y77797D01*
X6157Y77894D01*
X6184Y77999D01*
X6219Y78110D01*
X6254Y78228D01*
X6288Y78352D01*
X6330Y78491D01*
X6372Y78637D01*
X6413Y78790D01*
X6462Y78949D01*
X6510Y79123D01*
X6566Y79303D01*
X6622Y79497D01*
X6684Y79699D01*
X6746Y79907D01*
X6934D01*
X6948Y79900D01*
X6962Y79872D01*
X6969Y79852D01*
X6982Y79824D01*
X6996Y79789D01*
X7010Y79740D01*
X7031Y79692D01*
X7045Y79623D01*
X7066Y79546D01*
X7094Y79456D01*
X7114Y79352D01*
X7142Y79234D01*
Y79227D01*
X7149Y79213D01*
X7156Y79185D01*
X7163Y79150D01*
X7177Y79109D01*
X7191Y79053D01*
X7211Y78991D01*
X7225Y78929D01*
X7267Y78776D01*
X7316Y78609D01*
X7364Y78422D01*
X7413Y78234D01*
X7461Y78040D01*
X7510Y77846D01*
X7559Y77665D01*
X7600Y77492D01*
X7635Y77346D01*
X7649Y77277D01*
X7663Y77214D01*
X7670Y77166D01*
X7676Y77117D01*
X7683Y77082D01*
Y77055D01*
X7697D01*
Y77069D01*
X7711Y77103D01*
X7725Y77159D01*
X7746Y77242D01*
X7767Y77346D01*
X7801Y77471D01*
X7836Y77624D01*
X7885Y77790D01*
X7940Y77985D01*
X7996Y78200D01*
X8065Y78429D01*
X8134Y78686D01*
X8218Y78963D01*
X8308Y79255D01*
X8405Y79574D01*
X8509Y79907D01*
X8704D01*
X8717Y79900D01*
D02*
G37*
G36*
X12777Y78970D02*
Y78963D01*
X12770Y78949D01*
X12756Y78915D01*
X12743Y78880D01*
X12722Y78831D01*
X12701Y78769D01*
X12673Y78706D01*
X12645Y78637D01*
X12576Y78470D01*
X12500Y78290D01*
X12423Y78089D01*
X12340Y77887D01*
X12257Y77686D01*
X12174Y77485D01*
X12097Y77298D01*
X12028Y77124D01*
X11993Y77048D01*
X11965Y76978D01*
X11938Y76916D01*
X11917Y76860D01*
X11896Y76819D01*
X11882Y76784D01*
X11868Y76756D01*
X11861Y76742D01*
X11688D01*
X11674Y76756D01*
X11667Y76770D01*
X11653Y76784D01*
X11639Y76812D01*
X11625Y76846D01*
X11604Y76888D01*
X11584Y76937D01*
X11556Y77006D01*
X11521Y77082D01*
X11486Y77173D01*
X11452Y77284D01*
X11403Y77409D01*
X11355Y77547D01*
Y77554D01*
X11348Y77561D01*
X11341Y77575D01*
X11334Y77596D01*
X11313Y77631D01*
X11299Y77672D01*
X11271Y77735D01*
X11244Y77811D01*
X11202Y77908D01*
X11153Y78019D01*
X11105Y78158D01*
X11042Y78318D01*
X11008Y78415D01*
X10966Y78512D01*
X10931Y78616D01*
X10883Y78727D01*
X10841Y78845D01*
X10792Y78970D01*
X10827Y78991D01*
X11015D01*
Y78984D01*
X11022Y78977D01*
X11035Y78963D01*
X11049Y78929D01*
X11063Y78887D01*
X11091Y78824D01*
X11126Y78748D01*
X11167Y78637D01*
X11188Y78582D01*
X11216Y78512D01*
X11244Y78436D01*
X11278Y78352D01*
X11313Y78262D01*
X11348Y78158D01*
X11389Y78054D01*
X11431Y77936D01*
X11480Y77804D01*
X11528Y77672D01*
X11584Y77527D01*
X11639Y77367D01*
X11702Y77200D01*
X11764Y77020D01*
X11785D01*
Y77027D01*
X11792Y77041D01*
X11806Y77069D01*
X11820Y77103D01*
X11834Y77145D01*
X11854Y77200D01*
X11875Y77263D01*
X11903Y77325D01*
X11958Y77471D01*
X12021Y77638D01*
X12083Y77818D01*
X12153Y77999D01*
X12222Y78179D01*
X12291Y78359D01*
X12361Y78526D01*
X12416Y78672D01*
X12444Y78741D01*
X12472Y78803D01*
X12493Y78852D01*
X12514Y78901D01*
X12528Y78935D01*
X12541Y78963D01*
X12548Y78984D01*
X12555Y78991D01*
X12743D01*
X12777Y78970D01*
D02*
G37*
G36*
X19690Y78984D02*
X19703Y78970D01*
X19710Y78949D01*
Y77825D01*
Y77818D01*
Y77811D01*
Y77790D01*
Y77756D01*
Y77721D01*
Y77672D01*
Y77617D01*
Y77554D01*
Y77485D01*
X19717Y77409D01*
Y77318D01*
Y77221D01*
Y77117D01*
Y77006D01*
X19724Y76888D01*
Y76756D01*
X19690Y76742D01*
X19530D01*
X19523Y76749D01*
X19509Y76756D01*
X19502Y76777D01*
Y77110D01*
X19488Y77096D01*
X19467Y77075D01*
X19447Y77048D01*
X19384Y76978D01*
X19294Y76902D01*
X19190Y76826D01*
X19072Y76756D01*
X19003Y76728D01*
X18933Y76708D01*
X18864Y76694D01*
X18787Y76687D01*
X18642D01*
X18614Y76694D01*
X18579D01*
X18538Y76708D01*
X18496Y76722D01*
X18440Y76735D01*
X18385Y76763D01*
X18329Y76791D01*
X18274Y76833D01*
X18218Y76881D01*
X18163Y76937D01*
X18107Y77006D01*
X18059Y77089D01*
X18017Y77180D01*
X17982Y77284D01*
Y77291D01*
X17975Y77305D01*
X17968Y77332D01*
Y77367D01*
X17955Y77457D01*
X17948Y77547D01*
Y78949D01*
Y78956D01*
X17955Y78970D01*
X17968Y78984D01*
X17982Y78991D01*
X18142D01*
X18156Y78984D01*
X18163Y78970D01*
X18170Y78949D01*
Y78033D01*
Y78019D01*
Y77985D01*
Y77936D01*
X18177Y77867D01*
X18184Y77790D01*
X18191Y77700D01*
X18218Y77499D01*
X18260Y77305D01*
X18288Y77214D01*
X18322Y77131D01*
X18364Y77055D01*
X18413Y76999D01*
X18468Y76964D01*
X18531Y76944D01*
X18538Y76937D01*
X18544Y76930D01*
X18558Y76923D01*
X18586Y76909D01*
X18628Y76902D01*
X18676Y76895D01*
X18753Y76888D01*
X18774D01*
X18801Y76895D01*
X18836D01*
X18878Y76902D01*
X18926Y76916D01*
X19030Y76951D01*
X19086Y76978D01*
X19148Y77013D01*
X19204Y77055D01*
X19259Y77103D01*
X19315Y77159D01*
X19363Y77228D01*
X19405Y77305D01*
X19447Y77395D01*
Y77402D01*
X19454Y77416D01*
X19461Y77443D01*
X19467Y77478D01*
Y77534D01*
X19474Y77603D01*
X19481Y77686D01*
Y77790D01*
Y78949D01*
Y78956D01*
X19488Y78970D01*
X19502Y78984D01*
X19523Y78991D01*
X19676D01*
X19690Y78984D01*
D02*
G37*
G36*
X9758Y79040D02*
X9800Y79033D01*
X9849Y79026D01*
X9904Y79005D01*
X9960Y78977D01*
X10022Y78949D01*
X10085Y78908D01*
X10147Y78852D01*
X10203Y78790D01*
X10258Y78713D01*
X10307Y78623D01*
X10348Y78519D01*
X10376Y78394D01*
X10397Y78255D01*
Y77714D01*
Y77707D01*
Y77686D01*
Y77652D01*
Y77610D01*
Y77554D01*
Y77492D01*
X10404Y77353D01*
Y77200D01*
X10418Y77041D01*
X10425Y76888D01*
X10432Y76819D01*
X10439Y76756D01*
X10397Y76742D01*
X10251D01*
X10244Y76749D01*
X10230Y76756D01*
X10223Y76777D01*
X10210Y76819D01*
X10196Y76867D01*
X10189Y76944D01*
Y76985D01*
Y77034D01*
X10175Y77027D01*
X10133Y76985D01*
X10071Y76930D01*
X9994Y76867D01*
X9890Y76798D01*
X9772Y76742D01*
X9640Y76701D01*
X9571Y76694D01*
X9502Y76687D01*
X9335D01*
X9314Y76694D01*
X9286D01*
X9224Y76715D01*
X9141Y76749D01*
X9092Y76777D01*
X9050Y76812D01*
X9002Y76846D01*
X8953Y76895D01*
X8912Y76957D01*
X8863Y77020D01*
X8822Y77096D01*
X8787Y77187D01*
Y77305D01*
Y77311D01*
Y77325D01*
X8794Y77353D01*
Y77388D01*
X8808Y77429D01*
X8822Y77478D01*
X8835Y77534D01*
X8863Y77589D01*
X8898Y77652D01*
X8940Y77714D01*
X8988Y77776D01*
X9050Y77839D01*
X9120Y77894D01*
X9203Y77957D01*
X9293Y78005D01*
X9404Y78054D01*
X9418D01*
X9460Y78068D01*
X9529Y78075D01*
X9606Y78089D01*
X9696Y78103D01*
X9793Y78110D01*
X9883Y78123D01*
X10175D01*
Y78130D01*
Y78158D01*
X10168Y78193D01*
Y78241D01*
X10154Y78297D01*
X10147Y78359D01*
X10105Y78491D01*
X10071Y78561D01*
X10036Y78623D01*
X9987Y78686D01*
X9932Y78741D01*
X9862Y78790D01*
X9786Y78824D01*
X9696Y78852D01*
X9592Y78859D01*
X9578D01*
X9543Y78852D01*
X9488Y78845D01*
X9411Y78831D01*
X9328Y78811D01*
X9231Y78783D01*
X9134Y78741D01*
X9030Y78686D01*
Y78693D01*
X9016Y78699D01*
X8995Y78741D01*
X8967Y78797D01*
X8960Y78831D01*
X8953Y78859D01*
X8967Y78866D01*
X8995Y78887D01*
X9050Y78915D01*
X9113Y78942D01*
X9196Y78977D01*
X9293Y79012D01*
X9398Y79033D01*
X9516Y79046D01*
X9731D01*
X9758Y79040D01*
D02*
G37*
G36*
X27830D02*
X27872D01*
X27913Y79026D01*
X27962Y79012D01*
X28018Y78991D01*
X28073Y78963D01*
X28136Y78929D01*
X28198Y78880D01*
X28260Y78824D01*
X28323Y78762D01*
X28385Y78679D01*
X28434Y78588D01*
X28490Y78484D01*
X28531Y78366D01*
Y78359D01*
X28538Y78346D01*
X28545Y78318D01*
X28552Y78283D01*
X28559Y78200D01*
X28566Y78110D01*
Y77922D01*
Y77915D01*
X28559Y77901D01*
X28552Y77887D01*
X28531Y77881D01*
X26921D01*
Y77790D01*
Y77783D01*
Y77756D01*
X26928Y77721D01*
X26935Y77672D01*
X26942Y77610D01*
X26963Y77540D01*
X26983Y77471D01*
X27018Y77395D01*
X27053Y77318D01*
X27101Y77242D01*
X27164Y77166D01*
X27240Y77096D01*
X27324Y77034D01*
X27421Y76978D01*
X27539Y76937D01*
X27671Y76909D01*
X27886D01*
X27941Y76916D01*
X28011Y76923D01*
X28094Y76937D01*
X28184Y76957D01*
X28281Y76985D01*
X28378Y77020D01*
Y77013D01*
X28385Y77006D01*
X28413Y76964D01*
X28434Y76902D01*
X28441Y76833D01*
X28427Y76826D01*
X28392Y76812D01*
X28330Y76791D01*
X28253Y76770D01*
X28163Y76742D01*
X28059Y76722D01*
X27948Y76708D01*
X27837Y76701D01*
X27601D01*
X27566Y76708D01*
X27518Y76715D01*
X27469Y76728D01*
X27407Y76742D01*
X27338Y76770D01*
X27268Y76805D01*
X27192Y76846D01*
X27115Y76895D01*
X27039Y76964D01*
X26963Y77041D01*
X26893Y77131D01*
X26824Y77242D01*
X26761Y77367D01*
X26713Y77506D01*
Y77513D01*
X26706Y77534D01*
X26699Y77561D01*
Y77603D01*
X26692Y77652D01*
X26685Y77707D01*
X26678Y77825D01*
Y77832D01*
Y77867D01*
X26685Y77908D01*
X26692Y77971D01*
X26699Y78040D01*
X26713Y78123D01*
X26741Y78214D01*
X26768Y78304D01*
X26803Y78401D01*
X26852Y78505D01*
X26907Y78602D01*
X26977Y78699D01*
X27060Y78790D01*
X27150Y78873D01*
X27261Y78942D01*
X27386Y79005D01*
X27393D01*
X27407Y79012D01*
X27435Y79019D01*
X27462Y79026D01*
X27539Y79040D01*
X27615Y79046D01*
X27802D01*
X27830Y79040D01*
D02*
G37*
G36*
X14158D02*
X14200D01*
X14242Y79026D01*
X14290Y79012D01*
X14346Y78991D01*
X14401Y78963D01*
X14464Y78929D01*
X14526Y78880D01*
X14589Y78824D01*
X14651Y78762D01*
X14714Y78679D01*
X14762Y78588D01*
X14818Y78484D01*
X14859Y78366D01*
Y78359D01*
X14866Y78346D01*
X14873Y78318D01*
X14880Y78283D01*
X14887Y78200D01*
X14894Y78110D01*
Y77922D01*
Y77915D01*
X14887Y77901D01*
X14880Y77887D01*
X14859Y77881D01*
X13242D01*
Y77790D01*
Y77783D01*
Y77756D01*
X13249Y77721D01*
X13256Y77672D01*
X13263Y77610D01*
X13284Y77540D01*
X13305Y77471D01*
X13340Y77395D01*
X13374Y77318D01*
X13423Y77242D01*
X13485Y77166D01*
X13562Y77096D01*
X13645Y77034D01*
X13742Y76978D01*
X13860Y76937D01*
X13992Y76909D01*
X14214D01*
X14269Y76916D01*
X14339Y76923D01*
X14422Y76937D01*
X14512Y76957D01*
X14609Y76985D01*
X14707Y77020D01*
Y77013D01*
X14714Y77006D01*
X14734Y76964D01*
X14755Y76902D01*
X14762Y76833D01*
X14748Y76826D01*
X14714Y76812D01*
X14651Y76791D01*
X14582Y76770D01*
X14491Y76742D01*
X14387Y76722D01*
X14276Y76708D01*
X14165Y76701D01*
X13929D01*
X13895Y76708D01*
X13846Y76715D01*
X13798Y76728D01*
X13735Y76742D01*
X13666Y76770D01*
X13596Y76805D01*
X13520Y76846D01*
X13444Y76895D01*
X13367Y76964D01*
X13291Y77041D01*
X13221Y77131D01*
X13152Y77242D01*
X13090Y77367D01*
X13041Y77506D01*
Y77513D01*
X13034Y77534D01*
X13027Y77561D01*
X13020Y77603D01*
X13013Y77652D01*
X13006Y77707D01*
X12999Y77825D01*
Y77832D01*
Y77867D01*
X13006Y77908D01*
X13013Y77971D01*
X13020Y78040D01*
X13034Y78123D01*
X13062Y78214D01*
X13090Y78304D01*
X13124Y78401D01*
X13173Y78505D01*
X13235Y78602D01*
X13298Y78699D01*
X13381Y78790D01*
X13478Y78873D01*
X13589Y78942D01*
X13714Y79005D01*
X13721D01*
X13735Y79012D01*
X13763Y79019D01*
X13791Y79026D01*
X13867Y79040D01*
X13936Y79046D01*
X14131D01*
X14158Y79040D01*
D02*
G37*
G36*
X24485Y80067D02*
X24499Y80060D01*
X24506Y80039D01*
Y78595D01*
X24513Y78602D01*
X24520Y78616D01*
X24541Y78637D01*
X24561Y78665D01*
X24624Y78741D01*
X24714Y78824D01*
X24825Y78901D01*
X24957Y78977D01*
X25026Y79005D01*
X25103Y79026D01*
X25186Y79040D01*
X25269Y79046D01*
X25429D01*
X25464Y79040D01*
X25512Y79033D01*
X25568Y79019D01*
X25630Y78998D01*
X25700Y78970D01*
X25769Y78929D01*
X25845Y78880D01*
X25922Y78817D01*
X25998Y78741D01*
X26067Y78651D01*
X26137Y78547D01*
X26199Y78422D01*
X26255Y78276D01*
X26303Y78110D01*
Y77770D01*
Y77763D01*
Y77735D01*
X26296Y77693D01*
X26289Y77638D01*
X26276Y77575D01*
X26262Y77499D01*
X26234Y77416D01*
X26199Y77332D01*
X26151Y77242D01*
X26095Y77152D01*
X26026Y77055D01*
X25949Y76971D01*
X25852Y76888D01*
X25734Y76812D01*
X25609Y76742D01*
X25457Y76687D01*
X25158D01*
X25131Y76694D01*
X25047Y76708D01*
X24950Y76742D01*
X24839Y76791D01*
X24783Y76826D01*
X24721Y76867D01*
X24666Y76916D01*
X24610Y76978D01*
X24554Y77041D01*
X24506Y77117D01*
X24485D01*
Y77110D01*
Y77103D01*
Y77062D01*
Y76999D01*
X24478Y76930D01*
X24471Y76860D01*
X24464Y76798D01*
X24450Y76756D01*
X24437Y76749D01*
X24430Y76742D01*
X24298D01*
X24263Y76756D01*
Y76763D01*
Y76791D01*
Y76826D01*
Y76874D01*
Y76930D01*
X24270Y76999D01*
Y77075D01*
Y77159D01*
Y77325D01*
X24277Y77506D01*
Y77672D01*
Y77756D01*
Y77825D01*
Y80039D01*
Y80046D01*
X24284Y80060D01*
X24298Y80067D01*
X24318Y80074D01*
X24471D01*
X24485Y80067D01*
D02*
G37*
%LPC*%
G36*
X26275Y66043D02*
X26268D01*
X26247Y66040D01*
X26212Y66036D01*
X26171Y66026D01*
X26125Y66009D01*
X26073Y65984D01*
X26025Y65950D01*
X25976Y65905D01*
X25973Y65898D01*
X25959Y65880D01*
X25938Y65846D01*
X25917Y65800D01*
X25893Y65745D01*
X25876Y65672D01*
X25862Y65589D01*
X25855Y65495D01*
Y65492D01*
Y65481D01*
Y65467D01*
X25858Y65447D01*
Y65422D01*
X25862Y65391D01*
X25872Y65325D01*
X25890Y65252D01*
X25910Y65176D01*
X25945Y65100D01*
X25990Y65034D01*
X25997Y65027D01*
X26014Y65009D01*
X26042Y64982D01*
X26080Y64954D01*
X26129Y64926D01*
X26181Y64898D01*
X26240Y64881D01*
X26275Y64877D01*
X26306Y64874D01*
X26313D01*
X26334Y64877D01*
X26365Y64881D01*
X26406Y64891D01*
X26452Y64905D01*
X26497Y64929D01*
X26545Y64961D01*
X26590Y65006D01*
X26594Y65013D01*
X26608Y65030D01*
X26625Y65065D01*
X26636Y65086D01*
X26649Y65110D01*
X26660Y65138D01*
X26670Y65169D01*
X26677Y65204D01*
X26688Y65245D01*
X26695Y65287D01*
X26702Y65336D01*
X26705Y65384D01*
Y65440D01*
Y65443D01*
Y65453D01*
Y65471D01*
X26702Y65492D01*
Y65516D01*
X26698Y65547D01*
X26691Y65613D01*
X26674Y65689D01*
X26653Y65766D01*
X26622Y65835D01*
X26601Y65870D01*
X26580Y65898D01*
X26573Y65905D01*
X26559Y65922D01*
X26531Y65943D01*
X26497Y65970D01*
X26452Y65998D01*
X26400Y66019D01*
X26341Y66036D01*
X26275Y66043D01*
D02*
G37*
G36*
X8297Y67126D02*
X8279D01*
X8258Y67123D01*
X8231Y67116D01*
X8199Y67109D01*
X8165Y67095D01*
X8134Y67077D01*
X8099Y67053D01*
X8095Y67050D01*
X8085Y67039D01*
X8068Y67022D01*
X8050Y66994D01*
X8029Y66960D01*
X8005Y66918D01*
X7984Y66862D01*
X7964Y66800D01*
Y66796D01*
X7960Y66789D01*
X7957Y66776D01*
X7953Y66755D01*
X7950Y66727D01*
X7943Y66696D01*
X7939Y66654D01*
X7932Y66609D01*
X7925Y66557D01*
X7922Y66498D01*
X7915Y66432D01*
X7911Y66359D01*
X7908Y66283D01*
X7904Y66193D01*
X7901Y66099D01*
Y65998D01*
Y65991D01*
Y65974D01*
Y65946D01*
Y65908D01*
X7904Y65860D01*
Y65807D01*
Y65752D01*
X7908Y65689D01*
X7915Y65561D01*
X7925Y65433D01*
X7932Y65370D01*
X7939Y65315D01*
X7946Y65266D01*
X7957Y65221D01*
Y65218D01*
X7960Y65211D01*
X7964Y65200D01*
X7967Y65186D01*
X7977Y65152D01*
X7995Y65110D01*
X8016Y65061D01*
X8040Y65016D01*
X8068Y64975D01*
X8099Y64943D01*
X8102Y64940D01*
X8113Y64933D01*
X8134Y64923D01*
X8158Y64909D01*
X8186Y64895D01*
X8220Y64884D01*
X8255Y64877D01*
X8297Y64874D01*
X8314D01*
X8335Y64877D01*
X8363Y64884D01*
X8394Y64891D01*
X8428Y64902D01*
X8460Y64919D01*
X8494Y64943D01*
X8498Y64947D01*
X8508Y64957D01*
X8526Y64975D01*
X8543Y65002D01*
X8567Y65037D01*
X8588Y65079D01*
X8609Y65134D01*
X8630Y65197D01*
Y65200D01*
X8633Y65207D01*
X8637Y65221D01*
X8640Y65242D01*
X8644Y65270D01*
X8651Y65301D01*
X8658Y65339D01*
X8664Y65384D01*
X8668Y65436D01*
X8675Y65495D01*
X8682Y65561D01*
X8685Y65634D01*
X8689Y65714D01*
X8692Y65800D01*
X8696Y65898D01*
Y65998D01*
Y66005D01*
Y66023D01*
Y66050D01*
Y66088D01*
Y66134D01*
X8692Y66189D01*
Y66245D01*
X8689Y66307D01*
X8682Y66435D01*
X8671Y66560D01*
X8664Y66623D01*
X8658Y66678D01*
X8647Y66727D01*
X8637Y66772D01*
Y66776D01*
X8633Y66782D01*
X8630Y66793D01*
X8626Y66807D01*
X8616Y66842D01*
X8598Y66887D01*
X8578Y66935D01*
X8553Y66980D01*
X8526Y67022D01*
X8494Y67053D01*
X8491Y67057D01*
X8480Y67064D01*
X8460Y67077D01*
X8439Y67091D01*
X8408Y67102D01*
X8373Y67116D01*
X8338Y67123D01*
X8297Y67126D01*
D02*
G37*
G36*
X36825Y72601D02*
X36137D01*
X34892Y69399D01*
X35575D01*
X35842Y70127D01*
X37123D01*
X37404Y69399D01*
X38108D01*
X36825Y72601D01*
D02*
G37*
%LPD*%
G36*
X36918Y70669D02*
X36040D01*
X36474Y71855D01*
X36918Y70669D01*
D02*
G37*
%LPC*%
G36*
X14041Y72571D02*
X13447D01*
Y71831D01*
X14072D01*
X14152Y71835D01*
X14228D01*
X14263Y71838D01*
X14294D01*
X14322Y71842D01*
X14350D01*
X14370Y71845D01*
X14402Y71852D01*
X14436Y71863D01*
X14478Y71877D01*
X14523Y71897D01*
X14565Y71922D01*
X14603Y71953D01*
X14606Y71956D01*
X14617Y71970D01*
X14634Y71991D01*
X14651Y72022D01*
X14669Y72057D01*
X14686Y72102D01*
X14697Y72151D01*
X14700Y72206D01*
Y72213D01*
Y72230D01*
X14697Y72258D01*
X14690Y72289D01*
X14679Y72328D01*
X14665Y72369D01*
X14645Y72407D01*
X14617Y72446D01*
X14613Y72449D01*
X14603Y72460D01*
X14582Y72477D01*
X14554Y72494D01*
X14520Y72515D01*
X14478Y72532D01*
X14429Y72546D01*
X14370Y72557D01*
X14360D01*
X14350Y72560D01*
X14318D01*
X14294Y72564D01*
X14235D01*
X14193Y72567D01*
X14100D01*
X14041Y72571D01*
D02*
G37*
G36*
X14048Y71297D02*
X13447D01*
Y70443D01*
X14159D01*
X14232Y70447D01*
X14308D01*
X14381Y70450D01*
X14412Y70454D01*
X14443D01*
X14468Y70457D01*
X14488Y70461D01*
X14495D01*
X14513Y70468D01*
X14540Y70475D01*
X14572Y70489D01*
X14610Y70506D01*
X14648Y70527D01*
X14690Y70554D01*
X14724Y70589D01*
X14728Y70593D01*
X14738Y70606D01*
X14755Y70631D01*
X14773Y70662D01*
X14787Y70700D01*
X14804Y70745D01*
X14815Y70801D01*
X14818Y70860D01*
Y70867D01*
Y70884D01*
X14815Y70912D01*
X14808Y70943D01*
X14801Y70981D01*
X14787Y71023D01*
X14769Y71065D01*
X14745Y71103D01*
X14742Y71106D01*
X14731Y71120D01*
X14717Y71137D01*
X14693Y71158D01*
X14665Y71183D01*
X14631Y71207D01*
X14589Y71228D01*
X14544Y71248D01*
X14537Y71252D01*
X14530D01*
X14516Y71255D01*
X14499Y71259D01*
X14478Y71262D01*
X14454Y71269D01*
X14422Y71273D01*
X14388Y71276D01*
X14346Y71283D01*
X14298Y71287D01*
X14245Y71290D01*
X14187Y71293D01*
X14120D01*
X14048Y71297D01*
D02*
G37*
G36*
X7666Y72564D02*
X7233D01*
Y71651D01*
X7680D01*
X7715Y71654D01*
X7795Y71658D01*
X7878Y71661D01*
X7961Y71672D01*
X8003Y71679D01*
X8038Y71682D01*
X8069Y71693D01*
X8097Y71700D01*
X8104Y71703D01*
X8117Y71710D01*
X8142Y71720D01*
X8169Y71738D01*
X8201Y71762D01*
X8235Y71790D01*
X8270Y71821D01*
X8298Y71859D01*
X8301Y71863D01*
X8308Y71880D01*
X8322Y71901D01*
X8336Y71932D01*
X8350Y71967D01*
X8364Y72008D01*
X8371Y72057D01*
X8374Y72109D01*
Y72113D01*
Y72116D01*
Y72137D01*
X8367Y72171D01*
X8360Y72210D01*
X8350Y72255D01*
X8329Y72303D01*
X8305Y72352D01*
X8270Y72397D01*
X8267Y72400D01*
X8253Y72414D01*
X8229Y72435D01*
X8197Y72460D01*
X8163Y72484D01*
X8117Y72505D01*
X8065Y72525D01*
X8010Y72539D01*
X8003D01*
X7986Y72543D01*
X7972Y72546D01*
X7954D01*
X7933Y72550D01*
X7909Y72553D01*
X7878D01*
X7843Y72557D01*
X7805D01*
X7763Y72560D01*
X7718D01*
X7666Y72564D01*
D02*
G37*
G36*
X28372Y72605D02*
X28354D01*
X28334Y72602D01*
X28306Y72595D01*
X28275Y72588D01*
X28240Y72574D01*
X28209Y72557D01*
X28174Y72532D01*
X28171Y72529D01*
X28160Y72518D01*
X28143Y72501D01*
X28126Y72473D01*
X28105Y72439D01*
X28080Y72397D01*
X28060Y72342D01*
X28039Y72279D01*
Y72276D01*
X28035Y72269D01*
X28032Y72255D01*
X28028Y72234D01*
X28025Y72206D01*
X28018Y72175D01*
X28014Y72133D01*
X28008Y72088D01*
X28001Y72036D01*
X27997Y71977D01*
X27990Y71911D01*
X27987Y71838D01*
X27983Y71762D01*
X27980Y71672D01*
X27976Y71578D01*
Y71477D01*
Y71470D01*
Y71453D01*
Y71425D01*
Y71387D01*
X27980Y71339D01*
Y71287D01*
Y71231D01*
X27983Y71169D01*
X27990Y71040D01*
X28001Y70912D01*
X28008Y70849D01*
X28014Y70794D01*
X28021Y70745D01*
X28032Y70700D01*
Y70697D01*
X28035Y70690D01*
X28039Y70679D01*
X28042Y70666D01*
X28053Y70631D01*
X28070Y70589D01*
X28091Y70540D01*
X28115Y70495D01*
X28143Y70454D01*
X28174Y70423D01*
X28177Y70419D01*
X28188Y70412D01*
X28209Y70402D01*
X28233Y70388D01*
X28261Y70374D01*
X28295Y70364D01*
X28330Y70357D01*
X28372Y70353D01*
X28389D01*
X28410Y70357D01*
X28438Y70364D01*
X28469Y70371D01*
X28504Y70381D01*
X28535Y70398D01*
X28570Y70423D01*
X28573Y70426D01*
X28583Y70437D01*
X28601Y70454D01*
X28618Y70482D01*
X28642Y70516D01*
X28663Y70558D01*
X28684Y70613D01*
X28705Y70676D01*
Y70679D01*
X28708Y70686D01*
X28712Y70700D01*
X28715Y70721D01*
X28719Y70749D01*
X28726Y70780D01*
X28733Y70818D01*
X28740Y70863D01*
X28743Y70915D01*
X28750Y70974D01*
X28757Y71040D01*
X28760Y71113D01*
X28764Y71193D01*
X28767Y71280D01*
X28771Y71377D01*
Y71477D01*
Y71484D01*
Y71502D01*
Y71530D01*
Y71568D01*
Y71613D01*
X28767Y71668D01*
Y71724D01*
X28764Y71786D01*
X28757Y71915D01*
X28747Y72040D01*
X28740Y72102D01*
X28733Y72158D01*
X28722Y72206D01*
X28712Y72251D01*
Y72255D01*
X28708Y72262D01*
X28705Y72272D01*
X28701Y72286D01*
X28691Y72321D01*
X28674Y72366D01*
X28653Y72414D01*
X28629Y72460D01*
X28601Y72501D01*
X28570Y72532D01*
X28566Y72536D01*
X28556Y72543D01*
X28535Y72557D01*
X28514Y72571D01*
X28483Y72581D01*
X28448Y72595D01*
X28414Y72602D01*
X28372Y72605D01*
D02*
G37*
G36*
X23396D02*
X23379D01*
X23358Y72602D01*
X23330Y72595D01*
X23299Y72588D01*
X23264Y72574D01*
X23233Y72557D01*
X23198Y72532D01*
X23195Y72529D01*
X23184Y72518D01*
X23167Y72501D01*
X23149Y72473D01*
X23129Y72439D01*
X23104Y72397D01*
X23084Y72342D01*
X23063Y72279D01*
Y72276D01*
X23059Y72269D01*
X23056Y72255D01*
X23052Y72234D01*
X23049Y72206D01*
X23042Y72175D01*
X23038Y72133D01*
X23031Y72088D01*
X23025Y72036D01*
X23021Y71977D01*
X23014Y71911D01*
X23011Y71838D01*
X23007Y71762D01*
X23004Y71672D01*
X23000Y71578D01*
Y71477D01*
Y71470D01*
Y71453D01*
Y71425D01*
Y71387D01*
X23004Y71339D01*
Y71287D01*
Y71231D01*
X23007Y71169D01*
X23014Y71040D01*
X23025Y70912D01*
X23031Y70849D01*
X23038Y70794D01*
X23045Y70745D01*
X23056Y70700D01*
Y70697D01*
X23059Y70690D01*
X23063Y70679D01*
X23066Y70666D01*
X23077Y70631D01*
X23094Y70589D01*
X23115Y70540D01*
X23139Y70495D01*
X23167Y70454D01*
X23198Y70423D01*
X23201Y70419D01*
X23212Y70412D01*
X23233Y70402D01*
X23257Y70388D01*
X23285Y70374D01*
X23320Y70364D01*
X23354Y70357D01*
X23396Y70353D01*
X23413D01*
X23434Y70357D01*
X23462Y70364D01*
X23493Y70371D01*
X23528Y70381D01*
X23559Y70398D01*
X23594Y70423D01*
X23597Y70426D01*
X23607Y70437D01*
X23625Y70454D01*
X23642Y70482D01*
X23666Y70516D01*
X23687Y70558D01*
X23708Y70613D01*
X23729Y70676D01*
Y70679D01*
X23732Y70686D01*
X23736Y70700D01*
X23739Y70721D01*
X23743Y70749D01*
X23750Y70780D01*
X23757Y70818D01*
X23764Y70863D01*
X23767Y70915D01*
X23774Y70974D01*
X23781Y71040D01*
X23785Y71113D01*
X23788Y71193D01*
X23791Y71280D01*
X23795Y71377D01*
Y71477D01*
Y71484D01*
Y71502D01*
Y71530D01*
Y71568D01*
Y71613D01*
X23791Y71668D01*
Y71724D01*
X23788Y71786D01*
X23781Y71915D01*
X23771Y72040D01*
X23764Y72102D01*
X23757Y72158D01*
X23746Y72206D01*
X23736Y72251D01*
Y72255D01*
X23732Y72262D01*
X23729Y72272D01*
X23726Y72286D01*
X23715Y72321D01*
X23698Y72366D01*
X23677Y72414D01*
X23653Y72460D01*
X23625Y72501D01*
X23594Y72532D01*
X23590Y72536D01*
X23580Y72543D01*
X23559Y72557D01*
X23538Y72571D01*
X23507Y72581D01*
X23472Y72595D01*
X23438Y72602D01*
X23396Y72605D01*
D02*
G37*
G36*
X20908D02*
X20890D01*
X20870Y72602D01*
X20842Y72595D01*
X20811Y72588D01*
X20776Y72574D01*
X20745Y72557D01*
X20710Y72532D01*
X20707Y72529D01*
X20696Y72518D01*
X20679Y72501D01*
X20662Y72473D01*
X20641Y72439D01*
X20616Y72397D01*
X20596Y72342D01*
X20575Y72279D01*
Y72276D01*
X20571Y72269D01*
X20568Y72255D01*
X20564Y72234D01*
X20561Y72206D01*
X20554Y72175D01*
X20550Y72133D01*
X20543Y72088D01*
X20537Y72036D01*
X20533Y71977D01*
X20526Y71911D01*
X20523Y71838D01*
X20519Y71762D01*
X20516Y71672D01*
X20512Y71578D01*
Y71477D01*
Y71470D01*
Y71453D01*
Y71425D01*
Y71387D01*
X20516Y71339D01*
Y71287D01*
Y71231D01*
X20519Y71169D01*
X20526Y71040D01*
X20537Y70912D01*
X20543Y70849D01*
X20550Y70794D01*
X20557Y70745D01*
X20568Y70700D01*
Y70697D01*
X20571Y70690D01*
X20575Y70679D01*
X20578Y70666D01*
X20589Y70631D01*
X20606Y70589D01*
X20627Y70540D01*
X20651Y70495D01*
X20679Y70454D01*
X20710Y70423D01*
X20714Y70419D01*
X20724Y70412D01*
X20745Y70402D01*
X20769Y70388D01*
X20797Y70374D01*
X20831Y70364D01*
X20866Y70357D01*
X20908Y70353D01*
X20925D01*
X20946Y70357D01*
X20974Y70364D01*
X21005Y70371D01*
X21040Y70381D01*
X21071Y70398D01*
X21106Y70423D01*
X21109Y70426D01*
X21120Y70437D01*
X21137Y70454D01*
X21154Y70482D01*
X21179Y70516D01*
X21199Y70558D01*
X21220Y70613D01*
X21241Y70676D01*
Y70679D01*
X21245Y70686D01*
X21248Y70700D01*
X21251Y70721D01*
X21255Y70749D01*
X21262Y70780D01*
X21269Y70818D01*
X21276Y70863D01*
X21279Y70915D01*
X21286Y70974D01*
X21293Y71040D01*
X21296Y71113D01*
X21300Y71193D01*
X21303Y71280D01*
X21307Y71377D01*
Y71477D01*
Y71484D01*
Y71502D01*
Y71530D01*
Y71568D01*
Y71613D01*
X21303Y71668D01*
Y71724D01*
X21300Y71786D01*
X21293Y71915D01*
X21283Y72040D01*
X21276Y72102D01*
X21269Y72158D01*
X21258Y72206D01*
X21248Y72251D01*
Y72255D01*
X21245Y72262D01*
X21241Y72272D01*
X21238Y72286D01*
X21227Y72321D01*
X21210Y72366D01*
X21189Y72414D01*
X21165Y72460D01*
X21137Y72501D01*
X21106Y72532D01*
X21102Y72536D01*
X21092Y72543D01*
X21071Y72557D01*
X21050Y72571D01*
X21019Y72581D01*
X20984Y72595D01*
X20949Y72602D01*
X20908Y72605D01*
D02*
G37*
G36*
X10175Y77936D02*
X10105D01*
X10050Y77929D01*
X9980D01*
X9890Y77915D01*
X9800Y77901D01*
X9696Y77887D01*
X9592Y77860D01*
X9488Y77832D01*
X9384Y77790D01*
X9293Y77742D01*
X9203Y77686D01*
X9134Y77617D01*
X9078Y77534D01*
X9044Y77443D01*
X9030Y77339D01*
Y77332D01*
X9037Y77318D01*
Y77298D01*
X9044Y77270D01*
X9071Y77193D01*
X9113Y77110D01*
X9168Y77020D01*
X9245Y76951D01*
X9293Y76916D01*
X9349Y76895D01*
X9411Y76881D01*
X9481Y76874D01*
X9488D01*
X9509Y76881D01*
X9543Y76888D01*
X9592Y76895D01*
X9640Y76909D01*
X9703Y76930D01*
X9828Y76985D01*
X9890Y77027D01*
X9953Y77069D01*
X10015Y77124D01*
X10064Y77187D01*
X10112Y77256D01*
X10147Y77332D01*
X10168Y77422D01*
X10175Y77527D01*
Y77936D01*
D02*
G37*
G36*
X27671Y78859D02*
X27650D01*
X27615Y78852D01*
X27580Y78845D01*
X27539Y78838D01*
X27483Y78824D01*
X27428Y78797D01*
X27372Y78769D01*
X27310Y78734D01*
X27247Y78686D01*
X27185Y78630D01*
X27129Y78561D01*
X27074Y78477D01*
X27025Y78380D01*
X26977Y78269D01*
X26942Y78144D01*
Y78068D01*
X28323D01*
Y78110D01*
Y78117D01*
Y78137D01*
Y78165D01*
X28316Y78207D01*
X28309Y78255D01*
X28295Y78311D01*
X28260Y78429D01*
X28233Y78491D01*
X28198Y78554D01*
X28156Y78616D01*
X28101Y78672D01*
X28045Y78727D01*
X27976Y78769D01*
X27893Y78811D01*
X27802Y78838D01*
X27747D01*
X27698Y78845D01*
X27684Y78852D01*
X27671Y78859D01*
D02*
G37*
G36*
X13992D02*
X13971D01*
X13936Y78852D01*
X13902Y78845D01*
X13860Y78838D01*
X13804Y78824D01*
X13749Y78797D01*
X13693Y78769D01*
X13631Y78734D01*
X13568Y78686D01*
X13506Y78630D01*
X13451Y78561D01*
X13395Y78477D01*
X13346Y78380D01*
X13298Y78269D01*
X13263Y78144D01*
Y78068D01*
X14651D01*
Y78110D01*
Y78117D01*
Y78137D01*
Y78165D01*
X14644Y78207D01*
X14637Y78255D01*
X14623Y78311D01*
X14589Y78429D01*
X14561Y78491D01*
X14519Y78554D01*
X14478Y78616D01*
X14429Y78672D01*
X14367Y78727D01*
X14297Y78769D01*
X14214Y78811D01*
X14124Y78838D01*
X14068D01*
X14027Y78845D01*
X14006Y78852D01*
X13992Y78859D01*
D02*
G37*
G36*
X25290D02*
X25262D01*
X25235Y78852D01*
X25200D01*
X25151Y78838D01*
X25103Y78824D01*
X25040Y78803D01*
X24978Y78776D01*
X24915Y78741D01*
X24853Y78693D01*
X24791Y78637D01*
X24728Y78575D01*
X24666Y78491D01*
X24610Y78401D01*
X24561Y78297D01*
X24520Y78179D01*
Y78172D01*
Y78151D01*
X24513Y78123D01*
Y78082D01*
X24506Y77992D01*
Y77901D01*
Y77804D01*
Y77797D01*
Y77776D01*
Y77742D01*
X24513Y77693D01*
X24520Y77638D01*
X24534Y77575D01*
X24568Y77429D01*
X24589Y77360D01*
X24624Y77284D01*
X24666Y77207D01*
X24714Y77138D01*
X24770Y77075D01*
X24832Y77020D01*
X24908Y76971D01*
X24992Y76930D01*
X24999D01*
X25012Y76923D01*
X25033Y76916D01*
X25061Y76909D01*
X25103Y76902D01*
X25144Y76895D01*
X25255Y76874D01*
X25283D01*
X25311Y76881D01*
X25353Y76888D01*
X25394Y76895D01*
X25450Y76909D01*
X25512Y76930D01*
X25575Y76957D01*
X25637Y76992D01*
X25706Y77041D01*
X25769Y77096D01*
X25831Y77159D01*
X25894Y77235D01*
X25949Y77325D01*
X25998Y77429D01*
X26040Y77547D01*
X26074Y77881D01*
Y77887D01*
Y77908D01*
X26067Y77950D01*
Y77992D01*
X26054Y78047D01*
X26047Y78117D01*
X26005Y78262D01*
X25970Y78339D01*
X25936Y78415D01*
X25887Y78498D01*
X25831Y78575D01*
X25769Y78644D01*
X25686Y78706D01*
X25602Y78769D01*
X25498Y78817D01*
X25491D01*
X25471Y78824D01*
X25443D01*
X25408Y78831D01*
X25339Y78845D01*
X25311Y78852D01*
X25290Y78859D01*
D02*
G37*
%LPD*%
M02*
