%TF.GenerationSoftware,KiCad,Pcbnew,8.0.1*%
%TF.CreationDate,2024-05-22T13:21:10+02:00*%
%TF.ProjectId,FRDM-MCXx_Shield,4652444d-2d4d-4435-9878-5f536869656c,V2.0*%
%TF.SameCoordinates,Original*%
%TF.FileFunction,Soldermask,Top*%
%TF.FilePolarity,Negative*%
%FSLAX46Y46*%
G04 Gerber Fmt 4.6, Leading zero omitted, Abs format (unit mm)*
G04 Created by KiCad (PCBNEW 8.0.1) date 2024-05-22 13:21:10*
%MOMM*%
%LPD*%
G01*
G04 APERTURE LIST*
G04 Aperture macros list*
%AMRoundRect*
0 Rectangle with rounded corners*
0 $1 Rounding radius*
0 $2 $3 $4 $5 $6 $7 $8 $9 X,Y pos of 4 corners*
0 Add a 4 corners polygon primitive as box body*
4,1,4,$2,$3,$4,$5,$6,$7,$8,$9,$2,$3,0*
0 Add four circle primitives for the rounded corners*
1,1,$1+$1,$2,$3*
1,1,$1+$1,$4,$5*
1,1,$1+$1,$6,$7*
1,1,$1+$1,$8,$9*
0 Add four rect primitives between the rounded corners*
20,1,$1+$1,$2,$3,$4,$5,0*
20,1,$1+$1,$4,$5,$6,$7,0*
20,1,$1+$1,$6,$7,$8,$9,0*
20,1,$1+$1,$8,$9,$2,$3,0*%
G04 Aperture macros list end*
%ADD10C,0.000000*%
%ADD11RoundRect,0.250000X0.548008X0.088388X0.088388X0.548008X-0.548008X-0.088388X-0.088388X-0.548008X0*%
%ADD12R,1.000000X1.500000*%
%ADD13R,1.700000X1.700000*%
%ADD14O,1.700000X1.700000*%
%ADD15RoundRect,0.250000X0.088388X-0.548008X0.548008X-0.088388X-0.088388X0.548008X-0.548008X0.088388X0*%
%ADD16RoundRect,0.250000X-0.337500X-0.475000X0.337500X-0.475000X0.337500X0.475000X-0.337500X0.475000X0*%
%ADD17RoundRect,0.250000X-0.350000X-0.450000X0.350000X-0.450000X0.350000X0.450000X-0.350000X0.450000X0*%
%ADD18RoundRect,0.250000X0.337500X0.475000X-0.337500X0.475000X-0.337500X-0.475000X0.337500X-0.475000X0*%
%ADD19C,1.600000*%
%ADD20RoundRect,0.250000X-0.325000X-0.450000X0.325000X-0.450000X0.325000X0.450000X-0.325000X0.450000X0*%
%ADD21R,0.900000X0.900000*%
%ADD22RoundRect,0.250000X0.350000X0.450000X-0.350000X0.450000X-0.350000X-0.450000X0.350000X-0.450000X0*%
%ADD23RoundRect,0.150000X0.825000X0.150000X-0.825000X0.150000X-0.825000X-0.150000X0.825000X-0.150000X0*%
%ADD24RoundRect,0.250000X0.475000X-0.337500X0.475000X0.337500X-0.475000X0.337500X-0.475000X-0.337500X0*%
%ADD25RoundRect,0.250000X-0.548008X-0.088388X-0.088388X-0.548008X0.548008X0.088388X0.088388X0.548008X0*%
%ADD26RoundRect,0.250000X0.325000X0.450000X-0.325000X0.450000X-0.325000X-0.450000X0.325000X-0.450000X0*%
%ADD27C,1.650000*%
%ADD28C,4.500000*%
%ADD29C,2.200000*%
%ADD30R,1.525000X0.650000*%
%ADD31RoundRect,0.250000X-0.450000X0.325000X-0.450000X-0.325000X0.450000X-0.325000X0.450000X0.325000X0*%
%ADD32RoundRect,0.250000X0.450000X-0.325000X0.450000X0.325000X-0.450000X0.325000X-0.450000X-0.325000X0*%
%ADD33RoundRect,0.250000X-0.088388X0.548008X-0.548008X0.088388X0.088388X-0.548008X0.548008X-0.088388X0*%
%ADD34RoundRect,0.100000X0.637500X0.100000X-0.637500X0.100000X-0.637500X-0.100000X0.637500X-0.100000X0*%
G04 APERTURE END LIST*
D10*
%TO.C,G\u002A\u002A\u002A*%
G36*
X168324036Y-90369015D02*
G01*
X168375731Y-90389094D01*
X168419581Y-90424931D01*
X168452591Y-90475510D01*
X168458901Y-90490586D01*
X168471285Y-90546199D01*
X168467379Y-90598379D01*
X168449629Y-90645436D01*
X168420477Y-90685681D01*
X168382369Y-90717423D01*
X168337748Y-90738974D01*
X168289060Y-90748645D01*
X168238747Y-90744745D01*
X168189255Y-90725585D01*
X168143029Y-90689475D01*
X168130794Y-90675722D01*
X168100784Y-90625330D01*
X168087657Y-90571327D01*
X168090849Y-90517133D01*
X168109797Y-90466170D01*
X168143937Y-90421859D01*
X168192708Y-90387623D01*
X168209107Y-90380181D01*
X168267496Y-90365706D01*
X168324036Y-90369015D01*
G37*
G36*
X166564659Y-89584431D02*
G01*
X166575550Y-89599354D01*
X166589713Y-89637892D01*
X166584977Y-89675945D01*
X166561402Y-89711141D01*
X166532911Y-89739631D01*
X166400096Y-89739631D01*
X166383173Y-89739591D01*
X166322458Y-89738291D01*
X166277639Y-89734483D01*
X166245844Y-89727252D01*
X166224203Y-89715683D01*
X166209841Y-89698862D01*
X166199889Y-89675874D01*
X166197643Y-89668678D01*
X166193371Y-89639534D01*
X166200421Y-89611962D01*
X166206094Y-89599285D01*
X166217197Y-89581831D01*
X166232448Y-89569569D01*
X166254913Y-89561600D01*
X166287659Y-89557024D01*
X166333752Y-89554938D01*
X166396260Y-89554443D01*
X166539426Y-89554443D01*
X166564659Y-89584431D01*
G37*
G36*
X167505066Y-88403735D02*
G01*
X167530456Y-88432477D01*
X167530725Y-88432982D01*
X167536998Y-88452260D01*
X167541272Y-88483683D01*
X167543761Y-88529686D01*
X167544682Y-88592702D01*
X167545072Y-88727470D01*
X167516582Y-88755960D01*
X167498051Y-88771141D01*
X167461210Y-88784945D01*
X167423725Y-88779885D01*
X167388375Y-88755960D01*
X167359884Y-88727470D01*
X167359884Y-88584949D01*
X167359897Y-88562016D01*
X167360208Y-88512810D01*
X167361310Y-88478350D01*
X167363692Y-88455183D01*
X167367843Y-88439855D01*
X167374253Y-88428912D01*
X167383412Y-88418901D01*
X167397203Y-88407189D01*
X167433596Y-88390644D01*
X167471165Y-88389642D01*
X167505066Y-88403735D01*
G37*
G36*
X166634955Y-88731353D02*
G01*
X166646997Y-88732558D01*
X166659182Y-88736519D01*
X166673446Y-88744823D01*
X166691727Y-88759057D01*
X166715960Y-88780809D01*
X166748083Y-88811667D01*
X166790033Y-88853217D01*
X166843745Y-88907048D01*
X166854727Y-88918081D01*
X166906078Y-88969878D01*
X166945454Y-89010233D01*
X166974436Y-89041065D01*
X166994603Y-89064294D01*
X167007538Y-89081839D01*
X167014820Y-89095620D01*
X167018030Y-89107557D01*
X167018749Y-89119568D01*
X167014868Y-89146042D01*
X166995782Y-89180654D01*
X166964450Y-89204454D01*
X166925010Y-89213307D01*
X166922685Y-89213290D01*
X166910833Y-89212228D01*
X166898699Y-89208381D01*
X166884364Y-89200169D01*
X166865908Y-89186011D01*
X166841413Y-89164326D01*
X166808957Y-89133534D01*
X166766623Y-89092053D01*
X166712490Y-89038304D01*
X166687645Y-89013551D01*
X166639310Y-88965154D01*
X166602570Y-88927684D01*
X166575837Y-88899204D01*
X166557525Y-88877778D01*
X166546045Y-88861468D01*
X166539811Y-88848339D01*
X166537234Y-88836454D01*
X166536728Y-88823875D01*
X166539534Y-88798935D01*
X166556860Y-88763145D01*
X166587683Y-88739699D01*
X166629317Y-88731287D01*
X166634955Y-88731353D01*
G37*
G36*
X166395371Y-91008918D02*
G01*
X166396801Y-91008981D01*
X166452818Y-91011453D01*
X166502070Y-91013714D01*
X166589446Y-91017830D01*
X166660211Y-91021438D01*
X166716292Y-91024766D01*
X166759613Y-91028037D01*
X166792099Y-91031480D01*
X166815677Y-91035319D01*
X166832270Y-91039780D01*
X166843806Y-91045089D01*
X166852208Y-91051472D01*
X166859403Y-91059155D01*
X166869621Y-91072568D01*
X166876343Y-91087538D01*
X166880010Y-91108230D01*
X166881419Y-91139231D01*
X166881371Y-91185129D01*
X166880808Y-91220048D01*
X166879165Y-91280751D01*
X166876814Y-91345399D01*
X166874061Y-91404831D01*
X166873880Y-91408283D01*
X166872068Y-91454176D01*
X166871602Y-91492257D01*
X166872465Y-91518646D01*
X166874639Y-91529464D01*
X166876001Y-91529876D01*
X166892331Y-91531876D01*
X166924304Y-91534545D01*
X166968933Y-91537667D01*
X167023226Y-91541031D01*
X167084194Y-91544422D01*
X167099263Y-91545234D01*
X167160350Y-91548920D01*
X167215063Y-91552824D01*
X167260126Y-91556674D01*
X167292265Y-91560197D01*
X167308204Y-91563118D01*
X167327396Y-91575552D01*
X167346377Y-91596716D01*
X167348911Y-91600807D01*
X167353653Y-91611164D01*
X167356874Y-91624920D01*
X167358644Y-91644751D01*
X167359031Y-91673336D01*
X167358105Y-91713352D01*
X167355933Y-91767475D01*
X167352585Y-91838383D01*
X167351135Y-91868476D01*
X167348373Y-91928194D01*
X167346149Y-91979630D01*
X167344576Y-92019989D01*
X167343766Y-92046472D01*
X167343831Y-92056284D01*
X167344992Y-92056513D01*
X167360431Y-92057818D01*
X167391541Y-92059880D01*
X167435444Y-92062525D01*
X167489264Y-92065577D01*
X167550124Y-92068861D01*
X167565828Y-92069715D01*
X167627755Y-92073613D01*
X167683697Y-92077940D01*
X167730283Y-92082382D01*
X167764138Y-92086627D01*
X167781890Y-92090361D01*
X167782588Y-92090636D01*
X167800528Y-92099211D01*
X167814169Y-92110470D01*
X167823904Y-92126808D01*
X167830129Y-92150617D01*
X167833240Y-92184289D01*
X167833632Y-92230216D01*
X167831701Y-92290792D01*
X167827842Y-92368408D01*
X167826563Y-92392509D01*
X167823611Y-92451907D01*
X167821338Y-92503296D01*
X167819856Y-92543815D01*
X167819273Y-92570599D01*
X167819699Y-92580785D01*
X167821205Y-92581169D01*
X167837549Y-92582845D01*
X167869472Y-92585223D01*
X167914092Y-92588113D01*
X167968522Y-92591324D01*
X168029880Y-92594666D01*
X168048170Y-92595662D01*
X168110074Y-92599622D01*
X168165716Y-92604048D01*
X168211793Y-92608624D01*
X168244999Y-92613032D01*
X168262033Y-92616955D01*
X168281589Y-92630373D01*
X168300722Y-92653338D01*
X168304831Y-92660478D01*
X168308348Y-92666966D01*
X168310877Y-92674382D01*
X168312425Y-92685042D01*
X168312997Y-92701264D01*
X168312598Y-92725368D01*
X168311234Y-92759669D01*
X168308909Y-92806488D01*
X168305630Y-92868141D01*
X168301401Y-92946946D01*
X168298247Y-93004135D01*
X168294187Y-93069642D01*
X168290339Y-93119677D01*
X168286442Y-93156587D01*
X168282232Y-93182717D01*
X168277449Y-93200413D01*
X168271831Y-93212020D01*
X168266215Y-93219509D01*
X168253269Y-93231134D01*
X168233957Y-93242012D01*
X168205735Y-93253081D01*
X168166057Y-93265280D01*
X168112379Y-93279551D01*
X168042156Y-93296832D01*
X167977880Y-93311665D01*
X167775838Y-93349674D01*
X167581147Y-93373060D01*
X167394540Y-93381932D01*
X167216745Y-93376401D01*
X167048495Y-93356575D01*
X166890520Y-93322565D01*
X166743551Y-93274480D01*
X166608320Y-93212429D01*
X166485556Y-93136523D01*
X166375992Y-93046871D01*
X166360932Y-93032438D01*
X166266871Y-92926970D01*
X166187678Y-92809292D01*
X166123464Y-92679882D01*
X166074340Y-92539216D01*
X166040416Y-92387771D01*
X166021803Y-92226022D01*
X166019463Y-92100180D01*
X166209823Y-92100180D01*
X166216312Y-92252488D01*
X166236423Y-92395634D01*
X166270146Y-92528413D01*
X166317470Y-92649619D01*
X166378387Y-92758048D01*
X166391352Y-92776905D01*
X166470666Y-92872453D01*
X166565542Y-92958012D01*
X166674081Y-93031821D01*
X166780775Y-93084917D01*
X166905037Y-93128525D01*
X167041910Y-93160549D01*
X167189724Y-93180836D01*
X167346808Y-93189231D01*
X167511490Y-93185577D01*
X167682101Y-93169721D01*
X167856968Y-93141508D01*
X167883308Y-93136225D01*
X167933367Y-93125553D01*
X167983220Y-93114247D01*
X168029091Y-93103225D01*
X168067205Y-93093409D01*
X168093785Y-93085718D01*
X168105056Y-93081072D01*
X168105558Y-93078778D01*
X168107197Y-93061091D01*
X168109329Y-93028960D01*
X168111733Y-92985895D01*
X168114189Y-92935406D01*
X168120661Y-92792924D01*
X168044858Y-92787058D01*
X168040038Y-92786693D01*
X167998829Y-92783921D01*
X167945479Y-92780749D01*
X167886355Y-92777541D01*
X167827820Y-92774660D01*
X167686584Y-92768126D01*
X167653578Y-92735121D01*
X167620572Y-92702115D01*
X167626587Y-92597600D01*
X167628218Y-92569111D01*
X167631782Y-92506156D01*
X167635508Y-92439629D01*
X167638813Y-92379904D01*
X167645024Y-92266724D01*
X167548751Y-92260703D01*
X167513894Y-92258578D01*
X167454420Y-92255095D01*
X167390733Y-92251492D01*
X167331744Y-92248281D01*
X167294348Y-92246194D01*
X167254627Y-92243247D01*
X167227469Y-92239535D01*
X167208804Y-92234153D01*
X167194561Y-92226200D01*
X167180669Y-92214773D01*
X167178264Y-92212623D01*
X167168502Y-92203348D01*
X167161037Y-92193576D01*
X167155695Y-92180937D01*
X167152301Y-92163058D01*
X167150682Y-92137567D01*
X167150663Y-92102091D01*
X167152072Y-92054260D01*
X167154733Y-91991700D01*
X167158473Y-91912039D01*
X167166616Y-91740357D01*
X167080499Y-91734401D01*
X167039500Y-91731749D01*
X166983477Y-91728426D01*
X166922447Y-91725035D01*
X166863909Y-91722008D01*
X166814912Y-91719416D01*
X166776059Y-91716552D01*
X166749419Y-91712935D01*
X166731184Y-91707797D01*
X166717543Y-91700369D01*
X166704687Y-91689882D01*
X166695627Y-91681497D01*
X166687337Y-91671712D01*
X166681300Y-91659582D01*
X166677319Y-91642660D01*
X166675197Y-91618498D01*
X166674736Y-91584651D01*
X166675739Y-91538671D01*
X166678008Y-91478110D01*
X166681345Y-91400523D01*
X166689496Y-91214407D01*
X166622637Y-91208094D01*
X166578327Y-91204919D01*
X166525627Y-91202616D01*
X166476290Y-91201711D01*
X166396801Y-91201642D01*
X166366305Y-91285920D01*
X166320283Y-91423430D01*
X166272186Y-91600335D01*
X166237750Y-91772898D01*
X166216966Y-91939915D01*
X166209823Y-92100180D01*
X166019463Y-92100180D01*
X166018612Y-92054446D01*
X166030955Y-91873520D01*
X166058941Y-91683720D01*
X166061410Y-91670625D01*
X166077402Y-91594929D01*
X166096865Y-91514818D01*
X166118943Y-91432896D01*
X166142778Y-91351768D01*
X166167516Y-91274039D01*
X166192298Y-91202314D01*
X166216268Y-91139196D01*
X166238570Y-91087292D01*
X166258347Y-91049206D01*
X166274742Y-91027542D01*
X166282901Y-91020667D01*
X166293265Y-91014051D01*
X166306342Y-91009871D01*
X166325485Y-91007824D01*
X166354044Y-91007607D01*
X166395371Y-91008918D01*
G37*
G36*
X169308944Y-88918204D02*
G01*
X169324154Y-88919529D01*
X169376602Y-88924097D01*
X169466711Y-88939134D01*
X169565888Y-88961876D01*
X169669998Y-88991148D01*
X169774909Y-89025773D01*
X169876485Y-89064577D01*
X169970591Y-89106383D01*
X170135362Y-89195484D01*
X170291820Y-89300502D01*
X170434843Y-89418395D01*
X170563782Y-89548269D01*
X170677986Y-89689231D01*
X170776806Y-89840387D01*
X170859593Y-90000843D01*
X170925695Y-90169706D01*
X170974463Y-90346083D01*
X171005248Y-90529078D01*
X171007211Y-90549721D01*
X171010017Y-90609532D01*
X171010421Y-90680379D01*
X171008607Y-90756454D01*
X171004758Y-90831950D01*
X170999058Y-90901059D01*
X170991690Y-90957973D01*
X170963166Y-91096244D01*
X170910384Y-91269853D01*
X170840036Y-91435094D01*
X170752032Y-91592142D01*
X170646283Y-91741173D01*
X170522701Y-91882364D01*
X170500421Y-91905212D01*
X170401377Y-92000249D01*
X170303799Y-92081909D01*
X170202557Y-92153908D01*
X170092523Y-92219961D01*
X169968566Y-92283784D01*
X169867400Y-92329660D01*
X169700003Y-92392212D01*
X169530927Y-92438221D01*
X169355689Y-92469042D01*
X169323636Y-92473049D01*
X169296976Y-92474748D01*
X169273687Y-92472650D01*
X169251326Y-92465318D01*
X169227451Y-92451318D01*
X169199622Y-92429214D01*
X169165395Y-92397572D01*
X169122329Y-92354955D01*
X169067983Y-92299928D01*
X169036909Y-92268349D01*
X168997746Y-92228131D01*
X168969438Y-92197959D01*
X168950225Y-92175505D01*
X168938346Y-92158442D01*
X168932041Y-92144443D01*
X168929549Y-92131179D01*
X168929109Y-92116324D01*
X168929528Y-92101379D01*
X168932129Y-92087230D01*
X168938861Y-92072655D01*
X168951674Y-92054999D01*
X168972514Y-92031610D01*
X169003330Y-91999832D01*
X169046070Y-91957014D01*
X169076024Y-91926889D01*
X169110687Y-91891315D01*
X169138255Y-91862186D01*
X169156459Y-91841911D01*
X169163031Y-91832896D01*
X169162430Y-91832475D01*
X169148498Y-91830853D01*
X169117685Y-91829369D01*
X169072083Y-91828062D01*
X169013783Y-91826973D01*
X168944877Y-91826145D01*
X168867457Y-91825618D01*
X168783613Y-91825433D01*
X168780177Y-91825433D01*
X168669903Y-91825228D01*
X168576742Y-91824518D01*
X168498380Y-91823133D01*
X168432505Y-91820902D01*
X168376806Y-91817655D01*
X168328970Y-91813222D01*
X168286684Y-91807433D01*
X168247637Y-91800116D01*
X168209516Y-91791101D01*
X168170009Y-91780219D01*
X168153078Y-91775162D01*
X168018663Y-91723865D01*
X167892647Y-91655941D01*
X167776453Y-91572856D01*
X167671506Y-91476073D01*
X167579231Y-91367057D01*
X167501052Y-91247271D01*
X167438394Y-91118180D01*
X167392681Y-90981249D01*
X167390838Y-90974080D01*
X167369522Y-90859123D01*
X167360469Y-90736180D01*
X167362599Y-90649800D01*
X167548165Y-90649800D01*
X167549786Y-90780218D01*
X167569614Y-90906974D01*
X167606549Y-91028554D01*
X167659491Y-91143444D01*
X167727341Y-91250131D01*
X167808999Y-91347102D01*
X167903365Y-91432842D01*
X168009338Y-91505840D01*
X168125820Y-91564580D01*
X168251711Y-91607551D01*
X168266229Y-91611378D01*
X168289839Y-91617270D01*
X168312331Y-91622051D01*
X168335998Y-91625868D01*
X168363127Y-91628868D01*
X168396009Y-91631195D01*
X168436935Y-91632996D01*
X168488193Y-91634417D01*
X168552074Y-91635605D01*
X168630868Y-91636704D01*
X168726864Y-91637862D01*
X168746835Y-91638086D01*
X168829164Y-91638772D01*
X168904577Y-91639032D01*
X168970979Y-91638883D01*
X169026273Y-91638343D01*
X169068363Y-91637431D01*
X169095154Y-91636166D01*
X169104551Y-91634565D01*
X169104406Y-91633973D01*
X169096158Y-91622717D01*
X169077088Y-91600957D01*
X169049783Y-91571559D01*
X169016830Y-91537386D01*
X168985873Y-91505581D01*
X168959481Y-91477154D01*
X168942843Y-91456320D01*
X168933724Y-91439729D01*
X168929891Y-91424035D01*
X168929109Y-91405887D01*
X168929480Y-91392407D01*
X168931745Y-91379613D01*
X168937604Y-91366114D01*
X168948752Y-91349728D01*
X168966888Y-91328275D01*
X168993706Y-91299572D01*
X169030906Y-91261439D01*
X169080184Y-91211694D01*
X169099677Y-91191988D01*
X169141766Y-91148891D01*
X169177949Y-91111088D01*
X169206245Y-91080692D01*
X169224675Y-91059815D01*
X169231258Y-91050567D01*
X169229997Y-91048138D01*
X169218059Y-91033613D01*
X169195128Y-91008369D01*
X169163186Y-90974518D01*
X169124211Y-90934171D01*
X169080184Y-90889441D01*
X169031884Y-90840693D01*
X168994440Y-90802345D01*
X168967411Y-90773474D01*
X168949099Y-90751897D01*
X168937809Y-90735427D01*
X168931845Y-90721880D01*
X168929511Y-90709070D01*
X168929109Y-90694811D01*
X168929487Y-90680849D01*
X168931759Y-90668030D01*
X168937624Y-90654523D01*
X168948776Y-90638143D01*
X168966911Y-90616703D01*
X168993727Y-90588020D01*
X169030919Y-90549909D01*
X169080184Y-90500182D01*
X169099652Y-90480498D01*
X169141742Y-90437363D01*
X169177919Y-90399496D01*
X169206203Y-90369014D01*
X169224615Y-90348034D01*
X169231175Y-90338673D01*
X169229934Y-90336244D01*
X169218023Y-90321687D01*
X169195099Y-90296428D01*
X169163146Y-90262584D01*
X169124151Y-90222273D01*
X169080101Y-90177611D01*
X169035811Y-90133019D01*
X168997290Y-90093709D01*
X168969366Y-90064066D01*
X168950335Y-90041917D01*
X168938496Y-90025086D01*
X168932146Y-90011401D01*
X168929585Y-89998689D01*
X168929109Y-89984774D01*
X168929426Y-89972623D01*
X168932191Y-89956262D01*
X168939708Y-89939889D01*
X168954235Y-89920058D01*
X168978029Y-89893328D01*
X169013346Y-89856254D01*
X169097583Y-89768871D01*
X168751461Y-89768871D01*
X168658353Y-89769049D01*
X168565776Y-89769844D01*
X168488126Y-89771504D01*
X168422949Y-89774271D01*
X168367786Y-89778388D01*
X168320184Y-89784099D01*
X168277685Y-89791646D01*
X168237834Y-89801272D01*
X168198174Y-89813219D01*
X168156250Y-89827732D01*
X168107286Y-89847086D01*
X168005854Y-89899308D01*
X167910551Y-89966529D01*
X167817981Y-90050990D01*
X167728812Y-90153853D01*
X167656939Y-90264319D01*
X167603128Y-90381876D01*
X167567153Y-90507020D01*
X167548785Y-90640250D01*
X167548165Y-90649800D01*
X167362599Y-90649800D01*
X167363552Y-90611135D01*
X167378645Y-90489872D01*
X167405622Y-90378273D01*
X167423021Y-90326749D01*
X167482772Y-90189363D01*
X167558100Y-90063531D01*
X167648537Y-89949795D01*
X167753611Y-89848696D01*
X167872854Y-89760775D01*
X168005796Y-89686575D01*
X168110763Y-89636089D01*
X168213242Y-89495362D01*
X168241533Y-89456945D01*
X168274819Y-89412842D01*
X168303976Y-89375386D01*
X168326604Y-89347650D01*
X168340304Y-89332705D01*
X168353328Y-89322943D01*
X168389685Y-89310658D01*
X168427326Y-89316175D01*
X168462016Y-89339265D01*
X168468945Y-89346320D01*
X168479279Y-89358961D01*
X168485637Y-89373281D01*
X168488985Y-89393732D01*
X168490286Y-89424770D01*
X168490506Y-89470846D01*
X168490506Y-89573937D01*
X168833301Y-89573937D01*
X169097583Y-89573937D01*
X169176097Y-89573937D01*
X169052603Y-89448163D01*
X169047874Y-89443345D01*
X169005160Y-89399606D01*
X168974141Y-89366920D01*
X168952949Y-89342754D01*
X168939718Y-89324575D01*
X168932579Y-89309849D01*
X168929665Y-89296041D01*
X168929109Y-89280620D01*
X168929117Y-89277675D01*
X168929220Y-89275612D01*
X169152981Y-89275612D01*
X169309080Y-89432752D01*
X169315958Y-89439677D01*
X169364558Y-89488744D01*
X169401265Y-89526407D01*
X169427747Y-89554800D01*
X169445672Y-89576056D01*
X169456710Y-89592310D01*
X169462528Y-89605696D01*
X169464795Y-89618347D01*
X169465180Y-89632397D01*
X169464802Y-89646382D01*
X169462529Y-89659202D01*
X169456665Y-89672709D01*
X169445512Y-89689089D01*
X169427377Y-89710528D01*
X169400561Y-89739210D01*
X169363369Y-89777321D01*
X169314105Y-89827046D01*
X169294612Y-89846752D01*
X169252523Y-89889850D01*
X169216340Y-89927652D01*
X169188044Y-89958048D01*
X169169614Y-89978925D01*
X169163031Y-89988173D01*
X169164292Y-89990602D01*
X169176230Y-90005127D01*
X169199161Y-90030372D01*
X169231103Y-90064223D01*
X169270078Y-90104569D01*
X169314105Y-90149300D01*
X169331554Y-90166892D01*
X169377170Y-90213259D01*
X169411121Y-90248728D01*
X169435099Y-90275394D01*
X169450801Y-90295346D01*
X169459918Y-90310678D01*
X169464147Y-90323480D01*
X169465180Y-90335844D01*
X169465152Y-90338276D01*
X169462649Y-90357394D01*
X169455005Y-90377761D01*
X169440684Y-90401366D01*
X169418149Y-90430200D01*
X169385863Y-90466250D01*
X169342291Y-90511507D01*
X169285896Y-90567958D01*
X169251006Y-90602907D01*
X169215861Y-90639029D01*
X169187998Y-90668699D01*
X169169644Y-90689535D01*
X169163031Y-90699156D01*
X169164286Y-90701645D01*
X169176217Y-90716311D01*
X169199145Y-90741680D01*
X169231090Y-90775633D01*
X169270070Y-90816050D01*
X169314105Y-90860812D01*
X169346366Y-90893360D01*
X169388094Y-90935913D01*
X169418736Y-90968207D01*
X169439992Y-90992379D01*
X169453563Y-91010564D01*
X169461151Y-91024899D01*
X169464456Y-91037522D01*
X169465180Y-91050567D01*
X169464942Y-91058839D01*
X169462814Y-91071370D01*
X169457048Y-91084806D01*
X169445942Y-91101282D01*
X169427796Y-91122935D01*
X169400909Y-91151902D01*
X169363579Y-91190319D01*
X169314105Y-91240323D01*
X169294592Y-91260048D01*
X169252508Y-91303120D01*
X169216331Y-91340880D01*
X169188039Y-91371219D01*
X169169613Y-91392030D01*
X169163031Y-91401205D01*
X169164333Y-91403669D01*
X169176331Y-91418244D01*
X169199278Y-91443563D01*
X169231204Y-91477516D01*
X169270137Y-91517993D01*
X169314105Y-91562884D01*
X169362454Y-91611586D01*
X169407658Y-91658126D01*
X169440168Y-91695783D01*
X169459949Y-91727484D01*
X169466964Y-91756159D01*
X169461179Y-91784736D01*
X169442557Y-91816143D01*
X169411063Y-91853310D01*
X169366661Y-91899163D01*
X169309316Y-91956633D01*
X169153452Y-92113536D01*
X169239429Y-92199114D01*
X169325406Y-92284693D01*
X169448958Y-92259676D01*
X169473195Y-92254605D01*
X169648687Y-92207792D01*
X169815639Y-92145505D01*
X169973117Y-92068693D01*
X170120186Y-91978305D01*
X170255908Y-91875288D01*
X170379350Y-91760592D01*
X170489575Y-91635164D01*
X170585647Y-91499954D01*
X170666631Y-91355910D01*
X170731592Y-91203979D01*
X170779593Y-91045112D01*
X170809699Y-90880255D01*
X170810761Y-90870958D01*
X170814547Y-90821424D01*
X170817043Y-90760767D01*
X170818191Y-90695098D01*
X170817936Y-90630525D01*
X170816219Y-90573162D01*
X170812983Y-90529117D01*
X170807635Y-90491099D01*
X170794600Y-90422211D01*
X170777253Y-90347079D01*
X170757305Y-90272913D01*
X170736468Y-90206922D01*
X170716191Y-90152050D01*
X170645035Y-89996277D01*
X170557646Y-89849960D01*
X170455063Y-89713941D01*
X170338326Y-89589066D01*
X170208476Y-89476179D01*
X170066552Y-89376124D01*
X169913595Y-89289745D01*
X169750644Y-89217888D01*
X169578740Y-89161395D01*
X169398922Y-89121112D01*
X169324154Y-89108110D01*
X169238568Y-89191861D01*
X169152981Y-89275612D01*
X168929220Y-89275612D01*
X168929781Y-89264407D01*
X168932696Y-89251947D01*
X168939510Y-89238212D01*
X168951870Y-89221116D01*
X168971425Y-89198575D01*
X168999822Y-89168505D01*
X169038710Y-89128822D01*
X169089735Y-89077441D01*
X169250361Y-88916032D01*
X169308944Y-88918204D01*
G37*
%TD*%
D11*
%TO.C,D2*%
X161456609Y-83891610D03*
X160007041Y-82442042D03*
%TD*%
D12*
%TO.C,D14*%
X165820000Y-105030000D03*
X162620000Y-105030000D03*
X162620000Y-109930000D03*
X165820000Y-109930000D03*
%TD*%
D13*
%TO.C,J5*%
X129320000Y-87240000D03*
D14*
X129320000Y-89780000D03*
X129320000Y-92320000D03*
X129320000Y-94860000D03*
%TD*%
D12*
%TO.C,D16*%
X180050000Y-105030000D03*
X176850000Y-105030000D03*
X176850000Y-109930000D03*
X180050000Y-109930000D03*
%TD*%
D15*
%TO.C,D4*%
X175563390Y-83891610D03*
X177012958Y-82442042D03*
%TD*%
D16*
%TO.C,C7*%
X171195000Y-102730000D03*
X173270000Y-102730000D03*
%TD*%
D17*
%TO.C,R4*%
X156530000Y-86470000D03*
X158530000Y-86470000D03*
%TD*%
D18*
%TO.C,C3*%
X180587500Y-88570000D03*
X178512500Y-88570000D03*
%TD*%
D19*
%TO.C,TP5*%
X158530000Y-104990000D03*
%TD*%
D20*
%TO.C,D5*%
X178485000Y-90945000D03*
X180535000Y-90945000D03*
%TD*%
D19*
%TO.C,TP2*%
X157250000Y-100960000D03*
%TD*%
D21*
%TO.C,RN2*%
X166510000Y-77000000D03*
X167850000Y-77000000D03*
X169170000Y-77000000D03*
X170510000Y-77000000D03*
X170510000Y-74000000D03*
X169170000Y-74000000D03*
X167850000Y-74000000D03*
X166510000Y-74000000D03*
%TD*%
D18*
%TO.C,C2*%
X173307500Y-99520000D03*
X171232500Y-99520000D03*
%TD*%
D19*
%TO.C,TP3*%
X157260000Y-82300000D03*
%TD*%
D16*
%TO.C,C4*%
X156472500Y-93330000D03*
X158547500Y-93330000D03*
%TD*%
D13*
%TO.C,J6*%
X137700000Y-107700000D03*
D14*
X135160000Y-107700000D03*
X132620000Y-107700000D03*
X130080000Y-107700000D03*
%TD*%
D22*
%TO.C,R1*%
X180550000Y-86540000D03*
X178550000Y-86540000D03*
%TD*%
D17*
%TO.C,R3*%
X156510000Y-95360000D03*
X158510000Y-95360000D03*
%TD*%
D16*
%TO.C,C8*%
X178302500Y-102720000D03*
X180377500Y-102720000D03*
%TD*%
D13*
%TO.C,J7*%
X137700000Y-112200000D03*
D14*
X135160000Y-112200000D03*
X132620000Y-112200000D03*
X130080000Y-112200000D03*
%TD*%
D23*
%TO.C,U3*%
X155405000Y-109500000D03*
X155405000Y-108230000D03*
X155405000Y-106960000D03*
X155405000Y-105690000D03*
X150455000Y-105690000D03*
X150455000Y-106960000D03*
X150455000Y-108230000D03*
X150455000Y-109500000D03*
%TD*%
D13*
%TO.C,M1*%
X135140000Y-116760000D03*
D14*
X132600000Y-116760000D03*
X130060000Y-116760000D03*
%TD*%
D22*
%TO.C,R7*%
X149620000Y-78350000D03*
X147620000Y-78350000D03*
%TD*%
D24*
%TO.C,C12*%
X147960000Y-109452500D03*
X147960000Y-107377500D03*
%TD*%
D25*
%TO.C,D6*%
X175563390Y-97998391D03*
X177012958Y-99447959D03*
%TD*%
D26*
%TO.C,D1*%
X158535000Y-90945000D03*
X156485000Y-90945000D03*
%TD*%
D16*
%TO.C,C1*%
X156762500Y-78890000D03*
X158837500Y-78890000D03*
%TD*%
D27*
%TO.C,SW1*%
X164380000Y-96480000D03*
X164380000Y-85380000D03*
X172680000Y-96480000D03*
X172680000Y-85380000D03*
X161680000Y-91330000D03*
D28*
X168530000Y-96480000D03*
X168530000Y-85380000D03*
%TD*%
D17*
%TO.C,R8*%
X143780000Y-78360000D03*
X145780000Y-78360000D03*
%TD*%
D12*
%TO.C,D15*%
X172920000Y-105030000D03*
X169720000Y-105030000D03*
X169720000Y-109930000D03*
X172920000Y-109930000D03*
%TD*%
D29*
%TO.C,H2*%
X129340000Y-102100000D03*
%TD*%
D22*
%TO.C,R5*%
X158510000Y-97370000D03*
X156510000Y-97370000D03*
%TD*%
D17*
%TO.C,R2*%
X178560000Y-84540000D03*
X180560000Y-84540000D03*
%TD*%
D21*
%TO.C,RN3*%
X175410000Y-76970000D03*
X176750000Y-76970000D03*
X178070000Y-76970000D03*
X179410000Y-76970000D03*
X179410000Y-73970000D03*
X178070000Y-73970000D03*
X176750000Y-73970000D03*
X175410000Y-73970000D03*
%TD*%
D30*
%TO.C,U2*%
X144008000Y-72645000D03*
X144008000Y-73915000D03*
X144008000Y-75185000D03*
X144008000Y-76455000D03*
X149432000Y-76455000D03*
X149432000Y-75185000D03*
X149432000Y-73915000D03*
X149432000Y-72645000D03*
%TD*%
D31*
%TO.C,D7*%
X168510000Y-100920000D03*
X168510000Y-102970000D03*
%TD*%
D16*
%TO.C,C5*%
X156492500Y-88500000D03*
X158567500Y-88500000D03*
%TD*%
D22*
%TO.C,R6*%
X158560000Y-84470000D03*
X156560000Y-84470000D03*
%TD*%
D19*
%TO.C,TP4*%
X138100000Y-116700000D03*
%TD*%
D32*
%TO.C,D3*%
X168510000Y-80970000D03*
X168510000Y-78920000D03*
%TD*%
D13*
%TO.C,J8*%
X132100000Y-74160000D03*
D14*
X134640000Y-74160000D03*
X137180000Y-74160000D03*
X139720000Y-74160000D03*
%TD*%
D33*
%TO.C,D8*%
X161456609Y-97998391D03*
X160007041Y-99447959D03*
%TD*%
D19*
%TO.C,TP1*%
X179800000Y-68100000D03*
%TD*%
D16*
%TO.C,C6*%
X164105000Y-102720000D03*
X166180000Y-102720000D03*
%TD*%
D34*
%TO.C,U1*%
X162442500Y-77175000D03*
X162442500Y-76525000D03*
X162442500Y-75875000D03*
X162442500Y-75225000D03*
X162442500Y-74575000D03*
X162442500Y-73925000D03*
X162442500Y-73275000D03*
X162442500Y-72625000D03*
X156717500Y-72625000D03*
X156717500Y-73275000D03*
X156717500Y-73925000D03*
X156717500Y-74575000D03*
X156717500Y-75225000D03*
X156717500Y-75875000D03*
X156717500Y-76525000D03*
X156717500Y-77175000D03*
%TD*%
D19*
%TO.C,TP6*%
X158530000Y-109420000D03*
%TD*%
D29*
%TO.C,H1*%
X129300000Y-79780000D03*
%TD*%
D13*
%TO.C,J3*%
X154540000Y-69630000D03*
D14*
X154540000Y-67090000D03*
X152000000Y-69630000D03*
X152000000Y-67090000D03*
X149460000Y-69630000D03*
X149460000Y-67090000D03*
X146920000Y-69630000D03*
X146920000Y-67090000D03*
X144380000Y-69630000D03*
X144380000Y-67090000D03*
X141840000Y-69630000D03*
X141840000Y-67090000D03*
X139300000Y-69630000D03*
X139300000Y-67090000D03*
X136760000Y-69630000D03*
X136760000Y-67090000D03*
X134220000Y-69630000D03*
X134220000Y-67090000D03*
X131680000Y-69630000D03*
X131680000Y-67090000D03*
%TD*%
D13*
%TO.C,J2*%
X163700000Y-112830000D03*
D14*
X163700000Y-115370000D03*
X166240000Y-112830000D03*
X166240000Y-115370000D03*
X168780000Y-112830000D03*
X168780000Y-115370000D03*
X171320000Y-112830000D03*
X171320000Y-115370000D03*
X173860000Y-112830000D03*
X173860000Y-115370000D03*
X176400000Y-112830000D03*
X176400000Y-115370000D03*
%TD*%
D13*
%TO.C,J4*%
X140830000Y-112840000D03*
D14*
X140830000Y-115380000D03*
X143370000Y-112840000D03*
X143370000Y-115380000D03*
X145910000Y-112840000D03*
X145910000Y-115380000D03*
X148450000Y-112840000D03*
X148450000Y-115380000D03*
X150990000Y-112840000D03*
X150990000Y-115380000D03*
X153530000Y-112840000D03*
X153530000Y-115380000D03*
X156070000Y-112840000D03*
X156070000Y-115380000D03*
X158610000Y-112840000D03*
X158610000Y-115380000D03*
%TD*%
D13*
%TO.C,J1*%
X176380000Y-69620000D03*
D14*
X176380000Y-67080000D03*
X173840000Y-69620000D03*
X173840000Y-67080000D03*
X171300000Y-69620000D03*
X171300000Y-67080000D03*
X168760000Y-69620000D03*
X168760000Y-67080000D03*
X166220000Y-69620000D03*
X166220000Y-67080000D03*
X163680000Y-69620000D03*
X163680000Y-67080000D03*
X161140000Y-69620000D03*
X161140000Y-67080000D03*
X158600000Y-69620000D03*
X158600000Y-67080000D03*
%TD*%
M02*
