M48
; DRILL file {KiCad 8.0.1} date 2024-05-22T13:21:00+0200
; FORMAT={-:-/ absolute / inch / decimal}
; #@! TF.CreationDate,2024-05-22T13:21:00+02:00
; #@! TF.GenerationSoftware,Kicad,Pcbnew,8.0.1
; #@! TF.FileFunction,MixedPlating,1,4
FMAT,2
INCH
; #@! TA.AperFunction,Plated,PTH,ViaDrill
T1C0.0157
; #@! TA.AperFunction,Plated,PTH,ComponentDrill
T2C0.0394
; #@! TA.AperFunction,Plated,PTH,ComponentDrill
T3C0.0402
; #@! TA.AperFunction,Plated,PTH,ComponentDrill
T4C0.0433
; #@! TA.AperFunction,Plated,PTH,ComponentDrill
T5C0.1169
; #@! TA.AperFunction,NonPlated,NPTH,ComponentDrill
T6C0.0866
%
G90
G05
T1
X5.126Y-3.2894
X5.2598Y-4.0906
X5.2602Y-3.2437
X5.2614Y-3.2913
X5.3701Y-3.561
X5.3705Y-3.7134
X5.3866Y-3.389
X5.387Y-3.3398
X5.4729Y-3.263
X5.55Y-3.1413
X5.5579Y-3.3886
X5.5817Y-2.9809
X5.6087Y-2.8618
X5.6094Y-3.0323
X5.6322Y-3.2412
X5.774Y-2.9843
X5.7752Y-3.1992
X5.8232Y-3.187
X5.8461Y-2.8063
X5.8689Y-4.3083
X5.8835Y-3.1591
X5.8965Y-2.8071
X5.9069Y-3.8593
X5.9364Y-2.9589
X5.9683Y-3.234
X5.985Y-3.0118
X6.015Y-3.1492
X6.0177Y-2.8425
X6.05Y-3.53
X6.0539Y-2.9953
X6.0748Y-3.1024
X6.1031Y-2.8594
X6.1059Y-3.0673
X6.1091Y-3.4433
X6.1102Y-3.7154
X6.1142Y-3.5378
X6.1641Y-2.8332
X6.1933Y-4.6224
X6.2024Y-3.4445
X6.2024Y-3.715
X6.2315Y-2.8819
X6.26Y-3.2
X6.2661Y-2.965
X6.2665Y-3.9516
X6.2854Y-3.7535
X6.2921Y-3.4047
X6.4866Y-4.3339
X6.5346Y-3.0776
X6.615Y-4.3335
X6.687Y-4.0539
X6.6949Y-3.0776
X6.737Y-3.0772
X6.8035Y-2.9803
X6.82Y-3.5772
X6.8768Y-4.3339
X6.9055Y-3.072
X6.9531Y-3.4472
X6.9587Y-3.0724
X7.0016Y-3.9461
X7.0043Y-3.2134
X7.0098Y-3.072
X7.0634Y-3.072
X7.0634Y-3.6429
T2
X5.0913Y-3.4346
X5.0913Y-3.5346
X5.0913Y-3.6346
X5.0913Y-3.7346
X5.1205Y-4.5969
X5.1213Y-4.2402
X5.1213Y-4.4173
X5.1843Y-2.6413
X5.1843Y-2.7413
X5.2008Y-2.9197
X5.2205Y-4.5969
X5.2213Y-4.2402
X5.2213Y-4.4173
X5.2843Y-2.6413
X5.2843Y-2.7413
X5.3008Y-2.9197
X5.3205Y-4.5969
X5.3213Y-4.2402
X5.3213Y-4.4173
X5.3843Y-2.6413
X5.3843Y-2.7413
X5.4008Y-2.9197
X5.4213Y-4.2402
X5.4213Y-4.4173
X5.4843Y-2.6413
X5.4843Y-2.7413
X5.5008Y-2.9197
X5.5445Y-4.4425
X5.5445Y-4.5425
X5.5843Y-2.6413
X5.5843Y-2.7413
X5.6445Y-4.4425
X5.6445Y-4.5425
X5.6843Y-2.6413
X5.6843Y-2.7413
X5.7445Y-4.4425
X5.7445Y-4.5425
X5.7843Y-2.6413
X5.7843Y-2.7413
X5.8445Y-4.4425
X5.8445Y-4.5425
X5.8843Y-2.6413
X5.8843Y-2.7413
X5.9445Y-4.4425
X5.9445Y-4.5425
X5.9843Y-2.6413
X5.9843Y-2.7413
X6.0445Y-4.4425
X6.0445Y-4.5425
X6.0843Y-2.6413
X6.0843Y-2.7413
X6.1445Y-4.4425
X6.1445Y-4.5425
X6.2441Y-2.6409
X6.2441Y-2.7409
X6.2445Y-4.4425
X6.2445Y-4.5425
X6.3441Y-2.6409
X6.3441Y-2.7409
X6.4441Y-2.6409
X6.4441Y-2.7409
X6.4449Y-4.4421
X6.4449Y-4.5421
X6.5441Y-2.6409
X6.5441Y-2.7409
X6.5449Y-4.4421
X6.5449Y-4.5421
X6.6441Y-2.6409
X6.6441Y-2.7409
X6.6449Y-4.4421
X6.6449Y-4.5421
X6.7441Y-2.6409
X6.7441Y-2.7409
X6.7449Y-4.4421
X6.7449Y-4.5421
X6.8441Y-2.6409
X6.8441Y-2.7409
X6.8449Y-4.4421
X6.8449Y-4.5421
X6.9441Y-2.6409
X6.9441Y-2.7409
X6.9449Y-4.4421
X6.9449Y-4.5421
T3
X5.437Y-4.5945
X6.1909Y-3.9748
X6.1913Y-3.2402
X6.2413Y-4.1335
X6.2413Y-4.3079
X7.0787Y-2.6811
T4
X6.3654Y-3.5957
X6.4717Y-3.3614
X6.4717Y-3.7984
X6.7984Y-3.3614
X6.7984Y-3.7984
T5
X6.635Y-3.3614
X6.635Y-3.7984
T6
X5.0906Y-3.1409
X5.0921Y-4.0197
M30
