%TF.GenerationSoftware,KiCad,Pcbnew,8.0.1*%
%TF.CreationDate,2024-05-22T13:21:10+02:00*%
%TF.ProjectId,FRDM-MCXx_Shield,4652444d-2d4d-4435-9878-5f536869656c,V2.0*%
%TF.SameCoordinates,Original*%
%TF.FileFunction,Paste,Top*%
%TF.FilePolarity,Positive*%
%FSLAX46Y46*%
G04 Gerber Fmt 4.6, Leading zero omitted, Abs format (unit mm)*
G04 Created by KiCad (PCBNEW 8.0.1) date 2024-05-22 13:21:10*
%MOMM*%
%LPD*%
G01*
G04 APERTURE LIST*
G04 Aperture macros list*
%AMRoundRect*
0 Rectangle with rounded corners*
0 $1 Rounding radius*
0 $2 $3 $4 $5 $6 $7 $8 $9 X,Y pos of 4 corners*
0 Add a 4 corners polygon primitive as box body*
4,1,4,$2,$3,$4,$5,$6,$7,$8,$9,$2,$3,0*
0 Add four circle primitives for the rounded corners*
1,1,$1+$1,$2,$3*
1,1,$1+$1,$4,$5*
1,1,$1+$1,$6,$7*
1,1,$1+$1,$8,$9*
0 Add four rect primitives between the rounded corners*
20,1,$1+$1,$2,$3,$4,$5,0*
20,1,$1+$1,$4,$5,$6,$7,0*
20,1,$1+$1,$6,$7,$8,$9,0*
20,1,$1+$1,$8,$9,$2,$3,0*%
G04 Aperture macros list end*
%ADD10RoundRect,0.206521X0.468075X0.088388X0.088388X0.468075X-0.468075X-0.088388X-0.088388X-0.468075X0*%
%ADD11R,0.800000X1.300000*%
%ADD12RoundRect,0.206521X0.088388X-0.468075X0.468075X-0.088388X-0.088388X0.468075X-0.468075X0.088388X0*%
%ADD13RoundRect,0.207447X-0.280053X-0.417553X0.280053X-0.417553X0.280053X0.417553X-0.280053X0.417553X0*%
%ADD14RoundRect,0.208333X-0.291667X-0.391667X0.291667X-0.391667X0.291667X0.391667X-0.291667X0.391667X0*%
%ADD15RoundRect,0.207447X0.280053X0.417553X-0.280053X0.417553X-0.280053X-0.417553X0.280053X-0.417553X0*%
%ADD16RoundRect,0.206521X-0.268479X-0.393479X0.268479X-0.393479X0.268479X0.393479X-0.268479X0.393479X0*%
%ADD17R,0.700000X0.700000*%
%ADD18RoundRect,0.208333X0.291667X0.391667X-0.291667X0.391667X-0.291667X-0.391667X0.291667X-0.391667X0*%
%ADD19RoundRect,0.100000X0.775000X0.100000X-0.775000X0.100000X-0.775000X-0.100000X0.775000X-0.100000X0*%
%ADD20RoundRect,0.207447X0.417553X-0.280053X0.417553X0.280053X-0.417553X0.280053X-0.417553X-0.280053X0*%
%ADD21RoundRect,0.206521X-0.468075X-0.088388X-0.088388X-0.468075X0.468075X0.088388X0.088388X0.468075X0*%
%ADD22RoundRect,0.206521X0.268479X0.393479X-0.268479X0.393479X-0.268479X-0.393479X0.268479X-0.393479X0*%
%ADD23R,1.325000X0.450000*%
%ADD24RoundRect,0.206521X-0.393479X0.268479X-0.393479X-0.268479X0.393479X-0.268479X0.393479X0.268479X0*%
%ADD25RoundRect,0.206521X0.393479X-0.268479X0.393479X0.268479X-0.393479X0.268479X-0.393479X-0.268479X0*%
%ADD26RoundRect,0.206521X-0.088388X0.468075X-0.468075X0.088388X0.088388X-0.468075X0.468075X-0.088388X0*%
%ADD27RoundRect,0.050000X0.587500X0.050000X-0.587500X0.050000X-0.587500X-0.050000X0.587500X-0.050000X0*%
G04 APERTURE END LIST*
D10*
%TO.C,D2*%
X161456609Y-83891610D03*
X160007041Y-82442042D03*
%TD*%
D11*
%TO.C,D14*%
X165820000Y-105030000D03*
X162620000Y-105030000D03*
X162620000Y-109930000D03*
X165820000Y-109930000D03*
%TD*%
%TO.C,D16*%
X180050000Y-105030000D03*
X176850000Y-105030000D03*
X176850000Y-109930000D03*
X180050000Y-109930000D03*
%TD*%
D12*
%TO.C,D4*%
X175563390Y-83891610D03*
X177012958Y-82442042D03*
%TD*%
D13*
%TO.C,C7*%
X171195000Y-102730000D03*
X173270000Y-102730000D03*
%TD*%
D14*
%TO.C,R4*%
X156530000Y-86470000D03*
X158530000Y-86470000D03*
%TD*%
D15*
%TO.C,C3*%
X180587500Y-88570000D03*
X178512500Y-88570000D03*
%TD*%
D16*
%TO.C,D5*%
X178485000Y-90945000D03*
X180535000Y-90945000D03*
%TD*%
D17*
%TO.C,RN2*%
X166510000Y-77000000D03*
X167850000Y-77000000D03*
X169170000Y-77000000D03*
X170510000Y-77000000D03*
X170510000Y-74000000D03*
X169170000Y-74000000D03*
X167850000Y-74000000D03*
X166510000Y-74000000D03*
%TD*%
D15*
%TO.C,C2*%
X173307500Y-99520000D03*
X171232500Y-99520000D03*
%TD*%
D13*
%TO.C,C4*%
X156472500Y-93330000D03*
X158547500Y-93330000D03*
%TD*%
D18*
%TO.C,R1*%
X180550000Y-86540000D03*
X178550000Y-86540000D03*
%TD*%
D14*
%TO.C,R3*%
X156510000Y-95360000D03*
X158510000Y-95360000D03*
%TD*%
D13*
%TO.C,C8*%
X178302500Y-102720000D03*
X180377500Y-102720000D03*
%TD*%
D19*
%TO.C,U3*%
X155405000Y-109500000D03*
X155405000Y-108230000D03*
X155405000Y-106960000D03*
X155405000Y-105690000D03*
X150455000Y-105690000D03*
X150455000Y-106960000D03*
X150455000Y-108230000D03*
X150455000Y-109500000D03*
%TD*%
D18*
%TO.C,R7*%
X149620000Y-78350000D03*
X147620000Y-78350000D03*
%TD*%
D20*
%TO.C,C12*%
X147960000Y-109452500D03*
X147960000Y-107377500D03*
%TD*%
D21*
%TO.C,D6*%
X175563390Y-97998391D03*
X177012958Y-99447959D03*
%TD*%
D22*
%TO.C,D1*%
X158535000Y-90945000D03*
X156485000Y-90945000D03*
%TD*%
D13*
%TO.C,C1*%
X156762500Y-78890000D03*
X158837500Y-78890000D03*
%TD*%
D14*
%TO.C,R8*%
X143780000Y-78360000D03*
X145780000Y-78360000D03*
%TD*%
D11*
%TO.C,D15*%
X172920000Y-105030000D03*
X169720000Y-105030000D03*
X169720000Y-109930000D03*
X172920000Y-109930000D03*
%TD*%
D18*
%TO.C,R5*%
X158510000Y-97370000D03*
X156510000Y-97370000D03*
%TD*%
D14*
%TO.C,R2*%
X178560000Y-84540000D03*
X180560000Y-84540000D03*
%TD*%
D17*
%TO.C,RN3*%
X175410000Y-76970000D03*
X176750000Y-76970000D03*
X178070000Y-76970000D03*
X179410000Y-76970000D03*
X179410000Y-73970000D03*
X178070000Y-73970000D03*
X176750000Y-73970000D03*
X175410000Y-73970000D03*
%TD*%
D23*
%TO.C,U2*%
X144008000Y-72645000D03*
X144008000Y-73915000D03*
X144008000Y-75185000D03*
X144008000Y-76455000D03*
X149432000Y-76455000D03*
X149432000Y-75185000D03*
X149432000Y-73915000D03*
X149432000Y-72645000D03*
%TD*%
D24*
%TO.C,D7*%
X168510000Y-100920000D03*
X168510000Y-102970000D03*
%TD*%
D13*
%TO.C,C5*%
X156492500Y-88500000D03*
X158567500Y-88500000D03*
%TD*%
D18*
%TO.C,R6*%
X158560000Y-84470000D03*
X156560000Y-84470000D03*
%TD*%
D25*
%TO.C,D3*%
X168510000Y-80970000D03*
X168510000Y-78920000D03*
%TD*%
D26*
%TO.C,D8*%
X161456609Y-97998391D03*
X160007041Y-99447959D03*
%TD*%
D13*
%TO.C,C6*%
X164105000Y-102720000D03*
X166180000Y-102720000D03*
%TD*%
D27*
%TO.C,U1*%
X162442500Y-77175000D03*
X162442500Y-76525000D03*
X162442500Y-75875000D03*
X162442500Y-75225000D03*
X162442500Y-74575000D03*
X162442500Y-73925000D03*
X162442500Y-73275000D03*
X162442500Y-72625000D03*
X156717500Y-72625000D03*
X156717500Y-73275000D03*
X156717500Y-73925000D03*
X156717500Y-74575000D03*
X156717500Y-75225000D03*
X156717500Y-75875000D03*
X156717500Y-76525000D03*
X156717500Y-77175000D03*
%TD*%
M02*
