%TF.GenerationSoftware,KiCad,Pcbnew,8.0.1*%
%TF.CreationDate,2024-05-22T13:21:10+02:00*%
%TF.ProjectId,FRDM-MCXx_Shield,4652444d-2d4d-4435-9878-5f536869656c,V2.0*%
%TF.SameCoordinates,Original*%
%TF.FileFunction,Soldermask,Bot*%
%TF.FilePolarity,Negative*%
%FSLAX46Y46*%
G04 Gerber Fmt 4.6, Leading zero omitted, Abs format (unit mm)*
G04 Created by KiCad (PCBNEW 8.0.1) date 2024-05-22 13:21:10*
%MOMM*%
%LPD*%
G01*
G04 APERTURE LIST*
G04 Aperture macros list*
%AMRoundRect*
0 Rectangle with rounded corners*
0 $1 Rounding radius*
0 $2 $3 $4 $5 $6 $7 $8 $9 X,Y pos of 4 corners*
0 Add a 4 corners polygon primitive as box body*
4,1,4,$2,$3,$4,$5,$6,$7,$8,$9,$2,$3,0*
0 Add four circle primitives for the rounded corners*
1,1,$1+$1,$2,$3*
1,1,$1+$1,$4,$5*
1,1,$1+$1,$6,$7*
1,1,$1+$1,$8,$9*
0 Add four rect primitives between the rounded corners*
20,1,$1+$1,$2,$3,$4,$5,0*
20,1,$1+$1,$4,$5,$6,$7,0*
20,1,$1+$1,$6,$7,$8,$9,0*
20,1,$1+$1,$8,$9,$2,$3,0*%
%AMFreePoly0*
4,1,6,1.000000,0.000000,0.500000,-0.750000,-0.500000,-0.750000,-0.500000,0.750000,0.500000,0.750000,1.000000,0.000000,1.000000,0.000000,$1*%
G04 Aperture macros list end*
%ADD10R,1.700000X1.700000*%
%ADD11O,1.700000X1.700000*%
%ADD12C,1.600000*%
%ADD13C,1.650000*%
%ADD14C,4.500000*%
%ADD15C,2.200000*%
%ADD16RoundRect,0.175000X0.325000X-0.175000X0.325000X0.175000X-0.325000X0.175000X-0.325000X-0.175000X0*%
%ADD17RoundRect,0.150000X0.150000X-0.200000X0.150000X0.200000X-0.150000X0.200000X-0.150000X-0.200000X0*%
%ADD18RoundRect,0.175000X0.175000X0.325000X-0.175000X0.325000X-0.175000X-0.325000X0.175000X-0.325000X0*%
%ADD19RoundRect,0.150000X0.200000X0.150000X-0.200000X0.150000X-0.200000X-0.150000X0.200000X-0.150000X0*%
%ADD20R,1.500000X1.500000*%
%ADD21FreePoly0,270.000000*%
%ADD22FreePoly0,90.000000*%
%ADD23R,0.900000X0.900000*%
%ADD24RoundRect,0.250000X0.337500X0.475000X-0.337500X0.475000X-0.337500X-0.475000X0.337500X-0.475000X0*%
G04 APERTURE END LIST*
D10*
%TO.C,J5*%
X129320000Y-87240000D03*
D11*
X129320000Y-89780000D03*
X129320000Y-92320000D03*
X129320000Y-94860000D03*
%TD*%
D12*
%TO.C,TP5*%
X158530000Y-104990000D03*
%TD*%
%TO.C,TP2*%
X157250000Y-100960000D03*
%TD*%
%TO.C,TP3*%
X157260000Y-82300000D03*
%TD*%
D10*
%TO.C,J6*%
X137700000Y-107700000D03*
D11*
X135160000Y-107700000D03*
X132620000Y-107700000D03*
X130080000Y-107700000D03*
%TD*%
D10*
%TO.C,J7*%
X137700000Y-112200000D03*
D11*
X135160000Y-112200000D03*
X132620000Y-112200000D03*
X130080000Y-112200000D03*
%TD*%
D10*
%TO.C,M1*%
X135140000Y-116760000D03*
D11*
X132600000Y-116760000D03*
X130060000Y-116760000D03*
%TD*%
D13*
%TO.C,SW1*%
X164380000Y-96480000D03*
X164380000Y-85380000D03*
X172680000Y-96480000D03*
X172680000Y-85380000D03*
X161680000Y-91330000D03*
D14*
X168530000Y-96480000D03*
X168530000Y-85380000D03*
%TD*%
D15*
%TO.C,H2*%
X129340000Y-102100000D03*
%TD*%
D12*
%TO.C,TP4*%
X138100000Y-116700000D03*
%TD*%
D10*
%TO.C,J8*%
X132100000Y-74160000D03*
D11*
X134640000Y-74160000D03*
X137180000Y-74160000D03*
X139720000Y-74160000D03*
%TD*%
D12*
%TO.C,TP1*%
X179800000Y-68100000D03*
%TD*%
%TO.C,TP6*%
X158530000Y-109420000D03*
%TD*%
D15*
%TO.C,H1*%
X129300000Y-79780000D03*
%TD*%
D16*
%TO.C,D9*%
X144757500Y-81000000D03*
D17*
X143057500Y-81000000D03*
X143057500Y-79000000D03*
X144957500Y-79000000D03*
%TD*%
D10*
%TO.C,J3*%
X154540000Y-69630000D03*
D11*
X154540000Y-67090000D03*
X152000000Y-69630000D03*
X152000000Y-67090000D03*
X149460000Y-69630000D03*
X149460000Y-67090000D03*
X146920000Y-69630000D03*
X146920000Y-67090000D03*
X144380000Y-69630000D03*
X144380000Y-67090000D03*
X141840000Y-69630000D03*
X141840000Y-67090000D03*
X139300000Y-69630000D03*
X139300000Y-67090000D03*
X136760000Y-69630000D03*
X136760000Y-67090000D03*
X134220000Y-69630000D03*
X134220000Y-67090000D03*
X131680000Y-69630000D03*
X131680000Y-67090000D03*
%TD*%
D18*
%TO.C,D12*%
X169530000Y-90180000D03*
D19*
X169530000Y-91880000D03*
X167530000Y-91880000D03*
X167530000Y-89980000D03*
%TD*%
D18*
%TO.C,D11*%
X140090000Y-84380000D03*
D19*
X140090000Y-86080000D03*
X138090000Y-86080000D03*
X138090000Y-84180000D03*
%TD*%
D10*
%TO.C,J2*%
X163700000Y-112830000D03*
D11*
X163700000Y-115370000D03*
X166240000Y-112830000D03*
X166240000Y-115370000D03*
X168780000Y-112830000D03*
X168780000Y-115370000D03*
X171320000Y-112830000D03*
X171320000Y-115370000D03*
X173860000Y-112830000D03*
X173860000Y-115370000D03*
X176400000Y-112830000D03*
X176400000Y-115370000D03*
%TD*%
D20*
%TO.C,JP1*%
X133300000Y-91100000D03*
X133300000Y-93500000D03*
D21*
X133300000Y-90300000D03*
D22*
X133300000Y-94300000D03*
%TD*%
D23*
%TO.C,RN1*%
X134570000Y-82230000D03*
X134570000Y-83570000D03*
X134570000Y-84890000D03*
X134570000Y-86230000D03*
X131570000Y-86230000D03*
X131570000Y-84890000D03*
X131570000Y-83570000D03*
X131570000Y-82230000D03*
%TD*%
D10*
%TO.C,J4*%
X140830000Y-112840000D03*
D11*
X140830000Y-115380000D03*
X143370000Y-112840000D03*
X143370000Y-115380000D03*
X145910000Y-112840000D03*
X145910000Y-115380000D03*
X148450000Y-112840000D03*
X148450000Y-115380000D03*
X150990000Y-112840000D03*
X150990000Y-115380000D03*
X153530000Y-112840000D03*
X153530000Y-115380000D03*
X156070000Y-112840000D03*
X156070000Y-115380000D03*
X158610000Y-112840000D03*
X158610000Y-115380000D03*
%TD*%
D24*
%TO.C,C9*%
X147927500Y-72650000D03*
X145852500Y-72650000D03*
%TD*%
D16*
%TO.C,D10*%
X152580000Y-80990000D03*
D17*
X150880000Y-80990000D03*
X150880000Y-78990000D03*
X152780000Y-78990000D03*
%TD*%
D10*
%TO.C,J1*%
X176380000Y-69620000D03*
D11*
X176380000Y-67080000D03*
X173840000Y-69620000D03*
X173840000Y-67080000D03*
X171300000Y-69620000D03*
X171300000Y-67080000D03*
X168760000Y-69620000D03*
X168760000Y-67080000D03*
X166220000Y-69620000D03*
X166220000Y-67080000D03*
X163680000Y-69620000D03*
X163680000Y-67080000D03*
X161140000Y-69620000D03*
X161140000Y-67080000D03*
X158600000Y-69620000D03*
X158600000Y-67080000D03*
%TD*%
D16*
%TO.C,D13*%
X154310000Y-108740000D03*
D17*
X152610000Y-108740000D03*
X152610000Y-106740000D03*
X154510000Y-106740000D03*
%TD*%
D24*
%TO.C,C10*%
X135637500Y-102600000D03*
X133562500Y-102600000D03*
%TD*%
%TO.C,C11*%
X135667500Y-100450000D03*
X133592500Y-100450000D03*
%TD*%
M02*
