%TF.GenerationSoftware,KiCad,Pcbnew,8.0.1*%
%TF.CreationDate,2024-05-22T13:21:10+02:00*%
%TF.ProjectId,FRDM-MCXx_Shield,4652444d-2d4d-4435-9878-5f536869656c,V2.0*%
%TF.SameCoordinates,Original*%
%TF.FileFunction,Legend,Bot*%
%TF.FilePolarity,Positive*%
%FSLAX46Y46*%
G04 Gerber Fmt 4.6, Leading zero omitted, Abs format (unit mm)*
G04 Created by KiCad (PCBNEW 8.0.1) date 2024-05-22 13:21:10*
%MOMM*%
%LPD*%
G01*
G04 APERTURE LIST*
%ADD10C,0.200000*%
%ADD11C,0.150000*%
%ADD12C,0.010000*%
%ADD13C,0.120000*%
%ADD14C,0.000000*%
G04 APERTURE END LIST*
D10*
X173700000Y-91290000D02*
X181700000Y-91290000D01*
X181700000Y-99290000D01*
X173700000Y-99290000D01*
X173700000Y-91290000D01*
X173700000Y-83290000D02*
X181700000Y-83290000D01*
X181700000Y-91290000D01*
X173700000Y-91290000D01*
X173700000Y-83290000D01*
D11*
X143263220Y-110369819D02*
X143263220Y-109369819D01*
X143263220Y-109369819D02*
X142929887Y-110084104D01*
X142929887Y-110084104D02*
X142596554Y-109369819D01*
X142596554Y-109369819D02*
X142596554Y-110369819D01*
X141929887Y-109369819D02*
X141739411Y-109369819D01*
X141739411Y-109369819D02*
X141644173Y-109417438D01*
X141644173Y-109417438D02*
X141548935Y-109512676D01*
X141548935Y-109512676D02*
X141501316Y-109703152D01*
X141501316Y-109703152D02*
X141501316Y-110036485D01*
X141501316Y-110036485D02*
X141548935Y-110226961D01*
X141548935Y-110226961D02*
X141644173Y-110322200D01*
X141644173Y-110322200D02*
X141739411Y-110369819D01*
X141739411Y-110369819D02*
X141929887Y-110369819D01*
X141929887Y-110369819D02*
X142025125Y-110322200D01*
X142025125Y-110322200D02*
X142120363Y-110226961D01*
X142120363Y-110226961D02*
X142167982Y-110036485D01*
X142167982Y-110036485D02*
X142167982Y-109703152D01*
X142167982Y-109703152D02*
X142120363Y-109512676D01*
X142120363Y-109512676D02*
X142025125Y-109417438D01*
X142025125Y-109417438D02*
X141929887Y-109369819D01*
X141120363Y-110322200D02*
X140977506Y-110369819D01*
X140977506Y-110369819D02*
X140739411Y-110369819D01*
X140739411Y-110369819D02*
X140644173Y-110322200D01*
X140644173Y-110322200D02*
X140596554Y-110274580D01*
X140596554Y-110274580D02*
X140548935Y-110179342D01*
X140548935Y-110179342D02*
X140548935Y-110084104D01*
X140548935Y-110084104D02*
X140596554Y-109988866D01*
X140596554Y-109988866D02*
X140644173Y-109941247D01*
X140644173Y-109941247D02*
X140739411Y-109893628D01*
X140739411Y-109893628D02*
X140929887Y-109846009D01*
X140929887Y-109846009D02*
X141025125Y-109798390D01*
X141025125Y-109798390D02*
X141072744Y-109750771D01*
X141072744Y-109750771D02*
X141120363Y-109655533D01*
X141120363Y-109655533D02*
X141120363Y-109560295D01*
X141120363Y-109560295D02*
X141072744Y-109465057D01*
X141072744Y-109465057D02*
X141025125Y-109417438D01*
X141025125Y-109417438D02*
X140929887Y-109369819D01*
X140929887Y-109369819D02*
X140691792Y-109369819D01*
X140691792Y-109369819D02*
X140548935Y-109417438D01*
X140120363Y-110369819D02*
X140120363Y-109369819D01*
X139406078Y-110703152D02*
X139406078Y-109274580D01*
X138120364Y-110274580D02*
X138167983Y-110322200D01*
X138167983Y-110322200D02*
X138310840Y-110369819D01*
X138310840Y-110369819D02*
X138406078Y-110369819D01*
X138406078Y-110369819D02*
X138548935Y-110322200D01*
X138548935Y-110322200D02*
X138644173Y-110226961D01*
X138644173Y-110226961D02*
X138691792Y-110131723D01*
X138691792Y-110131723D02*
X138739411Y-109941247D01*
X138739411Y-109941247D02*
X138739411Y-109798390D01*
X138739411Y-109798390D02*
X138691792Y-109607914D01*
X138691792Y-109607914D02*
X138644173Y-109512676D01*
X138644173Y-109512676D02*
X138548935Y-109417438D01*
X138548935Y-109417438D02*
X138406078Y-109369819D01*
X138406078Y-109369819D02*
X138310840Y-109369819D01*
X138310840Y-109369819D02*
X138167983Y-109417438D01*
X138167983Y-109417438D02*
X138120364Y-109465057D01*
X137215602Y-110369819D02*
X137691792Y-110369819D01*
X137691792Y-110369819D02*
X137691792Y-109369819D01*
X136882268Y-110369819D02*
X136882268Y-109369819D01*
X136310840Y-110369819D02*
X136739411Y-109798390D01*
X136310840Y-109369819D02*
X136882268Y-109941247D01*
X135644173Y-110703152D02*
X135644173Y-109274580D01*
X134929887Y-110369819D02*
X134929887Y-109369819D01*
X134929887Y-109369819D02*
X134596554Y-110084104D01*
X134596554Y-110084104D02*
X134263221Y-109369819D01*
X134263221Y-109369819D02*
X134263221Y-110369819D01*
X133787030Y-110369819D02*
X133787030Y-109369819D01*
X133358459Y-110322200D02*
X133215602Y-110369819D01*
X133215602Y-110369819D02*
X132977507Y-110369819D01*
X132977507Y-110369819D02*
X132882269Y-110322200D01*
X132882269Y-110322200D02*
X132834650Y-110274580D01*
X132834650Y-110274580D02*
X132787031Y-110179342D01*
X132787031Y-110179342D02*
X132787031Y-110084104D01*
X132787031Y-110084104D02*
X132834650Y-109988866D01*
X132834650Y-109988866D02*
X132882269Y-109941247D01*
X132882269Y-109941247D02*
X132977507Y-109893628D01*
X132977507Y-109893628D02*
X133167983Y-109846009D01*
X133167983Y-109846009D02*
X133263221Y-109798390D01*
X133263221Y-109798390D02*
X133310840Y-109750771D01*
X133310840Y-109750771D02*
X133358459Y-109655533D01*
X133358459Y-109655533D02*
X133358459Y-109560295D01*
X133358459Y-109560295D02*
X133310840Y-109465057D01*
X133310840Y-109465057D02*
X133263221Y-109417438D01*
X133263221Y-109417438D02*
X133167983Y-109369819D01*
X133167983Y-109369819D02*
X132929888Y-109369819D01*
X132929888Y-109369819D02*
X132787031Y-109417438D01*
X132167983Y-109369819D02*
X131977507Y-109369819D01*
X131977507Y-109369819D02*
X131882269Y-109417438D01*
X131882269Y-109417438D02*
X131787031Y-109512676D01*
X131787031Y-109512676D02*
X131739412Y-109703152D01*
X131739412Y-109703152D02*
X131739412Y-110036485D01*
X131739412Y-110036485D02*
X131787031Y-110226961D01*
X131787031Y-110226961D02*
X131882269Y-110322200D01*
X131882269Y-110322200D02*
X131977507Y-110369819D01*
X131977507Y-110369819D02*
X132167983Y-110369819D01*
X132167983Y-110369819D02*
X132263221Y-110322200D01*
X132263221Y-110322200D02*
X132358459Y-110226961D01*
X132358459Y-110226961D02*
X132406078Y-110036485D01*
X132406078Y-110036485D02*
X132406078Y-109703152D01*
X132406078Y-109703152D02*
X132358459Y-109512676D01*
X132358459Y-109512676D02*
X132263221Y-109417438D01*
X132263221Y-109417438D02*
X132167983Y-109369819D01*
X131072745Y-110703152D02*
X131072745Y-109274580D01*
X129834650Y-109417438D02*
X129929888Y-109369819D01*
X129929888Y-109369819D02*
X130072745Y-109369819D01*
X130072745Y-109369819D02*
X130215602Y-109417438D01*
X130215602Y-109417438D02*
X130310840Y-109512676D01*
X130310840Y-109512676D02*
X130358459Y-109607914D01*
X130358459Y-109607914D02*
X130406078Y-109798390D01*
X130406078Y-109798390D02*
X130406078Y-109941247D01*
X130406078Y-109941247D02*
X130358459Y-110131723D01*
X130358459Y-110131723D02*
X130310840Y-110226961D01*
X130310840Y-110226961D02*
X130215602Y-110322200D01*
X130215602Y-110322200D02*
X130072745Y-110369819D01*
X130072745Y-110369819D02*
X129977507Y-110369819D01*
X129977507Y-110369819D02*
X129834650Y-110322200D01*
X129834650Y-110322200D02*
X129787031Y-110274580D01*
X129787031Y-110274580D02*
X129787031Y-109941247D01*
X129787031Y-109941247D02*
X129977507Y-109941247D01*
X129358459Y-110369819D02*
X129358459Y-109369819D01*
X129358459Y-109369819D02*
X128787031Y-110369819D01*
X128787031Y-110369819D02*
X128787031Y-109369819D01*
X128310840Y-110369819D02*
X128310840Y-109369819D01*
X128310840Y-109369819D02*
X128072745Y-109369819D01*
X128072745Y-109369819D02*
X127929888Y-109417438D01*
X127929888Y-109417438D02*
X127834650Y-109512676D01*
X127834650Y-109512676D02*
X127787031Y-109607914D01*
X127787031Y-109607914D02*
X127739412Y-109798390D01*
X127739412Y-109798390D02*
X127739412Y-109941247D01*
X127739412Y-109941247D02*
X127787031Y-110131723D01*
X127787031Y-110131723D02*
X127834650Y-110226961D01*
X127834650Y-110226961D02*
X127929888Y-110322200D01*
X127929888Y-110322200D02*
X128072745Y-110369819D01*
X128072745Y-110369819D02*
X128310840Y-110369819D01*
X137363220Y-114869819D02*
X137363220Y-113869819D01*
X137363220Y-113869819D02*
X136982268Y-113869819D01*
X136982268Y-113869819D02*
X136887030Y-113917438D01*
X136887030Y-113917438D02*
X136839411Y-113965057D01*
X136839411Y-113965057D02*
X136791792Y-114060295D01*
X136791792Y-114060295D02*
X136791792Y-114203152D01*
X136791792Y-114203152D02*
X136839411Y-114298390D01*
X136839411Y-114298390D02*
X136887030Y-114346009D01*
X136887030Y-114346009D02*
X136982268Y-114393628D01*
X136982268Y-114393628D02*
X137363220Y-114393628D01*
X136458458Y-113869819D02*
X136220363Y-114869819D01*
X136220363Y-114869819D02*
X136029887Y-114155533D01*
X136029887Y-114155533D02*
X135839411Y-114869819D01*
X135839411Y-114869819D02*
X135601316Y-113869819D01*
X135220363Y-114869819D02*
X135220363Y-113869819D01*
X135220363Y-113869819D02*
X134887030Y-114584104D01*
X134887030Y-114584104D02*
X134553697Y-113869819D01*
X134553697Y-113869819D02*
X134553697Y-114869819D01*
X133839411Y-115203152D02*
X133839411Y-113774580D01*
X132648935Y-113869819D02*
X133125125Y-113869819D01*
X133125125Y-113869819D02*
X133172744Y-114346009D01*
X133172744Y-114346009D02*
X133125125Y-114298390D01*
X133125125Y-114298390D02*
X133029887Y-114250771D01*
X133029887Y-114250771D02*
X132791792Y-114250771D01*
X132791792Y-114250771D02*
X132696554Y-114298390D01*
X132696554Y-114298390D02*
X132648935Y-114346009D01*
X132648935Y-114346009D02*
X132601316Y-114441247D01*
X132601316Y-114441247D02*
X132601316Y-114679342D01*
X132601316Y-114679342D02*
X132648935Y-114774580D01*
X132648935Y-114774580D02*
X132696554Y-114822200D01*
X132696554Y-114822200D02*
X132791792Y-114869819D01*
X132791792Y-114869819D02*
X133029887Y-114869819D01*
X133029887Y-114869819D02*
X133125125Y-114822200D01*
X133125125Y-114822200D02*
X133172744Y-114774580D01*
X132315601Y-113869819D02*
X131982268Y-114869819D01*
X131982268Y-114869819D02*
X131648935Y-113869819D01*
X131077506Y-115203152D02*
X131077506Y-113774580D01*
X129839411Y-113917438D02*
X129934649Y-113869819D01*
X129934649Y-113869819D02*
X130077506Y-113869819D01*
X130077506Y-113869819D02*
X130220363Y-113917438D01*
X130220363Y-113917438D02*
X130315601Y-114012676D01*
X130315601Y-114012676D02*
X130363220Y-114107914D01*
X130363220Y-114107914D02*
X130410839Y-114298390D01*
X130410839Y-114298390D02*
X130410839Y-114441247D01*
X130410839Y-114441247D02*
X130363220Y-114631723D01*
X130363220Y-114631723D02*
X130315601Y-114726961D01*
X130315601Y-114726961D02*
X130220363Y-114822200D01*
X130220363Y-114822200D02*
X130077506Y-114869819D01*
X130077506Y-114869819D02*
X129982268Y-114869819D01*
X129982268Y-114869819D02*
X129839411Y-114822200D01*
X129839411Y-114822200D02*
X129791792Y-114774580D01*
X129791792Y-114774580D02*
X129791792Y-114441247D01*
X129791792Y-114441247D02*
X129982268Y-114441247D01*
X129363220Y-114869819D02*
X129363220Y-113869819D01*
X129363220Y-113869819D02*
X128791792Y-114869819D01*
X128791792Y-114869819D02*
X128791792Y-113869819D01*
X128315601Y-114869819D02*
X128315601Y-113869819D01*
X128315601Y-113869819D02*
X128077506Y-113869819D01*
X128077506Y-113869819D02*
X127934649Y-113917438D01*
X127934649Y-113917438D02*
X127839411Y-114012676D01*
X127839411Y-114012676D02*
X127791792Y-114107914D01*
X127791792Y-114107914D02*
X127744173Y-114298390D01*
X127744173Y-114298390D02*
X127744173Y-114441247D01*
X127744173Y-114441247D02*
X127791792Y-114631723D01*
X127791792Y-114631723D02*
X127839411Y-114726961D01*
X127839411Y-114726961D02*
X127934649Y-114822200D01*
X127934649Y-114822200D02*
X128077506Y-114869819D01*
X128077506Y-114869819D02*
X128315601Y-114869819D01*
X141763220Y-105346009D02*
X141429887Y-105346009D01*
X141287030Y-105869819D02*
X141763220Y-105869819D01*
X141763220Y-105869819D02*
X141763220Y-104869819D01*
X141763220Y-104869819D02*
X141287030Y-104869819D01*
X140287030Y-105774580D02*
X140334649Y-105822200D01*
X140334649Y-105822200D02*
X140477506Y-105869819D01*
X140477506Y-105869819D02*
X140572744Y-105869819D01*
X140572744Y-105869819D02*
X140715601Y-105822200D01*
X140715601Y-105822200D02*
X140810839Y-105726961D01*
X140810839Y-105726961D02*
X140858458Y-105631723D01*
X140858458Y-105631723D02*
X140906077Y-105441247D01*
X140906077Y-105441247D02*
X140906077Y-105298390D01*
X140906077Y-105298390D02*
X140858458Y-105107914D01*
X140858458Y-105107914D02*
X140810839Y-105012676D01*
X140810839Y-105012676D02*
X140715601Y-104917438D01*
X140715601Y-104917438D02*
X140572744Y-104869819D01*
X140572744Y-104869819D02*
X140477506Y-104869819D01*
X140477506Y-104869819D02*
X140334649Y-104917438D01*
X140334649Y-104917438D02*
X140287030Y-104965057D01*
X139906077Y-105822200D02*
X139763220Y-105869819D01*
X139763220Y-105869819D02*
X139525125Y-105869819D01*
X139525125Y-105869819D02*
X139429887Y-105822200D01*
X139429887Y-105822200D02*
X139382268Y-105774580D01*
X139382268Y-105774580D02*
X139334649Y-105679342D01*
X139334649Y-105679342D02*
X139334649Y-105584104D01*
X139334649Y-105584104D02*
X139382268Y-105488866D01*
X139382268Y-105488866D02*
X139429887Y-105441247D01*
X139429887Y-105441247D02*
X139525125Y-105393628D01*
X139525125Y-105393628D02*
X139715601Y-105346009D01*
X139715601Y-105346009D02*
X139810839Y-105298390D01*
X139810839Y-105298390D02*
X139858458Y-105250771D01*
X139858458Y-105250771D02*
X139906077Y-105155533D01*
X139906077Y-105155533D02*
X139906077Y-105060295D01*
X139906077Y-105060295D02*
X139858458Y-104965057D01*
X139858458Y-104965057D02*
X139810839Y-104917438D01*
X139810839Y-104917438D02*
X139715601Y-104869819D01*
X139715601Y-104869819D02*
X139477506Y-104869819D01*
X139477506Y-104869819D02*
X139334649Y-104917438D01*
X138667982Y-106203152D02*
X138667982Y-104774580D01*
X137382268Y-105869819D02*
X137715601Y-105393628D01*
X137953696Y-105869819D02*
X137953696Y-104869819D01*
X137953696Y-104869819D02*
X137572744Y-104869819D01*
X137572744Y-104869819D02*
X137477506Y-104917438D01*
X137477506Y-104917438D02*
X137429887Y-104965057D01*
X137429887Y-104965057D02*
X137382268Y-105060295D01*
X137382268Y-105060295D02*
X137382268Y-105203152D01*
X137382268Y-105203152D02*
X137429887Y-105298390D01*
X137429887Y-105298390D02*
X137477506Y-105346009D01*
X137477506Y-105346009D02*
X137572744Y-105393628D01*
X137572744Y-105393628D02*
X137953696Y-105393628D01*
X136382268Y-105774580D02*
X136429887Y-105822200D01*
X136429887Y-105822200D02*
X136572744Y-105869819D01*
X136572744Y-105869819D02*
X136667982Y-105869819D01*
X136667982Y-105869819D02*
X136810839Y-105822200D01*
X136810839Y-105822200D02*
X136906077Y-105726961D01*
X136906077Y-105726961D02*
X136953696Y-105631723D01*
X136953696Y-105631723D02*
X137001315Y-105441247D01*
X137001315Y-105441247D02*
X137001315Y-105298390D01*
X137001315Y-105298390D02*
X136953696Y-105107914D01*
X136953696Y-105107914D02*
X136906077Y-105012676D01*
X136906077Y-105012676D02*
X136810839Y-104917438D01*
X136810839Y-104917438D02*
X136667982Y-104869819D01*
X136667982Y-104869819D02*
X136572744Y-104869819D01*
X136572744Y-104869819D02*
X136429887Y-104917438D01*
X136429887Y-104917438D02*
X136382268Y-104965057D01*
X136001315Y-105822200D02*
X135858458Y-105869819D01*
X135858458Y-105869819D02*
X135620363Y-105869819D01*
X135620363Y-105869819D02*
X135525125Y-105822200D01*
X135525125Y-105822200D02*
X135477506Y-105774580D01*
X135477506Y-105774580D02*
X135429887Y-105679342D01*
X135429887Y-105679342D02*
X135429887Y-105584104D01*
X135429887Y-105584104D02*
X135477506Y-105488866D01*
X135477506Y-105488866D02*
X135525125Y-105441247D01*
X135525125Y-105441247D02*
X135620363Y-105393628D01*
X135620363Y-105393628D02*
X135810839Y-105346009D01*
X135810839Y-105346009D02*
X135906077Y-105298390D01*
X135906077Y-105298390D02*
X135953696Y-105250771D01*
X135953696Y-105250771D02*
X136001315Y-105155533D01*
X136001315Y-105155533D02*
X136001315Y-105060295D01*
X136001315Y-105060295D02*
X135953696Y-104965057D01*
X135953696Y-104965057D02*
X135906077Y-104917438D01*
X135906077Y-104917438D02*
X135810839Y-104869819D01*
X135810839Y-104869819D02*
X135572744Y-104869819D01*
X135572744Y-104869819D02*
X135429887Y-104917438D01*
X134763220Y-106203152D02*
X134763220Y-104774580D01*
X133477506Y-105869819D02*
X133810839Y-105393628D01*
X134048934Y-105869819D02*
X134048934Y-104869819D01*
X134048934Y-104869819D02*
X133667982Y-104869819D01*
X133667982Y-104869819D02*
X133572744Y-104917438D01*
X133572744Y-104917438D02*
X133525125Y-104965057D01*
X133525125Y-104965057D02*
X133477506Y-105060295D01*
X133477506Y-105060295D02*
X133477506Y-105203152D01*
X133477506Y-105203152D02*
X133525125Y-105298390D01*
X133525125Y-105298390D02*
X133572744Y-105346009D01*
X133572744Y-105346009D02*
X133667982Y-105393628D01*
X133667982Y-105393628D02*
X134048934Y-105393628D01*
X133096553Y-105822200D02*
X132953696Y-105869819D01*
X132953696Y-105869819D02*
X132715601Y-105869819D01*
X132715601Y-105869819D02*
X132620363Y-105822200D01*
X132620363Y-105822200D02*
X132572744Y-105774580D01*
X132572744Y-105774580D02*
X132525125Y-105679342D01*
X132525125Y-105679342D02*
X132525125Y-105584104D01*
X132525125Y-105584104D02*
X132572744Y-105488866D01*
X132572744Y-105488866D02*
X132620363Y-105441247D01*
X132620363Y-105441247D02*
X132715601Y-105393628D01*
X132715601Y-105393628D02*
X132906077Y-105346009D01*
X132906077Y-105346009D02*
X133001315Y-105298390D01*
X133001315Y-105298390D02*
X133048934Y-105250771D01*
X133048934Y-105250771D02*
X133096553Y-105155533D01*
X133096553Y-105155533D02*
X133096553Y-105060295D01*
X133096553Y-105060295D02*
X133048934Y-104965057D01*
X133048934Y-104965057D02*
X133001315Y-104917438D01*
X133001315Y-104917438D02*
X132906077Y-104869819D01*
X132906077Y-104869819D02*
X132667982Y-104869819D01*
X132667982Y-104869819D02*
X132525125Y-104917438D01*
X132239410Y-104869819D02*
X131667982Y-104869819D01*
X131953696Y-105869819D02*
X131953696Y-104869819D01*
X131096553Y-106203152D02*
X131096553Y-104774580D01*
X129858458Y-104917438D02*
X129953696Y-104869819D01*
X129953696Y-104869819D02*
X130096553Y-104869819D01*
X130096553Y-104869819D02*
X130239410Y-104917438D01*
X130239410Y-104917438D02*
X130334648Y-105012676D01*
X130334648Y-105012676D02*
X130382267Y-105107914D01*
X130382267Y-105107914D02*
X130429886Y-105298390D01*
X130429886Y-105298390D02*
X130429886Y-105441247D01*
X130429886Y-105441247D02*
X130382267Y-105631723D01*
X130382267Y-105631723D02*
X130334648Y-105726961D01*
X130334648Y-105726961D02*
X130239410Y-105822200D01*
X130239410Y-105822200D02*
X130096553Y-105869819D01*
X130096553Y-105869819D02*
X130001315Y-105869819D01*
X130001315Y-105869819D02*
X129858458Y-105822200D01*
X129858458Y-105822200D02*
X129810839Y-105774580D01*
X129810839Y-105774580D02*
X129810839Y-105441247D01*
X129810839Y-105441247D02*
X130001315Y-105441247D01*
X129382267Y-105869819D02*
X129382267Y-104869819D01*
X129382267Y-104869819D02*
X128810839Y-105869819D01*
X128810839Y-105869819D02*
X128810839Y-104869819D01*
X128334648Y-105869819D02*
X128334648Y-104869819D01*
X128334648Y-104869819D02*
X128096553Y-104869819D01*
X128096553Y-104869819D02*
X127953696Y-104917438D01*
X127953696Y-104917438D02*
X127858458Y-105012676D01*
X127858458Y-105012676D02*
X127810839Y-105107914D01*
X127810839Y-105107914D02*
X127763220Y-105298390D01*
X127763220Y-105298390D02*
X127763220Y-105441247D01*
X127763220Y-105441247D02*
X127810839Y-105631723D01*
X127810839Y-105631723D02*
X127858458Y-105726961D01*
X127858458Y-105726961D02*
X127953696Y-105822200D01*
X127953696Y-105822200D02*
X128096553Y-105869819D01*
X128096553Y-105869819D02*
X128334648Y-105869819D01*
X176345287Y-74606009D02*
X176678620Y-74606009D01*
X176678620Y-75129819D02*
X176678620Y-74129819D01*
X176678620Y-74129819D02*
X176202430Y-74129819D01*
X175250049Y-75129819D02*
X175583382Y-74653628D01*
X175821477Y-75129819D02*
X175821477Y-74129819D01*
X175821477Y-74129819D02*
X175440525Y-74129819D01*
X175440525Y-74129819D02*
X175345287Y-74177438D01*
X175345287Y-74177438D02*
X175297668Y-74225057D01*
X175297668Y-74225057D02*
X175250049Y-74320295D01*
X175250049Y-74320295D02*
X175250049Y-74463152D01*
X175250049Y-74463152D02*
X175297668Y-74558390D01*
X175297668Y-74558390D02*
X175345287Y-74606009D01*
X175345287Y-74606009D02*
X175440525Y-74653628D01*
X175440525Y-74653628D02*
X175821477Y-74653628D01*
X174821477Y-75129819D02*
X174821477Y-74129819D01*
X174821477Y-74129819D02*
X174583382Y-74129819D01*
X174583382Y-74129819D02*
X174440525Y-74177438D01*
X174440525Y-74177438D02*
X174345287Y-74272676D01*
X174345287Y-74272676D02*
X174297668Y-74367914D01*
X174297668Y-74367914D02*
X174250049Y-74558390D01*
X174250049Y-74558390D02*
X174250049Y-74701247D01*
X174250049Y-74701247D02*
X174297668Y-74891723D01*
X174297668Y-74891723D02*
X174345287Y-74986961D01*
X174345287Y-74986961D02*
X174440525Y-75082200D01*
X174440525Y-75082200D02*
X174583382Y-75129819D01*
X174583382Y-75129819D02*
X174821477Y-75129819D01*
X173821477Y-75129819D02*
X173821477Y-74129819D01*
X173821477Y-74129819D02*
X173488144Y-74844104D01*
X173488144Y-74844104D02*
X173154811Y-74129819D01*
X173154811Y-74129819D02*
X173154811Y-75129819D01*
X172678620Y-74748866D02*
X171916716Y-74748866D01*
X171440525Y-75129819D02*
X171440525Y-74129819D01*
X171440525Y-74129819D02*
X171107192Y-74844104D01*
X171107192Y-74844104D02*
X170773859Y-74129819D01*
X170773859Y-74129819D02*
X170773859Y-75129819D01*
X169726240Y-75034580D02*
X169773859Y-75082200D01*
X169773859Y-75082200D02*
X169916716Y-75129819D01*
X169916716Y-75129819D02*
X170011954Y-75129819D01*
X170011954Y-75129819D02*
X170154811Y-75082200D01*
X170154811Y-75082200D02*
X170250049Y-74986961D01*
X170250049Y-74986961D02*
X170297668Y-74891723D01*
X170297668Y-74891723D02*
X170345287Y-74701247D01*
X170345287Y-74701247D02*
X170345287Y-74558390D01*
X170345287Y-74558390D02*
X170297668Y-74367914D01*
X170297668Y-74367914D02*
X170250049Y-74272676D01*
X170250049Y-74272676D02*
X170154811Y-74177438D01*
X170154811Y-74177438D02*
X170011954Y-74129819D01*
X170011954Y-74129819D02*
X169916716Y-74129819D01*
X169916716Y-74129819D02*
X169773859Y-74177438D01*
X169773859Y-74177438D02*
X169726240Y-74225057D01*
X169392906Y-74129819D02*
X168726240Y-75129819D01*
X168726240Y-74129819D02*
X169392906Y-75129819D01*
X168440525Y-75129819D02*
X167916716Y-74463152D01*
X168440525Y-74463152D02*
X167916716Y-75129819D01*
X167535763Y-74748866D02*
X166773859Y-74748866D01*
X166345287Y-75082200D02*
X166202430Y-75129819D01*
X166202430Y-75129819D02*
X165964335Y-75129819D01*
X165964335Y-75129819D02*
X165869097Y-75082200D01*
X165869097Y-75082200D02*
X165821478Y-75034580D01*
X165821478Y-75034580D02*
X165773859Y-74939342D01*
X165773859Y-74939342D02*
X165773859Y-74844104D01*
X165773859Y-74844104D02*
X165821478Y-74748866D01*
X165821478Y-74748866D02*
X165869097Y-74701247D01*
X165869097Y-74701247D02*
X165964335Y-74653628D01*
X165964335Y-74653628D02*
X166154811Y-74606009D01*
X166154811Y-74606009D02*
X166250049Y-74558390D01*
X166250049Y-74558390D02*
X166297668Y-74510771D01*
X166297668Y-74510771D02*
X166345287Y-74415533D01*
X166345287Y-74415533D02*
X166345287Y-74320295D01*
X166345287Y-74320295D02*
X166297668Y-74225057D01*
X166297668Y-74225057D02*
X166250049Y-74177438D01*
X166250049Y-74177438D02*
X166154811Y-74129819D01*
X166154811Y-74129819D02*
X165916716Y-74129819D01*
X165916716Y-74129819D02*
X165773859Y-74177438D01*
X165345287Y-75129819D02*
X165345287Y-74129819D01*
X164916716Y-75129819D02*
X164916716Y-74606009D01*
X164916716Y-74606009D02*
X164964335Y-74510771D01*
X164964335Y-74510771D02*
X165059573Y-74463152D01*
X165059573Y-74463152D02*
X165202430Y-74463152D01*
X165202430Y-74463152D02*
X165297668Y-74510771D01*
X165297668Y-74510771D02*
X165345287Y-74558390D01*
X164440525Y-75129819D02*
X164440525Y-74463152D01*
X164440525Y-74129819D02*
X164488144Y-74177438D01*
X164488144Y-74177438D02*
X164440525Y-74225057D01*
X164440525Y-74225057D02*
X164392906Y-74177438D01*
X164392906Y-74177438D02*
X164440525Y-74129819D01*
X164440525Y-74129819D02*
X164440525Y-74225057D01*
X163583383Y-75082200D02*
X163678621Y-75129819D01*
X163678621Y-75129819D02*
X163869097Y-75129819D01*
X163869097Y-75129819D02*
X163964335Y-75082200D01*
X163964335Y-75082200D02*
X164011954Y-74986961D01*
X164011954Y-74986961D02*
X164011954Y-74606009D01*
X164011954Y-74606009D02*
X163964335Y-74510771D01*
X163964335Y-74510771D02*
X163869097Y-74463152D01*
X163869097Y-74463152D02*
X163678621Y-74463152D01*
X163678621Y-74463152D02*
X163583383Y-74510771D01*
X163583383Y-74510771D02*
X163535764Y-74606009D01*
X163535764Y-74606009D02*
X163535764Y-74701247D01*
X163535764Y-74701247D02*
X164011954Y-74796485D01*
X162964335Y-75129819D02*
X163059573Y-75082200D01*
X163059573Y-75082200D02*
X163107192Y-74986961D01*
X163107192Y-74986961D02*
X163107192Y-74129819D01*
X162154811Y-75129819D02*
X162154811Y-74129819D01*
X162154811Y-75082200D02*
X162250049Y-75129819D01*
X162250049Y-75129819D02*
X162440525Y-75129819D01*
X162440525Y-75129819D02*
X162535763Y-75082200D01*
X162535763Y-75082200D02*
X162583382Y-75034580D01*
X162583382Y-75034580D02*
X162631001Y-74939342D01*
X162631001Y-74939342D02*
X162631001Y-74653628D01*
X162631001Y-74653628D02*
X162583382Y-74558390D01*
X162583382Y-74558390D02*
X162535763Y-74510771D01*
X162535763Y-74510771D02*
X162440525Y-74463152D01*
X162440525Y-74463152D02*
X162250049Y-74463152D01*
X162250049Y-74463152D02*
X162154811Y-74510771D01*
X176821477Y-75739763D02*
X176488144Y-76739763D01*
X176488144Y-76739763D02*
X176154811Y-75739763D01*
X175869096Y-75835001D02*
X175821477Y-75787382D01*
X175821477Y-75787382D02*
X175726239Y-75739763D01*
X175726239Y-75739763D02*
X175488144Y-75739763D01*
X175488144Y-75739763D02*
X175392906Y-75787382D01*
X175392906Y-75787382D02*
X175345287Y-75835001D01*
X175345287Y-75835001D02*
X175297668Y-75930239D01*
X175297668Y-75930239D02*
X175297668Y-76025477D01*
X175297668Y-76025477D02*
X175345287Y-76168334D01*
X175345287Y-76168334D02*
X175916715Y-76739763D01*
X175916715Y-76739763D02*
X175297668Y-76739763D01*
X174869096Y-76644524D02*
X174821477Y-76692144D01*
X174821477Y-76692144D02*
X174869096Y-76739763D01*
X174869096Y-76739763D02*
X174916715Y-76692144D01*
X174916715Y-76692144D02*
X174869096Y-76644524D01*
X174869096Y-76644524D02*
X174869096Y-76739763D01*
X174202430Y-75739763D02*
X174107192Y-75739763D01*
X174107192Y-75739763D02*
X174011954Y-75787382D01*
X174011954Y-75787382D02*
X173964335Y-75835001D01*
X173964335Y-75835001D02*
X173916716Y-75930239D01*
X173916716Y-75930239D02*
X173869097Y-76120715D01*
X173869097Y-76120715D02*
X173869097Y-76358810D01*
X173869097Y-76358810D02*
X173916716Y-76549286D01*
X173916716Y-76549286D02*
X173964335Y-76644524D01*
X173964335Y-76644524D02*
X174011954Y-76692144D01*
X174011954Y-76692144D02*
X174107192Y-76739763D01*
X174107192Y-76739763D02*
X174202430Y-76739763D01*
X174202430Y-76739763D02*
X174297668Y-76692144D01*
X174297668Y-76692144D02*
X174345287Y-76644524D01*
X174345287Y-76644524D02*
X174392906Y-76549286D01*
X174392906Y-76549286D02*
X174440525Y-76358810D01*
X174440525Y-76358810D02*
X174440525Y-76120715D01*
X174440525Y-76120715D02*
X174392906Y-75930239D01*
X174392906Y-75930239D02*
X174345287Y-75835001D01*
X174345287Y-75835001D02*
X174297668Y-75787382D01*
X174297668Y-75787382D02*
X174202430Y-75739763D01*
X176821477Y-77349707D02*
X176250049Y-77349707D01*
X176535763Y-78349707D02*
X176535763Y-77349707D01*
X175916715Y-78349707D02*
X175916715Y-77349707D01*
X175488144Y-78349707D02*
X175488144Y-77825897D01*
X175488144Y-77825897D02*
X175535763Y-77730659D01*
X175535763Y-77730659D02*
X175631001Y-77683040D01*
X175631001Y-77683040D02*
X175773858Y-77683040D01*
X175773858Y-77683040D02*
X175869096Y-77730659D01*
X175869096Y-77730659D02*
X175916715Y-77778278D01*
X174869096Y-78349707D02*
X174964334Y-78302088D01*
X174964334Y-78302088D02*
X175011953Y-78254468D01*
X175011953Y-78254468D02*
X175059572Y-78159230D01*
X175059572Y-78159230D02*
X175059572Y-77873516D01*
X175059572Y-77873516D02*
X175011953Y-77778278D01*
X175011953Y-77778278D02*
X174964334Y-77730659D01*
X174964334Y-77730659D02*
X174869096Y-77683040D01*
X174869096Y-77683040D02*
X174726239Y-77683040D01*
X174726239Y-77683040D02*
X174631001Y-77730659D01*
X174631001Y-77730659D02*
X174583382Y-77778278D01*
X174583382Y-77778278D02*
X174535763Y-77873516D01*
X174535763Y-77873516D02*
X174535763Y-78159230D01*
X174535763Y-78159230D02*
X174583382Y-78254468D01*
X174583382Y-78254468D02*
X174631001Y-78302088D01*
X174631001Y-78302088D02*
X174726239Y-78349707D01*
X174726239Y-78349707D02*
X174869096Y-78349707D01*
X174107191Y-78349707D02*
X174107191Y-77683040D01*
X174107191Y-77778278D02*
X174059572Y-77730659D01*
X174059572Y-77730659D02*
X173964334Y-77683040D01*
X173964334Y-77683040D02*
X173821477Y-77683040D01*
X173821477Y-77683040D02*
X173726239Y-77730659D01*
X173726239Y-77730659D02*
X173678620Y-77825897D01*
X173678620Y-77825897D02*
X173678620Y-78349707D01*
X173678620Y-77825897D02*
X173631001Y-77730659D01*
X173631001Y-77730659D02*
X173535763Y-77683040D01*
X173535763Y-77683040D02*
X173392906Y-77683040D01*
X173392906Y-77683040D02*
X173297667Y-77730659D01*
X173297667Y-77730659D02*
X173250048Y-77825897D01*
X173250048Y-77825897D02*
X173250048Y-78349707D01*
X172345287Y-78349707D02*
X172345287Y-77825897D01*
X172345287Y-77825897D02*
X172392906Y-77730659D01*
X172392906Y-77730659D02*
X172488144Y-77683040D01*
X172488144Y-77683040D02*
X172678620Y-77683040D01*
X172678620Y-77683040D02*
X172773858Y-77730659D01*
X172345287Y-78302088D02*
X172440525Y-78349707D01*
X172440525Y-78349707D02*
X172678620Y-78349707D01*
X172678620Y-78349707D02*
X172773858Y-78302088D01*
X172773858Y-78302088D02*
X172821477Y-78206849D01*
X172821477Y-78206849D02*
X172821477Y-78111611D01*
X172821477Y-78111611D02*
X172773858Y-78016373D01*
X172773858Y-78016373D02*
X172678620Y-77968754D01*
X172678620Y-77968754D02*
X172440525Y-77968754D01*
X172440525Y-77968754D02*
X172345287Y-77921135D01*
X171916715Y-78302088D02*
X171821477Y-78349707D01*
X171821477Y-78349707D02*
X171631001Y-78349707D01*
X171631001Y-78349707D02*
X171535763Y-78302088D01*
X171535763Y-78302088D02*
X171488144Y-78206849D01*
X171488144Y-78206849D02*
X171488144Y-78159230D01*
X171488144Y-78159230D02*
X171535763Y-78063992D01*
X171535763Y-78063992D02*
X171631001Y-78016373D01*
X171631001Y-78016373D02*
X171773858Y-78016373D01*
X171773858Y-78016373D02*
X171869096Y-77968754D01*
X171869096Y-77968754D02*
X171916715Y-77873516D01*
X171916715Y-77873516D02*
X171916715Y-77825897D01*
X171916715Y-77825897D02*
X171869096Y-77730659D01*
X171869096Y-77730659D02*
X171773858Y-77683040D01*
X171773858Y-77683040D02*
X171631001Y-77683040D01*
X171631001Y-77683040D02*
X171535763Y-77730659D01*
X170297667Y-78349707D02*
X170297667Y-77349707D01*
X169773858Y-78302088D02*
X169773858Y-78349707D01*
X169773858Y-78349707D02*
X169821477Y-78444945D01*
X169821477Y-78444945D02*
X169869096Y-78492564D01*
X168583382Y-78349707D02*
X168583382Y-77349707D01*
X168583382Y-77825897D02*
X168011954Y-77825897D01*
X168011954Y-78349707D02*
X168011954Y-77349707D01*
X167107192Y-77683040D02*
X167107192Y-78349707D01*
X167535763Y-77683040D02*
X167535763Y-78206849D01*
X167535763Y-78206849D02*
X167488144Y-78302088D01*
X167488144Y-78302088D02*
X167392906Y-78349707D01*
X167392906Y-78349707D02*
X167250049Y-78349707D01*
X167250049Y-78349707D02*
X167154811Y-78302088D01*
X167154811Y-78302088D02*
X167107192Y-78254468D01*
X166202430Y-77683040D02*
X166202430Y-78492564D01*
X166202430Y-78492564D02*
X166250049Y-78587802D01*
X166250049Y-78587802D02*
X166297668Y-78635421D01*
X166297668Y-78635421D02*
X166392906Y-78683040D01*
X166392906Y-78683040D02*
X166535763Y-78683040D01*
X166535763Y-78683040D02*
X166631001Y-78635421D01*
X166202430Y-78302088D02*
X166297668Y-78349707D01*
X166297668Y-78349707D02*
X166488144Y-78349707D01*
X166488144Y-78349707D02*
X166583382Y-78302088D01*
X166583382Y-78302088D02*
X166631001Y-78254468D01*
X166631001Y-78254468D02*
X166678620Y-78159230D01*
X166678620Y-78159230D02*
X166678620Y-77873516D01*
X166678620Y-77873516D02*
X166631001Y-77778278D01*
X166631001Y-77778278D02*
X166583382Y-77730659D01*
X166583382Y-77730659D02*
X166488144Y-77683040D01*
X166488144Y-77683040D02*
X166297668Y-77683040D01*
X166297668Y-77683040D02*
X166202430Y-77730659D01*
X165583382Y-78349707D02*
X165678620Y-78302088D01*
X165678620Y-78302088D02*
X165726239Y-78254468D01*
X165726239Y-78254468D02*
X165773858Y-78159230D01*
X165773858Y-78159230D02*
X165773858Y-77873516D01*
X165773858Y-77873516D02*
X165726239Y-77778278D01*
X165726239Y-77778278D02*
X165678620Y-77730659D01*
X165678620Y-77730659D02*
X165583382Y-77683040D01*
X165583382Y-77683040D02*
X165440525Y-77683040D01*
X165440525Y-77683040D02*
X165345287Y-77730659D01*
X165345287Y-77730659D02*
X165297668Y-77778278D01*
X165297668Y-77778278D02*
X165250049Y-77873516D01*
X165250049Y-77873516D02*
X165250049Y-78159230D01*
X165250049Y-78159230D02*
X165297668Y-78254468D01*
X165297668Y-78254468D02*
X165345287Y-78302088D01*
X165345287Y-78302088D02*
X165440525Y-78349707D01*
X165440525Y-78349707D02*
X165583382Y-78349707D01*
X164107191Y-78063992D02*
X163631001Y-78063992D01*
X164202429Y-78349707D02*
X163869096Y-77349707D01*
X163869096Y-77349707D02*
X163535763Y-78349707D01*
X161631000Y-78349707D02*
X161678620Y-78349707D01*
X161678620Y-78349707D02*
X161773858Y-78302088D01*
X161773858Y-78302088D02*
X161916715Y-78159230D01*
X161916715Y-78159230D02*
X162154810Y-77873516D01*
X162154810Y-77873516D02*
X162250048Y-77730659D01*
X162250048Y-77730659D02*
X162297667Y-77587802D01*
X162297667Y-77587802D02*
X162297667Y-77492564D01*
X162297667Y-77492564D02*
X162250048Y-77397326D01*
X162250048Y-77397326D02*
X162154810Y-77349707D01*
X162154810Y-77349707D02*
X162107191Y-77349707D01*
X162107191Y-77349707D02*
X162011953Y-77397326D01*
X162011953Y-77397326D02*
X161964334Y-77492564D01*
X161964334Y-77492564D02*
X161964334Y-77540183D01*
X161964334Y-77540183D02*
X162011953Y-77635421D01*
X162011953Y-77635421D02*
X162059572Y-77683040D01*
X162059572Y-77683040D02*
X162345286Y-77873516D01*
X162345286Y-77873516D02*
X162392905Y-77921135D01*
X162392905Y-77921135D02*
X162440524Y-78016373D01*
X162440524Y-78016373D02*
X162440524Y-78159230D01*
X162440524Y-78159230D02*
X162392905Y-78254468D01*
X162392905Y-78254468D02*
X162345286Y-78302088D01*
X162345286Y-78302088D02*
X162250048Y-78349707D01*
X162250048Y-78349707D02*
X162107191Y-78349707D01*
X162107191Y-78349707D02*
X162011953Y-78302088D01*
X162011953Y-78302088D02*
X161964334Y-78254468D01*
X161964334Y-78254468D02*
X161821477Y-78063992D01*
X161821477Y-78063992D02*
X161773858Y-77921135D01*
X161773858Y-77921135D02*
X161773858Y-77825897D01*
X160440524Y-77825897D02*
X160107191Y-77825897D01*
X159964334Y-78349707D02*
X160440524Y-78349707D01*
X160440524Y-78349707D02*
X160440524Y-77349707D01*
X160440524Y-77349707D02*
X159964334Y-77349707D01*
X159535762Y-78349707D02*
X159535762Y-77683040D01*
X159535762Y-77778278D02*
X159488143Y-77730659D01*
X159488143Y-77730659D02*
X159392905Y-77683040D01*
X159392905Y-77683040D02*
X159250048Y-77683040D01*
X159250048Y-77683040D02*
X159154810Y-77730659D01*
X159154810Y-77730659D02*
X159107191Y-77825897D01*
X159107191Y-77825897D02*
X159107191Y-78349707D01*
X159107191Y-77825897D02*
X159059572Y-77730659D01*
X159059572Y-77730659D02*
X158964334Y-77683040D01*
X158964334Y-77683040D02*
X158821477Y-77683040D01*
X158821477Y-77683040D02*
X158726238Y-77730659D01*
X158726238Y-77730659D02*
X158678619Y-77825897D01*
X158678619Y-77825897D02*
X158678619Y-78349707D01*
X158202429Y-78349707D02*
X158202429Y-77683040D01*
X158202429Y-77349707D02*
X158250048Y-77397326D01*
X158250048Y-77397326D02*
X158202429Y-77444945D01*
X158202429Y-77444945D02*
X158154810Y-77397326D01*
X158154810Y-77397326D02*
X158202429Y-77349707D01*
X158202429Y-77349707D02*
X158202429Y-77444945D01*
X157345287Y-78302088D02*
X157440525Y-78349707D01*
X157440525Y-78349707D02*
X157631001Y-78349707D01*
X157631001Y-78349707D02*
X157726239Y-78302088D01*
X157726239Y-78302088D02*
X157773858Y-78206849D01*
X157773858Y-78206849D02*
X157773858Y-77825897D01*
X157773858Y-77825897D02*
X157726239Y-77730659D01*
X157726239Y-77730659D02*
X157631001Y-77683040D01*
X157631001Y-77683040D02*
X157440525Y-77683040D01*
X157440525Y-77683040D02*
X157345287Y-77730659D01*
X157345287Y-77730659D02*
X157297668Y-77825897D01*
X157297668Y-77825897D02*
X157297668Y-77921135D01*
X157297668Y-77921135D02*
X157773858Y-78016373D01*
X156726239Y-78349707D02*
X156821477Y-78302088D01*
X156821477Y-78302088D02*
X156869096Y-78206849D01*
X156869096Y-78206849D02*
X156869096Y-77349707D01*
X155726238Y-77349707D02*
X155392905Y-78349707D01*
X155392905Y-78349707D02*
X155059572Y-77349707D01*
X176202430Y-78959651D02*
X176678620Y-78959651D01*
X176678620Y-78959651D02*
X176726239Y-79435841D01*
X176726239Y-79435841D02*
X176678620Y-79388222D01*
X176678620Y-79388222D02*
X176583382Y-79340603D01*
X176583382Y-79340603D02*
X176345287Y-79340603D01*
X176345287Y-79340603D02*
X176250049Y-79388222D01*
X176250049Y-79388222D02*
X176202430Y-79435841D01*
X176202430Y-79435841D02*
X176154811Y-79531079D01*
X176154811Y-79531079D02*
X176154811Y-79769174D01*
X176154811Y-79769174D02*
X176202430Y-79864412D01*
X176202430Y-79864412D02*
X176250049Y-79912032D01*
X176250049Y-79912032D02*
X176345287Y-79959651D01*
X176345287Y-79959651D02*
X176583382Y-79959651D01*
X176583382Y-79959651D02*
X176678620Y-79912032D01*
X176678620Y-79912032D02*
X176726239Y-79864412D01*
X175726239Y-79578698D02*
X174964335Y-79578698D01*
X174011954Y-78959651D02*
X174488144Y-78959651D01*
X174488144Y-78959651D02*
X174535763Y-79435841D01*
X174535763Y-79435841D02*
X174488144Y-79388222D01*
X174488144Y-79388222D02*
X174392906Y-79340603D01*
X174392906Y-79340603D02*
X174154811Y-79340603D01*
X174154811Y-79340603D02*
X174059573Y-79388222D01*
X174059573Y-79388222D02*
X174011954Y-79435841D01*
X174011954Y-79435841D02*
X173964335Y-79531079D01*
X173964335Y-79531079D02*
X173964335Y-79769174D01*
X173964335Y-79769174D02*
X174011954Y-79864412D01*
X174011954Y-79864412D02*
X174059573Y-79912032D01*
X174059573Y-79912032D02*
X174154811Y-79959651D01*
X174154811Y-79959651D02*
X174392906Y-79959651D01*
X174392906Y-79959651D02*
X174488144Y-79912032D01*
X174488144Y-79912032D02*
X174535763Y-79864412D01*
X173535763Y-79578698D02*
X172773859Y-79578698D01*
X172345287Y-79054889D02*
X172297668Y-79007270D01*
X172297668Y-79007270D02*
X172202430Y-78959651D01*
X172202430Y-78959651D02*
X171964335Y-78959651D01*
X171964335Y-78959651D02*
X171869097Y-79007270D01*
X171869097Y-79007270D02*
X171821478Y-79054889D01*
X171821478Y-79054889D02*
X171773859Y-79150127D01*
X171773859Y-79150127D02*
X171773859Y-79245365D01*
X171773859Y-79245365D02*
X171821478Y-79388222D01*
X171821478Y-79388222D02*
X172392906Y-79959651D01*
X172392906Y-79959651D02*
X171773859Y-79959651D01*
X171154811Y-78959651D02*
X171059573Y-78959651D01*
X171059573Y-78959651D02*
X170964335Y-79007270D01*
X170964335Y-79007270D02*
X170916716Y-79054889D01*
X170916716Y-79054889D02*
X170869097Y-79150127D01*
X170869097Y-79150127D02*
X170821478Y-79340603D01*
X170821478Y-79340603D02*
X170821478Y-79578698D01*
X170821478Y-79578698D02*
X170869097Y-79769174D01*
X170869097Y-79769174D02*
X170916716Y-79864412D01*
X170916716Y-79864412D02*
X170964335Y-79912032D01*
X170964335Y-79912032D02*
X171059573Y-79959651D01*
X171059573Y-79959651D02*
X171154811Y-79959651D01*
X171154811Y-79959651D02*
X171250049Y-79912032D01*
X171250049Y-79912032D02*
X171297668Y-79864412D01*
X171297668Y-79864412D02*
X171345287Y-79769174D01*
X171345287Y-79769174D02*
X171392906Y-79578698D01*
X171392906Y-79578698D02*
X171392906Y-79340603D01*
X171392906Y-79340603D02*
X171345287Y-79150127D01*
X171345287Y-79150127D02*
X171297668Y-79054889D01*
X171297668Y-79054889D02*
X171250049Y-79007270D01*
X171250049Y-79007270D02*
X171154811Y-78959651D01*
X170440525Y-79054889D02*
X170392906Y-79007270D01*
X170392906Y-79007270D02*
X170297668Y-78959651D01*
X170297668Y-78959651D02*
X170059573Y-78959651D01*
X170059573Y-78959651D02*
X169964335Y-79007270D01*
X169964335Y-79007270D02*
X169916716Y-79054889D01*
X169916716Y-79054889D02*
X169869097Y-79150127D01*
X169869097Y-79150127D02*
X169869097Y-79245365D01*
X169869097Y-79245365D02*
X169916716Y-79388222D01*
X169916716Y-79388222D02*
X170488144Y-79959651D01*
X170488144Y-79959651D02*
X169869097Y-79959651D01*
X169011954Y-79292984D02*
X169011954Y-79959651D01*
X169250049Y-78912032D02*
X169488144Y-79626317D01*
X169488144Y-79626317D02*
X168869097Y-79626317D01*
D10*
X153830000Y-73340000D02*
X177765400Y-73340000D01*
X177765400Y-80710000D01*
X153830000Y-80710000D01*
X153830000Y-73340000D01*
D11*
X144768094Y-78244819D02*
X144768094Y-77244819D01*
X144768094Y-77244819D02*
X144529999Y-77244819D01*
X144529999Y-77244819D02*
X144387142Y-77292438D01*
X144387142Y-77292438D02*
X144291904Y-77387676D01*
X144291904Y-77387676D02*
X144244285Y-77482914D01*
X144244285Y-77482914D02*
X144196666Y-77673390D01*
X144196666Y-77673390D02*
X144196666Y-77816247D01*
X144196666Y-77816247D02*
X144244285Y-78006723D01*
X144244285Y-78006723D02*
X144291904Y-78101961D01*
X144291904Y-78101961D02*
X144387142Y-78197200D01*
X144387142Y-78197200D02*
X144529999Y-78244819D01*
X144529999Y-78244819D02*
X144768094Y-78244819D01*
X143720475Y-78244819D02*
X143529999Y-78244819D01*
X143529999Y-78244819D02*
X143434761Y-78197200D01*
X143434761Y-78197200D02*
X143387142Y-78149580D01*
X143387142Y-78149580D02*
X143291904Y-78006723D01*
X143291904Y-78006723D02*
X143244285Y-77816247D01*
X143244285Y-77816247D02*
X143244285Y-77435295D01*
X143244285Y-77435295D02*
X143291904Y-77340057D01*
X143291904Y-77340057D02*
X143339523Y-77292438D01*
X143339523Y-77292438D02*
X143434761Y-77244819D01*
X143434761Y-77244819D02*
X143625237Y-77244819D01*
X143625237Y-77244819D02*
X143720475Y-77292438D01*
X143720475Y-77292438D02*
X143768094Y-77340057D01*
X143768094Y-77340057D02*
X143815713Y-77435295D01*
X143815713Y-77435295D02*
X143815713Y-77673390D01*
X143815713Y-77673390D02*
X143768094Y-77768628D01*
X143768094Y-77768628D02*
X143720475Y-77816247D01*
X143720475Y-77816247D02*
X143625237Y-77863866D01*
X143625237Y-77863866D02*
X143434761Y-77863866D01*
X143434761Y-77863866D02*
X143339523Y-77816247D01*
X143339523Y-77816247D02*
X143291904Y-77768628D01*
X143291904Y-77768628D02*
X143244285Y-77673390D01*
X169744285Y-88904819D02*
X169744285Y-87904819D01*
X169744285Y-87904819D02*
X169506190Y-87904819D01*
X169506190Y-87904819D02*
X169363333Y-87952438D01*
X169363333Y-87952438D02*
X169268095Y-88047676D01*
X169268095Y-88047676D02*
X169220476Y-88142914D01*
X169220476Y-88142914D02*
X169172857Y-88333390D01*
X169172857Y-88333390D02*
X169172857Y-88476247D01*
X169172857Y-88476247D02*
X169220476Y-88666723D01*
X169220476Y-88666723D02*
X169268095Y-88761961D01*
X169268095Y-88761961D02*
X169363333Y-88857200D01*
X169363333Y-88857200D02*
X169506190Y-88904819D01*
X169506190Y-88904819D02*
X169744285Y-88904819D01*
X168220476Y-88904819D02*
X168791904Y-88904819D01*
X168506190Y-88904819D02*
X168506190Y-87904819D01*
X168506190Y-87904819D02*
X168601428Y-88047676D01*
X168601428Y-88047676D02*
X168696666Y-88142914D01*
X168696666Y-88142914D02*
X168791904Y-88190533D01*
X167839523Y-88000057D02*
X167791904Y-87952438D01*
X167791904Y-87952438D02*
X167696666Y-87904819D01*
X167696666Y-87904819D02*
X167458571Y-87904819D01*
X167458571Y-87904819D02*
X167363333Y-87952438D01*
X167363333Y-87952438D02*
X167315714Y-88000057D01*
X167315714Y-88000057D02*
X167268095Y-88095295D01*
X167268095Y-88095295D02*
X167268095Y-88190533D01*
X167268095Y-88190533D02*
X167315714Y-88333390D01*
X167315714Y-88333390D02*
X167887142Y-88904819D01*
X167887142Y-88904819D02*
X167268095Y-88904819D01*
X140304285Y-83094819D02*
X140304285Y-82094819D01*
X140304285Y-82094819D02*
X140066190Y-82094819D01*
X140066190Y-82094819D02*
X139923333Y-82142438D01*
X139923333Y-82142438D02*
X139828095Y-82237676D01*
X139828095Y-82237676D02*
X139780476Y-82332914D01*
X139780476Y-82332914D02*
X139732857Y-82523390D01*
X139732857Y-82523390D02*
X139732857Y-82666247D01*
X139732857Y-82666247D02*
X139780476Y-82856723D01*
X139780476Y-82856723D02*
X139828095Y-82951961D01*
X139828095Y-82951961D02*
X139923333Y-83047200D01*
X139923333Y-83047200D02*
X140066190Y-83094819D01*
X140066190Y-83094819D02*
X140304285Y-83094819D01*
X138780476Y-83094819D02*
X139351904Y-83094819D01*
X139066190Y-83094819D02*
X139066190Y-82094819D01*
X139066190Y-82094819D02*
X139161428Y-82237676D01*
X139161428Y-82237676D02*
X139256666Y-82332914D01*
X139256666Y-82332914D02*
X139351904Y-82380533D01*
X137828095Y-83094819D02*
X138399523Y-83094819D01*
X138113809Y-83094819D02*
X138113809Y-82094819D01*
X138113809Y-82094819D02*
X138209047Y-82237676D01*
X138209047Y-82237676D02*
X138304285Y-82332914D01*
X138304285Y-82332914D02*
X138399523Y-82380533D01*
X133760476Y-81184819D02*
X134093809Y-80708628D01*
X134331904Y-81184819D02*
X134331904Y-80184819D01*
X134331904Y-80184819D02*
X133950952Y-80184819D01*
X133950952Y-80184819D02*
X133855714Y-80232438D01*
X133855714Y-80232438D02*
X133808095Y-80280057D01*
X133808095Y-80280057D02*
X133760476Y-80375295D01*
X133760476Y-80375295D02*
X133760476Y-80518152D01*
X133760476Y-80518152D02*
X133808095Y-80613390D01*
X133808095Y-80613390D02*
X133855714Y-80661009D01*
X133855714Y-80661009D02*
X133950952Y-80708628D01*
X133950952Y-80708628D02*
X134331904Y-80708628D01*
X133331904Y-81184819D02*
X133331904Y-80184819D01*
X133331904Y-80184819D02*
X132760476Y-81184819D01*
X132760476Y-81184819D02*
X132760476Y-80184819D01*
X131760476Y-81184819D02*
X132331904Y-81184819D01*
X132046190Y-81184819D02*
X132046190Y-80184819D01*
X132046190Y-80184819D02*
X132141428Y-80327676D01*
X132141428Y-80327676D02*
X132236666Y-80422914D01*
X132236666Y-80422914D02*
X132331904Y-80470533D01*
X147056666Y-74629580D02*
X147104285Y-74677200D01*
X147104285Y-74677200D02*
X147247142Y-74724819D01*
X147247142Y-74724819D02*
X147342380Y-74724819D01*
X147342380Y-74724819D02*
X147485237Y-74677200D01*
X147485237Y-74677200D02*
X147580475Y-74581961D01*
X147580475Y-74581961D02*
X147628094Y-74486723D01*
X147628094Y-74486723D02*
X147675713Y-74296247D01*
X147675713Y-74296247D02*
X147675713Y-74153390D01*
X147675713Y-74153390D02*
X147628094Y-73962914D01*
X147628094Y-73962914D02*
X147580475Y-73867676D01*
X147580475Y-73867676D02*
X147485237Y-73772438D01*
X147485237Y-73772438D02*
X147342380Y-73724819D01*
X147342380Y-73724819D02*
X147247142Y-73724819D01*
X147247142Y-73724819D02*
X147104285Y-73772438D01*
X147104285Y-73772438D02*
X147056666Y-73820057D01*
X146580475Y-74724819D02*
X146389999Y-74724819D01*
X146389999Y-74724819D02*
X146294761Y-74677200D01*
X146294761Y-74677200D02*
X146247142Y-74629580D01*
X146247142Y-74629580D02*
X146151904Y-74486723D01*
X146151904Y-74486723D02*
X146104285Y-74296247D01*
X146104285Y-74296247D02*
X146104285Y-73915295D01*
X146104285Y-73915295D02*
X146151904Y-73820057D01*
X146151904Y-73820057D02*
X146199523Y-73772438D01*
X146199523Y-73772438D02*
X146294761Y-73724819D01*
X146294761Y-73724819D02*
X146485237Y-73724819D01*
X146485237Y-73724819D02*
X146580475Y-73772438D01*
X146580475Y-73772438D02*
X146628094Y-73820057D01*
X146628094Y-73820057D02*
X146675713Y-73915295D01*
X146675713Y-73915295D02*
X146675713Y-74153390D01*
X146675713Y-74153390D02*
X146628094Y-74248628D01*
X146628094Y-74248628D02*
X146580475Y-74296247D01*
X146580475Y-74296247D02*
X146485237Y-74343866D01*
X146485237Y-74343866D02*
X146294761Y-74343866D01*
X146294761Y-74343866D02*
X146199523Y-74296247D01*
X146199523Y-74296247D02*
X146151904Y-74248628D01*
X146151904Y-74248628D02*
X146104285Y-74153390D01*
X153074285Y-78234819D02*
X153074285Y-77234819D01*
X153074285Y-77234819D02*
X152836190Y-77234819D01*
X152836190Y-77234819D02*
X152693333Y-77282438D01*
X152693333Y-77282438D02*
X152598095Y-77377676D01*
X152598095Y-77377676D02*
X152550476Y-77472914D01*
X152550476Y-77472914D02*
X152502857Y-77663390D01*
X152502857Y-77663390D02*
X152502857Y-77806247D01*
X152502857Y-77806247D02*
X152550476Y-77996723D01*
X152550476Y-77996723D02*
X152598095Y-78091961D01*
X152598095Y-78091961D02*
X152693333Y-78187200D01*
X152693333Y-78187200D02*
X152836190Y-78234819D01*
X152836190Y-78234819D02*
X153074285Y-78234819D01*
X151550476Y-78234819D02*
X152121904Y-78234819D01*
X151836190Y-78234819D02*
X151836190Y-77234819D01*
X151836190Y-77234819D02*
X151931428Y-77377676D01*
X151931428Y-77377676D02*
X152026666Y-77472914D01*
X152026666Y-77472914D02*
X152121904Y-77520533D01*
X150931428Y-77234819D02*
X150836190Y-77234819D01*
X150836190Y-77234819D02*
X150740952Y-77282438D01*
X150740952Y-77282438D02*
X150693333Y-77330057D01*
X150693333Y-77330057D02*
X150645714Y-77425295D01*
X150645714Y-77425295D02*
X150598095Y-77615771D01*
X150598095Y-77615771D02*
X150598095Y-77853866D01*
X150598095Y-77853866D02*
X150645714Y-78044342D01*
X150645714Y-78044342D02*
X150693333Y-78139580D01*
X150693333Y-78139580D02*
X150740952Y-78187200D01*
X150740952Y-78187200D02*
X150836190Y-78234819D01*
X150836190Y-78234819D02*
X150931428Y-78234819D01*
X150931428Y-78234819D02*
X151026666Y-78187200D01*
X151026666Y-78187200D02*
X151074285Y-78139580D01*
X151074285Y-78139580D02*
X151121904Y-78044342D01*
X151121904Y-78044342D02*
X151169523Y-77853866D01*
X151169523Y-77853866D02*
X151169523Y-77615771D01*
X151169523Y-77615771D02*
X151121904Y-77425295D01*
X151121904Y-77425295D02*
X151074285Y-77330057D01*
X151074285Y-77330057D02*
X151026666Y-77282438D01*
X151026666Y-77282438D02*
X150931428Y-77234819D01*
X154774285Y-106014819D02*
X154774285Y-105014819D01*
X154774285Y-105014819D02*
X154536190Y-105014819D01*
X154536190Y-105014819D02*
X154393333Y-105062438D01*
X154393333Y-105062438D02*
X154298095Y-105157676D01*
X154298095Y-105157676D02*
X154250476Y-105252914D01*
X154250476Y-105252914D02*
X154202857Y-105443390D01*
X154202857Y-105443390D02*
X154202857Y-105586247D01*
X154202857Y-105586247D02*
X154250476Y-105776723D01*
X154250476Y-105776723D02*
X154298095Y-105871961D01*
X154298095Y-105871961D02*
X154393333Y-105967200D01*
X154393333Y-105967200D02*
X154536190Y-106014819D01*
X154536190Y-106014819D02*
X154774285Y-106014819D01*
X153250476Y-106014819D02*
X153821904Y-106014819D01*
X153536190Y-106014819D02*
X153536190Y-105014819D01*
X153536190Y-105014819D02*
X153631428Y-105157676D01*
X153631428Y-105157676D02*
X153726666Y-105252914D01*
X153726666Y-105252914D02*
X153821904Y-105300533D01*
X152917142Y-105014819D02*
X152298095Y-105014819D01*
X152298095Y-105014819D02*
X152631428Y-105395771D01*
X152631428Y-105395771D02*
X152488571Y-105395771D01*
X152488571Y-105395771D02*
X152393333Y-105443390D01*
X152393333Y-105443390D02*
X152345714Y-105491009D01*
X152345714Y-105491009D02*
X152298095Y-105586247D01*
X152298095Y-105586247D02*
X152298095Y-105824342D01*
X152298095Y-105824342D02*
X152345714Y-105919580D01*
X152345714Y-105919580D02*
X152393333Y-105967200D01*
X152393333Y-105967200D02*
X152488571Y-106014819D01*
X152488571Y-106014819D02*
X152774285Y-106014819D01*
X152774285Y-106014819D02*
X152869523Y-105967200D01*
X152869523Y-105967200D02*
X152917142Y-105919580D01*
X138562857Y-102949580D02*
X138610476Y-102997200D01*
X138610476Y-102997200D02*
X138753333Y-103044819D01*
X138753333Y-103044819D02*
X138848571Y-103044819D01*
X138848571Y-103044819D02*
X138991428Y-102997200D01*
X138991428Y-102997200D02*
X139086666Y-102901961D01*
X139086666Y-102901961D02*
X139134285Y-102806723D01*
X139134285Y-102806723D02*
X139181904Y-102616247D01*
X139181904Y-102616247D02*
X139181904Y-102473390D01*
X139181904Y-102473390D02*
X139134285Y-102282914D01*
X139134285Y-102282914D02*
X139086666Y-102187676D01*
X139086666Y-102187676D02*
X138991428Y-102092438D01*
X138991428Y-102092438D02*
X138848571Y-102044819D01*
X138848571Y-102044819D02*
X138753333Y-102044819D01*
X138753333Y-102044819D02*
X138610476Y-102092438D01*
X138610476Y-102092438D02*
X138562857Y-102140057D01*
X137610476Y-103044819D02*
X138181904Y-103044819D01*
X137896190Y-103044819D02*
X137896190Y-102044819D01*
X137896190Y-102044819D02*
X137991428Y-102187676D01*
X137991428Y-102187676D02*
X138086666Y-102282914D01*
X138086666Y-102282914D02*
X138181904Y-102330533D01*
X136991428Y-102044819D02*
X136896190Y-102044819D01*
X136896190Y-102044819D02*
X136800952Y-102092438D01*
X136800952Y-102092438D02*
X136753333Y-102140057D01*
X136753333Y-102140057D02*
X136705714Y-102235295D01*
X136705714Y-102235295D02*
X136658095Y-102425771D01*
X136658095Y-102425771D02*
X136658095Y-102663866D01*
X136658095Y-102663866D02*
X136705714Y-102854342D01*
X136705714Y-102854342D02*
X136753333Y-102949580D01*
X136753333Y-102949580D02*
X136800952Y-102997200D01*
X136800952Y-102997200D02*
X136896190Y-103044819D01*
X136896190Y-103044819D02*
X136991428Y-103044819D01*
X136991428Y-103044819D02*
X137086666Y-102997200D01*
X137086666Y-102997200D02*
X137134285Y-102949580D01*
X137134285Y-102949580D02*
X137181904Y-102854342D01*
X137181904Y-102854342D02*
X137229523Y-102663866D01*
X137229523Y-102663866D02*
X137229523Y-102425771D01*
X137229523Y-102425771D02*
X137181904Y-102235295D01*
X137181904Y-102235295D02*
X137134285Y-102140057D01*
X137134285Y-102140057D02*
X137086666Y-102092438D01*
X137086666Y-102092438D02*
X136991428Y-102044819D01*
X138582857Y-100819580D02*
X138630476Y-100867200D01*
X138630476Y-100867200D02*
X138773333Y-100914819D01*
X138773333Y-100914819D02*
X138868571Y-100914819D01*
X138868571Y-100914819D02*
X139011428Y-100867200D01*
X139011428Y-100867200D02*
X139106666Y-100771961D01*
X139106666Y-100771961D02*
X139154285Y-100676723D01*
X139154285Y-100676723D02*
X139201904Y-100486247D01*
X139201904Y-100486247D02*
X139201904Y-100343390D01*
X139201904Y-100343390D02*
X139154285Y-100152914D01*
X139154285Y-100152914D02*
X139106666Y-100057676D01*
X139106666Y-100057676D02*
X139011428Y-99962438D01*
X139011428Y-99962438D02*
X138868571Y-99914819D01*
X138868571Y-99914819D02*
X138773333Y-99914819D01*
X138773333Y-99914819D02*
X138630476Y-99962438D01*
X138630476Y-99962438D02*
X138582857Y-100010057D01*
X137630476Y-100914819D02*
X138201904Y-100914819D01*
X137916190Y-100914819D02*
X137916190Y-99914819D01*
X137916190Y-99914819D02*
X138011428Y-100057676D01*
X138011428Y-100057676D02*
X138106666Y-100152914D01*
X138106666Y-100152914D02*
X138201904Y-100200533D01*
X136678095Y-100914819D02*
X137249523Y-100914819D01*
X136963809Y-100914819D02*
X136963809Y-99914819D01*
X136963809Y-99914819D02*
X137059047Y-100057676D01*
X137059047Y-100057676D02*
X137154285Y-100152914D01*
X137154285Y-100152914D02*
X137249523Y-100200533D01*
D12*
%TO.C,REF1*%
X180557822Y-97177822D02*
X179690198Y-97177822D01*
X179690198Y-93657029D01*
X180557822Y-93657029D01*
X180557822Y-97177822D01*
G36*
X180557822Y-97177822D02*
G01*
X179690198Y-97177822D01*
X179690198Y-93657029D01*
X180557822Y-93657029D01*
X180557822Y-97177822D01*
G37*
X175349158Y-93918062D02*
X175980726Y-94518599D01*
X176124674Y-94530604D01*
X176700635Y-94578635D01*
X176802791Y-94587124D01*
X176930612Y-94597657D01*
X177049767Y-94607379D01*
X177157914Y-94616102D01*
X177252713Y-94623642D01*
X177331819Y-94629813D01*
X177392892Y-94634427D01*
X177433590Y-94637300D01*
X177451570Y-94638246D01*
X177459808Y-94635749D01*
X177477599Y-94624529D01*
X177504411Y-94603249D01*
X177516129Y-94592979D01*
X177541466Y-94570775D01*
X177589986Y-94525977D01*
X177651192Y-94467719D01*
X177726307Y-94394871D01*
X177816550Y-94306297D01*
X177923145Y-94200866D01*
X177993093Y-94131508D01*
X178090658Y-94034821D01*
X178187941Y-93938474D01*
X178282014Y-93845362D01*
X178369950Y-93758382D01*
X178448820Y-93680431D01*
X178515699Y-93614404D01*
X178567658Y-93563198D01*
X178771620Y-93362486D01*
X178809671Y-93398942D01*
X178818245Y-93407540D01*
X178839297Y-93432905D01*
X178847723Y-93450305D01*
X178840530Y-93463929D01*
X178818944Y-93489257D01*
X178787995Y-93519621D01*
X178768448Y-93538104D01*
X178732752Y-93572573D01*
X178682684Y-93621288D01*
X178620001Y-93682531D01*
X178546457Y-93754580D01*
X178463810Y-93835715D01*
X178373815Y-93924216D01*
X178278228Y-94018363D01*
X178178805Y-94116435D01*
X177629343Y-94658839D01*
X177914746Y-94680934D01*
X177975662Y-94685750D01*
X178057548Y-94692784D01*
X178119569Y-94699128D01*
X178164987Y-94705252D01*
X178197062Y-94711627D01*
X178219052Y-94718723D01*
X178234219Y-94727009D01*
X178255416Y-94738607D01*
X178294386Y-94748150D01*
X178350531Y-94750990D01*
X178432773Y-94750990D01*
X178432773Y-94977326D01*
X178256733Y-94977326D01*
X178256733Y-95822918D01*
X178312262Y-95871797D01*
X178326722Y-95885164D01*
X178384813Y-95957612D01*
X178420576Y-96039468D01*
X178432773Y-96128100D01*
X178426306Y-96206308D01*
X178399047Y-96294767D01*
X178350328Y-96370493D01*
X178336403Y-96385252D01*
X178291328Y-96422136D01*
X178238819Y-96454497D01*
X178187061Y-96477703D01*
X178144239Y-96487121D01*
X178138023Y-96487303D01*
X178115246Y-96488658D01*
X178099513Y-96492200D01*
X178092068Y-96499610D01*
X178094156Y-96512569D01*
X178107020Y-96532757D01*
X178131905Y-96561855D01*
X178170053Y-96601544D01*
X178222710Y-96653504D01*
X178291119Y-96719416D01*
X178376524Y-96800960D01*
X178422112Y-96844396D01*
X178498441Y-96917000D01*
X178570808Y-96985691D01*
X178636366Y-97047777D01*
X178692274Y-97100566D01*
X178735686Y-97141366D01*
X178763758Y-97167485D01*
X178841436Y-97238881D01*
X178753416Y-97327137D01*
X178181287Y-96781310D01*
X178145188Y-96746895D01*
X178016272Y-96624454D01*
X177904754Y-96519349D01*
X177810288Y-96431264D01*
X177732529Y-96359884D01*
X177671131Y-96304895D01*
X177625748Y-96265981D01*
X177596035Y-96242827D01*
X177581644Y-96235118D01*
X177581559Y-96235117D01*
X177563624Y-96236175D01*
X177523421Y-96239263D01*
X177463687Y-96244142D01*
X177387158Y-96250568D01*
X177296569Y-96258300D01*
X177194657Y-96267095D01*
X177084159Y-96276713D01*
X176967811Y-96286909D01*
X176848348Y-96297444D01*
X176728507Y-96308074D01*
X176611025Y-96318558D01*
X176498637Y-96328654D01*
X176394081Y-96338119D01*
X176300091Y-96346712D01*
X176219405Y-96354191D01*
X176154759Y-96360313D01*
X176108888Y-96364838D01*
X176084530Y-96367522D01*
X176031089Y-96374610D01*
X176031089Y-96649703D01*
X175820471Y-96650032D01*
X175609852Y-96650361D01*
X175150891Y-97102086D01*
X174691931Y-97553811D01*
X174604848Y-97554430D01*
X174517767Y-97555049D01*
X175066952Y-97013231D01*
X175119998Y-96960863D01*
X175229772Y-96852197D01*
X175323114Y-96759291D01*
X175401173Y-96680945D01*
X175465097Y-96615957D01*
X175516035Y-96563128D01*
X175529126Y-96549109D01*
X175711172Y-96549109D01*
X175930495Y-96549109D01*
X175930495Y-96467376D01*
X175930489Y-96460105D01*
X175929613Y-96419050D01*
X175925867Y-96396723D01*
X175917270Y-96387471D01*
X175901840Y-96385643D01*
X175879159Y-96393694D01*
X175841428Y-96421270D01*
X175792179Y-96467376D01*
X175711172Y-96549109D01*
X175529126Y-96549109D01*
X175555135Y-96521257D01*
X175583548Y-96489145D01*
X175602420Y-96465590D01*
X175612901Y-96449392D01*
X175616139Y-96439351D01*
X175615158Y-96422421D01*
X175607996Y-96412916D01*
X175588401Y-96411277D01*
X175550124Y-96415218D01*
X175526025Y-96417935D01*
X175485744Y-96421716D01*
X175458961Y-96423240D01*
X175449728Y-96423985D01*
X175439839Y-96431254D01*
X175436562Y-96451332D01*
X175437992Y-96490311D01*
X175438553Y-96500263D01*
X175437921Y-96540102D01*
X175429167Y-96568440D01*
X175409289Y-96596370D01*
X175405104Y-96601180D01*
X175354427Y-96640518D01*
X175295934Y-96657828D01*
X175234575Y-96652526D01*
X175175297Y-96624025D01*
X175171606Y-96621267D01*
X175139851Y-96583178D01*
X175121067Y-96533524D01*
X175116071Y-96479998D01*
X175125678Y-96430293D01*
X175150704Y-96392100D01*
X175163480Y-96379169D01*
X175166576Y-96366572D01*
X175156998Y-96348533D01*
X175133082Y-96318072D01*
X175125731Y-96308726D01*
X175079339Y-96236570D01*
X175038084Y-96151085D01*
X175004936Y-96060233D01*
X174982868Y-95971973D01*
X174974852Y-95894264D01*
X174974788Y-95886009D01*
X174970321Y-95840121D01*
X174957795Y-95814921D01*
X174935784Y-95807227D01*
X174928849Y-95806324D01*
X174922885Y-95801385D01*
X174918519Y-95789389D01*
X174915503Y-95767320D01*
X174913590Y-95732164D01*
X174912530Y-95680906D01*
X174912077Y-95610529D01*
X174911980Y-95518020D01*
X174912150Y-95431340D01*
X174912834Y-95357668D01*
X174913558Y-95329406D01*
X175012575Y-95329406D01*
X175012575Y-95706633D01*
X175075446Y-95706633D01*
X175075446Y-95329406D01*
X175012575Y-95329406D01*
X174913558Y-95329406D01*
X174914215Y-95303735D01*
X174916470Y-95266712D01*
X174919778Y-95243770D01*
X174924320Y-95232080D01*
X174930272Y-95228812D01*
X175072893Y-95228812D01*
X175176040Y-95228812D01*
X175176040Y-95807227D01*
X175085122Y-95807227D01*
X175093753Y-95879529D01*
X175112249Y-95990002D01*
X175145691Y-96101184D01*
X175192324Y-96193150D01*
X175252786Y-96267458D01*
X175301782Y-96315302D01*
X175301782Y-94900779D01*
X175211095Y-94904474D01*
X175120407Y-94908168D01*
X175105252Y-94983614D01*
X175098379Y-95021449D01*
X175088756Y-95084632D01*
X175081496Y-95143935D01*
X175072893Y-95228812D01*
X174930272Y-95228812D01*
X174944888Y-95218063D01*
X174954215Y-95187945D01*
X174955847Y-95176418D01*
X174961591Y-95137114D01*
X174969378Y-95084812D01*
X174978003Y-95027624D01*
X174982393Y-94996084D01*
X174987148Y-94949926D01*
X174988295Y-94917359D01*
X174985495Y-94903977D01*
X174983671Y-94901692D01*
X174979165Y-94880595D01*
X174976029Y-94842645D01*
X174974852Y-94793952D01*
X174974852Y-94688119D01*
X175012575Y-94688106D01*
X175015718Y-94688106D01*
X175028668Y-94687612D01*
X175050411Y-94681181D01*
X175050967Y-94680629D01*
X175201188Y-94680629D01*
X175202463Y-94682303D01*
X175219976Y-94686456D01*
X175251485Y-94688119D01*
X175301782Y-94688119D01*
X175301782Y-94631092D01*
X175301662Y-94614007D01*
X175299462Y-94588692D01*
X175297856Y-94587045D01*
X175414951Y-94587045D01*
X175414951Y-96305148D01*
X175462104Y-96300987D01*
X175483498Y-96299065D01*
X175541909Y-96293076D01*
X175580381Y-96287174D01*
X175602912Y-96280273D01*
X175613498Y-96271288D01*
X175616139Y-96259130D01*
X175617937Y-96248199D01*
X175623438Y-96243558D01*
X176035703Y-96243558D01*
X176043732Y-96243747D01*
X176074653Y-96242092D01*
X176126653Y-96238451D01*
X176197487Y-96233005D01*
X176284911Y-96225937D01*
X176386681Y-96217430D01*
X176500552Y-96207665D01*
X176624279Y-96196826D01*
X176755618Y-96185093D01*
X176856908Y-96175921D01*
X176982526Y-96164434D01*
X177098762Y-96153678D01*
X177203380Y-96143869D01*
X177294140Y-96135219D01*
X177368804Y-96127943D01*
X177425134Y-96122254D01*
X177460891Y-96118366D01*
X177473837Y-96116494D01*
X177469826Y-96110812D01*
X177450138Y-96089980D01*
X177416322Y-96056128D01*
X177370837Y-96011588D01*
X177316146Y-95958690D01*
X177254710Y-95899764D01*
X177188990Y-95837142D01*
X177121449Y-95773152D01*
X177054547Y-95710126D01*
X176990746Y-95650394D01*
X176932507Y-95596287D01*
X176882292Y-95550135D01*
X176842563Y-95514267D01*
X176815780Y-95491016D01*
X176804406Y-95482710D01*
X176793383Y-95490852D01*
X176766999Y-95514522D01*
X176727527Y-95551522D01*
X176677191Y-95599650D01*
X176618217Y-95656704D01*
X176552830Y-95720480D01*
X176483255Y-95788778D01*
X176411716Y-95859395D01*
X176340438Y-95930129D01*
X176271647Y-95998778D01*
X176207566Y-96063139D01*
X176150422Y-96121011D01*
X176102439Y-96170190D01*
X176065841Y-96208476D01*
X176042854Y-96233666D01*
X176035703Y-96243558D01*
X175623438Y-96243558D01*
X175626530Y-96240950D01*
X175646505Y-96236900D01*
X175682450Y-96235137D01*
X175738952Y-96234752D01*
X175861766Y-96234752D01*
X175901840Y-96194553D01*
X175999654Y-96096435D01*
X176137542Y-95958119D01*
X176031089Y-95958119D01*
X176031089Y-95203663D01*
X176270000Y-95203663D01*
X176270000Y-95822169D01*
X176486906Y-95612408D01*
X176528334Y-95572230D01*
X176585200Y-95516672D01*
X176634082Y-95468430D01*
X176672441Y-95430029D01*
X176697741Y-95403997D01*
X176707442Y-95392860D01*
X176704767Y-95388627D01*
X176702222Y-95385818D01*
X176903046Y-95385818D01*
X176907405Y-95393556D01*
X176927241Y-95416605D01*
X176960375Y-95451291D01*
X177003820Y-95494513D01*
X177054587Y-95543168D01*
X177068051Y-95555860D01*
X177128275Y-95612771D01*
X177199864Y-95680586D01*
X177277437Y-95754200D01*
X177355611Y-95828507D01*
X177429005Y-95898401D01*
X177433409Y-95902599D01*
X177501785Y-95967580D01*
X177554732Y-96017164D01*
X177594767Y-96053312D01*
X177624411Y-96077984D01*
X177646181Y-96093142D01*
X177662595Y-96100744D01*
X177676174Y-96102753D01*
X177689434Y-96101128D01*
X177690819Y-96100844D01*
X177722228Y-96087302D01*
X177736863Y-96060252D01*
X177768063Y-95976871D01*
X177820038Y-95902582D01*
X177888791Y-95844154D01*
X177971315Y-95804110D01*
X178064606Y-95784974D01*
X178143565Y-95778636D01*
X178143565Y-94829162D01*
X178115273Y-94822542D01*
X178108329Y-94821371D01*
X178077281Y-94817732D01*
X178027081Y-94812766D01*
X177961727Y-94806843D01*
X177885219Y-94800331D01*
X177801555Y-94793599D01*
X177516129Y-94771276D01*
X177210565Y-95072174D01*
X177154704Y-95127364D01*
X177086888Y-95194891D01*
X177026643Y-95255471D01*
X176976052Y-95306979D01*
X176937200Y-95347290D01*
X176912170Y-95374278D01*
X176903046Y-95385818D01*
X176702222Y-95385818D01*
X176686782Y-95368776D01*
X176653481Y-95334549D01*
X176606712Y-95287773D01*
X176548325Y-95230276D01*
X176480169Y-95163888D01*
X176404094Y-95090436D01*
X176321950Y-95011749D01*
X176238943Y-94932659D01*
X176157136Y-94855129D01*
X176090083Y-94792254D01*
X176036007Y-94742498D01*
X175993129Y-94704322D01*
X175959673Y-94676189D01*
X175933861Y-94656560D01*
X175930135Y-94654195D01*
X176124674Y-94654195D01*
X176124908Y-94654616D01*
X176136350Y-94666491D01*
X176163198Y-94692870D01*
X176203018Y-94731430D01*
X176253372Y-94779847D01*
X176311828Y-94835797D01*
X176375948Y-94896958D01*
X176443298Y-94961005D01*
X176511443Y-95025615D01*
X176577948Y-95088465D01*
X176640377Y-95147232D01*
X176696295Y-95199591D01*
X176804406Y-95300467D01*
X176806477Y-95302399D01*
X177081968Y-95026695D01*
X177149224Y-94959274D01*
X177212162Y-94895733D01*
X177260100Y-94846510D01*
X177294594Y-94809804D01*
X177317199Y-94783810D01*
X177329471Y-94766724D01*
X177332966Y-94756744D01*
X177329238Y-94752065D01*
X177319844Y-94750884D01*
X177304749Y-94750127D01*
X177265883Y-94747399D01*
X177206895Y-94742892D01*
X177130473Y-94736821D01*
X177039305Y-94729404D01*
X176936080Y-94720858D01*
X176823483Y-94711398D01*
X176704205Y-94701242D01*
X176599077Y-94692277D01*
X176488351Y-94682934D01*
X176387814Y-94674557D01*
X176299943Y-94667347D01*
X176227215Y-94661504D01*
X176172110Y-94657231D01*
X176137104Y-94654727D01*
X176124674Y-94654195D01*
X175930135Y-94654195D01*
X175913914Y-94643899D01*
X175898056Y-94636666D01*
X175884509Y-94633325D01*
X175877910Y-94632439D01*
X175841548Y-94628512D01*
X175788018Y-94623541D01*
X175723421Y-94618073D01*
X175653862Y-94612656D01*
X175629635Y-94610819D01*
X175564178Y-94605512D01*
X175507717Y-94600452D01*
X175465618Y-94596137D01*
X175443243Y-94593066D01*
X175414951Y-94587045D01*
X175297856Y-94587045D01*
X175292334Y-94581384D01*
X175277508Y-94587057D01*
X175274682Y-94588733D01*
X175252944Y-94607552D01*
X175228820Y-94634817D01*
X175209254Y-94662013D01*
X175201188Y-94680629D01*
X175050967Y-94680629D01*
X175068851Y-94662877D01*
X175090801Y-94627170D01*
X175110854Y-94595826D01*
X175149356Y-94548107D01*
X175192579Y-94504862D01*
X175234627Y-94471781D01*
X175269604Y-94454558D01*
X175283081Y-94450338D01*
X175292334Y-94442520D01*
X175295454Y-94439884D01*
X175300696Y-94418338D01*
X175301782Y-94378686D01*
X175301782Y-94310891D01*
X175414951Y-94310891D01*
X175414951Y-94470423D01*
X175592732Y-94485318D01*
X175617037Y-94487318D01*
X175677880Y-94491977D01*
X175727389Y-94495269D01*
X175760992Y-94496908D01*
X175774116Y-94496610D01*
X175770343Y-94492276D01*
X175750676Y-94472504D01*
X175715818Y-94438321D01*
X175667576Y-94391459D01*
X175607757Y-94333646D01*
X175538167Y-94266613D01*
X175460615Y-94192088D01*
X175376907Y-94111803D01*
X175288849Y-94027487D01*
X175198250Y-93940870D01*
X175106915Y-93853681D01*
X175016653Y-93767651D01*
X174929269Y-93684508D01*
X174846572Y-93605984D01*
X174770368Y-93533808D01*
X174702463Y-93469709D01*
X174644666Y-93415417D01*
X174541040Y-93318408D01*
X174629315Y-93317966D01*
X174717589Y-93317525D01*
X175349158Y-93918062D01*
G36*
X175349158Y-93918062D02*
G01*
X175980726Y-94518599D01*
X176124674Y-94530604D01*
X176700635Y-94578635D01*
X176802791Y-94587124D01*
X176930612Y-94597657D01*
X177049767Y-94607379D01*
X177157914Y-94616102D01*
X177252713Y-94623642D01*
X177331819Y-94629813D01*
X177392892Y-94634427D01*
X177433590Y-94637300D01*
X177451570Y-94638246D01*
X177459808Y-94635749D01*
X177477599Y-94624529D01*
X177504411Y-94603249D01*
X177516129Y-94592979D01*
X177541466Y-94570775D01*
X177589986Y-94525977D01*
X177651192Y-94467719D01*
X177726307Y-94394871D01*
X177816550Y-94306297D01*
X177923145Y-94200866D01*
X177993093Y-94131508D01*
X178090658Y-94034821D01*
X178187941Y-93938474D01*
X178282014Y-93845362D01*
X178369950Y-93758382D01*
X178448820Y-93680431D01*
X178515699Y-93614404D01*
X178567658Y-93563198D01*
X178771620Y-93362486D01*
X178809671Y-93398942D01*
X178818245Y-93407540D01*
X178839297Y-93432905D01*
X178847723Y-93450305D01*
X178840530Y-93463929D01*
X178818944Y-93489257D01*
X178787995Y-93519621D01*
X178768448Y-93538104D01*
X178732752Y-93572573D01*
X178682684Y-93621288D01*
X178620001Y-93682531D01*
X178546457Y-93754580D01*
X178463810Y-93835715D01*
X178373815Y-93924216D01*
X178278228Y-94018363D01*
X178178805Y-94116435D01*
X177629343Y-94658839D01*
X177914746Y-94680934D01*
X177975662Y-94685750D01*
X178057548Y-94692784D01*
X178119569Y-94699128D01*
X178164987Y-94705252D01*
X178197062Y-94711627D01*
X178219052Y-94718723D01*
X178234219Y-94727009D01*
X178255416Y-94738607D01*
X178294386Y-94748150D01*
X178350531Y-94750990D01*
X178432773Y-94750990D01*
X178432773Y-94977326D01*
X178256733Y-94977326D01*
X178256733Y-95822918D01*
X178312262Y-95871797D01*
X178326722Y-95885164D01*
X178384813Y-95957612D01*
X178420576Y-96039468D01*
X178432773Y-96128100D01*
X178426306Y-96206308D01*
X178399047Y-96294767D01*
X178350328Y-96370493D01*
X178336403Y-96385252D01*
X178291328Y-96422136D01*
X178238819Y-96454497D01*
X178187061Y-96477703D01*
X178144239Y-96487121D01*
X178138023Y-96487303D01*
X178115246Y-96488658D01*
X178099513Y-96492200D01*
X178092068Y-96499610D01*
X178094156Y-96512569D01*
X178107020Y-96532757D01*
X178131905Y-96561855D01*
X178170053Y-96601544D01*
X178222710Y-96653504D01*
X178291119Y-96719416D01*
X178376524Y-96800960D01*
X178422112Y-96844396D01*
X178498441Y-96917000D01*
X178570808Y-96985691D01*
X178636366Y-97047777D01*
X178692274Y-97100566D01*
X178735686Y-97141366D01*
X178763758Y-97167485D01*
X178841436Y-97238881D01*
X178753416Y-97327137D01*
X178181287Y-96781310D01*
X178145188Y-96746895D01*
X178016272Y-96624454D01*
X177904754Y-96519349D01*
X177810288Y-96431264D01*
X177732529Y-96359884D01*
X177671131Y-96304895D01*
X177625748Y-96265981D01*
X177596035Y-96242827D01*
X177581644Y-96235118D01*
X177581559Y-96235117D01*
X177563624Y-96236175D01*
X177523421Y-96239263D01*
X177463687Y-96244142D01*
X177387158Y-96250568D01*
X177296569Y-96258300D01*
X177194657Y-96267095D01*
X177084159Y-96276713D01*
X176967811Y-96286909D01*
X176848348Y-96297444D01*
X176728507Y-96308074D01*
X176611025Y-96318558D01*
X176498637Y-96328654D01*
X176394081Y-96338119D01*
X176300091Y-96346712D01*
X176219405Y-96354191D01*
X176154759Y-96360313D01*
X176108888Y-96364838D01*
X176084530Y-96367522D01*
X176031089Y-96374610D01*
X176031089Y-96649703D01*
X175820471Y-96650032D01*
X175609852Y-96650361D01*
X175150891Y-97102086D01*
X174691931Y-97553811D01*
X174604848Y-97554430D01*
X174517767Y-97555049D01*
X175066952Y-97013231D01*
X175119998Y-96960863D01*
X175229772Y-96852197D01*
X175323114Y-96759291D01*
X175401173Y-96680945D01*
X175465097Y-96615957D01*
X175516035Y-96563128D01*
X175529126Y-96549109D01*
X175711172Y-96549109D01*
X175930495Y-96549109D01*
X175930495Y-96467376D01*
X175930489Y-96460105D01*
X175929613Y-96419050D01*
X175925867Y-96396723D01*
X175917270Y-96387471D01*
X175901840Y-96385643D01*
X175879159Y-96393694D01*
X175841428Y-96421270D01*
X175792179Y-96467376D01*
X175711172Y-96549109D01*
X175529126Y-96549109D01*
X175555135Y-96521257D01*
X175583548Y-96489145D01*
X175602420Y-96465590D01*
X175612901Y-96449392D01*
X175616139Y-96439351D01*
X175615158Y-96422421D01*
X175607996Y-96412916D01*
X175588401Y-96411277D01*
X175550124Y-96415218D01*
X175526025Y-96417935D01*
X175485744Y-96421716D01*
X175458961Y-96423240D01*
X175449728Y-96423985D01*
X175439839Y-96431254D01*
X175436562Y-96451332D01*
X175437992Y-96490311D01*
X175438553Y-96500263D01*
X175437921Y-96540102D01*
X175429167Y-96568440D01*
X175409289Y-96596370D01*
X175405104Y-96601180D01*
X175354427Y-96640518D01*
X175295934Y-96657828D01*
X175234575Y-96652526D01*
X175175297Y-96624025D01*
X175171606Y-96621267D01*
X175139851Y-96583178D01*
X175121067Y-96533524D01*
X175116071Y-96479998D01*
X175125678Y-96430293D01*
X175150704Y-96392100D01*
X175163480Y-96379169D01*
X175166576Y-96366572D01*
X175156998Y-96348533D01*
X175133082Y-96318072D01*
X175125731Y-96308726D01*
X175079339Y-96236570D01*
X175038084Y-96151085D01*
X175004936Y-96060233D01*
X174982868Y-95971973D01*
X174974852Y-95894264D01*
X174974788Y-95886009D01*
X174970321Y-95840121D01*
X174957795Y-95814921D01*
X174935784Y-95807227D01*
X174928849Y-95806324D01*
X174922885Y-95801385D01*
X174918519Y-95789389D01*
X174915503Y-95767320D01*
X174913590Y-95732164D01*
X174912530Y-95680906D01*
X174912077Y-95610529D01*
X174911980Y-95518020D01*
X174912150Y-95431340D01*
X174912834Y-95357668D01*
X174913558Y-95329406D01*
X175012575Y-95329406D01*
X175012575Y-95706633D01*
X175075446Y-95706633D01*
X175075446Y-95329406D01*
X175012575Y-95329406D01*
X174913558Y-95329406D01*
X174914215Y-95303735D01*
X174916470Y-95266712D01*
X174919778Y-95243770D01*
X174924320Y-95232080D01*
X174930272Y-95228812D01*
X175072893Y-95228812D01*
X175176040Y-95228812D01*
X175176040Y-95807227D01*
X175085122Y-95807227D01*
X175093753Y-95879529D01*
X175112249Y-95990002D01*
X175145691Y-96101184D01*
X175192324Y-96193150D01*
X175252786Y-96267458D01*
X175301782Y-96315302D01*
X175301782Y-94900779D01*
X175211095Y-94904474D01*
X175120407Y-94908168D01*
X175105252Y-94983614D01*
X175098379Y-95021449D01*
X175088756Y-95084632D01*
X175081496Y-95143935D01*
X175072893Y-95228812D01*
X174930272Y-95228812D01*
X174944888Y-95218063D01*
X174954215Y-95187945D01*
X174955847Y-95176418D01*
X174961591Y-95137114D01*
X174969378Y-95084812D01*
X174978003Y-95027624D01*
X174982393Y-94996084D01*
X174987148Y-94949926D01*
X174988295Y-94917359D01*
X174985495Y-94903977D01*
X174983671Y-94901692D01*
X174979165Y-94880595D01*
X174976029Y-94842645D01*
X174974852Y-94793952D01*
X174974852Y-94688119D01*
X175012575Y-94688106D01*
X175015718Y-94688106D01*
X175028668Y-94687612D01*
X175050411Y-94681181D01*
X175050967Y-94680629D01*
X175201188Y-94680629D01*
X175202463Y-94682303D01*
X175219976Y-94686456D01*
X175251485Y-94688119D01*
X175301782Y-94688119D01*
X175301782Y-94631092D01*
X175301662Y-94614007D01*
X175299462Y-94588692D01*
X175297856Y-94587045D01*
X175414951Y-94587045D01*
X175414951Y-96305148D01*
X175462104Y-96300987D01*
X175483498Y-96299065D01*
X175541909Y-96293076D01*
X175580381Y-96287174D01*
X175602912Y-96280273D01*
X175613498Y-96271288D01*
X175616139Y-96259130D01*
X175617937Y-96248199D01*
X175623438Y-96243558D01*
X176035703Y-96243558D01*
X176043732Y-96243747D01*
X176074653Y-96242092D01*
X176126653Y-96238451D01*
X176197487Y-96233005D01*
X176284911Y-96225937D01*
X176386681Y-96217430D01*
X176500552Y-96207665D01*
X176624279Y-96196826D01*
X176755618Y-96185093D01*
X176856908Y-96175921D01*
X176982526Y-96164434D01*
X177098762Y-96153678D01*
X177203380Y-96143869D01*
X177294140Y-96135219D01*
X177368804Y-96127943D01*
X177425134Y-96122254D01*
X177460891Y-96118366D01*
X177473837Y-96116494D01*
X177469826Y-96110812D01*
X177450138Y-96089980D01*
X177416322Y-96056128D01*
X177370837Y-96011588D01*
X177316146Y-95958690D01*
X177254710Y-95899764D01*
X177188990Y-95837142D01*
X177121449Y-95773152D01*
X177054547Y-95710126D01*
X176990746Y-95650394D01*
X176932507Y-95596287D01*
X176882292Y-95550135D01*
X176842563Y-95514267D01*
X176815780Y-95491016D01*
X176804406Y-95482710D01*
X176793383Y-95490852D01*
X176766999Y-95514522D01*
X176727527Y-95551522D01*
X176677191Y-95599650D01*
X176618217Y-95656704D01*
X176552830Y-95720480D01*
X176483255Y-95788778D01*
X176411716Y-95859395D01*
X176340438Y-95930129D01*
X176271647Y-95998778D01*
X176207566Y-96063139D01*
X176150422Y-96121011D01*
X176102439Y-96170190D01*
X176065841Y-96208476D01*
X176042854Y-96233666D01*
X176035703Y-96243558D01*
X175623438Y-96243558D01*
X175626530Y-96240950D01*
X175646505Y-96236900D01*
X175682450Y-96235137D01*
X175738952Y-96234752D01*
X175861766Y-96234752D01*
X175901840Y-96194553D01*
X175999654Y-96096435D01*
X176137542Y-95958119D01*
X176031089Y-95958119D01*
X176031089Y-95203663D01*
X176270000Y-95203663D01*
X176270000Y-95822169D01*
X176486906Y-95612408D01*
X176528334Y-95572230D01*
X176585200Y-95516672D01*
X176634082Y-95468430D01*
X176672441Y-95430029D01*
X176697741Y-95403997D01*
X176707442Y-95392860D01*
X176704767Y-95388627D01*
X176702222Y-95385818D01*
X176903046Y-95385818D01*
X176907405Y-95393556D01*
X176927241Y-95416605D01*
X176960375Y-95451291D01*
X177003820Y-95494513D01*
X177054587Y-95543168D01*
X177068051Y-95555860D01*
X177128275Y-95612771D01*
X177199864Y-95680586D01*
X177277437Y-95754200D01*
X177355611Y-95828507D01*
X177429005Y-95898401D01*
X177433409Y-95902599D01*
X177501785Y-95967580D01*
X177554732Y-96017164D01*
X177594767Y-96053312D01*
X177624411Y-96077984D01*
X177646181Y-96093142D01*
X177662595Y-96100744D01*
X177676174Y-96102753D01*
X177689434Y-96101128D01*
X177690819Y-96100844D01*
X177722228Y-96087302D01*
X177736863Y-96060252D01*
X177768063Y-95976871D01*
X177820038Y-95902582D01*
X177888791Y-95844154D01*
X177971315Y-95804110D01*
X178064606Y-95784974D01*
X178143565Y-95778636D01*
X178143565Y-94829162D01*
X178115273Y-94822542D01*
X178108329Y-94821371D01*
X178077281Y-94817732D01*
X178027081Y-94812766D01*
X177961727Y-94806843D01*
X177885219Y-94800331D01*
X177801555Y-94793599D01*
X177516129Y-94771276D01*
X177210565Y-95072174D01*
X177154704Y-95127364D01*
X177086888Y-95194891D01*
X177026643Y-95255471D01*
X176976052Y-95306979D01*
X176937200Y-95347290D01*
X176912170Y-95374278D01*
X176903046Y-95385818D01*
X176702222Y-95385818D01*
X176686782Y-95368776D01*
X176653481Y-95334549D01*
X176606712Y-95287773D01*
X176548325Y-95230276D01*
X176480169Y-95163888D01*
X176404094Y-95090436D01*
X176321950Y-95011749D01*
X176238943Y-94932659D01*
X176157136Y-94855129D01*
X176090083Y-94792254D01*
X176036007Y-94742498D01*
X175993129Y-94704322D01*
X175959673Y-94676189D01*
X175933861Y-94656560D01*
X175930135Y-94654195D01*
X176124674Y-94654195D01*
X176124908Y-94654616D01*
X176136350Y-94666491D01*
X176163198Y-94692870D01*
X176203018Y-94731430D01*
X176253372Y-94779847D01*
X176311828Y-94835797D01*
X176375948Y-94896958D01*
X176443298Y-94961005D01*
X176511443Y-95025615D01*
X176577948Y-95088465D01*
X176640377Y-95147232D01*
X176696295Y-95199591D01*
X176804406Y-95300467D01*
X176806477Y-95302399D01*
X177081968Y-95026695D01*
X177149224Y-94959274D01*
X177212162Y-94895733D01*
X177260100Y-94846510D01*
X177294594Y-94809804D01*
X177317199Y-94783810D01*
X177329471Y-94766724D01*
X177332966Y-94756744D01*
X177329238Y-94752065D01*
X177319844Y-94750884D01*
X177304749Y-94750127D01*
X177265883Y-94747399D01*
X177206895Y-94742892D01*
X177130473Y-94736821D01*
X177039305Y-94729404D01*
X176936080Y-94720858D01*
X176823483Y-94711398D01*
X176704205Y-94701242D01*
X176599077Y-94692277D01*
X176488351Y-94682934D01*
X176387814Y-94674557D01*
X176299943Y-94667347D01*
X176227215Y-94661504D01*
X176172110Y-94657231D01*
X176137104Y-94654727D01*
X176124674Y-94654195D01*
X175930135Y-94654195D01*
X175913914Y-94643899D01*
X175898056Y-94636666D01*
X175884509Y-94633325D01*
X175877910Y-94632439D01*
X175841548Y-94628512D01*
X175788018Y-94623541D01*
X175723421Y-94618073D01*
X175653862Y-94612656D01*
X175629635Y-94610819D01*
X175564178Y-94605512D01*
X175507717Y-94600452D01*
X175465618Y-94596137D01*
X175443243Y-94593066D01*
X175414951Y-94587045D01*
X175297856Y-94587045D01*
X175292334Y-94581384D01*
X175277508Y-94587057D01*
X175274682Y-94588733D01*
X175252944Y-94607552D01*
X175228820Y-94634817D01*
X175209254Y-94662013D01*
X175201188Y-94680629D01*
X175050967Y-94680629D01*
X175068851Y-94662877D01*
X175090801Y-94627170D01*
X175110854Y-94595826D01*
X175149356Y-94548107D01*
X175192579Y-94504862D01*
X175234627Y-94471781D01*
X175269604Y-94454558D01*
X175283081Y-94450338D01*
X175292334Y-94442520D01*
X175295454Y-94439884D01*
X175300696Y-94418338D01*
X175301782Y-94378686D01*
X175301782Y-94310891D01*
X175414951Y-94310891D01*
X175414951Y-94470423D01*
X175592732Y-94485318D01*
X175617037Y-94487318D01*
X175677880Y-94491977D01*
X175727389Y-94495269D01*
X175760992Y-94496908D01*
X175774116Y-94496610D01*
X175770343Y-94492276D01*
X175750676Y-94472504D01*
X175715818Y-94438321D01*
X175667576Y-94391459D01*
X175607757Y-94333646D01*
X175538167Y-94266613D01*
X175460615Y-94192088D01*
X175376907Y-94111803D01*
X175288849Y-94027487D01*
X175198250Y-93940870D01*
X175106915Y-93853681D01*
X175016653Y-93767651D01*
X174929269Y-93684508D01*
X174846572Y-93605984D01*
X174770368Y-93533808D01*
X174702463Y-93469709D01*
X174644666Y-93415417D01*
X174541040Y-93318408D01*
X174629315Y-93317966D01*
X174717589Y-93317525D01*
X175349158Y-93918062D01*
G37*
D13*
%TO.C,D9*%
X142447500Y-79350000D02*
X142447500Y-80650000D01*
X145567500Y-80620000D02*
X145567500Y-79350000D01*
X145847500Y-81240000D02*
X145517500Y-81000000D01*
X145847500Y-80760000D01*
X145847500Y-81240000D01*
G36*
X145847500Y-81240000D02*
G01*
X145517500Y-81000000D01*
X145847500Y-80760000D01*
X145847500Y-81240000D01*
G37*
%TO.C,J3*%
X130350000Y-65760000D02*
X130350000Y-70960000D01*
X130350000Y-65760000D02*
X155870000Y-65760000D01*
X130350000Y-70960000D02*
X153270000Y-70960000D01*
X153270000Y-68360000D02*
X153270000Y-70960000D01*
X155870000Y-65760000D02*
X155870000Y-68360000D01*
X155870000Y-68360000D02*
X153270000Y-68360000D01*
X155870000Y-69630000D02*
X155870000Y-70960000D01*
X155870000Y-70960000D02*
X154540000Y-70960000D01*
D12*
%TO.C,REF2*%
X178742784Y-88287894D02*
X178756490Y-88312455D01*
X178784125Y-88361036D01*
X178824510Y-88431588D01*
X178876467Y-88522067D01*
X178938817Y-88630425D01*
X179010383Y-88754616D01*
X179089987Y-88892595D01*
X179176450Y-89042314D01*
X179268595Y-89201727D01*
X179365244Y-89368789D01*
X179401379Y-89431232D01*
X179496318Y-89595357D01*
X179586226Y-89750882D01*
X179669936Y-89895786D01*
X179746283Y-90028045D01*
X179814101Y-90145636D01*
X179872223Y-90246538D01*
X179919483Y-90328727D01*
X179954715Y-90390181D01*
X179976754Y-90428876D01*
X179984432Y-90442791D01*
X179980343Y-90442165D01*
X179956842Y-90430747D01*
X179919298Y-90409747D01*
X179897076Y-90396864D01*
X179849685Y-90369468D01*
X179779889Y-90329153D01*
X179689956Y-90277231D01*
X179582154Y-90215009D01*
X179458752Y-90143797D01*
X179322018Y-90064905D01*
X179174221Y-89979642D01*
X179017629Y-89889316D01*
X178854512Y-89795238D01*
X178694835Y-89703119D01*
X178539699Y-89613560D01*
X178393924Y-89529347D01*
X178259695Y-89451743D01*
X178139197Y-89382015D01*
X178034614Y-89321426D01*
X177948131Y-89271242D01*
X177881933Y-89232728D01*
X177838205Y-89207148D01*
X177819131Y-89195768D01*
X177782713Y-89172420D01*
X177826875Y-89125404D01*
X177840544Y-89111217D01*
X177882231Y-89069848D01*
X177938984Y-89015133D01*
X178007909Y-88949730D01*
X178086111Y-88876297D01*
X178170694Y-88797494D01*
X178258765Y-88715980D01*
X178347428Y-88634413D01*
X178433788Y-88555452D01*
X178514951Y-88481757D01*
X178588022Y-88415986D01*
X178650106Y-88360799D01*
X178698307Y-88318854D01*
X178729732Y-88292809D01*
X178741486Y-88285325D01*
X178742784Y-88287894D01*
G36*
X178742784Y-88287894D02*
G01*
X178756490Y-88312455D01*
X178784125Y-88361036D01*
X178824510Y-88431588D01*
X178876467Y-88522067D01*
X178938817Y-88630425D01*
X179010383Y-88754616D01*
X179089987Y-88892595D01*
X179176450Y-89042314D01*
X179268595Y-89201727D01*
X179365244Y-89368789D01*
X179401379Y-89431232D01*
X179496318Y-89595357D01*
X179586226Y-89750882D01*
X179669936Y-89895786D01*
X179746283Y-90028045D01*
X179814101Y-90145636D01*
X179872223Y-90246538D01*
X179919483Y-90328727D01*
X179954715Y-90390181D01*
X179976754Y-90428876D01*
X179984432Y-90442791D01*
X179980343Y-90442165D01*
X179956842Y-90430747D01*
X179919298Y-90409747D01*
X179897076Y-90396864D01*
X179849685Y-90369468D01*
X179779889Y-90329153D01*
X179689956Y-90277231D01*
X179582154Y-90215009D01*
X179458752Y-90143797D01*
X179322018Y-90064905D01*
X179174221Y-89979642D01*
X179017629Y-89889316D01*
X178854512Y-89795238D01*
X178694835Y-89703119D01*
X178539699Y-89613560D01*
X178393924Y-89529347D01*
X178259695Y-89451743D01*
X178139197Y-89382015D01*
X178034614Y-89321426D01*
X177948131Y-89271242D01*
X177881933Y-89232728D01*
X177838205Y-89207148D01*
X177819131Y-89195768D01*
X177782713Y-89172420D01*
X177826875Y-89125404D01*
X177840544Y-89111217D01*
X177882231Y-89069848D01*
X177938984Y-89015133D01*
X178007909Y-88949730D01*
X178086111Y-88876297D01*
X178170694Y-88797494D01*
X178258765Y-88715980D01*
X178347428Y-88634413D01*
X178433788Y-88555452D01*
X178514951Y-88481757D01*
X178588022Y-88415986D01*
X178650106Y-88360799D01*
X178698307Y-88318854D01*
X178729732Y-88292809D01*
X178741486Y-88285325D01*
X178742784Y-88287894D01*
G37*
X177318928Y-85851907D02*
X177347791Y-85887982D01*
X177385759Y-85943823D01*
X177430099Y-86015679D01*
X177458464Y-86063867D01*
X177497908Y-86133208D01*
X177522766Y-86181506D01*
X177534436Y-86211998D01*
X177534318Y-86227920D01*
X177523809Y-86232508D01*
X177522095Y-86232858D01*
X177501194Y-86245972D01*
X177465651Y-86274240D01*
X177422095Y-86312454D01*
X177403387Y-86330085D01*
X177353024Y-86384758D01*
X177309977Y-86445218D01*
X177272985Y-86515058D01*
X177240785Y-86597870D01*
X177212114Y-86697248D01*
X177185710Y-86816785D01*
X177160312Y-86960074D01*
X177134657Y-87130709D01*
X177105739Y-87327106D01*
X177074685Y-87516966D01*
X177043556Y-87682980D01*
X177011454Y-87828858D01*
X176977481Y-87958313D01*
X176940738Y-88075057D01*
X176900329Y-88182800D01*
X176855355Y-88285255D01*
X176818266Y-88360552D01*
X176779237Y-88432475D01*
X176744394Y-88489354D01*
X176716477Y-88526741D01*
X176698226Y-88540191D01*
X176696882Y-88539794D01*
X176675374Y-88528960D01*
X176630334Y-88504395D01*
X176564284Y-88467555D01*
X176479745Y-88419893D01*
X176379239Y-88362864D01*
X176265288Y-88297922D01*
X176140413Y-88226521D01*
X176007136Y-88150116D01*
X175867979Y-88070161D01*
X175725463Y-87988110D01*
X175582110Y-87905418D01*
X175440442Y-87823539D01*
X175302980Y-87743927D01*
X175172246Y-87668036D01*
X175050762Y-87597321D01*
X174941050Y-87533236D01*
X174845630Y-87477236D01*
X174767026Y-87430774D01*
X174707757Y-87395305D01*
X174670347Y-87372283D01*
X174657317Y-87363163D01*
X174657687Y-87362680D01*
X174675023Y-87351147D01*
X174716674Y-87325740D01*
X174780423Y-87287733D01*
X174864057Y-87238403D01*
X174965361Y-87179027D01*
X175082121Y-87110881D01*
X175212120Y-87035240D01*
X175353145Y-86953381D01*
X175502980Y-86866580D01*
X175659412Y-86776114D01*
X175820225Y-86683258D01*
X175983205Y-86589289D01*
X176146136Y-86495483D01*
X176306804Y-86403116D01*
X176462994Y-86313464D01*
X176612492Y-86227804D01*
X176753083Y-86147412D01*
X176882552Y-86073563D01*
X176998684Y-86007535D01*
X177099264Y-85950603D01*
X177182079Y-85904043D01*
X177244912Y-85869132D01*
X177285549Y-85847146D01*
X177301776Y-85839361D01*
X177301900Y-85839353D01*
X177318928Y-85851907D01*
G36*
X177318928Y-85851907D02*
G01*
X177347791Y-85887982D01*
X177385759Y-85943823D01*
X177430099Y-86015679D01*
X177458464Y-86063867D01*
X177497908Y-86133208D01*
X177522766Y-86181506D01*
X177534436Y-86211998D01*
X177534318Y-86227920D01*
X177523809Y-86232508D01*
X177522095Y-86232858D01*
X177501194Y-86245972D01*
X177465651Y-86274240D01*
X177422095Y-86312454D01*
X177403387Y-86330085D01*
X177353024Y-86384758D01*
X177309977Y-86445218D01*
X177272985Y-86515058D01*
X177240785Y-86597870D01*
X177212114Y-86697248D01*
X177185710Y-86816785D01*
X177160312Y-86960074D01*
X177134657Y-87130709D01*
X177105739Y-87327106D01*
X177074685Y-87516966D01*
X177043556Y-87682980D01*
X177011454Y-87828858D01*
X176977481Y-87958313D01*
X176940738Y-88075057D01*
X176900329Y-88182800D01*
X176855355Y-88285255D01*
X176818266Y-88360552D01*
X176779237Y-88432475D01*
X176744394Y-88489354D01*
X176716477Y-88526741D01*
X176698226Y-88540191D01*
X176696882Y-88539794D01*
X176675374Y-88528960D01*
X176630334Y-88504395D01*
X176564284Y-88467555D01*
X176479745Y-88419893D01*
X176379239Y-88362864D01*
X176265288Y-88297922D01*
X176140413Y-88226521D01*
X176007136Y-88150116D01*
X175867979Y-88070161D01*
X175725463Y-87988110D01*
X175582110Y-87905418D01*
X175440442Y-87823539D01*
X175302980Y-87743927D01*
X175172246Y-87668036D01*
X175050762Y-87597321D01*
X174941050Y-87533236D01*
X174845630Y-87477236D01*
X174767026Y-87430774D01*
X174707757Y-87395305D01*
X174670347Y-87372283D01*
X174657317Y-87363163D01*
X174657687Y-87362680D01*
X174675023Y-87351147D01*
X174716674Y-87325740D01*
X174780423Y-87287733D01*
X174864057Y-87238403D01*
X174965361Y-87179027D01*
X175082121Y-87110881D01*
X175212120Y-87035240D01*
X175353145Y-86953381D01*
X175502980Y-86866580D01*
X175659412Y-86776114D01*
X175820225Y-86683258D01*
X175983205Y-86589289D01*
X176146136Y-86495483D01*
X176306804Y-86403116D01*
X176462994Y-86313464D01*
X176612492Y-86227804D01*
X176753083Y-86147412D01*
X176882552Y-86073563D01*
X176998684Y-86007535D01*
X177099264Y-85950603D01*
X177182079Y-85904043D01*
X177244912Y-85869132D01*
X177285549Y-85847146D01*
X177301776Y-85839361D01*
X177301900Y-85839353D01*
X177318928Y-85851907D01*
G37*
X180542683Y-87057164D02*
X180542671Y-87185319D01*
X180542554Y-87490740D01*
X180542314Y-87786808D01*
X180541956Y-88072081D01*
X180541488Y-88345117D01*
X180540915Y-88604475D01*
X180540244Y-88848713D01*
X180539480Y-89076391D01*
X180538631Y-89286066D01*
X180537701Y-89476297D01*
X180536698Y-89645643D01*
X180535627Y-89792662D01*
X180534495Y-89915913D01*
X180533308Y-90013954D01*
X180532071Y-90085344D01*
X180530792Y-90128642D01*
X180529475Y-90142405D01*
X180522816Y-90132186D01*
X180501595Y-90096929D01*
X180467432Y-90039019D01*
X180421683Y-89960810D01*
X180365702Y-89864657D01*
X180300845Y-89752917D01*
X180228466Y-89627944D01*
X180149921Y-89492094D01*
X180066566Y-89347722D01*
X179979755Y-89197184D01*
X179890844Y-89042835D01*
X179801188Y-88887030D01*
X179712141Y-88732124D01*
X179625060Y-88580474D01*
X179541300Y-88434434D01*
X179462215Y-88296359D01*
X179389161Y-88168606D01*
X179323493Y-88053529D01*
X179266566Y-87953484D01*
X179219736Y-87870826D01*
X179184358Y-87807911D01*
X179161786Y-87767093D01*
X179153376Y-87750729D01*
X179155461Y-87740051D01*
X179174420Y-87707882D01*
X179209544Y-87662019D01*
X179257181Y-87607500D01*
X179304868Y-87558395D01*
X179369828Y-87495851D01*
X179445667Y-87425872D01*
X179528210Y-87352044D01*
X179613280Y-87277955D01*
X179696702Y-87207192D01*
X179774301Y-87143342D01*
X179841901Y-87089993D01*
X179895326Y-87050731D01*
X179930401Y-87029145D01*
X179956017Y-87014734D01*
X180009028Y-86975597D01*
X180065424Y-86925282D01*
X180117974Y-86870964D01*
X180159442Y-86819816D01*
X180182598Y-86779013D01*
X180187950Y-86733948D01*
X180173157Y-86673814D01*
X180139238Y-86616661D01*
X180090565Y-86572307D01*
X180077937Y-86564627D01*
X180057255Y-86554848D01*
X180032366Y-86548475D01*
X179997921Y-86545098D01*
X179948574Y-86544309D01*
X179878976Y-86545699D01*
X179783780Y-86548859D01*
X179728714Y-86551124D01*
X179641629Y-86555936D01*
X179565411Y-86561615D01*
X179506761Y-86567632D01*
X179472378Y-86573457D01*
X179433100Y-86587561D01*
X179355752Y-86629374D01*
X179264103Y-86694345D01*
X179157079Y-86783270D01*
X179033602Y-86896940D01*
X178981578Y-86946268D01*
X178920208Y-87003302D01*
X178868177Y-87050376D01*
X178829778Y-87083616D01*
X178809308Y-87099151D01*
X178806058Y-87100748D01*
X178792065Y-87102663D01*
X178776551Y-87093095D01*
X178756171Y-87068125D01*
X178727583Y-87023834D01*
X178687444Y-86956302D01*
X178653934Y-86898893D01*
X178592635Y-86793248D01*
X178545021Y-86710069D01*
X178509545Y-86646562D01*
X178484661Y-86599934D01*
X178468825Y-86567390D01*
X178460489Y-86546136D01*
X178451240Y-86524143D01*
X178438819Y-86511289D01*
X178435890Y-86510086D01*
X178419596Y-86491279D01*
X178398610Y-86456905D01*
X178369322Y-86402521D01*
X178406704Y-86362366D01*
X178421848Y-86348183D01*
X178463005Y-86315185D01*
X178517957Y-86274894D01*
X178579043Y-86233058D01*
X178714001Y-86143904D01*
X179063874Y-86147403D01*
X179413747Y-86150901D01*
X179463245Y-86201847D01*
X179480891Y-86218966D01*
X179560172Y-86273864D01*
X179654447Y-86305910D01*
X179768292Y-86316828D01*
X179829291Y-86314117D01*
X179936890Y-86294979D01*
X180035095Y-86260099D01*
X180113894Y-86212498D01*
X180142626Y-86179445D01*
X180164449Y-86120691D01*
X180166966Y-86054179D01*
X180151340Y-85988424D01*
X180118732Y-85931939D01*
X180070305Y-85893237D01*
X180067680Y-85891970D01*
X180019737Y-85868577D01*
X179969634Y-85843801D01*
X179922599Y-85822768D01*
X179843322Y-85792596D01*
X179745584Y-85759308D01*
X179633740Y-85724061D01*
X179512146Y-85688011D01*
X179385157Y-85652315D01*
X179257128Y-85618130D01*
X179132414Y-85586613D01*
X179015371Y-85558920D01*
X178910355Y-85536208D01*
X178821721Y-85519634D01*
X178753824Y-85510355D01*
X178711019Y-85509526D01*
X178701294Y-85511393D01*
X178652068Y-85529582D01*
X178586211Y-85563333D01*
X178509677Y-85609685D01*
X178482097Y-85627476D01*
X178369634Y-85698958D01*
X178271284Y-85759720D01*
X178189344Y-85808423D01*
X178126117Y-85843726D01*
X178083902Y-85864288D01*
X178064999Y-85868771D01*
X178064332Y-85868252D01*
X178050717Y-85849695D01*
X178025831Y-85810038D01*
X177992988Y-85754714D01*
X177955500Y-85689156D01*
X177952388Y-85683614D01*
X177913224Y-85612433D01*
X177888248Y-85562859D01*
X177875670Y-85530334D01*
X177873701Y-85510298D01*
X177880552Y-85498193D01*
X177889137Y-85492438D01*
X177922858Y-85471875D01*
X177979712Y-85438061D01*
X178057480Y-85392290D01*
X178153944Y-85335857D01*
X178266883Y-85270056D01*
X178394080Y-85196182D01*
X178533315Y-85115529D01*
X178682369Y-85029392D01*
X178839024Y-84939065D01*
X178882033Y-84914293D01*
X179052087Y-84816340D01*
X179223266Y-84717731D01*
X179392074Y-84620480D01*
X179555015Y-84526602D01*
X179708594Y-84438109D01*
X179849313Y-84357018D01*
X179973678Y-84285342D01*
X180078192Y-84225096D01*
X180159359Y-84178293D01*
X180542683Y-83957210D01*
X180542683Y-87057164D01*
G36*
X180542683Y-87057164D02*
G01*
X180542671Y-87185319D01*
X180542554Y-87490740D01*
X180542314Y-87786808D01*
X180541956Y-88072081D01*
X180541488Y-88345117D01*
X180540915Y-88604475D01*
X180540244Y-88848713D01*
X180539480Y-89076391D01*
X180538631Y-89286066D01*
X180537701Y-89476297D01*
X180536698Y-89645643D01*
X180535627Y-89792662D01*
X180534495Y-89915913D01*
X180533308Y-90013954D01*
X180532071Y-90085344D01*
X180530792Y-90128642D01*
X180529475Y-90142405D01*
X180522816Y-90132186D01*
X180501595Y-90096929D01*
X180467432Y-90039019D01*
X180421683Y-89960810D01*
X180365702Y-89864657D01*
X180300845Y-89752917D01*
X180228466Y-89627944D01*
X180149921Y-89492094D01*
X180066566Y-89347722D01*
X179979755Y-89197184D01*
X179890844Y-89042835D01*
X179801188Y-88887030D01*
X179712141Y-88732124D01*
X179625060Y-88580474D01*
X179541300Y-88434434D01*
X179462215Y-88296359D01*
X179389161Y-88168606D01*
X179323493Y-88053529D01*
X179266566Y-87953484D01*
X179219736Y-87870826D01*
X179184358Y-87807911D01*
X179161786Y-87767093D01*
X179153376Y-87750729D01*
X179155461Y-87740051D01*
X179174420Y-87707882D01*
X179209544Y-87662019D01*
X179257181Y-87607500D01*
X179304868Y-87558395D01*
X179369828Y-87495851D01*
X179445667Y-87425872D01*
X179528210Y-87352044D01*
X179613280Y-87277955D01*
X179696702Y-87207192D01*
X179774301Y-87143342D01*
X179841901Y-87089993D01*
X179895326Y-87050731D01*
X179930401Y-87029145D01*
X179956017Y-87014734D01*
X180009028Y-86975597D01*
X180065424Y-86925282D01*
X180117974Y-86870964D01*
X180159442Y-86819816D01*
X180182598Y-86779013D01*
X180187950Y-86733948D01*
X180173157Y-86673814D01*
X180139238Y-86616661D01*
X180090565Y-86572307D01*
X180077937Y-86564627D01*
X180057255Y-86554848D01*
X180032366Y-86548475D01*
X179997921Y-86545098D01*
X179948574Y-86544309D01*
X179878976Y-86545699D01*
X179783780Y-86548859D01*
X179728714Y-86551124D01*
X179641629Y-86555936D01*
X179565411Y-86561615D01*
X179506761Y-86567632D01*
X179472378Y-86573457D01*
X179433100Y-86587561D01*
X179355752Y-86629374D01*
X179264103Y-86694345D01*
X179157079Y-86783270D01*
X179033602Y-86896940D01*
X178981578Y-86946268D01*
X178920208Y-87003302D01*
X178868177Y-87050376D01*
X178829778Y-87083616D01*
X178809308Y-87099151D01*
X178806058Y-87100748D01*
X178792065Y-87102663D01*
X178776551Y-87093095D01*
X178756171Y-87068125D01*
X178727583Y-87023834D01*
X178687444Y-86956302D01*
X178653934Y-86898893D01*
X178592635Y-86793248D01*
X178545021Y-86710069D01*
X178509545Y-86646562D01*
X178484661Y-86599934D01*
X178468825Y-86567390D01*
X178460489Y-86546136D01*
X178451240Y-86524143D01*
X178438819Y-86511289D01*
X178435890Y-86510086D01*
X178419596Y-86491279D01*
X178398610Y-86456905D01*
X178369322Y-86402521D01*
X178406704Y-86362366D01*
X178421848Y-86348183D01*
X178463005Y-86315185D01*
X178517957Y-86274894D01*
X178579043Y-86233058D01*
X178714001Y-86143904D01*
X179063874Y-86147403D01*
X179413747Y-86150901D01*
X179463245Y-86201847D01*
X179480891Y-86218966D01*
X179560172Y-86273864D01*
X179654447Y-86305910D01*
X179768292Y-86316828D01*
X179829291Y-86314117D01*
X179936890Y-86294979D01*
X180035095Y-86260099D01*
X180113894Y-86212498D01*
X180142626Y-86179445D01*
X180164449Y-86120691D01*
X180166966Y-86054179D01*
X180151340Y-85988424D01*
X180118732Y-85931939D01*
X180070305Y-85893237D01*
X180067680Y-85891970D01*
X180019737Y-85868577D01*
X179969634Y-85843801D01*
X179922599Y-85822768D01*
X179843322Y-85792596D01*
X179745584Y-85759308D01*
X179633740Y-85724061D01*
X179512146Y-85688011D01*
X179385157Y-85652315D01*
X179257128Y-85618130D01*
X179132414Y-85586613D01*
X179015371Y-85558920D01*
X178910355Y-85536208D01*
X178821721Y-85519634D01*
X178753824Y-85510355D01*
X178711019Y-85509526D01*
X178701294Y-85511393D01*
X178652068Y-85529582D01*
X178586211Y-85563333D01*
X178509677Y-85609685D01*
X178482097Y-85627476D01*
X178369634Y-85698958D01*
X178271284Y-85759720D01*
X178189344Y-85808423D01*
X178126117Y-85843726D01*
X178083902Y-85864288D01*
X178064999Y-85868771D01*
X178064332Y-85868252D01*
X178050717Y-85849695D01*
X178025831Y-85810038D01*
X177992988Y-85754714D01*
X177955500Y-85689156D01*
X177952388Y-85683614D01*
X177913224Y-85612433D01*
X177888248Y-85562859D01*
X177875670Y-85530334D01*
X177873701Y-85510298D01*
X177880552Y-85498193D01*
X177889137Y-85492438D01*
X177922858Y-85471875D01*
X177979712Y-85438061D01*
X178057480Y-85392290D01*
X178153944Y-85335857D01*
X178266883Y-85270056D01*
X178394080Y-85196182D01*
X178533315Y-85115529D01*
X178682369Y-85029392D01*
X178839024Y-84939065D01*
X178882033Y-84914293D01*
X179052087Y-84816340D01*
X179223266Y-84717731D01*
X179392074Y-84620480D01*
X179555015Y-84526602D01*
X179708594Y-84438109D01*
X179849313Y-84357018D01*
X179973678Y-84285342D01*
X180078192Y-84225096D01*
X180159359Y-84178293D01*
X180542683Y-83957210D01*
X180542683Y-87057164D01*
G37*
D14*
%TO.C,kibuzzard-662FE100*%
G36*
X180498855Y-70722952D02*
G01*
X180498855Y-71275583D01*
X180498855Y-72147764D01*
X180498855Y-72448516D01*
X180498855Y-73338240D01*
X180498855Y-73382100D01*
X180498855Y-73590955D01*
X179081145Y-73590955D01*
X179081145Y-73382100D01*
X179307544Y-73382100D01*
X179404192Y-73378340D01*
X179503659Y-73374581D01*
X179604223Y-73370508D01*
X179704160Y-73365809D01*
X179803001Y-73360327D01*
X179900276Y-73353904D01*
X179994261Y-73346542D01*
X180083233Y-73338240D01*
X180083233Y-73210420D01*
X180001310Y-73182852D01*
X179913434Y-73155283D01*
X179824618Y-73127714D01*
X179739875Y-73100145D01*
X179822268Y-73071949D01*
X179911554Y-73042501D01*
X180000840Y-73013679D01*
X180083233Y-72987363D01*
X180083233Y-72859543D01*
X179994104Y-72850145D01*
X179899649Y-72841999D01*
X179801905Y-72834951D01*
X179702907Y-72828842D01*
X179602970Y-72823672D01*
X179502406Y-72819443D01*
X179403252Y-72815997D01*
X179307544Y-72813177D01*
X179307544Y-72956035D01*
X179382732Y-72954781D01*
X179460426Y-72953528D01*
X179539217Y-72952275D01*
X179617694Y-72951022D01*
X179695075Y-72949769D01*
X179770576Y-72948516D01*
X179842788Y-72947576D01*
X179910301Y-72947263D01*
X179822581Y-72972952D01*
X179728596Y-73000521D01*
X179643383Y-73024957D01*
X179581980Y-73042501D01*
X179581980Y-73155283D01*
X179640877Y-73170320D01*
X179718571Y-73192250D01*
X179810050Y-73218566D01*
X179910301Y-73246761D01*
X179842788Y-73246448D01*
X179770576Y-73245508D01*
X179695232Y-73244255D01*
X179618321Y-73243002D01*
X179540157Y-73241749D01*
X179461053Y-73240496D01*
X179382888Y-73239556D01*
X179307544Y-73239243D01*
X179307544Y-73382100D01*
X179081145Y-73382100D01*
X179081145Y-72484857D01*
X179290000Y-72484857D01*
X179294073Y-72551743D01*
X179306291Y-72609543D01*
X179342632Y-72699142D01*
X179461679Y-72654030D01*
X179431604Y-72584481D01*
X179419073Y-72496135D01*
X179428959Y-72427909D01*
X179458616Y-72386973D01*
X179508045Y-72373328D01*
X179547519Y-72385859D01*
X179577594Y-72417814D01*
X179600777Y-72461674D01*
X179619574Y-72509919D01*
X179650276Y-72585734D01*
X179695388Y-72658415D01*
X179765564Y-72712927D01*
X179813026Y-72728904D01*
X179871454Y-72734230D01*
X179968102Y-72716530D01*
X180040000Y-72663428D01*
X180073069Y-72608081D01*
X180092910Y-72536444D01*
X180099524Y-72448516D01*
X180094355Y-72361736D01*
X180078847Y-72294380D01*
X180040627Y-72207914D01*
X179915313Y-72253027D01*
X179952907Y-72333854D01*
X179966065Y-72386016D01*
X179970451Y-72448516D01*
X179962306Y-72513052D01*
X179939749Y-72553779D01*
X179907168Y-72574456D01*
X179870201Y-72580095D01*
X179827594Y-72566310D01*
X179794386Y-72531223D01*
X179768070Y-72483603D01*
X179746140Y-72430972D01*
X179717318Y-72358290D01*
X179675965Y-72289994D01*
X179613935Y-72239243D01*
X179521830Y-72219192D01*
X179424712Y-72236893D01*
X179351404Y-72289994D01*
X179317290Y-72343113D01*
X179296823Y-72408067D01*
X179290000Y-72484857D01*
X179081145Y-72484857D01*
X179081145Y-72147764D01*
X180155915Y-72147764D01*
X180290000Y-72147764D01*
X180290000Y-71541248D01*
X180155915Y-71541248D01*
X180155915Y-72147764D01*
X179081145Y-72147764D01*
X179081145Y-71290621D01*
X179290000Y-71290621D01*
X179296892Y-71365182D01*
X179312556Y-71423453D01*
X179331353Y-71465433D01*
X179346391Y-71491122D01*
X179469198Y-71451022D01*
X179437243Y-71381473D01*
X179424085Y-71288115D01*
X179437243Y-71217313D01*
X179481103Y-71155909D01*
X179563183Y-71112050D01*
X179620827Y-71099362D01*
X179691003Y-71095132D01*
X179772665Y-71100214D01*
X179840543Y-71115461D01*
X179894637Y-71140872D01*
X179947738Y-71201179D01*
X179965439Y-71290621D01*
X179951654Y-71390245D01*
X179924085Y-71453528D01*
X180045639Y-71492375D01*
X180082607Y-71404030D01*
X180095294Y-71344036D01*
X180099524Y-71275583D01*
X180087828Y-71174776D01*
X180052740Y-71091234D01*
X179994261Y-71024957D01*
X179936068Y-70987128D01*
X179866754Y-70960107D01*
X179786319Y-70943895D01*
X179694762Y-70938491D01*
X179603596Y-70945070D01*
X179523083Y-70964806D01*
X179453690Y-70996291D01*
X179395890Y-71038115D01*
X179350150Y-71089493D01*
X179316942Y-71149644D01*
X179296736Y-71217156D01*
X179290000Y-71290621D01*
X179081145Y-71290621D01*
X179081145Y-70847012D01*
X179307544Y-70847012D01*
X180083233Y-70847012D01*
X180083233Y-70722952D01*
X179997254Y-70686820D01*
X179911415Y-70648599D01*
X179825714Y-70608290D01*
X179740014Y-70565893D01*
X179654174Y-70521406D01*
X179568195Y-70474832D01*
X180083233Y-70474832D01*
X180083233Y-70335734D01*
X179307544Y-70335734D01*
X179307544Y-70459794D01*
X179365031Y-70494882D01*
X179427218Y-70529969D01*
X179491598Y-70564587D01*
X179555664Y-70598265D01*
X179618634Y-70630220D01*
X179679724Y-70659669D01*
X179736115Y-70685828D01*
X179784987Y-70707914D01*
X179307544Y-70707914D01*
X179307544Y-70847012D01*
X179081145Y-70847012D01*
X179081145Y-70200395D01*
X179307544Y-70200395D01*
X179435363Y-70200395D01*
X179435363Y-69884606D01*
X179609549Y-69884606D01*
X179609549Y-70159042D01*
X179737368Y-70159042D01*
X179737368Y-69884606D01*
X179955414Y-69884606D01*
X179955414Y-70227964D01*
X180083233Y-70227964D01*
X180083233Y-69730471D01*
X179307544Y-69730471D01*
X179307544Y-70200395D01*
X179081145Y-70200395D01*
X179081145Y-69730471D01*
X179081145Y-69521615D01*
X179790000Y-69049045D01*
X180498855Y-69521615D01*
X180498855Y-69730471D01*
X180498855Y-70722952D01*
G37*
D13*
%TO.C,D12*%
X167880000Y-92490000D02*
X169180000Y-92490000D01*
X169150000Y-89370000D02*
X167880000Y-89370000D01*
X169530000Y-89420000D02*
X169290000Y-89090000D01*
X169770000Y-89090000D01*
X169530000Y-89420000D01*
G36*
X169530000Y-89420000D02*
G01*
X169290000Y-89090000D01*
X169770000Y-89090000D01*
X169530000Y-89420000D01*
G37*
D14*
%TO.C,kibuzzard-662EB833*%
G36*
X138177954Y-95043713D02*
G01*
X137914241Y-95043713D01*
X137498101Y-95043713D01*
X136866772Y-95043713D01*
X136100949Y-95043713D01*
X135623101Y-95043713D01*
X134963819Y-95043713D01*
X134963819Y-93780000D01*
X135623101Y-93780000D01*
X135644264Y-93880475D01*
X135669778Y-93992025D01*
X135699446Y-94112081D01*
X135733070Y-94238070D01*
X135757595Y-94324568D01*
X135783703Y-94412120D01*
X135811392Y-94500728D01*
X135840225Y-94588896D01*
X135869761Y-94675130D01*
X135900000Y-94759430D01*
X136100949Y-94759430D01*
X136140111Y-94643133D01*
X136181646Y-94512595D01*
X136196601Y-94463544D01*
X136479114Y-94463544D01*
X136502848Y-94589335D01*
X136575633Y-94689810D01*
X136630617Y-94727785D01*
X136697468Y-94756266D01*
X136776187Y-94774066D01*
X136866772Y-94780000D01*
X136944304Y-94775253D01*
X137020253Y-94763386D01*
X137085918Y-94746772D01*
X137131013Y-94729367D01*
X137091456Y-94567975D01*
X137002848Y-94599620D01*
X136942326Y-94610301D01*
X136868354Y-94613861D01*
X136774209Y-94601203D01*
X136715665Y-94568766D01*
X136686392Y-94523671D01*
X136678481Y-94471456D01*
X136686975Y-94423987D01*
X137249684Y-94423987D01*
X137498101Y-94423987D01*
X137498101Y-94699304D01*
X137665823Y-94699304D01*
X137665823Y-94423987D01*
X137914241Y-94423987D01*
X137914241Y-94264177D01*
X137665823Y-94264177D01*
X137665823Y-93988861D01*
X137498101Y-93988861D01*
X137498101Y-94264177D01*
X137249684Y-94264177D01*
X137249684Y-94423987D01*
X136686975Y-94423987D01*
X136691930Y-94396297D01*
X136745728Y-94337753D01*
X136860443Y-94299778D01*
X136946282Y-94289691D01*
X137055063Y-94286329D01*
X137040823Y-94154802D01*
X137029747Y-94026044D01*
X137021440Y-93900847D01*
X137015506Y-93780000D01*
X136515506Y-93780000D01*
X136515506Y-93941392D01*
X136852532Y-93941392D01*
X136860443Y-94047405D01*
X136868354Y-94137595D01*
X136748629Y-94153769D01*
X136651055Y-94185415D01*
X136575633Y-94232532D01*
X136522011Y-94294768D01*
X136489838Y-94371772D01*
X136479114Y-94463544D01*
X136196601Y-94463544D01*
X136209599Y-94420911D01*
X136236498Y-94329402D01*
X136262342Y-94238070D01*
X136286779Y-94148495D01*
X136309459Y-94062261D01*
X136330380Y-93979367D01*
X136356487Y-93868608D01*
X136374684Y-93780000D01*
X136168987Y-93780000D01*
X136157120Y-93862081D01*
X136140506Y-93956424D01*
X136120530Y-94058481D01*
X136098576Y-94163703D01*
X136074842Y-94269715D01*
X136049525Y-94374146D01*
X136023616Y-94472445D01*
X135998101Y-94560063D01*
X135972785Y-94473631D01*
X135947468Y-94375728D01*
X135922943Y-94271297D01*
X135900000Y-94165285D01*
X135878639Y-94059866D01*
X135858861Y-93957215D01*
X135841456Y-93862278D01*
X135827215Y-93780000D01*
X135623101Y-93780000D01*
X134963819Y-93780000D01*
X134963819Y-93516287D01*
X135623101Y-93516287D01*
X137914241Y-93516287D01*
X138177954Y-93516287D01*
X138636181Y-93516287D01*
X138177954Y-95043713D01*
G37*
D13*
%TO.C,D11*%
X138440000Y-86690000D02*
X139740000Y-86690000D01*
X139710000Y-83570000D02*
X138440000Y-83570000D01*
X140090000Y-83620000D02*
X139850000Y-83290000D01*
X140330000Y-83290000D01*
X140090000Y-83620000D01*
G36*
X140090000Y-83620000D02*
G01*
X139850000Y-83290000D01*
X140330000Y-83290000D01*
X140090000Y-83620000D01*
G37*
D14*
%TO.C,kibuzzard-65D74CD7*%
G36*
X174591921Y-72154087D02*
G01*
X174638752Y-72227906D01*
X174660977Y-72336650D01*
X174665144Y-72400944D01*
X174666533Y-72470000D01*
X174665144Y-72539255D01*
X174660977Y-72604144D01*
X174638752Y-72712887D01*
X174591921Y-72785912D01*
X174510958Y-72812900D01*
X174430790Y-72785912D01*
X174383165Y-72712094D01*
X174360940Y-72603350D01*
X174356772Y-72539056D01*
X174355383Y-72470000D01*
X174356772Y-72400745D01*
X174360940Y-72335856D01*
X174383165Y-72227112D01*
X174429996Y-72154087D01*
X174510958Y-72127100D01*
X174591921Y-72154087D01*
G37*
G36*
X177864817Y-73313492D02*
G01*
X177203358Y-73313492D01*
X175931771Y-73313492D01*
X175601571Y-73313492D01*
X174509371Y-73313492D01*
X173715621Y-73313492D01*
X173574333Y-73313492D01*
X153730583Y-73313492D01*
X153730583Y-72836712D01*
X173574333Y-72836712D01*
X173617196Y-72943075D01*
X173715621Y-72979587D01*
X173769596Y-72970062D01*
X173814840Y-72942281D01*
X173846590Y-72897831D01*
X173858496Y-72836712D01*
X173846590Y-72777181D01*
X173814840Y-72733525D01*
X173769596Y-72706537D01*
X173715621Y-72697012D01*
X173617196Y-72733525D01*
X173574333Y-72836712D01*
X153730583Y-72836712D01*
X153730583Y-72355700D01*
X173574333Y-72355700D01*
X173617196Y-72462062D01*
X173715621Y-72498575D01*
X173769596Y-72489050D01*
X173800621Y-72470000D01*
X174156946Y-72470000D01*
X174162701Y-72589211D01*
X174179965Y-72692845D01*
X174208738Y-72780902D01*
X174249021Y-72853381D01*
X174318871Y-72925260D01*
X174405654Y-72968387D01*
X174509371Y-72982762D01*
X174615645Y-72968387D01*
X174703751Y-72925260D01*
X174773690Y-72853381D01*
X174813625Y-72780902D01*
X174842151Y-72692845D01*
X174859266Y-72589211D01*
X174864971Y-72470000D01*
X174859117Y-72350789D01*
X174841555Y-72247155D01*
X174812286Y-72159098D01*
X174771308Y-72086619D01*
X174700753Y-72014740D01*
X174629763Y-71979462D01*
X174999908Y-71979462D01*
X174999908Y-72141387D01*
X175406308Y-72141387D01*
X175406308Y-72379512D01*
X175050708Y-72379512D01*
X175050708Y-72541437D01*
X175406308Y-72541437D01*
X175406308Y-72962125D01*
X175601571Y-72962125D01*
X175601571Y-71979462D01*
X175774608Y-71979462D01*
X175774608Y-72962125D01*
X175931771Y-72962125D01*
X175977544Y-72853205D01*
X176025962Y-72744461D01*
X176077027Y-72635894D01*
X176130738Y-72527326D01*
X176187094Y-72418583D01*
X176246096Y-72309662D01*
X176246096Y-72962125D01*
X176422308Y-72962125D01*
X176422308Y-71979462D01*
X176579471Y-71979462D01*
X176579471Y-72141387D01*
X176792196Y-72141387D01*
X176792196Y-72800200D01*
X176579471Y-72800200D01*
X176579471Y-72962125D01*
X177203358Y-72962125D01*
X177203358Y-72800200D01*
X176989046Y-72800200D01*
X176989046Y-72141387D01*
X177203358Y-72141387D01*
X177203358Y-71979462D01*
X176579471Y-71979462D01*
X176422308Y-71979462D01*
X176265146Y-71979462D01*
X176220696Y-72052289D01*
X176176246Y-72131069D01*
X176132391Y-72212627D01*
X176089727Y-72293787D01*
X176049246Y-72373559D01*
X176011940Y-72450950D01*
X175978801Y-72522387D01*
X175950821Y-72584300D01*
X175950821Y-71979462D01*
X175774608Y-71979462D01*
X175601571Y-71979462D01*
X174999908Y-71979462D01*
X174629763Y-71979462D01*
X174613969Y-71971613D01*
X174510958Y-71957237D01*
X174404772Y-71971613D01*
X174316931Y-72014740D01*
X174247433Y-72086619D01*
X174207845Y-72159098D01*
X174179568Y-72247155D01*
X174162601Y-72350789D01*
X174156946Y-72470000D01*
X173800621Y-72470000D01*
X173814840Y-72461269D01*
X173846590Y-72416819D01*
X173858496Y-72355700D01*
X173846590Y-72296169D01*
X173814840Y-72252512D01*
X173769596Y-72225525D01*
X173715621Y-72216000D01*
X173617196Y-72252512D01*
X173574333Y-72355700D01*
X153730583Y-72355700D01*
X153730583Y-71626508D01*
X173574333Y-71626508D01*
X177203358Y-71626508D01*
X177864817Y-71626508D01*
X177864817Y-73313492D01*
G37*
D13*
%TO.C,J2*%
X162370000Y-111500000D02*
X163700000Y-111500000D01*
X162370000Y-112830000D02*
X162370000Y-111500000D01*
X162370000Y-114100000D02*
X164970000Y-114100000D01*
X162370000Y-116700000D02*
X162370000Y-114100000D01*
X164970000Y-114100000D02*
X164970000Y-111500000D01*
X177730000Y-111500000D02*
X164970000Y-111500000D01*
X177730000Y-116700000D02*
X162370000Y-116700000D01*
X177730000Y-116700000D02*
X177730000Y-111500000D01*
D14*
%TO.C,kibuzzard-662FE170*%
G36*
X132847998Y-76649721D02*
G01*
X132847998Y-77465511D01*
X132847998Y-77833932D01*
X132847998Y-78091930D01*
X131332002Y-78546729D01*
X131332002Y-78091930D01*
X131332002Y-77833932D01*
X131332002Y-77482539D01*
X131590000Y-77482539D01*
X131595031Y-77557810D01*
X131610124Y-77622632D01*
X131666625Y-77720929D01*
X131752539Y-77778204D01*
X131859350Y-77796780D01*
X131969257Y-77764272D01*
X132049752Y-77677585D01*
X132088065Y-77743568D01*
X132141084Y-77792910D01*
X132207260Y-77823676D01*
X132285046Y-77833932D01*
X132407337Y-77812260D01*
X132504087Y-77745697D01*
X132540464Y-77694613D01*
X132567554Y-77631146D01*
X132584389Y-77554907D01*
X132590000Y-77465511D01*
X132584582Y-77390433D01*
X132571424Y-77314582D01*
X132554396Y-77247245D01*
X132537368Y-77199257D01*
X132377926Y-77236409D01*
X132410433Y-77328514D01*
X132423204Y-77390627D01*
X132427461Y-77463963D01*
X132417012Y-77546974D01*
X132385666Y-77600960D01*
X132281950Y-77640433D01*
X132217515Y-77625341D01*
X132175913Y-77580062D01*
X132153274Y-77511563D01*
X132145728Y-77426811D01*
X132145728Y-77367988D01*
X131987833Y-77367988D01*
X131987833Y-77439195D01*
X131981641Y-77498019D01*
X131961517Y-77550650D01*
X131924365Y-77588576D01*
X131865542Y-77603282D01*
X131782724Y-77571548D01*
X131752539Y-77484087D01*
X131770341Y-77376502D01*
X131814458Y-77284396D01*
X131675139Y-77216285D01*
X131618638Y-77326966D01*
X131597159Y-77400302D01*
X131590000Y-77482539D01*
X131332002Y-77482539D01*
X131332002Y-77117214D01*
X131611672Y-77117214D01*
X131709969Y-77096509D01*
X131819102Y-77071548D01*
X131936556Y-77042523D01*
X132059814Y-77009628D01*
X132144438Y-76985635D01*
X132230093Y-76960093D01*
X132316780Y-76933003D01*
X132403037Y-76904795D01*
X132487403Y-76875900D01*
X132569876Y-76846316D01*
X132569876Y-76649721D01*
X132456099Y-76611409D01*
X132328390Y-76570774D01*
X132238693Y-76543426D01*
X132149168Y-76517110D01*
X132059814Y-76491827D01*
X131972181Y-76467919D01*
X131887816Y-76445731D01*
X131806718Y-76425263D01*
X131698359Y-76399721D01*
X131611672Y-76381920D01*
X131611672Y-76583158D01*
X131691974Y-76594768D01*
X131784272Y-76611022D01*
X131884118Y-76630565D01*
X131987059Y-76652043D01*
X132090774Y-76675263D01*
X132192941Y-76700031D01*
X132289110Y-76725379D01*
X132374830Y-76750341D01*
X132290271Y-76775108D01*
X132194489Y-76799876D01*
X132092322Y-76823870D01*
X131988607Y-76846316D01*
X131885472Y-76867214D01*
X131785046Y-76886563D01*
X131692167Y-76903591D01*
X131611672Y-76917523D01*
X131611672Y-77117214D01*
X131332002Y-77117214D01*
X131332002Y-75934551D01*
X131590000Y-75934551D01*
X131595031Y-76009822D01*
X131610124Y-76074644D01*
X131666625Y-76172941D01*
X131752539Y-76230217D01*
X131859350Y-76248793D01*
X131969257Y-76216285D01*
X132049752Y-76129598D01*
X132088065Y-76195580D01*
X132141084Y-76244923D01*
X132207260Y-76275689D01*
X132285046Y-76285944D01*
X132407337Y-76264272D01*
X132504087Y-76197709D01*
X132540464Y-76146625D01*
X132567554Y-76083158D01*
X132584389Y-76006920D01*
X132590000Y-75917523D01*
X132584582Y-75842446D01*
X132571424Y-75766594D01*
X132554396Y-75699257D01*
X132537368Y-75651269D01*
X132377926Y-75688421D01*
X132410433Y-75780526D01*
X132423204Y-75842639D01*
X132427461Y-75915975D01*
X132417012Y-75998986D01*
X132385666Y-76052972D01*
X132281950Y-76092446D01*
X132217515Y-76077353D01*
X132175913Y-76032074D01*
X132153274Y-75963576D01*
X132145728Y-75878824D01*
X132145728Y-75820000D01*
X131987833Y-75820000D01*
X131987833Y-75891207D01*
X131981641Y-75950031D01*
X131961517Y-76002663D01*
X131924365Y-76040588D01*
X131865542Y-76055294D01*
X131782724Y-76023560D01*
X131752539Y-75936099D01*
X131770341Y-75828514D01*
X131814458Y-75736409D01*
X131675139Y-75668297D01*
X131618638Y-75778978D01*
X131597159Y-75852314D01*
X131590000Y-75934551D01*
X131332002Y-75934551D01*
X131332002Y-75651269D01*
X131332002Y-75393271D01*
X132847998Y-75393271D01*
X132847998Y-75651269D01*
X132847998Y-75917523D01*
X132847998Y-76649721D01*
G37*
%TO.C,kibuzzard-662FE13B*%
G36*
X137947998Y-77313873D02*
G01*
X137947998Y-78341737D01*
X137947998Y-78599735D01*
X136432002Y-78599735D01*
X136432002Y-78341737D01*
X136432002Y-77931520D01*
X136711672Y-77931520D01*
X137511981Y-77931520D01*
X137511981Y-78341737D01*
X137669876Y-78341737D01*
X137669876Y-77739570D01*
X136711672Y-77739570D01*
X136711672Y-77931520D01*
X136432002Y-77931520D01*
X136432002Y-77332449D01*
X136690000Y-77332449D01*
X136698514Y-77424555D01*
X136717864Y-77496536D01*
X136741084Y-77548394D01*
X136759659Y-77580127D01*
X136911362Y-77530592D01*
X136871889Y-77444678D01*
X136855635Y-77329353D01*
X136871889Y-77241892D01*
X136926068Y-77166041D01*
X137027461Y-77111861D01*
X137098669Y-77096188D01*
X137185356Y-77090963D01*
X137286233Y-77097241D01*
X137370083Y-77116075D01*
X137436904Y-77147465D01*
X137502500Y-77221962D01*
X137524365Y-77332449D01*
X137507337Y-77455514D01*
X137473282Y-77533688D01*
X137623437Y-77581675D01*
X137669102Y-77472542D01*
X137684776Y-77398432D01*
X137690000Y-77313873D01*
X137675552Y-77189346D01*
X137632208Y-77086147D01*
X137559969Y-77004276D01*
X137488084Y-76957546D01*
X137402461Y-76924168D01*
X137303100Y-76904140D01*
X137190000Y-76897465D01*
X137077384Y-76905592D01*
X136977926Y-76929972D01*
X136892206Y-76968866D01*
X136820805Y-77020530D01*
X136764303Y-77083997D01*
X136723282Y-77158301D01*
X136698320Y-77241698D01*
X136690000Y-77332449D01*
X136432002Y-77332449D01*
X136432002Y-76485700D01*
X136690000Y-76485700D01*
X136695031Y-76568324D01*
X136710124Y-76639725D01*
X136755015Y-76750406D01*
X136902074Y-76694678D01*
X136864923Y-76608765D01*
X136849443Y-76499632D01*
X136861655Y-76415353D01*
X136898290Y-76364785D01*
X136959350Y-76347929D01*
X137008111Y-76363409D01*
X137045263Y-76402883D01*
X137073901Y-76457062D01*
X137097121Y-76516660D01*
X137135046Y-76610313D01*
X137190774Y-76700096D01*
X137277461Y-76767434D01*
X137336091Y-76787171D01*
X137408266Y-76793750D01*
X137527655Y-76771884D01*
X137616471Y-76706288D01*
X137657320Y-76637919D01*
X137681830Y-76549426D01*
X137690000Y-76440808D01*
X137683615Y-76333610D01*
X137664458Y-76250406D01*
X137617245Y-76143595D01*
X137462446Y-76199322D01*
X137508885Y-76299168D01*
X137525139Y-76363603D01*
X137530557Y-76440808D01*
X137520495Y-76520530D01*
X137492632Y-76570839D01*
X137452384Y-76596381D01*
X137406718Y-76603347D01*
X137354087Y-76586319D01*
X137313065Y-76542976D01*
X137280557Y-76484152D01*
X137253467Y-76419137D01*
X137217864Y-76329353D01*
X137166780Y-76244988D01*
X137090155Y-76182294D01*
X136976378Y-76157527D01*
X136856409Y-76179392D01*
X136765851Y-76244988D01*
X136723712Y-76310605D01*
X136698428Y-76390843D01*
X136690000Y-76485700D01*
X136432002Y-76485700D01*
X136432002Y-76143595D01*
X136432002Y-75885597D01*
X137190000Y-75380265D01*
X137947998Y-75885597D01*
X137947998Y-76143595D01*
X137947998Y-76440808D01*
X137947998Y-77313873D01*
G37*
%TO.C,kibuzzard-662EB85A*%
G36*
X131649173Y-91750927D02*
G01*
X131649173Y-91764712D01*
X131629123Y-91853058D01*
X131573985Y-91910702D01*
X131490652Y-91942030D01*
X131440056Y-91949079D01*
X131384762Y-91951429D01*
X131287018Y-91943910D01*
X131203058Y-91917594D01*
X131144787Y-91866216D01*
X131122857Y-91782256D01*
X131123484Y-91759699D01*
X131126617Y-91737143D01*
X131647920Y-91737143D01*
X131649173Y-91750927D01*
G37*
G36*
X131439430Y-89827212D02*
G01*
X131490652Y-89830501D01*
X131576491Y-89848045D01*
X131634135Y-89885013D01*
X131655439Y-89948922D01*
X131634135Y-90012206D01*
X131575865Y-90049799D01*
X131490025Y-90067343D01*
X131439273Y-90070633D01*
X131384762Y-90071729D01*
X131330094Y-90070633D01*
X131278872Y-90067343D01*
X131193033Y-90049799D01*
X131135388Y-90012832D01*
X131114085Y-89948922D01*
X131135388Y-89885013D01*
X131193659Y-89848045D01*
X131279499Y-89830501D01*
X131330251Y-89827212D01*
X131384762Y-89826115D01*
X131439430Y-89827212D01*
G37*
G36*
X132188855Y-90838647D02*
G01*
X132188855Y-90967719D01*
X132188855Y-91748421D01*
X132188855Y-92758446D01*
X132188855Y-93001554D01*
X132188855Y-93462707D01*
X132188855Y-94466466D01*
X132188855Y-94590526D01*
X132188855Y-94799382D01*
X132188855Y-95224695D01*
X130771145Y-94799382D01*
X130771145Y-94590526D01*
X130997544Y-94590526D01*
X131773233Y-94590526D01*
X131773233Y-94466466D01*
X131687254Y-94430334D01*
X131601415Y-94392114D01*
X131515714Y-94351805D01*
X131430014Y-94309407D01*
X131344174Y-94264921D01*
X131258195Y-94218346D01*
X131773233Y-94218346D01*
X131773233Y-94079248D01*
X130997544Y-94079248D01*
X130997544Y-94203308D01*
X131055031Y-94238396D01*
X131117218Y-94273484D01*
X131181598Y-94308102D01*
X131245664Y-94341779D01*
X131308634Y-94373734D01*
X131369724Y-94403183D01*
X131426115Y-94429342D01*
X131474987Y-94451429D01*
X130997544Y-94451429D01*
X130997544Y-94590526D01*
X130771145Y-94590526D01*
X130771145Y-93955188D01*
X130997544Y-93955188D01*
X131125363Y-93955188D01*
X131125363Y-93787268D01*
X131645414Y-93787268D01*
X131645414Y-93955188D01*
X131773233Y-93955188D01*
X131773233Y-93462707D01*
X131645414Y-93462707D01*
X131645414Y-93631880D01*
X131125363Y-93631880D01*
X131125363Y-93462707D01*
X130997544Y-93462707D01*
X130997544Y-93955188D01*
X130771145Y-93955188D01*
X130771145Y-93380000D01*
X130997544Y-93380000D01*
X131077118Y-93363239D01*
X131165464Y-93343033D01*
X131260545Y-93319536D01*
X131360326Y-93292907D01*
X131428830Y-93273484D01*
X131498170Y-93252807D01*
X131568346Y-93230877D01*
X131638173Y-93208042D01*
X131706469Y-93184651D01*
X131773233Y-93160702D01*
X131773233Y-93001554D01*
X131681128Y-92970539D01*
X131577744Y-92937644D01*
X131505132Y-92915505D01*
X131432659Y-92894202D01*
X131360326Y-92873734D01*
X131289385Y-92854380D01*
X131221089Y-92836419D01*
X131155439Y-92819850D01*
X131067719Y-92799173D01*
X130997544Y-92784762D01*
X130997544Y-92947669D01*
X131062550Y-92957068D01*
X131137268Y-92970226D01*
X131218095Y-92986046D01*
X131301429Y-93003434D01*
X131385388Y-93022231D01*
X131468095Y-93042281D01*
X131545946Y-93062801D01*
X131615338Y-93083008D01*
X131546886Y-93103058D01*
X131469348Y-93123108D01*
X131386642Y-93142531D01*
X131302682Y-93160702D01*
X131219192Y-93177619D01*
X131137895Y-93193283D01*
X131062707Y-93207068D01*
X130997544Y-93218346D01*
X130997544Y-93380000D01*
X130771145Y-93380000D01*
X130771145Y-92758446D01*
X131845915Y-92758446D01*
X131980000Y-92758446D01*
X131980000Y-92151930D01*
X131845915Y-92151930D01*
X131845915Y-92758446D01*
X130771145Y-92758446D01*
X130771145Y-91768471D01*
X130988772Y-91768471D01*
X130994411Y-91841623D01*
X131011328Y-91908195D01*
X131040307Y-91966623D01*
X131082130Y-92015338D01*
X131136955Y-92054342D01*
X131204937Y-92083634D01*
X131287174Y-92101961D01*
X131384762Y-92108070D01*
X131484543Y-92101335D01*
X131568346Y-92081128D01*
X131637112Y-92049016D01*
X131691779Y-92006566D01*
X131732976Y-91954405D01*
X131761328Y-91893158D01*
X131777776Y-91824079D01*
X131783258Y-91748421D01*
X131778872Y-91667594D01*
X131764461Y-91583008D01*
X131007569Y-91583008D01*
X130992531Y-91682005D01*
X130988772Y-91768471D01*
X130771145Y-91768471D01*
X130771145Y-91437644D01*
X130997544Y-91437644D01*
X131125363Y-91437644D01*
X131125363Y-91121855D01*
X131299549Y-91121855D01*
X131299549Y-91396291D01*
X131427368Y-91396291D01*
X131427368Y-91121855D01*
X131645414Y-91121855D01*
X131645414Y-91465213D01*
X131773233Y-91465213D01*
X131773233Y-90967719D01*
X130997544Y-90967719D01*
X130997544Y-91437644D01*
X130771145Y-91437644D01*
X130771145Y-90506566D01*
X130997544Y-90506566D01*
X131645414Y-90506566D01*
X131645414Y-90838647D01*
X131773233Y-90838647D01*
X131773233Y-90351178D01*
X130997544Y-90351178D01*
X130997544Y-90506566D01*
X130771145Y-90506566D01*
X130771145Y-89948922D01*
X130980000Y-89948922D01*
X130991348Y-90032743D01*
X131025391Y-90102083D01*
X131082130Y-90156942D01*
X131139344Y-90188192D01*
X131208853Y-90210514D01*
X131290659Y-90223907D01*
X131384762Y-90228371D01*
X131478864Y-90223828D01*
X131560670Y-90210201D01*
X131630180Y-90187487D01*
X131687393Y-90155689D01*
X131744133Y-90100551D01*
X131778176Y-90032047D01*
X131789524Y-89950175D01*
X131778176Y-89866285D01*
X131744133Y-89796736D01*
X131687393Y-89741529D01*
X131630180Y-89710005D01*
X131560670Y-89687487D01*
X131478864Y-89673977D01*
X131384762Y-89669474D01*
X131290659Y-89674095D01*
X131208853Y-89687957D01*
X131139344Y-89711062D01*
X131082130Y-89743409D01*
X131025391Y-89799103D01*
X130991348Y-89867608D01*
X130980000Y-89948922D01*
X130771145Y-89948922D01*
X130771145Y-89669474D01*
X130771145Y-89460618D01*
X130771145Y-89035305D01*
X132188855Y-89460618D01*
X132188855Y-89669474D01*
X132188855Y-89950175D01*
X132188855Y-90838647D01*
G37*
D13*
%TO.C,JP1*%
X132300000Y-89550000D02*
X134250000Y-89550000D01*
X132300000Y-95050000D02*
X132300000Y-89550000D01*
X134250000Y-89550000D02*
X134250000Y-95050000D01*
X134250000Y-95050000D02*
X132300000Y-95050000D01*
X134500000Y-90900000D02*
X134800000Y-91200000D01*
X134800000Y-90600000D02*
X134500000Y-90900000D01*
X134800000Y-91200000D02*
X134800000Y-90600000D01*
D14*
%TO.C,kibuzzard-662FD20D*%
G36*
X163750096Y-104677245D02*
G01*
X163797310Y-104681115D01*
X163797310Y-104990712D01*
X163719911Y-104990712D01*
X163639802Y-104981618D01*
X163582140Y-104954334D01*
X163547310Y-104904992D01*
X163535700Y-104829721D01*
X163547116Y-104758320D01*
X163581366Y-104711300D01*
X163634578Y-104685178D01*
X163702883Y-104676471D01*
X163750096Y-104677245D01*
G37*
G36*
X164537248Y-104691950D02*
G01*
X164582914Y-104763932D01*
X164604585Y-104869969D01*
X164608649Y-104932663D01*
X164610003Y-105000000D01*
X164608649Y-105067531D01*
X164604585Y-105130805D01*
X164582914Y-105236842D01*
X164537248Y-105308050D01*
X164458301Y-105334365D01*
X164380127Y-105308050D01*
X164333688Y-105236068D01*
X164312016Y-105130031D01*
X164307952Y-105067337D01*
X164306598Y-105000000D01*
X164307952Y-104932469D01*
X164312016Y-104869195D01*
X164333688Y-104763158D01*
X164379353Y-104691950D01*
X164458301Y-104665635D01*
X164537248Y-104691950D01*
G37*
G36*
X166580076Y-105757998D02*
G01*
X166322078Y-105757998D01*
X165843750Y-105757998D01*
X165521768Y-105757998D01*
X164456753Y-105757998D01*
X163797310Y-105757998D01*
X163213719Y-105757998D01*
X161972233Y-105757998D01*
X161651799Y-105757998D01*
X160263254Y-105757998D01*
X160005256Y-105757998D01*
X159819841Y-105479876D01*
X160263254Y-105479876D01*
X160865421Y-105479876D01*
X161037248Y-105479876D01*
X161651799Y-105479876D01*
X161766350Y-105479876D01*
X161972233Y-105479876D01*
X162004934Y-105396672D01*
X162044214Y-105304954D01*
X162087751Y-105208978D01*
X162133223Y-105113003D01*
X162178115Y-105206076D01*
X162223007Y-105302632D01*
X162264802Y-105396091D01*
X162300406Y-105479876D01*
X162506288Y-105479876D01*
X162460623Y-105379257D01*
X162428889Y-105318111D01*
X162394059Y-105252322D01*
X162356714Y-105183243D01*
X162317434Y-105112229D01*
X162277960Y-105041602D01*
X162240034Y-104973684D01*
X162490808Y-104521672D01*
X162605359Y-104521672D01*
X162605359Y-104679567D01*
X162812790Y-104679567D01*
X162812790Y-105321981D01*
X162605359Y-105321981D01*
X162605359Y-105479876D01*
X163213719Y-105479876D01*
X163213719Y-105321981D01*
X163004740Y-105321981D01*
X163004740Y-104831269D01*
X163340654Y-104831269D01*
X163351920Y-104935243D01*
X163385717Y-105018060D01*
X163442047Y-105079721D01*
X163519016Y-105122291D01*
X163614733Y-105147833D01*
X163729198Y-105156347D01*
X163797310Y-105156347D01*
X163797310Y-105479876D01*
X163987712Y-105479876D01*
X163987712Y-105000000D01*
X164113099Y-105000000D01*
X164118711Y-105116244D01*
X164135545Y-105217299D01*
X164163603Y-105303164D01*
X164202883Y-105373839D01*
X164270994Y-105443928D01*
X164355617Y-105485982D01*
X164456753Y-105500000D01*
X164560382Y-105485982D01*
X164572856Y-105479876D01*
X164907217Y-105479876D01*
X165521768Y-105479876D01*
X165521768Y-104521672D01*
X165690499Y-104521672D01*
X165690499Y-105479876D01*
X165843750Y-105479876D01*
X165888383Y-105373667D01*
X165935597Y-105267630D01*
X165985390Y-105161765D01*
X166037764Y-105055900D01*
X166092718Y-104949862D01*
X166150251Y-104843653D01*
X166150251Y-105479876D01*
X166322078Y-105479876D01*
X166322078Y-104521672D01*
X166168827Y-104521672D01*
X166125483Y-104592686D01*
X166082140Y-104669505D01*
X166039377Y-104749033D01*
X165997774Y-104828173D01*
X165958301Y-104905960D01*
X165921923Y-104981424D01*
X165889609Y-105051084D01*
X165862325Y-105111455D01*
X165862325Y-104521672D01*
X165690499Y-104521672D01*
X165521768Y-104521672D01*
X164941273Y-104521672D01*
X164941273Y-104679567D01*
X165331366Y-104679567D01*
X165331366Y-104894737D01*
X164992356Y-104894737D01*
X164992356Y-105052632D01*
X165331366Y-105052632D01*
X165331366Y-105321981D01*
X164907217Y-105321981D01*
X164907217Y-105479876D01*
X164572856Y-105479876D01*
X164646295Y-105443928D01*
X164714493Y-105373839D01*
X164753434Y-105303164D01*
X164781250Y-105217299D01*
X164797939Y-105116244D01*
X164803502Y-105000000D01*
X164797794Y-104883756D01*
X164780669Y-104782701D01*
X164752128Y-104696836D01*
X164712171Y-104626161D01*
X164643371Y-104556072D01*
X164558748Y-104514018D01*
X164458301Y-104500000D01*
X164354757Y-104514018D01*
X164269102Y-104556072D01*
X164201335Y-104626161D01*
X164162732Y-104696836D01*
X164135158Y-104782701D01*
X164118614Y-104883756D01*
X164113099Y-105000000D01*
X163987712Y-105000000D01*
X163987712Y-104534056D01*
X163925019Y-104523220D01*
X163854585Y-104516254D01*
X163784926Y-104512384D01*
X163724555Y-104510836D01*
X163611895Y-104519178D01*
X163517468Y-104544204D01*
X163441273Y-104585913D01*
X163385373Y-104646543D01*
X163351834Y-104728328D01*
X163340654Y-104831269D01*
X163004740Y-104831269D01*
X163004740Y-104679567D01*
X163213719Y-104679567D01*
X163213719Y-104521672D01*
X162605359Y-104521672D01*
X162490808Y-104521672D01*
X162284926Y-104521672D01*
X162133223Y-104828173D01*
X161973781Y-104521672D01*
X161781830Y-104521672D01*
X162026412Y-104969040D01*
X161985003Y-105037152D01*
X161944369Y-105108359D01*
X161905476Y-105180147D01*
X161869291Y-105250000D01*
X161836590Y-105316563D01*
X161808146Y-105378483D01*
X161766350Y-105479876D01*
X161651799Y-105479876D01*
X161651799Y-104521672D01*
X161071304Y-104521672D01*
X161071304Y-104679567D01*
X161461397Y-104679567D01*
X161461397Y-104894737D01*
X161122387Y-104894737D01*
X161122387Y-105052632D01*
X161461397Y-105052632D01*
X161461397Y-105321981D01*
X161037248Y-105321981D01*
X161037248Y-105479876D01*
X160865421Y-105479876D01*
X160865421Y-104521672D01*
X160673471Y-104521672D01*
X160673471Y-105321981D01*
X160263254Y-105321981D01*
X160263254Y-105479876D01*
X159819841Y-105479876D01*
X159499924Y-105000000D01*
X160005256Y-104242002D01*
X160263254Y-104242002D01*
X166322078Y-104242002D01*
X166580076Y-104242002D01*
X166580076Y-105757998D01*
G37*
D13*
%TO.C,RN1*%
X134120000Y-81560000D02*
X132020000Y-81560000D01*
X134120000Y-86900000D02*
X132020000Y-86900000D01*
D14*
%TO.C,kibuzzard-662FD226*%
G36*
X159526660Y-100760372D02*
G01*
X159551428Y-100856347D01*
X159573099Y-100951548D01*
X159592449Y-101050619D01*
X159405143Y-101050619D01*
X159423719Y-100951548D01*
X159444616Y-100856347D01*
X159469384Y-100760372D01*
X159498022Y-100657430D01*
X159526660Y-100760372D01*
G37*
G36*
X163139921Y-101707998D02*
G01*
X162881923Y-101707998D01*
X161655917Y-101707998D01*
X160973254Y-101707998D01*
X159327743Y-101707998D01*
X159123409Y-101707998D01*
X158865411Y-101707998D01*
X158679996Y-101429876D01*
X159123409Y-101429876D01*
X159327743Y-101429876D01*
X159372635Y-101208514D01*
X159628053Y-101208514D01*
X159671397Y-101429876D01*
X159869539Y-101429876D01*
X159858146Y-101383437D01*
X160705452Y-101383437D01*
X160814585Y-101429102D01*
X160888695Y-101444776D01*
X160973254Y-101450000D01*
X161097781Y-101435552D01*
X161200980Y-101392208D01*
X161282852Y-101319969D01*
X161329582Y-101248084D01*
X161362960Y-101162461D01*
X161382987Y-101063100D01*
X161389663Y-100950000D01*
X161381536Y-100837384D01*
X161357155Y-100737926D01*
X161318262Y-100652206D01*
X161266598Y-100580805D01*
X161203130Y-100524303D01*
X161128827Y-100483282D01*
X161090038Y-100471672D01*
X161502666Y-100471672D01*
X161502666Y-101429876D01*
X161655917Y-101429876D01*
X161700550Y-101323667D01*
X161747764Y-101217630D01*
X161797558Y-101111765D01*
X161849931Y-101005900D01*
X161904885Y-100899862D01*
X161962418Y-100793653D01*
X161962418Y-101429876D01*
X162134245Y-101429876D01*
X162267372Y-101429876D01*
X162881923Y-101429876D01*
X162881923Y-100471672D01*
X162301428Y-100471672D01*
X162301428Y-100629567D01*
X162691520Y-100629567D01*
X162691520Y-100844737D01*
X162352511Y-100844737D01*
X162352511Y-101002632D01*
X162691520Y-101002632D01*
X162691520Y-101271981D01*
X162267372Y-101271981D01*
X162267372Y-101429876D01*
X162134245Y-101429876D01*
X162134245Y-100471672D01*
X161980994Y-100471672D01*
X161937650Y-100542686D01*
X161894307Y-100619505D01*
X161851544Y-100699033D01*
X161809942Y-100778173D01*
X161770468Y-100855960D01*
X161734090Y-100931424D01*
X161701776Y-101001084D01*
X161674493Y-101061455D01*
X161674493Y-100471672D01*
X161502666Y-100471672D01*
X161090038Y-100471672D01*
X161045429Y-100458320D01*
X160954678Y-100450000D01*
X160862573Y-100458514D01*
X160790592Y-100477864D01*
X160738734Y-100501084D01*
X160707000Y-100519659D01*
X160756536Y-100671362D01*
X160842449Y-100631889D01*
X160957774Y-100615635D01*
X161045236Y-100631889D01*
X161121087Y-100686068D01*
X161175267Y-100787461D01*
X161190940Y-100858669D01*
X161196164Y-100945356D01*
X161189886Y-101046233D01*
X161171053Y-101130083D01*
X161139663Y-101196904D01*
X161065166Y-101262500D01*
X160954678Y-101284365D01*
X160831613Y-101267337D01*
X160753440Y-101233282D01*
X160705452Y-101383437D01*
X159858146Y-101383437D01*
X159842233Y-101318576D01*
X159814802Y-101211300D01*
X159787248Y-101108050D01*
X159759570Y-101008824D01*
X159731768Y-100913622D01*
X159697229Y-100798636D01*
X159663270Y-100686649D01*
X159629891Y-100577661D01*
X159597093Y-100471672D01*
X159389663Y-100471672D01*
X159355656Y-100578531D01*
X159321745Y-100688584D01*
X159287931Y-100801829D01*
X159254214Y-100918266D01*
X159227434Y-101014272D01*
X159200963Y-101113437D01*
X159174802Y-101215759D01*
X159148951Y-101321238D01*
X159123409Y-101429876D01*
X158679996Y-101429876D01*
X158360079Y-100950000D01*
X158865411Y-100192002D01*
X159123409Y-100192002D01*
X162881923Y-100192002D01*
X163139921Y-100192002D01*
X163139921Y-101707998D01*
G37*
%TO.C,kibuzzard-662EB81C*%
G36*
X137651930Y-91177998D02*
G01*
X137393932Y-91177998D01*
X137127678Y-91177998D01*
X136395480Y-91177998D01*
X135579690Y-91177998D01*
X135211269Y-91177998D01*
X134953271Y-91177998D01*
X134953271Y-90615046D01*
X135211269Y-90615046D01*
X135232941Y-90737337D01*
X135299505Y-90834087D01*
X135350588Y-90870464D01*
X135414056Y-90897554D01*
X135490294Y-90914389D01*
X135579690Y-90920000D01*
X135654768Y-90914582D01*
X135730619Y-90901424D01*
X135797957Y-90884396D01*
X135845944Y-90867368D01*
X135808793Y-90707926D01*
X135716687Y-90740433D01*
X135654574Y-90753204D01*
X135581238Y-90757461D01*
X135498228Y-90747012D01*
X135444241Y-90715666D01*
X135404768Y-90611950D01*
X135419861Y-90547515D01*
X135465139Y-90505913D01*
X135533638Y-90483274D01*
X135618390Y-90475728D01*
X135677214Y-90475728D01*
X135677214Y-90317833D01*
X135606006Y-90317833D01*
X135547183Y-90311641D01*
X135494551Y-90291517D01*
X135456625Y-90254365D01*
X135441920Y-90195542D01*
X135473653Y-90112724D01*
X135561115Y-90082539D01*
X135668700Y-90100341D01*
X135760805Y-90144458D01*
X135828916Y-90005139D01*
X135718235Y-89948638D01*
X135694451Y-89941672D01*
X135927988Y-89941672D01*
X135948692Y-90039969D01*
X135973653Y-90149102D01*
X136002678Y-90266556D01*
X136035573Y-90389814D01*
X136059567Y-90474438D01*
X136085108Y-90560093D01*
X136112198Y-90646780D01*
X136140406Y-90733037D01*
X136169302Y-90817403D01*
X136198885Y-90899876D01*
X136395480Y-90899876D01*
X136433793Y-90786099D01*
X136474427Y-90658390D01*
X136487642Y-90615046D01*
X136759257Y-90615046D01*
X136780929Y-90737337D01*
X136847492Y-90834087D01*
X136898576Y-90870464D01*
X136962043Y-90897554D01*
X137038282Y-90914389D01*
X137127678Y-90920000D01*
X137202755Y-90914582D01*
X137278607Y-90901424D01*
X137345944Y-90884396D01*
X137393932Y-90867368D01*
X137356780Y-90707926D01*
X137264675Y-90740433D01*
X137202562Y-90753204D01*
X137129226Y-90757461D01*
X137046215Y-90747012D01*
X136992229Y-90715666D01*
X136952755Y-90611950D01*
X136967848Y-90547515D01*
X137013127Y-90505913D01*
X137081625Y-90483274D01*
X137166378Y-90475728D01*
X137225201Y-90475728D01*
X137225201Y-90317833D01*
X137153994Y-90317833D01*
X137095170Y-90311641D01*
X137042539Y-90291517D01*
X137004613Y-90254365D01*
X136989907Y-90195542D01*
X137021641Y-90112724D01*
X137109102Y-90082539D01*
X137216687Y-90100341D01*
X137308793Y-90144458D01*
X137376904Y-90005139D01*
X137266223Y-89948638D01*
X137192887Y-89927159D01*
X137110650Y-89920000D01*
X137035379Y-89925031D01*
X136970557Y-89940124D01*
X136872260Y-89996625D01*
X136814985Y-90082539D01*
X136796409Y-90189350D01*
X136828916Y-90299257D01*
X136915604Y-90379752D01*
X136849621Y-90418065D01*
X136800279Y-90471084D01*
X136769512Y-90537260D01*
X136759257Y-90615046D01*
X136487642Y-90615046D01*
X136501775Y-90568693D01*
X136528091Y-90479168D01*
X136553375Y-90389814D01*
X136577282Y-90302181D01*
X136599470Y-90217816D01*
X136619938Y-90136718D01*
X136645480Y-90028359D01*
X136663282Y-89941672D01*
X136462043Y-89941672D01*
X136450433Y-90021974D01*
X136434180Y-90114272D01*
X136414636Y-90214118D01*
X136393158Y-90317059D01*
X136369938Y-90420774D01*
X136345170Y-90522941D01*
X136319822Y-90619110D01*
X136294861Y-90704830D01*
X136270093Y-90620271D01*
X136245325Y-90524489D01*
X136221331Y-90422322D01*
X136198885Y-90318607D01*
X136177988Y-90215472D01*
X136158638Y-90115046D01*
X136141610Y-90022167D01*
X136127678Y-89941672D01*
X135927988Y-89941672D01*
X135694451Y-89941672D01*
X135644899Y-89927159D01*
X135562663Y-89920000D01*
X135487392Y-89925031D01*
X135422570Y-89940124D01*
X135324272Y-89996625D01*
X135266997Y-90082539D01*
X135248421Y-90189350D01*
X135280929Y-90299257D01*
X135367616Y-90379752D01*
X135301633Y-90418065D01*
X135252291Y-90471084D01*
X135221525Y-90537260D01*
X135211269Y-90615046D01*
X134953271Y-90615046D01*
X134953271Y-89662002D01*
X135211269Y-89662002D01*
X137393932Y-89662002D01*
X137651930Y-89662002D01*
X138106729Y-89662002D01*
X137651930Y-91177998D01*
G37*
D13*
%TO.C,J4*%
X139500000Y-111510000D02*
X140830000Y-111510000D01*
X139500000Y-112840000D02*
X139500000Y-111510000D01*
X139500000Y-114110000D02*
X142100000Y-114110000D01*
X139500000Y-116710000D02*
X139500000Y-114110000D01*
X142100000Y-114110000D02*
X142100000Y-111510000D01*
X159940000Y-111510000D02*
X142100000Y-111510000D01*
X159940000Y-116710000D02*
X139500000Y-116710000D01*
X159940000Y-116710000D02*
X159940000Y-111510000D01*
D14*
%TO.C,kibuzzard-662FD1ED*%
G36*
X162159818Y-109190372D02*
G01*
X162184585Y-109286347D01*
X162206257Y-109381548D01*
X162225607Y-109480619D01*
X162038301Y-109480619D01*
X162056877Y-109381548D01*
X162077774Y-109286347D01*
X162102542Y-109190372D01*
X162131180Y-109087430D01*
X162159818Y-109190372D01*
G37*
G36*
X161440777Y-109057245D02*
G01*
X161468641Y-109061115D01*
X161468641Y-109705077D01*
X161451613Y-109706625D01*
X161434585Y-109706625D01*
X161325452Y-109681858D01*
X161254245Y-109613746D01*
X161215545Y-109510805D01*
X161206838Y-109448305D01*
X161203935Y-109380000D01*
X161213223Y-109259257D01*
X161245731Y-109155542D01*
X161309198Y-109083560D01*
X161412914Y-109056471D01*
X161440777Y-109057245D01*
G37*
G36*
X162760695Y-110137998D02*
G01*
X162502697Y-110137998D01*
X161960901Y-110137998D01*
X161454709Y-110137998D01*
X160510437Y-110137998D01*
X160242635Y-110137998D01*
X159984637Y-110137998D01*
X159768263Y-109813437D01*
X160242635Y-109813437D01*
X160351768Y-109859102D01*
X160425878Y-109874776D01*
X160510437Y-109880000D01*
X160634964Y-109865552D01*
X160738163Y-109822208D01*
X160820034Y-109749969D01*
X160866764Y-109678084D01*
X160900143Y-109592461D01*
X160920170Y-109493100D01*
X160926846Y-109380000D01*
X161010437Y-109380000D01*
X161018757Y-109503259D01*
X161043719Y-109606780D01*
X161083386Y-109691726D01*
X161135824Y-109759257D01*
X161200259Y-109810147D01*
X161275917Y-109845170D01*
X161361250Y-109865488D01*
X161454709Y-109872260D01*
X161554555Y-109866842D01*
X161595442Y-109859876D01*
X161756567Y-109859876D01*
X161960901Y-109859876D01*
X162005793Y-109638514D01*
X162261211Y-109638514D01*
X162304555Y-109859876D01*
X162502697Y-109859876D01*
X162475390Y-109748576D01*
X162447960Y-109641300D01*
X162420406Y-109538050D01*
X162392728Y-109438824D01*
X162364926Y-109343622D01*
X162330387Y-109228636D01*
X162296428Y-109116649D01*
X162263049Y-109007661D01*
X162230251Y-108901672D01*
X162022821Y-108901672D01*
X161988813Y-109008531D01*
X161954903Y-109118584D01*
X161921089Y-109231829D01*
X161887372Y-109348266D01*
X161860592Y-109444272D01*
X161834121Y-109543437D01*
X161807960Y-109645759D01*
X161782109Y-109751238D01*
X161756567Y-109859876D01*
X161595442Y-109859876D01*
X161659044Y-109849040D01*
X161659044Y-108914056D01*
X161536753Y-108895480D01*
X161429942Y-108890836D01*
X161339578Y-108897802D01*
X161257341Y-108918700D01*
X161185166Y-108954497D01*
X161124988Y-109006161D01*
X161076807Y-109073885D01*
X161040623Y-109157864D01*
X161017983Y-109259450D01*
X161010437Y-109380000D01*
X160926846Y-109380000D01*
X160918719Y-109267384D01*
X160894338Y-109167926D01*
X160855445Y-109082206D01*
X160803781Y-109010805D01*
X160740313Y-108954303D01*
X160666010Y-108913282D01*
X160582612Y-108888320D01*
X160491861Y-108880000D01*
X160399756Y-108888514D01*
X160327774Y-108907864D01*
X160275917Y-108931084D01*
X160244183Y-108949659D01*
X160293719Y-109101362D01*
X160379632Y-109061889D01*
X160494957Y-109045635D01*
X160582418Y-109061889D01*
X160658270Y-109116068D01*
X160712449Y-109217461D01*
X160728123Y-109288669D01*
X160733347Y-109375356D01*
X160727069Y-109476233D01*
X160708235Y-109560083D01*
X160676846Y-109626904D01*
X160602349Y-109692500D01*
X160491861Y-109714365D01*
X160368796Y-109697337D01*
X160290623Y-109663282D01*
X160242635Y-109813437D01*
X159768263Y-109813437D01*
X159479305Y-109380000D01*
X159984637Y-108622002D01*
X160242635Y-108622002D01*
X162502697Y-108622002D01*
X162760695Y-108622002D01*
X162760695Y-110137998D01*
G37*
%TO.C,kibuzzard-662FE134*%
G36*
X134710619Y-78103997D02*
G01*
X134611548Y-78085421D01*
X134516347Y-78064524D01*
X134420372Y-78039756D01*
X134317430Y-78011118D01*
X134420372Y-77982480D01*
X134516347Y-77957712D01*
X134611548Y-77936041D01*
X134710619Y-77916691D01*
X134710619Y-78103997D01*
G37*
G36*
X134936625Y-77142697D02*
G01*
X134936625Y-77159725D01*
X134911858Y-77268858D01*
X134843746Y-77340065D01*
X134740805Y-77378765D01*
X134678305Y-77387472D01*
X134610000Y-77390375D01*
X134489257Y-77381087D01*
X134385542Y-77348579D01*
X134313560Y-77285112D01*
X134286471Y-77181397D01*
X134287245Y-77153533D01*
X134291115Y-77125669D01*
X134935077Y-77125669D01*
X134936625Y-77142697D01*
G37*
G36*
X135367998Y-77139601D02*
G01*
X135367998Y-78181397D01*
X135367998Y-78385731D01*
X135367998Y-78643729D01*
X133852002Y-78643729D01*
X133852002Y-78385731D01*
X133852002Y-78119477D01*
X134131672Y-78119477D01*
X134238531Y-78153484D01*
X134348584Y-78187395D01*
X134461829Y-78221209D01*
X134578266Y-78254926D01*
X134674272Y-78281706D01*
X134773437Y-78308177D01*
X134875759Y-78334338D01*
X134981238Y-78360189D01*
X135089876Y-78385731D01*
X135089876Y-78181397D01*
X134868514Y-78136505D01*
X134868514Y-77881087D01*
X135089876Y-77837743D01*
X135089876Y-77639601D01*
X134978576Y-77666907D01*
X134871300Y-77694338D01*
X134768050Y-77721892D01*
X134668824Y-77749570D01*
X134573622Y-77777372D01*
X134458636Y-77811911D01*
X134346649Y-77845870D01*
X134237661Y-77879249D01*
X134131672Y-77912047D01*
X134131672Y-78119477D01*
X133852002Y-78119477D01*
X133852002Y-77164369D01*
X134120836Y-77164369D01*
X134127802Y-77254733D01*
X134148700Y-77336969D01*
X134184497Y-77409144D01*
X134236161Y-77469322D01*
X134303885Y-77517503D01*
X134387864Y-77553688D01*
X134489450Y-77576327D01*
X134610000Y-77583873D01*
X134733259Y-77575553D01*
X134836780Y-77550592D01*
X134921726Y-77510924D01*
X134989257Y-77458486D01*
X135040147Y-77394051D01*
X135075170Y-77318394D01*
X135095488Y-77233061D01*
X135102260Y-77139601D01*
X135096842Y-77039756D01*
X135079040Y-76935267D01*
X134144056Y-76935267D01*
X134125480Y-77057558D01*
X134120836Y-77164369D01*
X133852002Y-77164369D01*
X133852002Y-76481706D01*
X134110000Y-76481706D01*
X134115031Y-76564330D01*
X134130124Y-76635731D01*
X134175015Y-76746412D01*
X134322074Y-76690685D01*
X134284923Y-76604771D01*
X134269443Y-76495638D01*
X134281655Y-76411359D01*
X134318290Y-76360791D01*
X134379350Y-76343935D01*
X134428111Y-76359415D01*
X134465263Y-76398889D01*
X134493901Y-76453068D01*
X134517121Y-76512666D01*
X134555046Y-76606319D01*
X134610774Y-76696103D01*
X134697461Y-76763440D01*
X134756091Y-76783177D01*
X134828266Y-76789756D01*
X134947655Y-76767890D01*
X135036471Y-76702294D01*
X135077320Y-76633925D01*
X135101830Y-76545432D01*
X135110000Y-76436815D01*
X135103615Y-76329616D01*
X135084458Y-76246412D01*
X135037245Y-76139601D01*
X134882446Y-76195329D01*
X134928885Y-76295174D01*
X134945139Y-76359609D01*
X134950557Y-76436815D01*
X134940495Y-76516536D01*
X134912632Y-76566846D01*
X134872384Y-76592387D01*
X134826718Y-76599353D01*
X134774087Y-76582325D01*
X134733065Y-76538982D01*
X134700557Y-76480158D01*
X134673467Y-76415143D01*
X134637864Y-76325359D01*
X134586780Y-76240994D01*
X134510155Y-76178301D01*
X134396378Y-76153533D01*
X134276409Y-76175398D01*
X134185851Y-76240994D01*
X134143712Y-76306612D01*
X134118428Y-76386849D01*
X134110000Y-76481706D01*
X133852002Y-76481706D01*
X133852002Y-76139601D01*
X133852002Y-75881603D01*
X134610000Y-75376271D01*
X135367998Y-75881603D01*
X135367998Y-76139601D01*
X135367998Y-76436815D01*
X135367998Y-77139601D01*
G37*
D13*
%TO.C,C9*%
X146628748Y-71915000D02*
X147151252Y-71915000D01*
X146628748Y-73385000D02*
X147151252Y-73385000D01*
%TO.C,D10*%
X150270000Y-79340000D02*
X150270000Y-80640000D01*
X153390000Y-80610000D02*
X153390000Y-79340000D01*
X153670000Y-81230000D02*
X153340000Y-80990000D01*
X153670000Y-80750000D01*
X153670000Y-81230000D01*
G36*
X153670000Y-81230000D02*
G01*
X153340000Y-80990000D01*
X153670000Y-80750000D01*
X153670000Y-81230000D01*
G37*
%TO.C,J1*%
X157270000Y-65750000D02*
X157270000Y-70950000D01*
X157270000Y-65750000D02*
X177710000Y-65750000D01*
X157270000Y-70950000D02*
X175110000Y-70950000D01*
X175110000Y-68350000D02*
X175110000Y-70950000D01*
X177710000Y-65750000D02*
X177710000Y-68350000D01*
X177710000Y-68350000D02*
X175110000Y-68350000D01*
X177710000Y-69620000D02*
X177710000Y-70950000D01*
X177710000Y-70950000D02*
X176380000Y-70950000D01*
%TO.C,D13*%
X152000000Y-107090000D02*
X152000000Y-108390000D01*
X155120000Y-108360000D02*
X155120000Y-107090000D01*
X155400000Y-108980000D02*
X155070000Y-108740000D01*
X155400000Y-108500000D01*
X155400000Y-108980000D01*
G36*
X155400000Y-108980000D02*
G01*
X155070000Y-108740000D01*
X155400000Y-108500000D01*
X155400000Y-108980000D01*
G37*
D14*
%TO.C,kibuzzard-662FE168*%
G36*
X140036625Y-77440619D02*
G01*
X140036625Y-77457647D01*
X140011858Y-77566780D01*
X139943746Y-77637988D01*
X139840805Y-77676687D01*
X139778305Y-77685395D01*
X139710000Y-77688297D01*
X139589257Y-77679009D01*
X139485542Y-77646502D01*
X139413560Y-77583034D01*
X139386471Y-77479319D01*
X139387245Y-77451455D01*
X139391115Y-77423591D01*
X140035077Y-77423591D01*
X140036625Y-77440619D01*
G37*
G36*
X140467998Y-76925139D02*
G01*
X140467998Y-77437523D01*
X140467998Y-77881796D01*
X140467998Y-78139794D01*
X138952002Y-78594592D01*
X138952002Y-78139794D01*
X138952002Y-77881796D01*
X138952002Y-77462291D01*
X139220836Y-77462291D01*
X139227802Y-77552655D01*
X139248700Y-77634892D01*
X139284497Y-77707067D01*
X139336161Y-77767245D01*
X139403885Y-77815426D01*
X139487864Y-77851610D01*
X139589450Y-77874249D01*
X139710000Y-77881796D01*
X139833259Y-77873475D01*
X139936780Y-77848514D01*
X140021726Y-77808847D01*
X140089257Y-77756409D01*
X140140147Y-77691974D01*
X140175170Y-77616316D01*
X140195488Y-77530983D01*
X140202260Y-77437523D01*
X140196842Y-77337678D01*
X140179040Y-77233189D01*
X139244056Y-77233189D01*
X139225480Y-77355480D01*
X139220836Y-77462291D01*
X138952002Y-77462291D01*
X138952002Y-77078390D01*
X139231672Y-77078390D01*
X140189876Y-77078390D01*
X140189876Y-76925139D01*
X140083667Y-76880506D01*
X139977630Y-76833292D01*
X139871765Y-76783498D01*
X139765900Y-76731125D01*
X139659862Y-76676171D01*
X139553653Y-76618638D01*
X140189876Y-76618638D01*
X140189876Y-76446811D01*
X139231672Y-76446811D01*
X139231672Y-76600062D01*
X139302686Y-76643406D01*
X139379505Y-76686749D01*
X139459033Y-76729512D01*
X139538173Y-76771115D01*
X139615960Y-76810588D01*
X139691424Y-76846966D01*
X139761084Y-76879280D01*
X139821455Y-76906563D01*
X139231672Y-76906563D01*
X139231672Y-77078390D01*
X138952002Y-77078390D01*
X138952002Y-76058266D01*
X139210000Y-76058266D01*
X139218514Y-76158111D01*
X139237864Y-76234737D01*
X139261084Y-76288142D01*
X139279659Y-76319876D01*
X139431362Y-76270341D01*
X139392663Y-76186749D01*
X139375635Y-76084582D01*
X139400402Y-75970031D01*
X139469288Y-75893406D01*
X139574551Y-75850062D01*
X139638986Y-75840193D01*
X139710000Y-75836904D01*
X139814489Y-75842924D01*
X139898854Y-75860984D01*
X139963096Y-75891084D01*
X140024048Y-75958034D01*
X140044365Y-76050526D01*
X140042817Y-76087678D01*
X140038173Y-76124830D01*
X139688328Y-76124830D01*
X139688328Y-76315232D01*
X140166656Y-76315232D01*
X140194520Y-76209195D01*
X140206130Y-76129667D01*
X140210000Y-76035046D01*
X140202067Y-75949714D01*
X140178266Y-75873282D01*
X140138793Y-75806525D01*
X140083839Y-75750217D01*
X140013406Y-75704938D01*
X139927492Y-75671269D01*
X139826293Y-75650372D01*
X139710000Y-75643406D01*
X139594868Y-75651533D01*
X139494056Y-75675913D01*
X139407949Y-75714226D01*
X139336935Y-75764149D01*
X139281401Y-75824907D01*
X139241734Y-75895728D01*
X139217933Y-75974288D01*
X139210000Y-76058266D01*
X138952002Y-76058266D01*
X138952002Y-75643406D01*
X138952002Y-75385408D01*
X140467998Y-75385408D01*
X140467998Y-75643406D01*
X140467998Y-76035046D01*
X140467998Y-76925139D01*
G37*
D13*
%TO.C,C10*%
X134338748Y-101865000D02*
X134861252Y-101865000D01*
X134338748Y-103335000D02*
X134861252Y-103335000D01*
D14*
%TO.C,kibuzzard-662EB4EE*%
G36*
X134207152Y-71638019D02*
G01*
X134248947Y-71642663D01*
X134248947Y-71862477D01*
X134174644Y-71862477D01*
X134064737Y-71830743D01*
X134027585Y-71743282D01*
X134038421Y-71688328D01*
X134067833Y-71655820D01*
X134111176Y-71640341D01*
X134162260Y-71636471D01*
X134207152Y-71638019D01*
G37*
G36*
X134248947Y-72280433D02*
G01*
X134204830Y-72285077D01*
X134157616Y-72286625D01*
X134094149Y-72281207D01*
X134039195Y-72261084D01*
X133999721Y-72219288D01*
X133984241Y-72150402D01*
X134028359Y-72050557D01*
X134146780Y-72020372D01*
X134248947Y-72020372D01*
X134248947Y-72280433D01*
G37*
G36*
X135769071Y-71637245D02*
G01*
X135796935Y-71641115D01*
X135796935Y-72285077D01*
X135779907Y-72286625D01*
X135762879Y-72286625D01*
X135653746Y-72261858D01*
X135582539Y-72193746D01*
X135543839Y-72090805D01*
X135535132Y-72028305D01*
X135532229Y-71960000D01*
X135541517Y-71839257D01*
X135574025Y-71735542D01*
X135637492Y-71663560D01*
X135741207Y-71636471D01*
X135769071Y-71637245D01*
G37*
G36*
X140631300Y-72717998D02*
G01*
X139083313Y-72717998D01*
X137677740Y-72717998D01*
X137160712Y-72717998D01*
X135783003Y-72717998D01*
X135199412Y-72717998D01*
X134173096Y-72717998D01*
X133365046Y-72717998D01*
X132541517Y-72717998D01*
X132256687Y-72717998D01*
X130708700Y-72717998D01*
X130253901Y-72717998D01*
X130610403Y-71529659D01*
X132256687Y-71529659D01*
X132306223Y-71681362D01*
X132389814Y-71642663D01*
X132491981Y-71625635D01*
X132606533Y-71650402D01*
X132683158Y-71719288D01*
X132726502Y-71824551D01*
X132736370Y-71888986D01*
X132739659Y-71960000D01*
X132733639Y-72064489D01*
X132715580Y-72148854D01*
X132685480Y-72213096D01*
X132618529Y-72274048D01*
X132526037Y-72294365D01*
X132488885Y-72292817D01*
X132451734Y-72288173D01*
X132451734Y-71938328D01*
X132261331Y-71938328D01*
X132261331Y-72416656D01*
X132367368Y-72444520D01*
X132446896Y-72456130D01*
X132541517Y-72460000D01*
X132626850Y-72452067D01*
X132703282Y-72428266D01*
X132770039Y-72388793D01*
X132826347Y-72333839D01*
X132871625Y-72263406D01*
X132905294Y-72177492D01*
X132926192Y-72076293D01*
X132933158Y-71960000D01*
X132925031Y-71844868D01*
X132900650Y-71744056D01*
X132862337Y-71657949D01*
X132812415Y-71586935D01*
X132751656Y-71531401D01*
X132680836Y-71491734D01*
X132647624Y-71481672D01*
X133035325Y-71481672D01*
X133035325Y-72093127D01*
X133039195Y-72172848D01*
X133050805Y-72244830D01*
X133072090Y-72307910D01*
X133104985Y-72360929D01*
X133149876Y-72403305D01*
X133207152Y-72434458D01*
X133278359Y-72453615D01*
X133365046Y-72460000D01*
X133450379Y-72453615D01*
X133520619Y-72434458D01*
X133620464Y-72360929D01*
X133652198Y-72307910D01*
X133673096Y-72244830D01*
X133684706Y-72172848D01*
X133685796Y-72150402D01*
X133796935Y-72150402D01*
X133804288Y-72229930D01*
X133826347Y-72295139D01*
X133906068Y-72388019D01*
X133961022Y-72417817D01*
X134025263Y-72437554D01*
X134096664Y-72448584D01*
X134173096Y-72452260D01*
X134237724Y-72450519D01*
X134304675Y-72445294D01*
X134346817Y-72439876D01*
X134584861Y-72439876D01*
X135199412Y-72439876D01*
X135199412Y-71960000D01*
X135338731Y-71960000D01*
X135347051Y-72083259D01*
X135372012Y-72186780D01*
X135411680Y-72271726D01*
X135464118Y-72339257D01*
X135528553Y-72390147D01*
X135604211Y-72425170D01*
X135689543Y-72445488D01*
X135783003Y-72452260D01*
X135882848Y-72446842D01*
X135987337Y-72429040D01*
X135987337Y-72393437D01*
X136892910Y-72393437D01*
X137002043Y-72439102D01*
X137076153Y-72454776D01*
X137160712Y-72460000D01*
X137285239Y-72445552D01*
X137298753Y-72439876D01*
X137677740Y-72439876D01*
X138303127Y-72439876D01*
X138306997Y-72401176D01*
X138306223Y-72368669D01*
X138299063Y-72294365D01*
X138277585Y-72226254D01*
X138245077Y-72163754D01*
X138204830Y-72106285D01*
X138159164Y-72053266D01*
X138110402Y-72004118D01*
X138061641Y-71957872D01*
X138015975Y-71913560D01*
X137943220Y-71829969D01*
X137914582Y-71747926D01*
X137950186Y-71657368D01*
X138039969Y-71625635D01*
X138134396Y-71647307D01*
X138231920Y-71720062D01*
X138326347Y-71586935D01*
X138259590Y-71530433D01*
X138183158Y-71490960D01*
X138150728Y-71481672D01*
X138474954Y-71481672D01*
X138474954Y-71639567D01*
X138682384Y-71639567D01*
X138682384Y-72281981D01*
X138474954Y-72281981D01*
X138474954Y-72439876D01*
X139083313Y-72439876D01*
X139083313Y-72281981D01*
X138874334Y-72281981D01*
X138874334Y-71639567D01*
X139083313Y-71639567D01*
X139083313Y-71481672D01*
X138474954Y-71481672D01*
X138150728Y-71481672D01*
X138102082Y-71467740D01*
X138021393Y-71460000D01*
X137908390Y-71477028D01*
X137812415Y-71528111D01*
X137745851Y-71614025D01*
X137721084Y-71733994D01*
X137739659Y-71829195D01*
X137789195Y-71918204D01*
X137858854Y-72001796D01*
X137937802Y-72079195D01*
X137984241Y-72123313D01*
X138033777Y-72175944D01*
X138073251Y-72230898D01*
X138089505Y-72281981D01*
X137677740Y-72281981D01*
X137677740Y-72439876D01*
X137298753Y-72439876D01*
X137388438Y-72402208D01*
X137470310Y-72329969D01*
X137517039Y-72258084D01*
X137550418Y-72172461D01*
X137570445Y-72073100D01*
X137577121Y-71960000D01*
X137568994Y-71847384D01*
X137544613Y-71747926D01*
X137505720Y-71662206D01*
X137454056Y-71590805D01*
X137390588Y-71534303D01*
X137316285Y-71493282D01*
X137232887Y-71468320D01*
X137142136Y-71460000D01*
X137050031Y-71468514D01*
X136978050Y-71487864D01*
X136926192Y-71511084D01*
X136894458Y-71529659D01*
X136943994Y-71681362D01*
X137029907Y-71641889D01*
X137145232Y-71625635D01*
X137232693Y-71641889D01*
X137308545Y-71696068D01*
X137362724Y-71797461D01*
X137378398Y-71868669D01*
X137383622Y-71955356D01*
X137377344Y-72056233D01*
X137358510Y-72140083D01*
X137327121Y-72206904D01*
X137252624Y-72272500D01*
X137142136Y-72294365D01*
X137019071Y-72277337D01*
X136940898Y-72243282D01*
X136892910Y-72393437D01*
X135987337Y-72393437D01*
X135987337Y-71494056D01*
X135865046Y-71475480D01*
X135758235Y-71470836D01*
X135667872Y-71477802D01*
X135585635Y-71498700D01*
X135513460Y-71534497D01*
X135453282Y-71586161D01*
X135405101Y-71653885D01*
X135368916Y-71737864D01*
X135346277Y-71839450D01*
X135338731Y-71960000D01*
X135199412Y-71960000D01*
X135199412Y-71481672D01*
X134618916Y-71481672D01*
X134618916Y-71639567D01*
X135009009Y-71639567D01*
X135009009Y-71854737D01*
X134670000Y-71854737D01*
X134670000Y-72012632D01*
X135009009Y-72012632D01*
X135009009Y-72281981D01*
X134584861Y-72281981D01*
X134584861Y-72439876D01*
X134346817Y-72439876D01*
X134372399Y-72436587D01*
X134439350Y-72424396D01*
X134439350Y-71494056D01*
X134320155Y-71477802D01*
X134191672Y-71470836D01*
X134093375Y-71476447D01*
X134015201Y-71493282D01*
X133908390Y-71552105D01*
X133855759Y-71633375D01*
X133841827Y-71723158D01*
X133850147Y-71787399D01*
X133875108Y-71843901D01*
X133964118Y-71927492D01*
X133882268Y-71969288D01*
X133831765Y-72023467D01*
X133805642Y-72085387D01*
X133796935Y-72150402D01*
X133685796Y-72150402D01*
X133688576Y-72093127D01*
X133688576Y-71481672D01*
X133496625Y-71481672D01*
X133496625Y-72080743D01*
X133490433Y-72182136D01*
X133469536Y-72247926D01*
X133428514Y-72283529D01*
X133361950Y-72294365D01*
X133295387Y-72283529D01*
X133253591Y-72247152D01*
X133231920Y-72180588D01*
X133225728Y-72079195D01*
X133225728Y-71481672D01*
X133035325Y-71481672D01*
X132647624Y-71481672D01*
X132602276Y-71467933D01*
X132518297Y-71460000D01*
X132418452Y-71468514D01*
X132341827Y-71487864D01*
X132288421Y-71511084D01*
X132256687Y-71529659D01*
X130610403Y-71529659D01*
X130708700Y-71202002D01*
X132256687Y-71202002D01*
X139083313Y-71202002D01*
X140631300Y-71202002D01*
X141086099Y-71202002D01*
X140631300Y-72717998D01*
G37*
%TO.C,kibuzzard-662EB828*%
G36*
X137894000Y-91534453D02*
G01*
X137968673Y-91545529D01*
X138041902Y-91563872D01*
X138112980Y-91589304D01*
X138181223Y-91621581D01*
X138245973Y-91660391D01*
X138306608Y-91705361D01*
X138362543Y-91756057D01*
X138413239Y-91811992D01*
X138458209Y-91872627D01*
X138497019Y-91937377D01*
X138529296Y-92005620D01*
X138554728Y-92076698D01*
X138573070Y-92149926D01*
X138584147Y-92224600D01*
X138587851Y-92300000D01*
X138584147Y-92375400D01*
X138573070Y-92450074D01*
X138554728Y-92523302D01*
X138529296Y-92594380D01*
X138497019Y-92662623D01*
X138458209Y-92727373D01*
X138413239Y-92788008D01*
X138362543Y-92843943D01*
X138306608Y-92894639D01*
X138245973Y-92939609D01*
X138181223Y-92978419D01*
X138112980Y-93010696D01*
X138041902Y-93036128D01*
X137968673Y-93054471D01*
X137894000Y-93065547D01*
X137818600Y-93069251D01*
X137549348Y-93069251D01*
X137269865Y-93069251D01*
X136675358Y-93069251D01*
X135381335Y-93069251D01*
X135221400Y-93069251D01*
X134952149Y-93069251D01*
X134952149Y-91800000D01*
X135221400Y-91800000D01*
X135221400Y-92800000D01*
X135381335Y-92800000D01*
X135427916Y-92689158D01*
X135477189Y-92578496D01*
X135529155Y-92468013D01*
X135583813Y-92357530D01*
X135641163Y-92246868D01*
X135701206Y-92136026D01*
X135701206Y-92800000D01*
X135880528Y-92800000D01*
X135880528Y-91800000D01*
X136040463Y-91800000D01*
X136040463Y-91964782D01*
X136256941Y-91964782D01*
X136256941Y-92635218D01*
X136040463Y-92635218D01*
X136040463Y-92800000D01*
X136675358Y-92800000D01*
X136675358Y-92635218D01*
X136457264Y-92635218D01*
X136457264Y-91964782D01*
X136675358Y-91964782D01*
X136675358Y-91800000D01*
X136781982Y-91800000D01*
X136803589Y-91902585D01*
X136829639Y-92016478D01*
X136859930Y-92139055D01*
X136894260Y-92267690D01*
X136919300Y-92356004D01*
X136945956Y-92445396D01*
X136974227Y-92535864D01*
X137003665Y-92625884D01*
X137033822Y-92713929D01*
X137064696Y-92800000D01*
X137269865Y-92800000D01*
X137309849Y-92681260D01*
X137352256Y-92547981D01*
X137380797Y-92454371D01*
X137408261Y-92360941D01*
X137434647Y-92267690D01*
X137459598Y-92176234D01*
X137482754Y-92088189D01*
X137504114Y-92003554D01*
X137530770Y-91890468D01*
X137549348Y-91800000D01*
X137339332Y-91800000D01*
X137327216Y-91883805D01*
X137310253Y-91980129D01*
X137289857Y-92084330D01*
X137267442Y-92191761D01*
X137243209Y-92300000D01*
X137217361Y-92406624D01*
X137190907Y-92506987D01*
X137164857Y-92596446D01*
X137139009Y-92508199D01*
X137113161Y-92408239D01*
X137088121Y-92301616D01*
X137064696Y-92193376D01*
X137042886Y-92085743D01*
X137022693Y-91980937D01*
X137004922Y-91884006D01*
X136990382Y-91800000D01*
X136781982Y-91800000D01*
X136675358Y-91800000D01*
X136040463Y-91800000D01*
X135880528Y-91800000D01*
X135720592Y-91800000D01*
X135675358Y-91874111D01*
X135630124Y-91954281D01*
X135585495Y-92037278D01*
X135542079Y-92119871D01*
X135500883Y-92201050D01*
X135462919Y-92279806D01*
X135429195Y-92352504D01*
X135400722Y-92415509D01*
X135400722Y-91800000D01*
X135221400Y-91800000D01*
X134952149Y-91800000D01*
X134952149Y-91530749D01*
X135221400Y-91530749D01*
X137549348Y-91530749D01*
X137818600Y-91530749D01*
X137894000Y-91534453D01*
G37*
D13*
%TO.C,C11*%
X134368748Y-99715000D02*
X134891252Y-99715000D01*
X134368748Y-101185000D02*
X134891252Y-101185000D01*
D14*
%TO.C,kibuzzard-662FD243*%
G36*
X159390654Y-81968019D02*
G01*
X159432449Y-81972663D01*
X159432449Y-82192477D01*
X159358146Y-82192477D01*
X159248239Y-82160743D01*
X159211087Y-82073282D01*
X159221923Y-82018328D01*
X159251335Y-81985820D01*
X159294678Y-81970341D01*
X159345762Y-81966471D01*
X159390654Y-81968019D01*
G37*
G36*
X159432449Y-82610433D02*
G01*
X159388332Y-82615077D01*
X159341118Y-82616625D01*
X159277650Y-82611207D01*
X159222697Y-82591084D01*
X159183223Y-82549288D01*
X159167743Y-82480402D01*
X159211861Y-82380557D01*
X159330282Y-82350372D01*
X159432449Y-82350372D01*
X159432449Y-82610433D01*
G37*
G36*
X162962893Y-83047998D02*
G01*
X162704895Y-83047998D01*
X161478889Y-83047998D01*
X160796226Y-83047998D01*
X159356598Y-83047998D01*
X158980437Y-83047998D01*
X158722439Y-83047998D01*
X158344042Y-82480402D01*
X158980437Y-82480402D01*
X158987790Y-82559930D01*
X159009849Y-82625139D01*
X159089570Y-82718019D01*
X159144524Y-82747817D01*
X159208765Y-82767554D01*
X159280166Y-82778584D01*
X159356598Y-82782260D01*
X159421226Y-82780519D01*
X159488177Y-82775294D01*
X159555901Y-82766587D01*
X159622852Y-82754396D01*
X159622852Y-82723437D01*
X160528424Y-82723437D01*
X160637558Y-82769102D01*
X160711668Y-82784776D01*
X160796226Y-82790000D01*
X160920753Y-82775552D01*
X161023953Y-82732208D01*
X161105824Y-82659969D01*
X161152554Y-82588084D01*
X161185932Y-82502461D01*
X161205959Y-82403100D01*
X161212635Y-82290000D01*
X161204508Y-82177384D01*
X161180127Y-82077926D01*
X161141234Y-81992206D01*
X161089570Y-81920805D01*
X161026103Y-81864303D01*
X160951799Y-81823282D01*
X160913010Y-81811672D01*
X161325638Y-81811672D01*
X161325638Y-82769876D01*
X161478889Y-82769876D01*
X161523523Y-82663667D01*
X161570736Y-82557630D01*
X161620530Y-82451765D01*
X161672903Y-82345900D01*
X161727857Y-82239862D01*
X161785390Y-82133653D01*
X161785390Y-82769876D01*
X161957217Y-82769876D01*
X162090344Y-82769876D01*
X162704895Y-82769876D01*
X162704895Y-81811672D01*
X162124400Y-81811672D01*
X162124400Y-81969567D01*
X162514493Y-81969567D01*
X162514493Y-82184737D01*
X162175483Y-82184737D01*
X162175483Y-82342632D01*
X162514493Y-82342632D01*
X162514493Y-82611981D01*
X162090344Y-82611981D01*
X162090344Y-82769876D01*
X161957217Y-82769876D01*
X161957217Y-81811672D01*
X161803966Y-81811672D01*
X161760623Y-81882686D01*
X161717279Y-81959505D01*
X161674516Y-82039033D01*
X161632914Y-82118173D01*
X161593440Y-82195960D01*
X161557062Y-82271424D01*
X161524748Y-82341084D01*
X161497465Y-82401455D01*
X161497465Y-81811672D01*
X161325638Y-81811672D01*
X160913010Y-81811672D01*
X160868401Y-81798320D01*
X160777650Y-81790000D01*
X160685545Y-81798514D01*
X160613564Y-81817864D01*
X160561706Y-81841084D01*
X160529972Y-81859659D01*
X160579508Y-82011362D01*
X160665421Y-81971889D01*
X160780746Y-81955635D01*
X160868208Y-81971889D01*
X160944059Y-82026068D01*
X160998239Y-82127461D01*
X161013912Y-82198669D01*
X161019137Y-82285356D01*
X161012859Y-82386233D01*
X160994025Y-82470083D01*
X160962635Y-82536904D01*
X160888138Y-82602500D01*
X160777650Y-82624365D01*
X160654585Y-82607337D01*
X160576412Y-82573282D01*
X160528424Y-82723437D01*
X159622852Y-82723437D01*
X159622852Y-81824056D01*
X159503657Y-81807802D01*
X159375174Y-81800836D01*
X159276877Y-81806447D01*
X159198703Y-81823282D01*
X159091892Y-81882105D01*
X159039260Y-81963375D01*
X159025329Y-82053158D01*
X159033649Y-82117399D01*
X159058610Y-82173901D01*
X159147620Y-82257492D01*
X159065770Y-82299288D01*
X159015267Y-82353467D01*
X158989144Y-82415387D01*
X158980437Y-82480402D01*
X158344042Y-82480402D01*
X158217107Y-82290000D01*
X158722439Y-81532002D01*
X158980437Y-81532002D01*
X162704895Y-81532002D01*
X162962893Y-81532002D01*
X162962893Y-83047998D01*
G37*
%TO.C,REF3*%
G36*
X195276995Y-100580382D02*
G01*
X195276995Y-101518556D01*
X193443359Y-101526626D01*
X191609723Y-101534696D01*
X192106105Y-101959450D01*
X192182349Y-102024716D01*
X192375430Y-102190160D01*
X192594576Y-102378123D01*
X192833658Y-102583333D01*
X193086547Y-102800520D01*
X193347113Y-103024412D01*
X193609228Y-103249740D01*
X193866762Y-103471231D01*
X194113586Y-103683615D01*
X194343571Y-103881621D01*
X194550587Y-104059979D01*
X194728505Y-104213417D01*
X194871197Y-104336665D01*
X194972533Y-104424452D01*
X194994308Y-104443484D01*
X195102927Y-104542171D01*
X195187811Y-104625573D01*
X195240882Y-104685399D01*
X195254060Y-104713359D01*
X195233286Y-104727665D01*
X195163759Y-104772040D01*
X195051458Y-104842383D01*
X194902343Y-104935040D01*
X194722374Y-105046363D01*
X194517511Y-105172699D01*
X194293715Y-105310397D01*
X194056946Y-105455808D01*
X193813163Y-105605279D01*
X193568328Y-105755160D01*
X193328400Y-105901801D01*
X193099340Y-106041549D01*
X192887108Y-106170755D01*
X192697663Y-106285766D01*
X192536967Y-106382933D01*
X192410980Y-106458604D01*
X192325660Y-106509129D01*
X192286970Y-106530856D01*
X192286368Y-106531122D01*
X192263984Y-106533506D01*
X192227555Y-106524644D01*
X192172747Y-106502098D01*
X192095230Y-106463432D01*
X191990670Y-106406207D01*
X191854736Y-106327985D01*
X191683096Y-106226329D01*
X191471417Y-106098802D01*
X191215368Y-105942964D01*
X190910615Y-105756380D01*
X190904666Y-105752730D01*
X190638510Y-105589467D01*
X190383212Y-105432876D01*
X190144840Y-105286679D01*
X189929459Y-105154596D01*
X189743138Y-105040347D01*
X189591942Y-104947652D01*
X189481938Y-104880231D01*
X189419193Y-104841805D01*
X189416551Y-104840187D01*
X189328609Y-104783698D01*
X189269064Y-104740446D01*
X189250676Y-104719678D01*
X189271144Y-104717984D01*
X189348800Y-104715969D01*
X189479059Y-104714150D01*
X189656337Y-104712559D01*
X189875049Y-104711231D01*
X190129610Y-104710196D01*
X190414435Y-104709487D01*
X190723939Y-104709138D01*
X191052537Y-104709180D01*
X191102945Y-104709210D01*
X191486036Y-104708866D01*
X191827368Y-104707522D01*
X192123969Y-104705226D01*
X192372867Y-104702025D01*
X192571092Y-104697965D01*
X192715673Y-104693094D01*
X192803637Y-104687457D01*
X192832015Y-104681103D01*
X192816001Y-104663569D01*
X192757342Y-104608639D01*
X192660983Y-104521799D01*
X192532466Y-104407953D01*
X192377337Y-104272005D01*
X192201138Y-104118859D01*
X192009416Y-103953421D01*
X191829463Y-103798678D01*
X191581204Y-103585198D01*
X191307413Y-103349764D01*
X191020001Y-103102619D01*
X190730876Y-102854001D01*
X190451950Y-102614154D01*
X190195130Y-102393317D01*
X189192882Y-101531493D01*
X189184603Y-100586851D01*
X189176324Y-99642209D01*
X192226660Y-99642209D01*
X195276995Y-99642209D01*
X195276995Y-100580382D01*
G37*
G36*
X192248023Y-110936597D02*
G01*
X192297823Y-110963356D01*
X192393982Y-111018798D01*
X192531395Y-111099868D01*
X192704962Y-111203508D01*
X192909579Y-111326665D01*
X193140143Y-111466281D01*
X193391551Y-111619302D01*
X193658702Y-111782671D01*
X193739593Y-111832251D01*
X194006678Y-111995947D01*
X194258878Y-112150511D01*
X194490700Y-112292578D01*
X194696651Y-112418782D01*
X194871237Y-112525755D01*
X195008965Y-112610132D01*
X195104341Y-112668547D01*
X195151872Y-112697634D01*
X195261355Y-112764499D01*
X194604458Y-112780140D01*
X193947562Y-112795780D01*
X193930622Y-114594426D01*
X193929209Y-114740307D01*
X193924960Y-115129089D01*
X193920478Y-115460691D01*
X193915640Y-115739128D01*
X193910326Y-115968417D01*
X193904412Y-116152573D01*
X193897779Y-116295613D01*
X193890304Y-116401553D01*
X193881865Y-116474408D01*
X193872340Y-116518194D01*
X193826644Y-116641166D01*
X193680946Y-116914550D01*
X193487747Y-117147283D01*
X193247194Y-117339238D01*
X192959432Y-117490288D01*
X192624610Y-117600306D01*
X192605868Y-117604942D01*
X192525495Y-117623260D01*
X192446921Y-117637202D01*
X192360955Y-117647197D01*
X192258403Y-117653676D01*
X192130075Y-117657071D01*
X191966776Y-117657810D01*
X191759316Y-117656326D01*
X191498501Y-117653048D01*
X191282322Y-117649929D01*
X191070482Y-117646162D01*
X190904791Y-117641676D01*
X190776266Y-117635694D01*
X190675920Y-117627440D01*
X190594769Y-117616139D01*
X190523827Y-117601015D01*
X190454109Y-117581292D01*
X190376629Y-117556195D01*
X190112596Y-117447967D01*
X189863669Y-117293961D01*
X189656795Y-117100694D01*
X189489956Y-116865262D01*
X189361135Y-116584762D01*
X189268313Y-116256288D01*
X189209470Y-115876938D01*
X189205662Y-115830225D01*
X189199288Y-115703597D01*
X189193455Y-115527253D01*
X189188317Y-115309382D01*
X189184028Y-115058170D01*
X189180740Y-114781807D01*
X189178608Y-114488480D01*
X189177784Y-114186376D01*
X189177242Y-112792982D01*
X189198198Y-112780140D01*
X190710000Y-112780140D01*
X190710000Y-114090000D01*
X190710018Y-114194895D01*
X190710520Y-114521953D01*
X190712156Y-114794062D01*
X190715516Y-115017135D01*
X190721190Y-115197087D01*
X190729768Y-115339830D01*
X190741841Y-115451279D01*
X190757999Y-115537346D01*
X190778832Y-115603946D01*
X190804930Y-115656992D01*
X190836883Y-115702397D01*
X190875282Y-115746076D01*
X190909628Y-115781163D01*
X190983802Y-115841349D01*
X191067481Y-115881789D01*
X191173875Y-115906143D01*
X191316197Y-115918069D01*
X191507660Y-115921228D01*
X191658113Y-115920047D01*
X191786640Y-115914541D01*
X191882274Y-115902592D01*
X191960872Y-115882099D01*
X192038291Y-115850963D01*
X192131131Y-115805911D01*
X192237435Y-115737260D01*
X192311724Y-115656781D01*
X192371613Y-115548490D01*
X192375631Y-115539508D01*
X192389051Y-115503788D01*
X192400039Y-115460287D01*
X192408841Y-115402918D01*
X192415699Y-115325594D01*
X192420860Y-115222229D01*
X192424567Y-115086736D01*
X192427066Y-114913029D01*
X192428601Y-114695020D01*
X192429416Y-114426624D01*
X192429757Y-114101753D01*
X192430444Y-112780140D01*
X191570222Y-112780140D01*
X190710000Y-112780140D01*
X189198198Y-112780140D01*
X190693583Y-111863778D01*
X190710000Y-111853733D01*
X190903560Y-111735296D01*
X191172283Y-111571450D01*
X191421771Y-111419986D01*
X191647162Y-111283820D01*
X191843593Y-111165871D01*
X192006202Y-111069054D01*
X192130126Y-110996287D01*
X192210502Y-110950488D01*
X192242469Y-110934573D01*
X192248023Y-110936597D01*
G37*
G36*
X189203196Y-105277598D02*
G01*
X189259321Y-105310193D01*
X189361126Y-105370939D01*
X189503697Y-105456857D01*
X189682116Y-105564963D01*
X189891468Y-105692278D01*
X190126837Y-105835818D01*
X190383307Y-105992604D01*
X190655961Y-106159652D01*
X190798065Y-106246780D01*
X191066059Y-106410928D01*
X191316893Y-106564353D01*
X191545405Y-106703909D01*
X191746430Y-106826450D01*
X191914803Y-106928829D01*
X192045361Y-107007901D01*
X192132941Y-107060518D01*
X192172377Y-107083536D01*
X192238194Y-107104722D01*
X192313141Y-107082917D01*
X192324485Y-107076433D01*
X192386079Y-107039634D01*
X192493428Y-106974646D01*
X192641326Y-106884647D01*
X192824564Y-106772818D01*
X193037937Y-106642337D01*
X193276239Y-106496385D01*
X193534261Y-106338141D01*
X193806798Y-106170784D01*
X193935590Y-106091682D01*
X194200108Y-105929439D01*
X194446687Y-105778493D01*
X194670278Y-105641914D01*
X194865834Y-105522776D01*
X195028308Y-105424151D01*
X195152653Y-105349112D01*
X195233820Y-105300731D01*
X195266763Y-105282081D01*
X195286866Y-105283536D01*
X195292617Y-105325071D01*
X195290758Y-105349733D01*
X195288160Y-105432907D01*
X195285721Y-105565475D01*
X195283531Y-105739685D01*
X195281684Y-105947784D01*
X195280273Y-106182021D01*
X195279389Y-106434642D01*
X195276995Y-107487051D01*
X194283830Y-108104939D01*
X194262953Y-108117929D01*
X194039626Y-108257040D01*
X193833793Y-108385532D01*
X193651395Y-108499676D01*
X193498377Y-108595740D01*
X193380681Y-108669995D01*
X193304249Y-108718710D01*
X193275025Y-108738155D01*
X193271732Y-108743469D01*
X193290665Y-108765462D01*
X193323516Y-108784213D01*
X193403302Y-108832343D01*
X193523889Y-108906078D01*
X193679147Y-109001644D01*
X193862947Y-109115269D01*
X194069158Y-109243178D01*
X194291651Y-109381600D01*
X195261355Y-109985759D01*
X195276995Y-110999760D01*
X195278967Y-111137794D01*
X195281650Y-111380010D01*
X195283129Y-111601247D01*
X195283402Y-111793191D01*
X195282471Y-111947529D01*
X195280336Y-112055945D01*
X195276995Y-112110126D01*
X195261355Y-112206492D01*
X194776503Y-111909155D01*
X194671982Y-111845044D01*
X194494970Y-111736433D01*
X194282532Y-111606058D01*
X194044829Y-111460155D01*
X193792027Y-111304964D01*
X193534287Y-111146722D01*
X193281774Y-110991669D01*
X193250829Y-110972675D01*
X193025116Y-110834717D01*
X192816407Y-110708136D01*
X192630736Y-110596524D01*
X192474137Y-110503467D01*
X192352642Y-110432555D01*
X192272286Y-110387376D01*
X192239103Y-110371519D01*
X192219628Y-110380869D01*
X192151464Y-110419419D01*
X192040229Y-110484569D01*
X191891702Y-110572810D01*
X191711665Y-110680636D01*
X191505898Y-110804537D01*
X191280181Y-110941005D01*
X191040295Y-111086534D01*
X190792020Y-111237614D01*
X190541137Y-111390737D01*
X190293426Y-111542396D01*
X190054668Y-111689083D01*
X189830643Y-111827289D01*
X189627131Y-111953506D01*
X189449913Y-112064227D01*
X189393371Y-112099480D01*
X189294383Y-112159848D01*
X189223015Y-112201534D01*
X189191847Y-112217086D01*
X189188790Y-112192627D01*
X189185651Y-112112267D01*
X189182873Y-111982743D01*
X189180549Y-111811107D01*
X189178774Y-111604412D01*
X189177640Y-111369708D01*
X189177242Y-111114050D01*
X189177242Y-110011015D01*
X190105185Y-109432708D01*
X190281438Y-109322883D01*
X190492124Y-109191652D01*
X190683858Y-109072281D01*
X190849813Y-108969016D01*
X190983160Y-108886107D01*
X191077074Y-108827801D01*
X191124726Y-108798346D01*
X191216325Y-108742291D01*
X190282805Y-108160644D01*
X190100576Y-108047160D01*
X189890210Y-107916299D01*
X189699186Y-107797627D01*
X189534251Y-107695329D01*
X189402153Y-107613589D01*
X189309641Y-107556592D01*
X189263462Y-107528522D01*
X189177637Y-107478046D01*
X189177440Y-106375398D01*
X189177760Y-106144921D01*
X189178907Y-105907815D01*
X189180789Y-105698001D01*
X189183300Y-105522535D01*
X189186339Y-105388468D01*
X189189801Y-105302856D01*
X189193585Y-105272751D01*
X189203196Y-105277598D01*
G37*
%TD*%
M02*
