%TF.GenerationSoftware,KiCad,Pcbnew,8.0.1*%
%TF.CreationDate,2024-05-22T13:21:10+02:00*%
%TF.ProjectId,FRDM-MCXx_Shield,4652444d-2d4d-4435-9878-5f536869656c,V2.0*%
%TF.SameCoordinates,Original*%
%TF.FileFunction,Legend,Top*%
%TF.FilePolarity,Positive*%
%FSLAX46Y46*%
G04 Gerber Fmt 4.6, Leading zero omitted, Abs format (unit mm)*
G04 Created by KiCad (PCBNEW 8.0.1) date 2024-05-22 13:21:10*
%MOMM*%
%LPD*%
G01*
G04 APERTURE LIST*
%ADD10C,0.150000*%
%ADD11C,0.000000*%
%ADD12C,0.120000*%
%ADD13C,0.200000*%
G04 APERTURE END LIST*
D10*
X128360588Y-109417438D02*
X128265350Y-109369819D01*
X128265350Y-109369819D02*
X128122493Y-109369819D01*
X128122493Y-109369819D02*
X127979636Y-109417438D01*
X127979636Y-109417438D02*
X127884398Y-109512676D01*
X127884398Y-109512676D02*
X127836779Y-109607914D01*
X127836779Y-109607914D02*
X127789160Y-109798390D01*
X127789160Y-109798390D02*
X127789160Y-109941247D01*
X127789160Y-109941247D02*
X127836779Y-110131723D01*
X127836779Y-110131723D02*
X127884398Y-110226961D01*
X127884398Y-110226961D02*
X127979636Y-110322200D01*
X127979636Y-110322200D02*
X128122493Y-110369819D01*
X128122493Y-110369819D02*
X128217731Y-110369819D01*
X128217731Y-110369819D02*
X128360588Y-110322200D01*
X128360588Y-110322200D02*
X128408207Y-110274580D01*
X128408207Y-110274580D02*
X128408207Y-109941247D01*
X128408207Y-109941247D02*
X128217731Y-109941247D01*
X128836779Y-110369819D02*
X128836779Y-109369819D01*
X128836779Y-109369819D02*
X129408207Y-110369819D01*
X129408207Y-110369819D02*
X129408207Y-109369819D01*
X129884398Y-110369819D02*
X129884398Y-109369819D01*
X129884398Y-109369819D02*
X130122493Y-109369819D01*
X130122493Y-109369819D02*
X130265350Y-109417438D01*
X130265350Y-109417438D02*
X130360588Y-109512676D01*
X130360588Y-109512676D02*
X130408207Y-109607914D01*
X130408207Y-109607914D02*
X130455826Y-109798390D01*
X130455826Y-109798390D02*
X130455826Y-109941247D01*
X130455826Y-109941247D02*
X130408207Y-110131723D01*
X130408207Y-110131723D02*
X130360588Y-110226961D01*
X130360588Y-110226961D02*
X130265350Y-110322200D01*
X130265350Y-110322200D02*
X130122493Y-110369819D01*
X130122493Y-110369819D02*
X129884398Y-110369819D01*
X131122493Y-110703152D02*
X131122493Y-109274580D01*
X131836779Y-110369819D02*
X131836779Y-109369819D01*
X131836779Y-109369819D02*
X132170112Y-110084104D01*
X132170112Y-110084104D02*
X132503445Y-109369819D01*
X132503445Y-109369819D02*
X132503445Y-110369819D01*
X132979636Y-110369819D02*
X132979636Y-109369819D01*
X133408207Y-110322200D02*
X133551064Y-110369819D01*
X133551064Y-110369819D02*
X133789159Y-110369819D01*
X133789159Y-110369819D02*
X133884397Y-110322200D01*
X133884397Y-110322200D02*
X133932016Y-110274580D01*
X133932016Y-110274580D02*
X133979635Y-110179342D01*
X133979635Y-110179342D02*
X133979635Y-110084104D01*
X133979635Y-110084104D02*
X133932016Y-109988866D01*
X133932016Y-109988866D02*
X133884397Y-109941247D01*
X133884397Y-109941247D02*
X133789159Y-109893628D01*
X133789159Y-109893628D02*
X133598683Y-109846009D01*
X133598683Y-109846009D02*
X133503445Y-109798390D01*
X133503445Y-109798390D02*
X133455826Y-109750771D01*
X133455826Y-109750771D02*
X133408207Y-109655533D01*
X133408207Y-109655533D02*
X133408207Y-109560295D01*
X133408207Y-109560295D02*
X133455826Y-109465057D01*
X133455826Y-109465057D02*
X133503445Y-109417438D01*
X133503445Y-109417438D02*
X133598683Y-109369819D01*
X133598683Y-109369819D02*
X133836778Y-109369819D01*
X133836778Y-109369819D02*
X133979635Y-109417438D01*
X134598683Y-109369819D02*
X134789159Y-109369819D01*
X134789159Y-109369819D02*
X134884397Y-109417438D01*
X134884397Y-109417438D02*
X134979635Y-109512676D01*
X134979635Y-109512676D02*
X135027254Y-109703152D01*
X135027254Y-109703152D02*
X135027254Y-110036485D01*
X135027254Y-110036485D02*
X134979635Y-110226961D01*
X134979635Y-110226961D02*
X134884397Y-110322200D01*
X134884397Y-110322200D02*
X134789159Y-110369819D01*
X134789159Y-110369819D02*
X134598683Y-110369819D01*
X134598683Y-110369819D02*
X134503445Y-110322200D01*
X134503445Y-110322200D02*
X134408207Y-110226961D01*
X134408207Y-110226961D02*
X134360588Y-110036485D01*
X134360588Y-110036485D02*
X134360588Y-109703152D01*
X134360588Y-109703152D02*
X134408207Y-109512676D01*
X134408207Y-109512676D02*
X134503445Y-109417438D01*
X134503445Y-109417438D02*
X134598683Y-109369819D01*
X135693921Y-110703152D02*
X135693921Y-109274580D01*
X136979635Y-110274580D02*
X136932016Y-110322200D01*
X136932016Y-110322200D02*
X136789159Y-110369819D01*
X136789159Y-110369819D02*
X136693921Y-110369819D01*
X136693921Y-110369819D02*
X136551064Y-110322200D01*
X136551064Y-110322200D02*
X136455826Y-110226961D01*
X136455826Y-110226961D02*
X136408207Y-110131723D01*
X136408207Y-110131723D02*
X136360588Y-109941247D01*
X136360588Y-109941247D02*
X136360588Y-109798390D01*
X136360588Y-109798390D02*
X136408207Y-109607914D01*
X136408207Y-109607914D02*
X136455826Y-109512676D01*
X136455826Y-109512676D02*
X136551064Y-109417438D01*
X136551064Y-109417438D02*
X136693921Y-109369819D01*
X136693921Y-109369819D02*
X136789159Y-109369819D01*
X136789159Y-109369819D02*
X136932016Y-109417438D01*
X136932016Y-109417438D02*
X136979635Y-109465057D01*
X137884397Y-110369819D02*
X137408207Y-110369819D01*
X137408207Y-110369819D02*
X137408207Y-109369819D01*
X138217731Y-110369819D02*
X138217731Y-109369819D01*
X138789159Y-110369819D02*
X138360588Y-109798390D01*
X138789159Y-109369819D02*
X138217731Y-109941247D01*
X139455826Y-110703152D02*
X139455826Y-109274580D01*
X140170112Y-110369819D02*
X140170112Y-109369819D01*
X140170112Y-109369819D02*
X140503445Y-110084104D01*
X140503445Y-110084104D02*
X140836778Y-109369819D01*
X140836778Y-109369819D02*
X140836778Y-110369819D01*
X141503445Y-109369819D02*
X141693921Y-109369819D01*
X141693921Y-109369819D02*
X141789159Y-109417438D01*
X141789159Y-109417438D02*
X141884397Y-109512676D01*
X141884397Y-109512676D02*
X141932016Y-109703152D01*
X141932016Y-109703152D02*
X141932016Y-110036485D01*
X141932016Y-110036485D02*
X141884397Y-110226961D01*
X141884397Y-110226961D02*
X141789159Y-110322200D01*
X141789159Y-110322200D02*
X141693921Y-110369819D01*
X141693921Y-110369819D02*
X141503445Y-110369819D01*
X141503445Y-110369819D02*
X141408207Y-110322200D01*
X141408207Y-110322200D02*
X141312969Y-110226961D01*
X141312969Y-110226961D02*
X141265350Y-110036485D01*
X141265350Y-110036485D02*
X141265350Y-109703152D01*
X141265350Y-109703152D02*
X141312969Y-109512676D01*
X141312969Y-109512676D02*
X141408207Y-109417438D01*
X141408207Y-109417438D02*
X141503445Y-109369819D01*
X142312969Y-110322200D02*
X142455826Y-110369819D01*
X142455826Y-110369819D02*
X142693921Y-110369819D01*
X142693921Y-110369819D02*
X142789159Y-110322200D01*
X142789159Y-110322200D02*
X142836778Y-110274580D01*
X142836778Y-110274580D02*
X142884397Y-110179342D01*
X142884397Y-110179342D02*
X142884397Y-110084104D01*
X142884397Y-110084104D02*
X142836778Y-109988866D01*
X142836778Y-109988866D02*
X142789159Y-109941247D01*
X142789159Y-109941247D02*
X142693921Y-109893628D01*
X142693921Y-109893628D02*
X142503445Y-109846009D01*
X142503445Y-109846009D02*
X142408207Y-109798390D01*
X142408207Y-109798390D02*
X142360588Y-109750771D01*
X142360588Y-109750771D02*
X142312969Y-109655533D01*
X142312969Y-109655533D02*
X142312969Y-109560295D01*
X142312969Y-109560295D02*
X142360588Y-109465057D01*
X142360588Y-109465057D02*
X142408207Y-109417438D01*
X142408207Y-109417438D02*
X142503445Y-109369819D01*
X142503445Y-109369819D02*
X142741540Y-109369819D01*
X142741540Y-109369819D02*
X142884397Y-109417438D01*
X143312969Y-110369819D02*
X143312969Y-109369819D01*
X128360588Y-113917438D02*
X128265350Y-113869819D01*
X128265350Y-113869819D02*
X128122493Y-113869819D01*
X128122493Y-113869819D02*
X127979636Y-113917438D01*
X127979636Y-113917438D02*
X127884398Y-114012676D01*
X127884398Y-114012676D02*
X127836779Y-114107914D01*
X127836779Y-114107914D02*
X127789160Y-114298390D01*
X127789160Y-114298390D02*
X127789160Y-114441247D01*
X127789160Y-114441247D02*
X127836779Y-114631723D01*
X127836779Y-114631723D02*
X127884398Y-114726961D01*
X127884398Y-114726961D02*
X127979636Y-114822200D01*
X127979636Y-114822200D02*
X128122493Y-114869819D01*
X128122493Y-114869819D02*
X128217731Y-114869819D01*
X128217731Y-114869819D02*
X128360588Y-114822200D01*
X128360588Y-114822200D02*
X128408207Y-114774580D01*
X128408207Y-114774580D02*
X128408207Y-114441247D01*
X128408207Y-114441247D02*
X128217731Y-114441247D01*
X128836779Y-114869819D02*
X128836779Y-113869819D01*
X128836779Y-113869819D02*
X129408207Y-114869819D01*
X129408207Y-114869819D02*
X129408207Y-113869819D01*
X129884398Y-114869819D02*
X129884398Y-113869819D01*
X129884398Y-113869819D02*
X130122493Y-113869819D01*
X130122493Y-113869819D02*
X130265350Y-113917438D01*
X130265350Y-113917438D02*
X130360588Y-114012676D01*
X130360588Y-114012676D02*
X130408207Y-114107914D01*
X130408207Y-114107914D02*
X130455826Y-114298390D01*
X130455826Y-114298390D02*
X130455826Y-114441247D01*
X130455826Y-114441247D02*
X130408207Y-114631723D01*
X130408207Y-114631723D02*
X130360588Y-114726961D01*
X130360588Y-114726961D02*
X130265350Y-114822200D01*
X130265350Y-114822200D02*
X130122493Y-114869819D01*
X130122493Y-114869819D02*
X129884398Y-114869819D01*
X131122493Y-115203152D02*
X131122493Y-113774580D01*
X132312969Y-113869819D02*
X131836779Y-113869819D01*
X131836779Y-113869819D02*
X131789160Y-114346009D01*
X131789160Y-114346009D02*
X131836779Y-114298390D01*
X131836779Y-114298390D02*
X131932017Y-114250771D01*
X131932017Y-114250771D02*
X132170112Y-114250771D01*
X132170112Y-114250771D02*
X132265350Y-114298390D01*
X132265350Y-114298390D02*
X132312969Y-114346009D01*
X132312969Y-114346009D02*
X132360588Y-114441247D01*
X132360588Y-114441247D02*
X132360588Y-114679342D01*
X132360588Y-114679342D02*
X132312969Y-114774580D01*
X132312969Y-114774580D02*
X132265350Y-114822200D01*
X132265350Y-114822200D02*
X132170112Y-114869819D01*
X132170112Y-114869819D02*
X131932017Y-114869819D01*
X131932017Y-114869819D02*
X131836779Y-114822200D01*
X131836779Y-114822200D02*
X131789160Y-114774580D01*
X132646303Y-113869819D02*
X132979636Y-114869819D01*
X132979636Y-114869819D02*
X133312969Y-113869819D01*
X133884398Y-115203152D02*
X133884398Y-113774580D01*
X134598684Y-114869819D02*
X134598684Y-113869819D01*
X134598684Y-113869819D02*
X134979636Y-113869819D01*
X134979636Y-113869819D02*
X135074874Y-113917438D01*
X135074874Y-113917438D02*
X135122493Y-113965057D01*
X135122493Y-113965057D02*
X135170112Y-114060295D01*
X135170112Y-114060295D02*
X135170112Y-114203152D01*
X135170112Y-114203152D02*
X135122493Y-114298390D01*
X135122493Y-114298390D02*
X135074874Y-114346009D01*
X135074874Y-114346009D02*
X134979636Y-114393628D01*
X134979636Y-114393628D02*
X134598684Y-114393628D01*
X135503446Y-113869819D02*
X135741541Y-114869819D01*
X135741541Y-114869819D02*
X135932017Y-114155533D01*
X135932017Y-114155533D02*
X136122493Y-114869819D01*
X136122493Y-114869819D02*
X136360589Y-113869819D01*
X136741541Y-114869819D02*
X136741541Y-113869819D01*
X136741541Y-113869819D02*
X137074874Y-114584104D01*
X137074874Y-114584104D02*
X137408207Y-113869819D01*
X137408207Y-113869819D02*
X137408207Y-114869819D01*
X128360588Y-104917438D02*
X128265350Y-104869819D01*
X128265350Y-104869819D02*
X128122493Y-104869819D01*
X128122493Y-104869819D02*
X127979636Y-104917438D01*
X127979636Y-104917438D02*
X127884398Y-105012676D01*
X127884398Y-105012676D02*
X127836779Y-105107914D01*
X127836779Y-105107914D02*
X127789160Y-105298390D01*
X127789160Y-105298390D02*
X127789160Y-105441247D01*
X127789160Y-105441247D02*
X127836779Y-105631723D01*
X127836779Y-105631723D02*
X127884398Y-105726961D01*
X127884398Y-105726961D02*
X127979636Y-105822200D01*
X127979636Y-105822200D02*
X128122493Y-105869819D01*
X128122493Y-105869819D02*
X128217731Y-105869819D01*
X128217731Y-105869819D02*
X128360588Y-105822200D01*
X128360588Y-105822200D02*
X128408207Y-105774580D01*
X128408207Y-105774580D02*
X128408207Y-105441247D01*
X128408207Y-105441247D02*
X128217731Y-105441247D01*
X128836779Y-105869819D02*
X128836779Y-104869819D01*
X128836779Y-104869819D02*
X129408207Y-105869819D01*
X129408207Y-105869819D02*
X129408207Y-104869819D01*
X129884398Y-105869819D02*
X129884398Y-104869819D01*
X129884398Y-104869819D02*
X130122493Y-104869819D01*
X130122493Y-104869819D02*
X130265350Y-104917438D01*
X130265350Y-104917438D02*
X130360588Y-105012676D01*
X130360588Y-105012676D02*
X130408207Y-105107914D01*
X130408207Y-105107914D02*
X130455826Y-105298390D01*
X130455826Y-105298390D02*
X130455826Y-105441247D01*
X130455826Y-105441247D02*
X130408207Y-105631723D01*
X130408207Y-105631723D02*
X130360588Y-105726961D01*
X130360588Y-105726961D02*
X130265350Y-105822200D01*
X130265350Y-105822200D02*
X130122493Y-105869819D01*
X130122493Y-105869819D02*
X129884398Y-105869819D01*
X131122493Y-106203152D02*
X131122493Y-104774580D01*
X132408207Y-105869819D02*
X132074874Y-105393628D01*
X131836779Y-105869819D02*
X131836779Y-104869819D01*
X131836779Y-104869819D02*
X132217731Y-104869819D01*
X132217731Y-104869819D02*
X132312969Y-104917438D01*
X132312969Y-104917438D02*
X132360588Y-104965057D01*
X132360588Y-104965057D02*
X132408207Y-105060295D01*
X132408207Y-105060295D02*
X132408207Y-105203152D01*
X132408207Y-105203152D02*
X132360588Y-105298390D01*
X132360588Y-105298390D02*
X132312969Y-105346009D01*
X132312969Y-105346009D02*
X132217731Y-105393628D01*
X132217731Y-105393628D02*
X131836779Y-105393628D01*
X132789160Y-105822200D02*
X132932017Y-105869819D01*
X132932017Y-105869819D02*
X133170112Y-105869819D01*
X133170112Y-105869819D02*
X133265350Y-105822200D01*
X133265350Y-105822200D02*
X133312969Y-105774580D01*
X133312969Y-105774580D02*
X133360588Y-105679342D01*
X133360588Y-105679342D02*
X133360588Y-105584104D01*
X133360588Y-105584104D02*
X133312969Y-105488866D01*
X133312969Y-105488866D02*
X133265350Y-105441247D01*
X133265350Y-105441247D02*
X133170112Y-105393628D01*
X133170112Y-105393628D02*
X132979636Y-105346009D01*
X132979636Y-105346009D02*
X132884398Y-105298390D01*
X132884398Y-105298390D02*
X132836779Y-105250771D01*
X132836779Y-105250771D02*
X132789160Y-105155533D01*
X132789160Y-105155533D02*
X132789160Y-105060295D01*
X132789160Y-105060295D02*
X132836779Y-104965057D01*
X132836779Y-104965057D02*
X132884398Y-104917438D01*
X132884398Y-104917438D02*
X132979636Y-104869819D01*
X132979636Y-104869819D02*
X133217731Y-104869819D01*
X133217731Y-104869819D02*
X133360588Y-104917438D01*
X133646303Y-104869819D02*
X134217731Y-104869819D01*
X133932017Y-105869819D02*
X133932017Y-104869819D01*
X134789160Y-106203152D02*
X134789160Y-104774580D01*
X136074874Y-105869819D02*
X135741541Y-105393628D01*
X135503446Y-105869819D02*
X135503446Y-104869819D01*
X135503446Y-104869819D02*
X135884398Y-104869819D01*
X135884398Y-104869819D02*
X135979636Y-104917438D01*
X135979636Y-104917438D02*
X136027255Y-104965057D01*
X136027255Y-104965057D02*
X136074874Y-105060295D01*
X136074874Y-105060295D02*
X136074874Y-105203152D01*
X136074874Y-105203152D02*
X136027255Y-105298390D01*
X136027255Y-105298390D02*
X135979636Y-105346009D01*
X135979636Y-105346009D02*
X135884398Y-105393628D01*
X135884398Y-105393628D02*
X135503446Y-105393628D01*
X137074874Y-105774580D02*
X137027255Y-105822200D01*
X137027255Y-105822200D02*
X136884398Y-105869819D01*
X136884398Y-105869819D02*
X136789160Y-105869819D01*
X136789160Y-105869819D02*
X136646303Y-105822200D01*
X136646303Y-105822200D02*
X136551065Y-105726961D01*
X136551065Y-105726961D02*
X136503446Y-105631723D01*
X136503446Y-105631723D02*
X136455827Y-105441247D01*
X136455827Y-105441247D02*
X136455827Y-105298390D01*
X136455827Y-105298390D02*
X136503446Y-105107914D01*
X136503446Y-105107914D02*
X136551065Y-105012676D01*
X136551065Y-105012676D02*
X136646303Y-104917438D01*
X136646303Y-104917438D02*
X136789160Y-104869819D01*
X136789160Y-104869819D02*
X136884398Y-104869819D01*
X136884398Y-104869819D02*
X137027255Y-104917438D01*
X137027255Y-104917438D02*
X137074874Y-104965057D01*
X137455827Y-105822200D02*
X137598684Y-105869819D01*
X137598684Y-105869819D02*
X137836779Y-105869819D01*
X137836779Y-105869819D02*
X137932017Y-105822200D01*
X137932017Y-105822200D02*
X137979636Y-105774580D01*
X137979636Y-105774580D02*
X138027255Y-105679342D01*
X138027255Y-105679342D02*
X138027255Y-105584104D01*
X138027255Y-105584104D02*
X137979636Y-105488866D01*
X137979636Y-105488866D02*
X137932017Y-105441247D01*
X137932017Y-105441247D02*
X137836779Y-105393628D01*
X137836779Y-105393628D02*
X137646303Y-105346009D01*
X137646303Y-105346009D02*
X137551065Y-105298390D01*
X137551065Y-105298390D02*
X137503446Y-105250771D01*
X137503446Y-105250771D02*
X137455827Y-105155533D01*
X137455827Y-105155533D02*
X137455827Y-105060295D01*
X137455827Y-105060295D02*
X137503446Y-104965057D01*
X137503446Y-104965057D02*
X137551065Y-104917438D01*
X137551065Y-104917438D02*
X137646303Y-104869819D01*
X137646303Y-104869819D02*
X137884398Y-104869819D01*
X137884398Y-104869819D02*
X138027255Y-104917438D01*
X138693922Y-106203152D02*
X138693922Y-104774580D01*
X139408208Y-105346009D02*
X139741541Y-105346009D01*
X139884398Y-105869819D02*
X139408208Y-105869819D01*
X139408208Y-105869819D02*
X139408208Y-104869819D01*
X139408208Y-104869819D02*
X139884398Y-104869819D01*
X140884398Y-105774580D02*
X140836779Y-105822200D01*
X140836779Y-105822200D02*
X140693922Y-105869819D01*
X140693922Y-105869819D02*
X140598684Y-105869819D01*
X140598684Y-105869819D02*
X140455827Y-105822200D01*
X140455827Y-105822200D02*
X140360589Y-105726961D01*
X140360589Y-105726961D02*
X140312970Y-105631723D01*
X140312970Y-105631723D02*
X140265351Y-105441247D01*
X140265351Y-105441247D02*
X140265351Y-105298390D01*
X140265351Y-105298390D02*
X140312970Y-105107914D01*
X140312970Y-105107914D02*
X140360589Y-105012676D01*
X140360589Y-105012676D02*
X140455827Y-104917438D01*
X140455827Y-104917438D02*
X140598684Y-104869819D01*
X140598684Y-104869819D02*
X140693922Y-104869819D01*
X140693922Y-104869819D02*
X140836779Y-104917438D01*
X140836779Y-104917438D02*
X140884398Y-104965057D01*
X141265351Y-105822200D02*
X141408208Y-105869819D01*
X141408208Y-105869819D02*
X141646303Y-105869819D01*
X141646303Y-105869819D02*
X141741541Y-105822200D01*
X141741541Y-105822200D02*
X141789160Y-105774580D01*
X141789160Y-105774580D02*
X141836779Y-105679342D01*
X141836779Y-105679342D02*
X141836779Y-105584104D01*
X141836779Y-105584104D02*
X141789160Y-105488866D01*
X141789160Y-105488866D02*
X141741541Y-105441247D01*
X141741541Y-105441247D02*
X141646303Y-105393628D01*
X141646303Y-105393628D02*
X141455827Y-105346009D01*
X141455827Y-105346009D02*
X141360589Y-105298390D01*
X141360589Y-105298390D02*
X141312970Y-105250771D01*
X141312970Y-105250771D02*
X141265351Y-105155533D01*
X141265351Y-105155533D02*
X141265351Y-105060295D01*
X141265351Y-105060295D02*
X141312970Y-104965057D01*
X141312970Y-104965057D02*
X141360589Y-104917438D01*
X141360589Y-104917438D02*
X141455827Y-104869819D01*
X141455827Y-104869819D02*
X141693922Y-104869819D01*
X141693922Y-104869819D02*
X141836779Y-104917438D01*
X129041541Y-71269819D02*
X129660588Y-71269819D01*
X129660588Y-71269819D02*
X129327255Y-71650771D01*
X129327255Y-71650771D02*
X129470112Y-71650771D01*
X129470112Y-71650771D02*
X129565350Y-71698390D01*
X129565350Y-71698390D02*
X129612969Y-71746009D01*
X129612969Y-71746009D02*
X129660588Y-71841247D01*
X129660588Y-71841247D02*
X129660588Y-72079342D01*
X129660588Y-72079342D02*
X129612969Y-72174580D01*
X129612969Y-72174580D02*
X129565350Y-72222200D01*
X129565350Y-72222200D02*
X129470112Y-72269819D01*
X129470112Y-72269819D02*
X129184398Y-72269819D01*
X129184398Y-72269819D02*
X129089160Y-72222200D01*
X129089160Y-72222200D02*
X129041541Y-72174580D01*
X129946303Y-71269819D02*
X130279636Y-72269819D01*
X130279636Y-72269819D02*
X130612969Y-71269819D01*
X130851065Y-71269819D02*
X131470112Y-71269819D01*
X131470112Y-71269819D02*
X131136779Y-71650771D01*
X131136779Y-71650771D02*
X131279636Y-71650771D01*
X131279636Y-71650771D02*
X131374874Y-71698390D01*
X131374874Y-71698390D02*
X131422493Y-71746009D01*
X131422493Y-71746009D02*
X131470112Y-71841247D01*
X131470112Y-71841247D02*
X131470112Y-72079342D01*
X131470112Y-72079342D02*
X131422493Y-72174580D01*
X131422493Y-72174580D02*
X131374874Y-72222200D01*
X131374874Y-72222200D02*
X131279636Y-72269819D01*
X131279636Y-72269819D02*
X130993922Y-72269819D01*
X130993922Y-72269819D02*
X130898684Y-72222200D01*
X130898684Y-72222200D02*
X130851065Y-72174580D01*
X132136779Y-72603152D02*
X132136779Y-71174580D01*
X132803446Y-72222200D02*
X132946303Y-72269819D01*
X132946303Y-72269819D02*
X133184398Y-72269819D01*
X133184398Y-72269819D02*
X133279636Y-72222200D01*
X133279636Y-72222200D02*
X133327255Y-72174580D01*
X133327255Y-72174580D02*
X133374874Y-72079342D01*
X133374874Y-72079342D02*
X133374874Y-71984104D01*
X133374874Y-71984104D02*
X133327255Y-71888866D01*
X133327255Y-71888866D02*
X133279636Y-71841247D01*
X133279636Y-71841247D02*
X133184398Y-71793628D01*
X133184398Y-71793628D02*
X132993922Y-71746009D01*
X132993922Y-71746009D02*
X132898684Y-71698390D01*
X132898684Y-71698390D02*
X132851065Y-71650771D01*
X132851065Y-71650771D02*
X132803446Y-71555533D01*
X132803446Y-71555533D02*
X132803446Y-71460295D01*
X132803446Y-71460295D02*
X132851065Y-71365057D01*
X132851065Y-71365057D02*
X132898684Y-71317438D01*
X132898684Y-71317438D02*
X132993922Y-71269819D01*
X132993922Y-71269819D02*
X133232017Y-71269819D01*
X133232017Y-71269819D02*
X133374874Y-71317438D01*
X133803446Y-72269819D02*
X133803446Y-71269819D01*
X133803446Y-71269819D02*
X134041541Y-71269819D01*
X134041541Y-71269819D02*
X134184398Y-71317438D01*
X134184398Y-71317438D02*
X134279636Y-71412676D01*
X134279636Y-71412676D02*
X134327255Y-71507914D01*
X134327255Y-71507914D02*
X134374874Y-71698390D01*
X134374874Y-71698390D02*
X134374874Y-71841247D01*
X134374874Y-71841247D02*
X134327255Y-72031723D01*
X134327255Y-72031723D02*
X134279636Y-72126961D01*
X134279636Y-72126961D02*
X134184398Y-72222200D01*
X134184398Y-72222200D02*
X134041541Y-72269819D01*
X134041541Y-72269819D02*
X133803446Y-72269819D01*
X134755827Y-71984104D02*
X135232017Y-71984104D01*
X134660589Y-72269819D02*
X134993922Y-71269819D01*
X134993922Y-71269819D02*
X135327255Y-72269819D01*
X135898684Y-72603152D02*
X135898684Y-71174580D01*
X136565351Y-72222200D02*
X136708208Y-72269819D01*
X136708208Y-72269819D02*
X136946303Y-72269819D01*
X136946303Y-72269819D02*
X137041541Y-72222200D01*
X137041541Y-72222200D02*
X137089160Y-72174580D01*
X137089160Y-72174580D02*
X137136779Y-72079342D01*
X137136779Y-72079342D02*
X137136779Y-71984104D01*
X137136779Y-71984104D02*
X137089160Y-71888866D01*
X137089160Y-71888866D02*
X137041541Y-71841247D01*
X137041541Y-71841247D02*
X136946303Y-71793628D01*
X136946303Y-71793628D02*
X136755827Y-71746009D01*
X136755827Y-71746009D02*
X136660589Y-71698390D01*
X136660589Y-71698390D02*
X136612970Y-71650771D01*
X136612970Y-71650771D02*
X136565351Y-71555533D01*
X136565351Y-71555533D02*
X136565351Y-71460295D01*
X136565351Y-71460295D02*
X136612970Y-71365057D01*
X136612970Y-71365057D02*
X136660589Y-71317438D01*
X136660589Y-71317438D02*
X136755827Y-71269819D01*
X136755827Y-71269819D02*
X136993922Y-71269819D01*
X136993922Y-71269819D02*
X137136779Y-71317438D01*
X138136779Y-72174580D02*
X138089160Y-72222200D01*
X138089160Y-72222200D02*
X137946303Y-72269819D01*
X137946303Y-72269819D02*
X137851065Y-72269819D01*
X137851065Y-72269819D02*
X137708208Y-72222200D01*
X137708208Y-72222200D02*
X137612970Y-72126961D01*
X137612970Y-72126961D02*
X137565351Y-72031723D01*
X137565351Y-72031723D02*
X137517732Y-71841247D01*
X137517732Y-71841247D02*
X137517732Y-71698390D01*
X137517732Y-71698390D02*
X137565351Y-71507914D01*
X137565351Y-71507914D02*
X137612970Y-71412676D01*
X137612970Y-71412676D02*
X137708208Y-71317438D01*
X137708208Y-71317438D02*
X137851065Y-71269819D01*
X137851065Y-71269819D02*
X137946303Y-71269819D01*
X137946303Y-71269819D02*
X138089160Y-71317438D01*
X138089160Y-71317438D02*
X138136779Y-71365057D01*
X139041541Y-72269819D02*
X138565351Y-72269819D01*
X138565351Y-72269819D02*
X138565351Y-71269819D01*
X139612970Y-72603152D02*
X139612970Y-71174580D01*
X140851065Y-71317438D02*
X140755827Y-71269819D01*
X140755827Y-71269819D02*
X140612970Y-71269819D01*
X140612970Y-71269819D02*
X140470113Y-71317438D01*
X140470113Y-71317438D02*
X140374875Y-71412676D01*
X140374875Y-71412676D02*
X140327256Y-71507914D01*
X140327256Y-71507914D02*
X140279637Y-71698390D01*
X140279637Y-71698390D02*
X140279637Y-71841247D01*
X140279637Y-71841247D02*
X140327256Y-72031723D01*
X140327256Y-72031723D02*
X140374875Y-72126961D01*
X140374875Y-72126961D02*
X140470113Y-72222200D01*
X140470113Y-72222200D02*
X140612970Y-72269819D01*
X140612970Y-72269819D02*
X140708208Y-72269819D01*
X140708208Y-72269819D02*
X140851065Y-72222200D01*
X140851065Y-72222200D02*
X140898684Y-72174580D01*
X140898684Y-72174580D02*
X140898684Y-71841247D01*
X140898684Y-71841247D02*
X140708208Y-71841247D01*
X141327256Y-72269819D02*
X141327256Y-71269819D01*
X141327256Y-71269819D02*
X141898684Y-72269819D01*
X141898684Y-72269819D02*
X141898684Y-71269819D01*
X142374875Y-72269819D02*
X142374875Y-71269819D01*
X142374875Y-71269819D02*
X142612970Y-71269819D01*
X142612970Y-71269819D02*
X142755827Y-71317438D01*
X142755827Y-71317438D02*
X142851065Y-71412676D01*
X142851065Y-71412676D02*
X142898684Y-71507914D01*
X142898684Y-71507914D02*
X142946303Y-71698390D01*
X142946303Y-71698390D02*
X142946303Y-71841247D01*
X142946303Y-71841247D02*
X142898684Y-72031723D01*
X142898684Y-72031723D02*
X142851065Y-72126961D01*
X142851065Y-72126961D02*
X142755827Y-72222200D01*
X142755827Y-72222200D02*
X142612970Y-72269819D01*
X142612970Y-72269819D02*
X142374875Y-72269819D01*
X162733517Y-82170306D02*
X162026410Y-82877412D01*
X162026410Y-82877412D02*
X161858051Y-82709054D01*
X161858051Y-82709054D02*
X161790708Y-82574367D01*
X161790708Y-82574367D02*
X161790708Y-82439680D01*
X161790708Y-82439680D02*
X161824380Y-82338664D01*
X161824380Y-82338664D02*
X161925395Y-82170306D01*
X161925395Y-82170306D02*
X162026410Y-82069290D01*
X162026410Y-82069290D02*
X162194769Y-81968275D01*
X162194769Y-81968275D02*
X162295784Y-81934603D01*
X162295784Y-81934603D02*
X162430471Y-81934603D01*
X162430471Y-81934603D02*
X162565158Y-82001947D01*
X162565158Y-82001947D02*
X162733517Y-82170306D01*
X161420319Y-82136634D02*
X161352975Y-82136634D01*
X161352975Y-82136634D02*
X161251960Y-82102962D01*
X161251960Y-82102962D02*
X161083601Y-81934603D01*
X161083601Y-81934603D02*
X161049929Y-81833588D01*
X161049929Y-81833588D02*
X161049929Y-81766245D01*
X161049929Y-81766245D02*
X161083601Y-81665229D01*
X161083601Y-81665229D02*
X161150945Y-81597886D01*
X161150945Y-81597886D02*
X161285632Y-81530542D01*
X161285632Y-81530542D02*
X162093754Y-81530542D01*
X162093754Y-81530542D02*
X161656021Y-81092810D01*
X161174819Y-108694285D02*
X160174819Y-108694285D01*
X160174819Y-108694285D02*
X160174819Y-108456190D01*
X160174819Y-108456190D02*
X160222438Y-108313333D01*
X160222438Y-108313333D02*
X160317676Y-108218095D01*
X160317676Y-108218095D02*
X160412914Y-108170476D01*
X160412914Y-108170476D02*
X160603390Y-108122857D01*
X160603390Y-108122857D02*
X160746247Y-108122857D01*
X160746247Y-108122857D02*
X160936723Y-108170476D01*
X160936723Y-108170476D02*
X161031961Y-108218095D01*
X161031961Y-108218095D02*
X161127200Y-108313333D01*
X161127200Y-108313333D02*
X161174819Y-108456190D01*
X161174819Y-108456190D02*
X161174819Y-108694285D01*
X161174819Y-107170476D02*
X161174819Y-107741904D01*
X161174819Y-107456190D02*
X160174819Y-107456190D01*
X160174819Y-107456190D02*
X160317676Y-107551428D01*
X160317676Y-107551428D02*
X160412914Y-107646666D01*
X160412914Y-107646666D02*
X160460533Y-107741904D01*
X160508152Y-106313333D02*
X161174819Y-106313333D01*
X160127200Y-106551428D02*
X160841485Y-106789523D01*
X160841485Y-106789523D02*
X160841485Y-106170476D01*
X175404819Y-108694285D02*
X174404819Y-108694285D01*
X174404819Y-108694285D02*
X174404819Y-108456190D01*
X174404819Y-108456190D02*
X174452438Y-108313333D01*
X174452438Y-108313333D02*
X174547676Y-108218095D01*
X174547676Y-108218095D02*
X174642914Y-108170476D01*
X174642914Y-108170476D02*
X174833390Y-108122857D01*
X174833390Y-108122857D02*
X174976247Y-108122857D01*
X174976247Y-108122857D02*
X175166723Y-108170476D01*
X175166723Y-108170476D02*
X175261961Y-108218095D01*
X175261961Y-108218095D02*
X175357200Y-108313333D01*
X175357200Y-108313333D02*
X175404819Y-108456190D01*
X175404819Y-108456190D02*
X175404819Y-108694285D01*
X175404819Y-107170476D02*
X175404819Y-107741904D01*
X175404819Y-107456190D02*
X174404819Y-107456190D01*
X174404819Y-107456190D02*
X174547676Y-107551428D01*
X174547676Y-107551428D02*
X174642914Y-107646666D01*
X174642914Y-107646666D02*
X174690533Y-107741904D01*
X174404819Y-106313333D02*
X174404819Y-106503809D01*
X174404819Y-106503809D02*
X174452438Y-106599047D01*
X174452438Y-106599047D02*
X174500057Y-106646666D01*
X174500057Y-106646666D02*
X174642914Y-106741904D01*
X174642914Y-106741904D02*
X174833390Y-106789523D01*
X174833390Y-106789523D02*
X175214342Y-106789523D01*
X175214342Y-106789523D02*
X175309580Y-106741904D01*
X175309580Y-106741904D02*
X175357200Y-106694285D01*
X175357200Y-106694285D02*
X175404819Y-106599047D01*
X175404819Y-106599047D02*
X175404819Y-106408571D01*
X175404819Y-106408571D02*
X175357200Y-106313333D01*
X175357200Y-106313333D02*
X175309580Y-106265714D01*
X175309580Y-106265714D02*
X175214342Y-106218095D01*
X175214342Y-106218095D02*
X174976247Y-106218095D01*
X174976247Y-106218095D02*
X174881009Y-106265714D01*
X174881009Y-106265714D02*
X174833390Y-106313333D01*
X174833390Y-106313333D02*
X174785771Y-106408571D01*
X174785771Y-106408571D02*
X174785771Y-106599047D01*
X174785771Y-106599047D02*
X174833390Y-106694285D01*
X174833390Y-106694285D02*
X174881009Y-106741904D01*
X174881009Y-106741904D02*
X174976247Y-106789523D01*
X174921140Y-82843618D02*
X174214034Y-82136511D01*
X174214034Y-82136511D02*
X174382392Y-81968152D01*
X174382392Y-81968152D02*
X174517079Y-81900809D01*
X174517079Y-81900809D02*
X174651766Y-81900809D01*
X174651766Y-81900809D02*
X174752782Y-81934481D01*
X174752782Y-81934481D02*
X174921140Y-82035496D01*
X174921140Y-82035496D02*
X175022156Y-82136511D01*
X175022156Y-82136511D02*
X175123171Y-82304870D01*
X175123171Y-82304870D02*
X175156843Y-82405885D01*
X175156843Y-82405885D02*
X175156843Y-82540572D01*
X175156843Y-82540572D02*
X175089499Y-82675259D01*
X175089499Y-82675259D02*
X174921140Y-82843618D01*
X175459888Y-81362061D02*
X175931293Y-81833465D01*
X175022156Y-81261046D02*
X175358873Y-81934481D01*
X175358873Y-81934481D02*
X175796606Y-81496748D01*
X172063333Y-101549580D02*
X172015714Y-101597200D01*
X172015714Y-101597200D02*
X171872857Y-101644819D01*
X171872857Y-101644819D02*
X171777619Y-101644819D01*
X171777619Y-101644819D02*
X171634762Y-101597200D01*
X171634762Y-101597200D02*
X171539524Y-101501961D01*
X171539524Y-101501961D02*
X171491905Y-101406723D01*
X171491905Y-101406723D02*
X171444286Y-101216247D01*
X171444286Y-101216247D02*
X171444286Y-101073390D01*
X171444286Y-101073390D02*
X171491905Y-100882914D01*
X171491905Y-100882914D02*
X171539524Y-100787676D01*
X171539524Y-100787676D02*
X171634762Y-100692438D01*
X171634762Y-100692438D02*
X171777619Y-100644819D01*
X171777619Y-100644819D02*
X171872857Y-100644819D01*
X171872857Y-100644819D02*
X172015714Y-100692438D01*
X172015714Y-100692438D02*
X172063333Y-100740057D01*
X172396667Y-100644819D02*
X173063333Y-100644819D01*
X173063333Y-100644819D02*
X172634762Y-101644819D01*
X154603333Y-86934819D02*
X154270000Y-86458628D01*
X154031905Y-86934819D02*
X154031905Y-85934819D01*
X154031905Y-85934819D02*
X154412857Y-85934819D01*
X154412857Y-85934819D02*
X154508095Y-85982438D01*
X154508095Y-85982438D02*
X154555714Y-86030057D01*
X154555714Y-86030057D02*
X154603333Y-86125295D01*
X154603333Y-86125295D02*
X154603333Y-86268152D01*
X154603333Y-86268152D02*
X154555714Y-86363390D01*
X154555714Y-86363390D02*
X154508095Y-86411009D01*
X154508095Y-86411009D02*
X154412857Y-86458628D01*
X154412857Y-86458628D02*
X154031905Y-86458628D01*
X155460476Y-86268152D02*
X155460476Y-86934819D01*
X155222381Y-85887200D02*
X154984286Y-86601485D01*
X154984286Y-86601485D02*
X155603333Y-86601485D01*
X176513333Y-88929580D02*
X176465714Y-88977200D01*
X176465714Y-88977200D02*
X176322857Y-89024819D01*
X176322857Y-89024819D02*
X176227619Y-89024819D01*
X176227619Y-89024819D02*
X176084762Y-88977200D01*
X176084762Y-88977200D02*
X175989524Y-88881961D01*
X175989524Y-88881961D02*
X175941905Y-88786723D01*
X175941905Y-88786723D02*
X175894286Y-88596247D01*
X175894286Y-88596247D02*
X175894286Y-88453390D01*
X175894286Y-88453390D02*
X175941905Y-88262914D01*
X175941905Y-88262914D02*
X175989524Y-88167676D01*
X175989524Y-88167676D02*
X176084762Y-88072438D01*
X176084762Y-88072438D02*
X176227619Y-88024819D01*
X176227619Y-88024819D02*
X176322857Y-88024819D01*
X176322857Y-88024819D02*
X176465714Y-88072438D01*
X176465714Y-88072438D02*
X176513333Y-88120057D01*
X176846667Y-88024819D02*
X177465714Y-88024819D01*
X177465714Y-88024819D02*
X177132381Y-88405771D01*
X177132381Y-88405771D02*
X177275238Y-88405771D01*
X177275238Y-88405771D02*
X177370476Y-88453390D01*
X177370476Y-88453390D02*
X177418095Y-88501009D01*
X177418095Y-88501009D02*
X177465714Y-88596247D01*
X177465714Y-88596247D02*
X177465714Y-88834342D01*
X177465714Y-88834342D02*
X177418095Y-88929580D01*
X177418095Y-88929580D02*
X177370476Y-88977200D01*
X177370476Y-88977200D02*
X177275238Y-89024819D01*
X177275238Y-89024819D02*
X176989524Y-89024819D01*
X176989524Y-89024819D02*
X176894286Y-88977200D01*
X176894286Y-88977200D02*
X176846667Y-88929580D01*
X157268095Y-102454819D02*
X157839523Y-102454819D01*
X157553809Y-103454819D02*
X157553809Y-102454819D01*
X158172857Y-103454819D02*
X158172857Y-102454819D01*
X158172857Y-102454819D02*
X158553809Y-102454819D01*
X158553809Y-102454819D02*
X158649047Y-102502438D01*
X158649047Y-102502438D02*
X158696666Y-102550057D01*
X158696666Y-102550057D02*
X158744285Y-102645295D01*
X158744285Y-102645295D02*
X158744285Y-102788152D01*
X158744285Y-102788152D02*
X158696666Y-102883390D01*
X158696666Y-102883390D02*
X158649047Y-102931009D01*
X158649047Y-102931009D02*
X158553809Y-102978628D01*
X158553809Y-102978628D02*
X158172857Y-102978628D01*
X159649047Y-102454819D02*
X159172857Y-102454819D01*
X159172857Y-102454819D02*
X159125238Y-102931009D01*
X159125238Y-102931009D02*
X159172857Y-102883390D01*
X159172857Y-102883390D02*
X159268095Y-102835771D01*
X159268095Y-102835771D02*
X159506190Y-102835771D01*
X159506190Y-102835771D02*
X159601428Y-102883390D01*
X159601428Y-102883390D02*
X159649047Y-102931009D01*
X159649047Y-102931009D02*
X159696666Y-103026247D01*
X159696666Y-103026247D02*
X159696666Y-103264342D01*
X159696666Y-103264342D02*
X159649047Y-103359580D01*
X159649047Y-103359580D02*
X159601428Y-103407200D01*
X159601428Y-103407200D02*
X159506190Y-103454819D01*
X159506190Y-103454819D02*
X159268095Y-103454819D01*
X159268095Y-103454819D02*
X159172857Y-103407200D01*
X159172857Y-103407200D02*
X159125238Y-103359580D01*
X175951905Y-91394819D02*
X175951905Y-90394819D01*
X175951905Y-90394819D02*
X176190000Y-90394819D01*
X176190000Y-90394819D02*
X176332857Y-90442438D01*
X176332857Y-90442438D02*
X176428095Y-90537676D01*
X176428095Y-90537676D02*
X176475714Y-90632914D01*
X176475714Y-90632914D02*
X176523333Y-90823390D01*
X176523333Y-90823390D02*
X176523333Y-90966247D01*
X176523333Y-90966247D02*
X176475714Y-91156723D01*
X176475714Y-91156723D02*
X176428095Y-91251961D01*
X176428095Y-91251961D02*
X176332857Y-91347200D01*
X176332857Y-91347200D02*
X176190000Y-91394819D01*
X176190000Y-91394819D02*
X175951905Y-91394819D01*
X177428095Y-90394819D02*
X176951905Y-90394819D01*
X176951905Y-90394819D02*
X176904286Y-90871009D01*
X176904286Y-90871009D02*
X176951905Y-90823390D01*
X176951905Y-90823390D02*
X177047143Y-90775771D01*
X177047143Y-90775771D02*
X177285238Y-90775771D01*
X177285238Y-90775771D02*
X177380476Y-90823390D01*
X177380476Y-90823390D02*
X177428095Y-90871009D01*
X177428095Y-90871009D02*
X177475714Y-90966247D01*
X177475714Y-90966247D02*
X177475714Y-91204342D01*
X177475714Y-91204342D02*
X177428095Y-91299580D01*
X177428095Y-91299580D02*
X177380476Y-91347200D01*
X177380476Y-91347200D02*
X177285238Y-91394819D01*
X177285238Y-91394819D02*
X177047143Y-91394819D01*
X177047143Y-91394819D02*
X176951905Y-91347200D01*
X176951905Y-91347200D02*
X176904286Y-91299580D01*
X155988095Y-98424819D02*
X156559523Y-98424819D01*
X156273809Y-99424819D02*
X156273809Y-98424819D01*
X156892857Y-99424819D02*
X156892857Y-98424819D01*
X156892857Y-98424819D02*
X157273809Y-98424819D01*
X157273809Y-98424819D02*
X157369047Y-98472438D01*
X157369047Y-98472438D02*
X157416666Y-98520057D01*
X157416666Y-98520057D02*
X157464285Y-98615295D01*
X157464285Y-98615295D02*
X157464285Y-98758152D01*
X157464285Y-98758152D02*
X157416666Y-98853390D01*
X157416666Y-98853390D02*
X157369047Y-98901009D01*
X157369047Y-98901009D02*
X157273809Y-98948628D01*
X157273809Y-98948628D02*
X156892857Y-98948628D01*
X157845238Y-98520057D02*
X157892857Y-98472438D01*
X157892857Y-98472438D02*
X157988095Y-98424819D01*
X157988095Y-98424819D02*
X158226190Y-98424819D01*
X158226190Y-98424819D02*
X158321428Y-98472438D01*
X158321428Y-98472438D02*
X158369047Y-98520057D01*
X158369047Y-98520057D02*
X158416666Y-98615295D01*
X158416666Y-98615295D02*
X158416666Y-98710533D01*
X158416666Y-98710533D02*
X158369047Y-98853390D01*
X158369047Y-98853390D02*
X157797619Y-99424819D01*
X157797619Y-99424819D02*
X158416666Y-99424819D01*
X165464819Y-76190476D02*
X164988628Y-76523809D01*
X165464819Y-76761904D02*
X164464819Y-76761904D01*
X164464819Y-76761904D02*
X164464819Y-76380952D01*
X164464819Y-76380952D02*
X164512438Y-76285714D01*
X164512438Y-76285714D02*
X164560057Y-76238095D01*
X164560057Y-76238095D02*
X164655295Y-76190476D01*
X164655295Y-76190476D02*
X164798152Y-76190476D01*
X164798152Y-76190476D02*
X164893390Y-76238095D01*
X164893390Y-76238095D02*
X164941009Y-76285714D01*
X164941009Y-76285714D02*
X164988628Y-76380952D01*
X164988628Y-76380952D02*
X164988628Y-76761904D01*
X165464819Y-75761904D02*
X164464819Y-75761904D01*
X164464819Y-75761904D02*
X165464819Y-75190476D01*
X165464819Y-75190476D02*
X164464819Y-75190476D01*
X164560057Y-74761904D02*
X164512438Y-74714285D01*
X164512438Y-74714285D02*
X164464819Y-74619047D01*
X164464819Y-74619047D02*
X164464819Y-74380952D01*
X164464819Y-74380952D02*
X164512438Y-74285714D01*
X164512438Y-74285714D02*
X164560057Y-74238095D01*
X164560057Y-74238095D02*
X164655295Y-74190476D01*
X164655295Y-74190476D02*
X164750533Y-74190476D01*
X164750533Y-74190476D02*
X164893390Y-74238095D01*
X164893390Y-74238095D02*
X165464819Y-74809523D01*
X165464819Y-74809523D02*
X165464819Y-74190476D01*
X172113333Y-98309580D02*
X172065714Y-98357200D01*
X172065714Y-98357200D02*
X171922857Y-98404819D01*
X171922857Y-98404819D02*
X171827619Y-98404819D01*
X171827619Y-98404819D02*
X171684762Y-98357200D01*
X171684762Y-98357200D02*
X171589524Y-98261961D01*
X171589524Y-98261961D02*
X171541905Y-98166723D01*
X171541905Y-98166723D02*
X171494286Y-97976247D01*
X171494286Y-97976247D02*
X171494286Y-97833390D01*
X171494286Y-97833390D02*
X171541905Y-97642914D01*
X171541905Y-97642914D02*
X171589524Y-97547676D01*
X171589524Y-97547676D02*
X171684762Y-97452438D01*
X171684762Y-97452438D02*
X171827619Y-97404819D01*
X171827619Y-97404819D02*
X171922857Y-97404819D01*
X171922857Y-97404819D02*
X172065714Y-97452438D01*
X172065714Y-97452438D02*
X172113333Y-97500057D01*
X172494286Y-97500057D02*
X172541905Y-97452438D01*
X172541905Y-97452438D02*
X172637143Y-97404819D01*
X172637143Y-97404819D02*
X172875238Y-97404819D01*
X172875238Y-97404819D02*
X172970476Y-97452438D01*
X172970476Y-97452438D02*
X173018095Y-97500057D01*
X173018095Y-97500057D02*
X173065714Y-97595295D01*
X173065714Y-97595295D02*
X173065714Y-97690533D01*
X173065714Y-97690533D02*
X173018095Y-97833390D01*
X173018095Y-97833390D02*
X172446667Y-98404819D01*
X172446667Y-98404819D02*
X173065714Y-98404819D01*
X155998095Y-79854819D02*
X156569523Y-79854819D01*
X156283809Y-80854819D02*
X156283809Y-79854819D01*
X156902857Y-80854819D02*
X156902857Y-79854819D01*
X156902857Y-79854819D02*
X157283809Y-79854819D01*
X157283809Y-79854819D02*
X157379047Y-79902438D01*
X157379047Y-79902438D02*
X157426666Y-79950057D01*
X157426666Y-79950057D02*
X157474285Y-80045295D01*
X157474285Y-80045295D02*
X157474285Y-80188152D01*
X157474285Y-80188152D02*
X157426666Y-80283390D01*
X157426666Y-80283390D02*
X157379047Y-80331009D01*
X157379047Y-80331009D02*
X157283809Y-80378628D01*
X157283809Y-80378628D02*
X156902857Y-80378628D01*
X157807619Y-79854819D02*
X158426666Y-79854819D01*
X158426666Y-79854819D02*
X158093333Y-80235771D01*
X158093333Y-80235771D02*
X158236190Y-80235771D01*
X158236190Y-80235771D02*
X158331428Y-80283390D01*
X158331428Y-80283390D02*
X158379047Y-80331009D01*
X158379047Y-80331009D02*
X158426666Y-80426247D01*
X158426666Y-80426247D02*
X158426666Y-80664342D01*
X158426666Y-80664342D02*
X158379047Y-80759580D01*
X158379047Y-80759580D02*
X158331428Y-80807200D01*
X158331428Y-80807200D02*
X158236190Y-80854819D01*
X158236190Y-80854819D02*
X157950476Y-80854819D01*
X157950476Y-80854819D02*
X157855238Y-80807200D01*
X157855238Y-80807200D02*
X157807619Y-80759580D01*
X154533333Y-93689580D02*
X154485714Y-93737200D01*
X154485714Y-93737200D02*
X154342857Y-93784819D01*
X154342857Y-93784819D02*
X154247619Y-93784819D01*
X154247619Y-93784819D02*
X154104762Y-93737200D01*
X154104762Y-93737200D02*
X154009524Y-93641961D01*
X154009524Y-93641961D02*
X153961905Y-93546723D01*
X153961905Y-93546723D02*
X153914286Y-93356247D01*
X153914286Y-93356247D02*
X153914286Y-93213390D01*
X153914286Y-93213390D02*
X153961905Y-93022914D01*
X153961905Y-93022914D02*
X154009524Y-92927676D01*
X154009524Y-92927676D02*
X154104762Y-92832438D01*
X154104762Y-92832438D02*
X154247619Y-92784819D01*
X154247619Y-92784819D02*
X154342857Y-92784819D01*
X154342857Y-92784819D02*
X154485714Y-92832438D01*
X154485714Y-92832438D02*
X154533333Y-92880057D01*
X155390476Y-93118152D02*
X155390476Y-93784819D01*
X155152381Y-92737200D02*
X154914286Y-93451485D01*
X154914286Y-93451485D02*
X155533333Y-93451485D01*
X176523333Y-87004819D02*
X176190000Y-86528628D01*
X175951905Y-87004819D02*
X175951905Y-86004819D01*
X175951905Y-86004819D02*
X176332857Y-86004819D01*
X176332857Y-86004819D02*
X176428095Y-86052438D01*
X176428095Y-86052438D02*
X176475714Y-86100057D01*
X176475714Y-86100057D02*
X176523333Y-86195295D01*
X176523333Y-86195295D02*
X176523333Y-86338152D01*
X176523333Y-86338152D02*
X176475714Y-86433390D01*
X176475714Y-86433390D02*
X176428095Y-86481009D01*
X176428095Y-86481009D02*
X176332857Y-86528628D01*
X176332857Y-86528628D02*
X175951905Y-86528628D01*
X177475714Y-87004819D02*
X176904286Y-87004819D01*
X177190000Y-87004819D02*
X177190000Y-86004819D01*
X177190000Y-86004819D02*
X177094762Y-86147676D01*
X177094762Y-86147676D02*
X176999524Y-86242914D01*
X176999524Y-86242914D02*
X176904286Y-86290533D01*
X154583333Y-95824819D02*
X154250000Y-95348628D01*
X154011905Y-95824819D02*
X154011905Y-94824819D01*
X154011905Y-94824819D02*
X154392857Y-94824819D01*
X154392857Y-94824819D02*
X154488095Y-94872438D01*
X154488095Y-94872438D02*
X154535714Y-94920057D01*
X154535714Y-94920057D02*
X154583333Y-95015295D01*
X154583333Y-95015295D02*
X154583333Y-95158152D01*
X154583333Y-95158152D02*
X154535714Y-95253390D01*
X154535714Y-95253390D02*
X154488095Y-95301009D01*
X154488095Y-95301009D02*
X154392857Y-95348628D01*
X154392857Y-95348628D02*
X154011905Y-95348628D01*
X154916667Y-94824819D02*
X155535714Y-94824819D01*
X155535714Y-94824819D02*
X155202381Y-95205771D01*
X155202381Y-95205771D02*
X155345238Y-95205771D01*
X155345238Y-95205771D02*
X155440476Y-95253390D01*
X155440476Y-95253390D02*
X155488095Y-95301009D01*
X155488095Y-95301009D02*
X155535714Y-95396247D01*
X155535714Y-95396247D02*
X155535714Y-95634342D01*
X155535714Y-95634342D02*
X155488095Y-95729580D01*
X155488095Y-95729580D02*
X155440476Y-95777200D01*
X155440476Y-95777200D02*
X155345238Y-95824819D01*
X155345238Y-95824819D02*
X155059524Y-95824819D01*
X155059524Y-95824819D02*
X154964286Y-95777200D01*
X154964286Y-95777200D02*
X154916667Y-95729580D01*
X179183333Y-101529580D02*
X179135714Y-101577200D01*
X179135714Y-101577200D02*
X178992857Y-101624819D01*
X178992857Y-101624819D02*
X178897619Y-101624819D01*
X178897619Y-101624819D02*
X178754762Y-101577200D01*
X178754762Y-101577200D02*
X178659524Y-101481961D01*
X178659524Y-101481961D02*
X178611905Y-101386723D01*
X178611905Y-101386723D02*
X178564286Y-101196247D01*
X178564286Y-101196247D02*
X178564286Y-101053390D01*
X178564286Y-101053390D02*
X178611905Y-100862914D01*
X178611905Y-100862914D02*
X178659524Y-100767676D01*
X178659524Y-100767676D02*
X178754762Y-100672438D01*
X178754762Y-100672438D02*
X178897619Y-100624819D01*
X178897619Y-100624819D02*
X178992857Y-100624819D01*
X178992857Y-100624819D02*
X179135714Y-100672438D01*
X179135714Y-100672438D02*
X179183333Y-100720057D01*
X179754762Y-101053390D02*
X179659524Y-101005771D01*
X179659524Y-101005771D02*
X179611905Y-100958152D01*
X179611905Y-100958152D02*
X179564286Y-100862914D01*
X179564286Y-100862914D02*
X179564286Y-100815295D01*
X179564286Y-100815295D02*
X179611905Y-100720057D01*
X179611905Y-100720057D02*
X179659524Y-100672438D01*
X179659524Y-100672438D02*
X179754762Y-100624819D01*
X179754762Y-100624819D02*
X179945238Y-100624819D01*
X179945238Y-100624819D02*
X180040476Y-100672438D01*
X180040476Y-100672438D02*
X180088095Y-100720057D01*
X180088095Y-100720057D02*
X180135714Y-100815295D01*
X180135714Y-100815295D02*
X180135714Y-100862914D01*
X180135714Y-100862914D02*
X180088095Y-100958152D01*
X180088095Y-100958152D02*
X180040476Y-101005771D01*
X180040476Y-101005771D02*
X179945238Y-101053390D01*
X179945238Y-101053390D02*
X179754762Y-101053390D01*
X179754762Y-101053390D02*
X179659524Y-101101009D01*
X179659524Y-101101009D02*
X179611905Y-101148628D01*
X179611905Y-101148628D02*
X179564286Y-101243866D01*
X179564286Y-101243866D02*
X179564286Y-101434342D01*
X179564286Y-101434342D02*
X179611905Y-101529580D01*
X179611905Y-101529580D02*
X179659524Y-101577200D01*
X179659524Y-101577200D02*
X179754762Y-101624819D01*
X179754762Y-101624819D02*
X179945238Y-101624819D01*
X179945238Y-101624819D02*
X180040476Y-101577200D01*
X180040476Y-101577200D02*
X180088095Y-101529580D01*
X180088095Y-101529580D02*
X180135714Y-101434342D01*
X180135714Y-101434342D02*
X180135714Y-101243866D01*
X180135714Y-101243866D02*
X180088095Y-101148628D01*
X180088095Y-101148628D02*
X180040476Y-101101009D01*
X180040476Y-101101009D02*
X179945238Y-101053390D01*
X149078095Y-110484819D02*
X149078095Y-111294342D01*
X149078095Y-111294342D02*
X149125714Y-111389580D01*
X149125714Y-111389580D02*
X149173333Y-111437200D01*
X149173333Y-111437200D02*
X149268571Y-111484819D01*
X149268571Y-111484819D02*
X149459047Y-111484819D01*
X149459047Y-111484819D02*
X149554285Y-111437200D01*
X149554285Y-111437200D02*
X149601904Y-111389580D01*
X149601904Y-111389580D02*
X149649523Y-111294342D01*
X149649523Y-111294342D02*
X149649523Y-110484819D01*
X150030476Y-110484819D02*
X150649523Y-110484819D01*
X150649523Y-110484819D02*
X150316190Y-110865771D01*
X150316190Y-110865771D02*
X150459047Y-110865771D01*
X150459047Y-110865771D02*
X150554285Y-110913390D01*
X150554285Y-110913390D02*
X150601904Y-110961009D01*
X150601904Y-110961009D02*
X150649523Y-111056247D01*
X150649523Y-111056247D02*
X150649523Y-111294342D01*
X150649523Y-111294342D02*
X150601904Y-111389580D01*
X150601904Y-111389580D02*
X150554285Y-111437200D01*
X150554285Y-111437200D02*
X150459047Y-111484819D01*
X150459047Y-111484819D02*
X150173333Y-111484819D01*
X150173333Y-111484819D02*
X150078095Y-111437200D01*
X150078095Y-111437200D02*
X150030476Y-111389580D01*
X151233333Y-78824819D02*
X150900000Y-78348628D01*
X150661905Y-78824819D02*
X150661905Y-77824819D01*
X150661905Y-77824819D02*
X151042857Y-77824819D01*
X151042857Y-77824819D02*
X151138095Y-77872438D01*
X151138095Y-77872438D02*
X151185714Y-77920057D01*
X151185714Y-77920057D02*
X151233333Y-78015295D01*
X151233333Y-78015295D02*
X151233333Y-78158152D01*
X151233333Y-78158152D02*
X151185714Y-78253390D01*
X151185714Y-78253390D02*
X151138095Y-78301009D01*
X151138095Y-78301009D02*
X151042857Y-78348628D01*
X151042857Y-78348628D02*
X150661905Y-78348628D01*
X151566667Y-77824819D02*
X152233333Y-77824819D01*
X152233333Y-77824819D02*
X151804762Y-78824819D01*
X147027142Y-106079580D02*
X146979523Y-106127200D01*
X146979523Y-106127200D02*
X146836666Y-106174819D01*
X146836666Y-106174819D02*
X146741428Y-106174819D01*
X146741428Y-106174819D02*
X146598571Y-106127200D01*
X146598571Y-106127200D02*
X146503333Y-106031961D01*
X146503333Y-106031961D02*
X146455714Y-105936723D01*
X146455714Y-105936723D02*
X146408095Y-105746247D01*
X146408095Y-105746247D02*
X146408095Y-105603390D01*
X146408095Y-105603390D02*
X146455714Y-105412914D01*
X146455714Y-105412914D02*
X146503333Y-105317676D01*
X146503333Y-105317676D02*
X146598571Y-105222438D01*
X146598571Y-105222438D02*
X146741428Y-105174819D01*
X146741428Y-105174819D02*
X146836666Y-105174819D01*
X146836666Y-105174819D02*
X146979523Y-105222438D01*
X146979523Y-105222438D02*
X147027142Y-105270057D01*
X147979523Y-106174819D02*
X147408095Y-106174819D01*
X147693809Y-106174819D02*
X147693809Y-105174819D01*
X147693809Y-105174819D02*
X147598571Y-105317676D01*
X147598571Y-105317676D02*
X147503333Y-105412914D01*
X147503333Y-105412914D02*
X147408095Y-105460533D01*
X148360476Y-105270057D02*
X148408095Y-105222438D01*
X148408095Y-105222438D02*
X148503333Y-105174819D01*
X148503333Y-105174819D02*
X148741428Y-105174819D01*
X148741428Y-105174819D02*
X148836666Y-105222438D01*
X148836666Y-105222438D02*
X148884285Y-105270057D01*
X148884285Y-105270057D02*
X148931904Y-105365295D01*
X148931904Y-105365295D02*
X148931904Y-105460533D01*
X148931904Y-105460533D02*
X148884285Y-105603390D01*
X148884285Y-105603390D02*
X148312857Y-106174819D01*
X148312857Y-106174819D02*
X148931904Y-106174819D01*
X178298417Y-97756755D02*
X177591310Y-98463861D01*
X177591310Y-98463861D02*
X177422951Y-98295503D01*
X177422951Y-98295503D02*
X177355608Y-98160816D01*
X177355608Y-98160816D02*
X177355608Y-98026129D01*
X177355608Y-98026129D02*
X177389280Y-97925113D01*
X177389280Y-97925113D02*
X177490295Y-97756755D01*
X177490295Y-97756755D02*
X177591310Y-97655739D01*
X177591310Y-97655739D02*
X177759669Y-97554724D01*
X177759669Y-97554724D02*
X177860684Y-97521052D01*
X177860684Y-97521052D02*
X177995371Y-97521052D01*
X177995371Y-97521052D02*
X178130058Y-97588396D01*
X178130058Y-97588396D02*
X178298417Y-97756755D01*
X176581158Y-97453709D02*
X176715845Y-97588396D01*
X176715845Y-97588396D02*
X176816860Y-97622068D01*
X176816860Y-97622068D02*
X176884203Y-97622068D01*
X176884203Y-97622068D02*
X177052562Y-97588396D01*
X177052562Y-97588396D02*
X177220921Y-97487381D01*
X177220921Y-97487381D02*
X177490295Y-97218007D01*
X177490295Y-97218007D02*
X177523967Y-97116991D01*
X177523967Y-97116991D02*
X177523967Y-97049648D01*
X177523967Y-97049648D02*
X177490295Y-96948633D01*
X177490295Y-96948633D02*
X177355608Y-96813946D01*
X177355608Y-96813946D02*
X177254593Y-96780274D01*
X177254593Y-96780274D02*
X177187249Y-96780274D01*
X177187249Y-96780274D02*
X177086234Y-96813946D01*
X177086234Y-96813946D02*
X176917875Y-96982304D01*
X176917875Y-96982304D02*
X176884203Y-97083320D01*
X176884203Y-97083320D02*
X176884203Y-97150663D01*
X176884203Y-97150663D02*
X176917875Y-97251678D01*
X176917875Y-97251678D02*
X177052562Y-97386365D01*
X177052562Y-97386365D02*
X177153577Y-97420037D01*
X177153577Y-97420037D02*
X177220921Y-97420037D01*
X177220921Y-97420037D02*
X177321936Y-97386365D01*
X154031905Y-91384819D02*
X154031905Y-90384819D01*
X154031905Y-90384819D02*
X154270000Y-90384819D01*
X154270000Y-90384819D02*
X154412857Y-90432438D01*
X154412857Y-90432438D02*
X154508095Y-90527676D01*
X154508095Y-90527676D02*
X154555714Y-90622914D01*
X154555714Y-90622914D02*
X154603333Y-90813390D01*
X154603333Y-90813390D02*
X154603333Y-90956247D01*
X154603333Y-90956247D02*
X154555714Y-91146723D01*
X154555714Y-91146723D02*
X154508095Y-91241961D01*
X154508095Y-91241961D02*
X154412857Y-91337200D01*
X154412857Y-91337200D02*
X154270000Y-91384819D01*
X154270000Y-91384819D02*
X154031905Y-91384819D01*
X155555714Y-91384819D02*
X154984286Y-91384819D01*
X155270000Y-91384819D02*
X155270000Y-90384819D01*
X155270000Y-90384819D02*
X155174762Y-90527676D01*
X155174762Y-90527676D02*
X155079524Y-90622914D01*
X155079524Y-90622914D02*
X154984286Y-90670533D01*
X160463333Y-79249580D02*
X160415714Y-79297200D01*
X160415714Y-79297200D02*
X160272857Y-79344819D01*
X160272857Y-79344819D02*
X160177619Y-79344819D01*
X160177619Y-79344819D02*
X160034762Y-79297200D01*
X160034762Y-79297200D02*
X159939524Y-79201961D01*
X159939524Y-79201961D02*
X159891905Y-79106723D01*
X159891905Y-79106723D02*
X159844286Y-78916247D01*
X159844286Y-78916247D02*
X159844286Y-78773390D01*
X159844286Y-78773390D02*
X159891905Y-78582914D01*
X159891905Y-78582914D02*
X159939524Y-78487676D01*
X159939524Y-78487676D02*
X160034762Y-78392438D01*
X160034762Y-78392438D02*
X160177619Y-78344819D01*
X160177619Y-78344819D02*
X160272857Y-78344819D01*
X160272857Y-78344819D02*
X160415714Y-78392438D01*
X160415714Y-78392438D02*
X160463333Y-78440057D01*
X161415714Y-79344819D02*
X160844286Y-79344819D01*
X161130000Y-79344819D02*
X161130000Y-78344819D01*
X161130000Y-78344819D02*
X161034762Y-78487676D01*
X161034762Y-78487676D02*
X160939524Y-78582914D01*
X160939524Y-78582914D02*
X160844286Y-78630533D01*
X161767200Y-95853332D02*
X161814819Y-95710475D01*
X161814819Y-95710475D02*
X161814819Y-95472380D01*
X161814819Y-95472380D02*
X161767200Y-95377142D01*
X161767200Y-95377142D02*
X161719580Y-95329523D01*
X161719580Y-95329523D02*
X161624342Y-95281904D01*
X161624342Y-95281904D02*
X161529104Y-95281904D01*
X161529104Y-95281904D02*
X161433866Y-95329523D01*
X161433866Y-95329523D02*
X161386247Y-95377142D01*
X161386247Y-95377142D02*
X161338628Y-95472380D01*
X161338628Y-95472380D02*
X161291009Y-95662856D01*
X161291009Y-95662856D02*
X161243390Y-95758094D01*
X161243390Y-95758094D02*
X161195771Y-95805713D01*
X161195771Y-95805713D02*
X161100533Y-95853332D01*
X161100533Y-95853332D02*
X161005295Y-95853332D01*
X161005295Y-95853332D02*
X160910057Y-95805713D01*
X160910057Y-95805713D02*
X160862438Y-95758094D01*
X160862438Y-95758094D02*
X160814819Y-95662856D01*
X160814819Y-95662856D02*
X160814819Y-95424761D01*
X160814819Y-95424761D02*
X160862438Y-95281904D01*
X160814819Y-94948570D02*
X161814819Y-94710475D01*
X161814819Y-94710475D02*
X161100533Y-94519999D01*
X161100533Y-94519999D02*
X161814819Y-94329523D01*
X161814819Y-94329523D02*
X160814819Y-94091428D01*
X161814819Y-93186666D02*
X161814819Y-93758094D01*
X161814819Y-93472380D02*
X160814819Y-93472380D01*
X160814819Y-93472380D02*
X160957676Y-93567618D01*
X160957676Y-93567618D02*
X161052914Y-93662856D01*
X161052914Y-93662856D02*
X161100533Y-93758094D01*
X141793333Y-78824819D02*
X141460000Y-78348628D01*
X141221905Y-78824819D02*
X141221905Y-77824819D01*
X141221905Y-77824819D02*
X141602857Y-77824819D01*
X141602857Y-77824819D02*
X141698095Y-77872438D01*
X141698095Y-77872438D02*
X141745714Y-77920057D01*
X141745714Y-77920057D02*
X141793333Y-78015295D01*
X141793333Y-78015295D02*
X141793333Y-78158152D01*
X141793333Y-78158152D02*
X141745714Y-78253390D01*
X141745714Y-78253390D02*
X141698095Y-78301009D01*
X141698095Y-78301009D02*
X141602857Y-78348628D01*
X141602857Y-78348628D02*
X141221905Y-78348628D01*
X142364762Y-78253390D02*
X142269524Y-78205771D01*
X142269524Y-78205771D02*
X142221905Y-78158152D01*
X142221905Y-78158152D02*
X142174286Y-78062914D01*
X142174286Y-78062914D02*
X142174286Y-78015295D01*
X142174286Y-78015295D02*
X142221905Y-77920057D01*
X142221905Y-77920057D02*
X142269524Y-77872438D01*
X142269524Y-77872438D02*
X142364762Y-77824819D01*
X142364762Y-77824819D02*
X142555238Y-77824819D01*
X142555238Y-77824819D02*
X142650476Y-77872438D01*
X142650476Y-77872438D02*
X142698095Y-77920057D01*
X142698095Y-77920057D02*
X142745714Y-78015295D01*
X142745714Y-78015295D02*
X142745714Y-78062914D01*
X142745714Y-78062914D02*
X142698095Y-78158152D01*
X142698095Y-78158152D02*
X142650476Y-78205771D01*
X142650476Y-78205771D02*
X142555238Y-78253390D01*
X142555238Y-78253390D02*
X142364762Y-78253390D01*
X142364762Y-78253390D02*
X142269524Y-78301009D01*
X142269524Y-78301009D02*
X142221905Y-78348628D01*
X142221905Y-78348628D02*
X142174286Y-78443866D01*
X142174286Y-78443866D02*
X142174286Y-78634342D01*
X142174286Y-78634342D02*
X142221905Y-78729580D01*
X142221905Y-78729580D02*
X142269524Y-78777200D01*
X142269524Y-78777200D02*
X142364762Y-78824819D01*
X142364762Y-78824819D02*
X142555238Y-78824819D01*
X142555238Y-78824819D02*
X142650476Y-78777200D01*
X142650476Y-78777200D02*
X142698095Y-78729580D01*
X142698095Y-78729580D02*
X142745714Y-78634342D01*
X142745714Y-78634342D02*
X142745714Y-78443866D01*
X142745714Y-78443866D02*
X142698095Y-78348628D01*
X142698095Y-78348628D02*
X142650476Y-78301009D01*
X142650476Y-78301009D02*
X142555238Y-78253390D01*
X168274819Y-108694285D02*
X167274819Y-108694285D01*
X167274819Y-108694285D02*
X167274819Y-108456190D01*
X167274819Y-108456190D02*
X167322438Y-108313333D01*
X167322438Y-108313333D02*
X167417676Y-108218095D01*
X167417676Y-108218095D02*
X167512914Y-108170476D01*
X167512914Y-108170476D02*
X167703390Y-108122857D01*
X167703390Y-108122857D02*
X167846247Y-108122857D01*
X167846247Y-108122857D02*
X168036723Y-108170476D01*
X168036723Y-108170476D02*
X168131961Y-108218095D01*
X168131961Y-108218095D02*
X168227200Y-108313333D01*
X168227200Y-108313333D02*
X168274819Y-108456190D01*
X168274819Y-108456190D02*
X168274819Y-108694285D01*
X168274819Y-107170476D02*
X168274819Y-107741904D01*
X168274819Y-107456190D02*
X167274819Y-107456190D01*
X167274819Y-107456190D02*
X167417676Y-107551428D01*
X167417676Y-107551428D02*
X167512914Y-107646666D01*
X167512914Y-107646666D02*
X167560533Y-107741904D01*
X167274819Y-106265714D02*
X167274819Y-106741904D01*
X167274819Y-106741904D02*
X167751009Y-106789523D01*
X167751009Y-106789523D02*
X167703390Y-106741904D01*
X167703390Y-106741904D02*
X167655771Y-106646666D01*
X167655771Y-106646666D02*
X167655771Y-106408571D01*
X167655771Y-106408571D02*
X167703390Y-106313333D01*
X167703390Y-106313333D02*
X167751009Y-106265714D01*
X167751009Y-106265714D02*
X167846247Y-106218095D01*
X167846247Y-106218095D02*
X168084342Y-106218095D01*
X168084342Y-106218095D02*
X168179580Y-106265714D01*
X168179580Y-106265714D02*
X168227200Y-106313333D01*
X168227200Y-106313333D02*
X168274819Y-106408571D01*
X168274819Y-106408571D02*
X168274819Y-106646666D01*
X168274819Y-106646666D02*
X168227200Y-106741904D01*
X168227200Y-106741904D02*
X168179580Y-106789523D01*
X154573333Y-97844819D02*
X154240000Y-97368628D01*
X154001905Y-97844819D02*
X154001905Y-96844819D01*
X154001905Y-96844819D02*
X154382857Y-96844819D01*
X154382857Y-96844819D02*
X154478095Y-96892438D01*
X154478095Y-96892438D02*
X154525714Y-96940057D01*
X154525714Y-96940057D02*
X154573333Y-97035295D01*
X154573333Y-97035295D02*
X154573333Y-97178152D01*
X154573333Y-97178152D02*
X154525714Y-97273390D01*
X154525714Y-97273390D02*
X154478095Y-97321009D01*
X154478095Y-97321009D02*
X154382857Y-97368628D01*
X154382857Y-97368628D02*
X154001905Y-97368628D01*
X155478095Y-96844819D02*
X155001905Y-96844819D01*
X155001905Y-96844819D02*
X154954286Y-97321009D01*
X154954286Y-97321009D02*
X155001905Y-97273390D01*
X155001905Y-97273390D02*
X155097143Y-97225771D01*
X155097143Y-97225771D02*
X155335238Y-97225771D01*
X155335238Y-97225771D02*
X155430476Y-97273390D01*
X155430476Y-97273390D02*
X155478095Y-97321009D01*
X155478095Y-97321009D02*
X155525714Y-97416247D01*
X155525714Y-97416247D02*
X155525714Y-97654342D01*
X155525714Y-97654342D02*
X155478095Y-97749580D01*
X155478095Y-97749580D02*
X155430476Y-97797200D01*
X155430476Y-97797200D02*
X155335238Y-97844819D01*
X155335238Y-97844819D02*
X155097143Y-97844819D01*
X155097143Y-97844819D02*
X155001905Y-97797200D01*
X155001905Y-97797200D02*
X154954286Y-97749580D01*
X179393333Y-83344819D02*
X179060000Y-82868628D01*
X178821905Y-83344819D02*
X178821905Y-82344819D01*
X178821905Y-82344819D02*
X179202857Y-82344819D01*
X179202857Y-82344819D02*
X179298095Y-82392438D01*
X179298095Y-82392438D02*
X179345714Y-82440057D01*
X179345714Y-82440057D02*
X179393333Y-82535295D01*
X179393333Y-82535295D02*
X179393333Y-82678152D01*
X179393333Y-82678152D02*
X179345714Y-82773390D01*
X179345714Y-82773390D02*
X179298095Y-82821009D01*
X179298095Y-82821009D02*
X179202857Y-82868628D01*
X179202857Y-82868628D02*
X178821905Y-82868628D01*
X179774286Y-82440057D02*
X179821905Y-82392438D01*
X179821905Y-82392438D02*
X179917143Y-82344819D01*
X179917143Y-82344819D02*
X180155238Y-82344819D01*
X180155238Y-82344819D02*
X180250476Y-82392438D01*
X180250476Y-82392438D02*
X180298095Y-82440057D01*
X180298095Y-82440057D02*
X180345714Y-82535295D01*
X180345714Y-82535295D02*
X180345714Y-82630533D01*
X180345714Y-82630533D02*
X180298095Y-82773390D01*
X180298095Y-82773390D02*
X179726667Y-83344819D01*
X179726667Y-83344819D02*
X180345714Y-83344819D01*
X174364819Y-76160476D02*
X173888628Y-76493809D01*
X174364819Y-76731904D02*
X173364819Y-76731904D01*
X173364819Y-76731904D02*
X173364819Y-76350952D01*
X173364819Y-76350952D02*
X173412438Y-76255714D01*
X173412438Y-76255714D02*
X173460057Y-76208095D01*
X173460057Y-76208095D02*
X173555295Y-76160476D01*
X173555295Y-76160476D02*
X173698152Y-76160476D01*
X173698152Y-76160476D02*
X173793390Y-76208095D01*
X173793390Y-76208095D02*
X173841009Y-76255714D01*
X173841009Y-76255714D02*
X173888628Y-76350952D01*
X173888628Y-76350952D02*
X173888628Y-76731904D01*
X174364819Y-75731904D02*
X173364819Y-75731904D01*
X173364819Y-75731904D02*
X174364819Y-75160476D01*
X174364819Y-75160476D02*
X173364819Y-75160476D01*
X173364819Y-74779523D02*
X173364819Y-74160476D01*
X173364819Y-74160476D02*
X173745771Y-74493809D01*
X173745771Y-74493809D02*
X173745771Y-74350952D01*
X173745771Y-74350952D02*
X173793390Y-74255714D01*
X173793390Y-74255714D02*
X173841009Y-74208095D01*
X173841009Y-74208095D02*
X173936247Y-74160476D01*
X173936247Y-74160476D02*
X174174342Y-74160476D01*
X174174342Y-74160476D02*
X174269580Y-74208095D01*
X174269580Y-74208095D02*
X174317200Y-74255714D01*
X174317200Y-74255714D02*
X174364819Y-74350952D01*
X174364819Y-74350952D02*
X174364819Y-74636666D01*
X174364819Y-74636666D02*
X174317200Y-74731904D01*
X174317200Y-74731904D02*
X174269580Y-74779523D01*
X145958095Y-70844819D02*
X145958095Y-71654342D01*
X145958095Y-71654342D02*
X146005714Y-71749580D01*
X146005714Y-71749580D02*
X146053333Y-71797200D01*
X146053333Y-71797200D02*
X146148571Y-71844819D01*
X146148571Y-71844819D02*
X146339047Y-71844819D01*
X146339047Y-71844819D02*
X146434285Y-71797200D01*
X146434285Y-71797200D02*
X146481904Y-71749580D01*
X146481904Y-71749580D02*
X146529523Y-71654342D01*
X146529523Y-71654342D02*
X146529523Y-70844819D01*
X146958095Y-70940057D02*
X147005714Y-70892438D01*
X147005714Y-70892438D02*
X147100952Y-70844819D01*
X147100952Y-70844819D02*
X147339047Y-70844819D01*
X147339047Y-70844819D02*
X147434285Y-70892438D01*
X147434285Y-70892438D02*
X147481904Y-70940057D01*
X147481904Y-70940057D02*
X147529523Y-71035295D01*
X147529523Y-71035295D02*
X147529523Y-71130533D01*
X147529523Y-71130533D02*
X147481904Y-71273390D01*
X147481904Y-71273390D02*
X146910476Y-71844819D01*
X146910476Y-71844819D02*
X147529523Y-71844819D01*
X170634819Y-101576094D02*
X169634819Y-101576094D01*
X169634819Y-101576094D02*
X169634819Y-101337999D01*
X169634819Y-101337999D02*
X169682438Y-101195142D01*
X169682438Y-101195142D02*
X169777676Y-101099904D01*
X169777676Y-101099904D02*
X169872914Y-101052285D01*
X169872914Y-101052285D02*
X170063390Y-101004666D01*
X170063390Y-101004666D02*
X170206247Y-101004666D01*
X170206247Y-101004666D02*
X170396723Y-101052285D01*
X170396723Y-101052285D02*
X170491961Y-101099904D01*
X170491961Y-101099904D02*
X170587200Y-101195142D01*
X170587200Y-101195142D02*
X170634819Y-101337999D01*
X170634819Y-101337999D02*
X170634819Y-101576094D01*
X169634819Y-100671332D02*
X169634819Y-100004666D01*
X169634819Y-100004666D02*
X170634819Y-100433237D01*
X154603333Y-88859580D02*
X154555714Y-88907200D01*
X154555714Y-88907200D02*
X154412857Y-88954819D01*
X154412857Y-88954819D02*
X154317619Y-88954819D01*
X154317619Y-88954819D02*
X154174762Y-88907200D01*
X154174762Y-88907200D02*
X154079524Y-88811961D01*
X154079524Y-88811961D02*
X154031905Y-88716723D01*
X154031905Y-88716723D02*
X153984286Y-88526247D01*
X153984286Y-88526247D02*
X153984286Y-88383390D01*
X153984286Y-88383390D02*
X154031905Y-88192914D01*
X154031905Y-88192914D02*
X154079524Y-88097676D01*
X154079524Y-88097676D02*
X154174762Y-88002438D01*
X154174762Y-88002438D02*
X154317619Y-87954819D01*
X154317619Y-87954819D02*
X154412857Y-87954819D01*
X154412857Y-87954819D02*
X154555714Y-88002438D01*
X154555714Y-88002438D02*
X154603333Y-88050057D01*
X155508095Y-87954819D02*
X155031905Y-87954819D01*
X155031905Y-87954819D02*
X154984286Y-88431009D01*
X154984286Y-88431009D02*
X155031905Y-88383390D01*
X155031905Y-88383390D02*
X155127143Y-88335771D01*
X155127143Y-88335771D02*
X155365238Y-88335771D01*
X155365238Y-88335771D02*
X155460476Y-88383390D01*
X155460476Y-88383390D02*
X155508095Y-88431009D01*
X155508095Y-88431009D02*
X155555714Y-88526247D01*
X155555714Y-88526247D02*
X155555714Y-88764342D01*
X155555714Y-88764342D02*
X155508095Y-88859580D01*
X155508095Y-88859580D02*
X155460476Y-88907200D01*
X155460476Y-88907200D02*
X155365238Y-88954819D01*
X155365238Y-88954819D02*
X155127143Y-88954819D01*
X155127143Y-88954819D02*
X155031905Y-88907200D01*
X155031905Y-88907200D02*
X154984286Y-88859580D01*
X154613333Y-84924819D02*
X154280000Y-84448628D01*
X154041905Y-84924819D02*
X154041905Y-83924819D01*
X154041905Y-83924819D02*
X154422857Y-83924819D01*
X154422857Y-83924819D02*
X154518095Y-83972438D01*
X154518095Y-83972438D02*
X154565714Y-84020057D01*
X154565714Y-84020057D02*
X154613333Y-84115295D01*
X154613333Y-84115295D02*
X154613333Y-84258152D01*
X154613333Y-84258152D02*
X154565714Y-84353390D01*
X154565714Y-84353390D02*
X154518095Y-84401009D01*
X154518095Y-84401009D02*
X154422857Y-84448628D01*
X154422857Y-84448628D02*
X154041905Y-84448628D01*
X155470476Y-83924819D02*
X155280000Y-83924819D01*
X155280000Y-83924819D02*
X155184762Y-83972438D01*
X155184762Y-83972438D02*
X155137143Y-84020057D01*
X155137143Y-84020057D02*
X155041905Y-84162914D01*
X155041905Y-84162914D02*
X154994286Y-84353390D01*
X154994286Y-84353390D02*
X154994286Y-84734342D01*
X154994286Y-84734342D02*
X155041905Y-84829580D01*
X155041905Y-84829580D02*
X155089524Y-84877200D01*
X155089524Y-84877200D02*
X155184762Y-84924819D01*
X155184762Y-84924819D02*
X155375238Y-84924819D01*
X155375238Y-84924819D02*
X155470476Y-84877200D01*
X155470476Y-84877200D02*
X155518095Y-84829580D01*
X155518095Y-84829580D02*
X155565714Y-84734342D01*
X155565714Y-84734342D02*
X155565714Y-84496247D01*
X155565714Y-84496247D02*
X155518095Y-84401009D01*
X155518095Y-84401009D02*
X155470476Y-84353390D01*
X155470476Y-84353390D02*
X155375238Y-84305771D01*
X155375238Y-84305771D02*
X155184762Y-84305771D01*
X155184762Y-84305771D02*
X155089524Y-84353390D01*
X155089524Y-84353390D02*
X155041905Y-84401009D01*
X155041905Y-84401009D02*
X154994286Y-84496247D01*
X139538095Y-117054819D02*
X140109523Y-117054819D01*
X139823809Y-118054819D02*
X139823809Y-117054819D01*
X140442857Y-118054819D02*
X140442857Y-117054819D01*
X140442857Y-117054819D02*
X140823809Y-117054819D01*
X140823809Y-117054819D02*
X140919047Y-117102438D01*
X140919047Y-117102438D02*
X140966666Y-117150057D01*
X140966666Y-117150057D02*
X141014285Y-117245295D01*
X141014285Y-117245295D02*
X141014285Y-117388152D01*
X141014285Y-117388152D02*
X140966666Y-117483390D01*
X140966666Y-117483390D02*
X140919047Y-117531009D01*
X140919047Y-117531009D02*
X140823809Y-117578628D01*
X140823809Y-117578628D02*
X140442857Y-117578628D01*
X141871428Y-117388152D02*
X141871428Y-118054819D01*
X141633333Y-117007200D02*
X141395238Y-117721485D01*
X141395238Y-117721485D02*
X142014285Y-117721485D01*
X167314819Y-80683094D02*
X166314819Y-80683094D01*
X166314819Y-80683094D02*
X166314819Y-80444999D01*
X166314819Y-80444999D02*
X166362438Y-80302142D01*
X166362438Y-80302142D02*
X166457676Y-80206904D01*
X166457676Y-80206904D02*
X166552914Y-80159285D01*
X166552914Y-80159285D02*
X166743390Y-80111666D01*
X166743390Y-80111666D02*
X166886247Y-80111666D01*
X166886247Y-80111666D02*
X167076723Y-80159285D01*
X167076723Y-80159285D02*
X167171961Y-80206904D01*
X167171961Y-80206904D02*
X167267200Y-80302142D01*
X167267200Y-80302142D02*
X167314819Y-80444999D01*
X167314819Y-80444999D02*
X167314819Y-80683094D01*
X166314819Y-79778332D02*
X166314819Y-79159285D01*
X166314819Y-79159285D02*
X166695771Y-79492618D01*
X166695771Y-79492618D02*
X166695771Y-79349761D01*
X166695771Y-79349761D02*
X166743390Y-79254523D01*
X166743390Y-79254523D02*
X166791009Y-79206904D01*
X166791009Y-79206904D02*
X166886247Y-79159285D01*
X166886247Y-79159285D02*
X167124342Y-79159285D01*
X167124342Y-79159285D02*
X167219580Y-79206904D01*
X167219580Y-79206904D02*
X167267200Y-79254523D01*
X167267200Y-79254523D02*
X167314819Y-79349761D01*
X167314819Y-79349761D02*
X167314819Y-79635475D01*
X167314819Y-79635475D02*
X167267200Y-79730713D01*
X167267200Y-79730713D02*
X167219580Y-79778332D01*
X161698243Y-100733419D02*
X160991137Y-100026312D01*
X160991137Y-100026312D02*
X161159495Y-99857953D01*
X161159495Y-99857953D02*
X161294182Y-99790610D01*
X161294182Y-99790610D02*
X161428869Y-99790610D01*
X161428869Y-99790610D02*
X161529885Y-99824282D01*
X161529885Y-99824282D02*
X161698243Y-99925297D01*
X161698243Y-99925297D02*
X161799259Y-100026312D01*
X161799259Y-100026312D02*
X161900274Y-100194671D01*
X161900274Y-100194671D02*
X161933946Y-100295686D01*
X161933946Y-100295686D02*
X161933946Y-100430373D01*
X161933946Y-100430373D02*
X161866602Y-100565060D01*
X161866602Y-100565060D02*
X161698243Y-100733419D01*
X162102304Y-99521236D02*
X162001289Y-99554908D01*
X162001289Y-99554908D02*
X161933946Y-99554908D01*
X161933946Y-99554908D02*
X161832930Y-99521236D01*
X161832930Y-99521236D02*
X161799259Y-99487564D01*
X161799259Y-99487564D02*
X161765587Y-99386549D01*
X161765587Y-99386549D02*
X161765587Y-99319205D01*
X161765587Y-99319205D02*
X161799259Y-99218190D01*
X161799259Y-99218190D02*
X161933946Y-99083503D01*
X161933946Y-99083503D02*
X162034961Y-99049831D01*
X162034961Y-99049831D02*
X162102304Y-99049831D01*
X162102304Y-99049831D02*
X162203320Y-99083503D01*
X162203320Y-99083503D02*
X162236991Y-99117175D01*
X162236991Y-99117175D02*
X162270663Y-99218190D01*
X162270663Y-99218190D02*
X162270663Y-99285534D01*
X162270663Y-99285534D02*
X162236991Y-99386549D01*
X162236991Y-99386549D02*
X162102304Y-99521236D01*
X162102304Y-99521236D02*
X162068633Y-99622251D01*
X162068633Y-99622251D02*
X162068633Y-99689595D01*
X162068633Y-99689595D02*
X162102304Y-99790610D01*
X162102304Y-99790610D02*
X162236991Y-99925297D01*
X162236991Y-99925297D02*
X162338007Y-99958969D01*
X162338007Y-99958969D02*
X162405350Y-99958969D01*
X162405350Y-99958969D02*
X162506365Y-99925297D01*
X162506365Y-99925297D02*
X162641052Y-99790610D01*
X162641052Y-99790610D02*
X162674724Y-99689595D01*
X162674724Y-99689595D02*
X162674724Y-99622251D01*
X162674724Y-99622251D02*
X162641052Y-99521236D01*
X162641052Y-99521236D02*
X162506365Y-99386549D01*
X162506365Y-99386549D02*
X162405350Y-99352877D01*
X162405350Y-99352877D02*
X162338007Y-99352877D01*
X162338007Y-99352877D02*
X162236991Y-99386549D01*
X178538095Y-65564819D02*
X179109523Y-65564819D01*
X178823809Y-66564819D02*
X178823809Y-65564819D01*
X179442857Y-66564819D02*
X179442857Y-65564819D01*
X179442857Y-65564819D02*
X179823809Y-65564819D01*
X179823809Y-65564819D02*
X179919047Y-65612438D01*
X179919047Y-65612438D02*
X179966666Y-65660057D01*
X179966666Y-65660057D02*
X180014285Y-65755295D01*
X180014285Y-65755295D02*
X180014285Y-65898152D01*
X180014285Y-65898152D02*
X179966666Y-65993390D01*
X179966666Y-65993390D02*
X179919047Y-66041009D01*
X179919047Y-66041009D02*
X179823809Y-66088628D01*
X179823809Y-66088628D02*
X179442857Y-66088628D01*
X180966666Y-66564819D02*
X180395238Y-66564819D01*
X180680952Y-66564819D02*
X180680952Y-65564819D01*
X180680952Y-65564819D02*
X180585714Y-65707676D01*
X180585714Y-65707676D02*
X180490476Y-65802914D01*
X180490476Y-65802914D02*
X180395238Y-65850533D01*
X164975833Y-101529580D02*
X164928214Y-101577200D01*
X164928214Y-101577200D02*
X164785357Y-101624819D01*
X164785357Y-101624819D02*
X164690119Y-101624819D01*
X164690119Y-101624819D02*
X164547262Y-101577200D01*
X164547262Y-101577200D02*
X164452024Y-101481961D01*
X164452024Y-101481961D02*
X164404405Y-101386723D01*
X164404405Y-101386723D02*
X164356786Y-101196247D01*
X164356786Y-101196247D02*
X164356786Y-101053390D01*
X164356786Y-101053390D02*
X164404405Y-100862914D01*
X164404405Y-100862914D02*
X164452024Y-100767676D01*
X164452024Y-100767676D02*
X164547262Y-100672438D01*
X164547262Y-100672438D02*
X164690119Y-100624819D01*
X164690119Y-100624819D02*
X164785357Y-100624819D01*
X164785357Y-100624819D02*
X164928214Y-100672438D01*
X164928214Y-100672438D02*
X164975833Y-100720057D01*
X165832976Y-100624819D02*
X165642500Y-100624819D01*
X165642500Y-100624819D02*
X165547262Y-100672438D01*
X165547262Y-100672438D02*
X165499643Y-100720057D01*
X165499643Y-100720057D02*
X165404405Y-100862914D01*
X165404405Y-100862914D02*
X165356786Y-101053390D01*
X165356786Y-101053390D02*
X165356786Y-101434342D01*
X165356786Y-101434342D02*
X165404405Y-101529580D01*
X165404405Y-101529580D02*
X165452024Y-101577200D01*
X165452024Y-101577200D02*
X165547262Y-101624819D01*
X165547262Y-101624819D02*
X165737738Y-101624819D01*
X165737738Y-101624819D02*
X165832976Y-101577200D01*
X165832976Y-101577200D02*
X165880595Y-101529580D01*
X165880595Y-101529580D02*
X165928214Y-101434342D01*
X165928214Y-101434342D02*
X165928214Y-101196247D01*
X165928214Y-101196247D02*
X165880595Y-101101009D01*
X165880595Y-101101009D02*
X165832976Y-101053390D01*
X165832976Y-101053390D02*
X165737738Y-101005771D01*
X165737738Y-101005771D02*
X165547262Y-101005771D01*
X165547262Y-101005771D02*
X165452024Y-101053390D01*
X165452024Y-101053390D02*
X165404405Y-101101009D01*
X165404405Y-101101009D02*
X165356786Y-101196247D01*
X158818095Y-70924819D02*
X158818095Y-71734342D01*
X158818095Y-71734342D02*
X158865714Y-71829580D01*
X158865714Y-71829580D02*
X158913333Y-71877200D01*
X158913333Y-71877200D02*
X159008571Y-71924819D01*
X159008571Y-71924819D02*
X159199047Y-71924819D01*
X159199047Y-71924819D02*
X159294285Y-71877200D01*
X159294285Y-71877200D02*
X159341904Y-71829580D01*
X159341904Y-71829580D02*
X159389523Y-71734342D01*
X159389523Y-71734342D02*
X159389523Y-70924819D01*
X160389523Y-71924819D02*
X159818095Y-71924819D01*
X160103809Y-71924819D02*
X160103809Y-70924819D01*
X160103809Y-70924819D02*
X160008571Y-71067676D01*
X160008571Y-71067676D02*
X159913333Y-71162914D01*
X159913333Y-71162914D02*
X159818095Y-71210533D01*
X157268095Y-106884819D02*
X157839523Y-106884819D01*
X157553809Y-107884819D02*
X157553809Y-106884819D01*
X158172857Y-107884819D02*
X158172857Y-106884819D01*
X158172857Y-106884819D02*
X158553809Y-106884819D01*
X158553809Y-106884819D02*
X158649047Y-106932438D01*
X158649047Y-106932438D02*
X158696666Y-106980057D01*
X158696666Y-106980057D02*
X158744285Y-107075295D01*
X158744285Y-107075295D02*
X158744285Y-107218152D01*
X158744285Y-107218152D02*
X158696666Y-107313390D01*
X158696666Y-107313390D02*
X158649047Y-107361009D01*
X158649047Y-107361009D02*
X158553809Y-107408628D01*
X158553809Y-107408628D02*
X158172857Y-107408628D01*
X159601428Y-106884819D02*
X159410952Y-106884819D01*
X159410952Y-106884819D02*
X159315714Y-106932438D01*
X159315714Y-106932438D02*
X159268095Y-106980057D01*
X159268095Y-106980057D02*
X159172857Y-107122914D01*
X159172857Y-107122914D02*
X159125238Y-107313390D01*
X159125238Y-107313390D02*
X159125238Y-107694342D01*
X159125238Y-107694342D02*
X159172857Y-107789580D01*
X159172857Y-107789580D02*
X159220476Y-107837200D01*
X159220476Y-107837200D02*
X159315714Y-107884819D01*
X159315714Y-107884819D02*
X159506190Y-107884819D01*
X159506190Y-107884819D02*
X159601428Y-107837200D01*
X159601428Y-107837200D02*
X159649047Y-107789580D01*
X159649047Y-107789580D02*
X159696666Y-107694342D01*
X159696666Y-107694342D02*
X159696666Y-107456247D01*
X159696666Y-107456247D02*
X159649047Y-107361009D01*
X159649047Y-107361009D02*
X159601428Y-107313390D01*
X159601428Y-107313390D02*
X159506190Y-107265771D01*
X159506190Y-107265771D02*
X159315714Y-107265771D01*
X159315714Y-107265771D02*
X159220476Y-107313390D01*
X159220476Y-107313390D02*
X159172857Y-107361009D01*
X159172857Y-107361009D02*
X159125238Y-107456247D01*
D11*
%TO.C,kibuzzard-662EB702*%
G36*
X132973034Y-94623560D02*
G01*
X133036502Y-94695542D01*
X133069009Y-94799257D01*
X133078297Y-94920000D01*
X133075395Y-94988305D01*
X133066687Y-95050805D01*
X133027988Y-95153746D01*
X132956780Y-95221858D01*
X132847647Y-95246625D01*
X132830619Y-95246625D01*
X132813591Y-95245077D01*
X132813591Y-94601115D01*
X132841455Y-94597245D01*
X132869319Y-94596471D01*
X132973034Y-94623560D01*
G37*
G36*
X133529794Y-95677998D02*
G01*
X133271796Y-95677998D01*
X132827523Y-95677998D01*
X132315139Y-95677998D01*
X131425046Y-95677998D01*
X131033406Y-95677998D01*
X130775408Y-95677998D01*
X130775408Y-94920000D01*
X131033406Y-94920000D01*
X131040372Y-95036293D01*
X131061269Y-95137492D01*
X131094938Y-95223406D01*
X131140217Y-95293839D01*
X131196525Y-95348793D01*
X131263282Y-95388266D01*
X131339714Y-95412067D01*
X131425046Y-95420000D01*
X131519667Y-95416130D01*
X131599195Y-95404520D01*
X131705232Y-95376656D01*
X131705232Y-94898328D01*
X131514830Y-94898328D01*
X131514830Y-95248173D01*
X131477678Y-95252817D01*
X131440526Y-95254365D01*
X131348034Y-95234048D01*
X131281084Y-95173096D01*
X131250984Y-95108854D01*
X131232924Y-95024489D01*
X131226904Y-94920000D01*
X131230193Y-94848986D01*
X131240062Y-94784551D01*
X131283406Y-94679288D01*
X131360031Y-94610402D01*
X131474582Y-94585635D01*
X131576749Y-94602663D01*
X131660341Y-94641362D01*
X131709876Y-94489659D01*
X131678142Y-94471084D01*
X131624737Y-94447864D01*
X131600217Y-94441672D01*
X131836811Y-94441672D01*
X131836811Y-95399876D01*
X132008638Y-95399876D01*
X132008638Y-94763653D01*
X132066171Y-94869862D01*
X132121125Y-94975900D01*
X132173498Y-95081765D01*
X132223292Y-95187630D01*
X132270506Y-95293667D01*
X132315139Y-95399876D01*
X132468390Y-95399876D01*
X132468390Y-95389040D01*
X132623189Y-95389040D01*
X132727678Y-95406842D01*
X132827523Y-95412260D01*
X132920983Y-95405488D01*
X133006316Y-95385170D01*
X133081974Y-95350147D01*
X133146409Y-95299257D01*
X133198847Y-95231726D01*
X133238514Y-95146780D01*
X133263475Y-95043259D01*
X133271796Y-94920000D01*
X133264249Y-94799450D01*
X133241610Y-94697864D01*
X133205426Y-94613885D01*
X133157245Y-94546161D01*
X133097067Y-94494497D01*
X133024892Y-94458700D01*
X132942655Y-94437802D01*
X132852291Y-94430836D01*
X132745480Y-94435480D01*
X132623189Y-94454056D01*
X132623189Y-95389040D01*
X132468390Y-95389040D01*
X132468390Y-94441672D01*
X132296563Y-94441672D01*
X132296563Y-95031455D01*
X132269280Y-94971084D01*
X132236966Y-94901424D01*
X132200588Y-94825960D01*
X132161115Y-94748173D01*
X132119512Y-94669033D01*
X132076749Y-94589505D01*
X132033406Y-94512686D01*
X131990062Y-94441672D01*
X131836811Y-94441672D01*
X131600217Y-94441672D01*
X131548111Y-94428514D01*
X131448266Y-94420000D01*
X131364288Y-94427933D01*
X131285728Y-94451734D01*
X131214907Y-94491401D01*
X131154149Y-94546935D01*
X131104226Y-94617949D01*
X131065913Y-94704056D01*
X131041533Y-94804868D01*
X131033406Y-94920000D01*
X130775408Y-94920000D01*
X130775408Y-94162002D01*
X131033406Y-94162002D01*
X133271796Y-94162002D01*
X133529794Y-94162002D01*
X133984592Y-94162002D01*
X133529794Y-95677998D01*
G37*
D12*
%TO.C,D2*%
X159345896Y-83138542D02*
X161368221Y-85160867D01*
X161368221Y-85160867D02*
X162725866Y-83803222D01*
X162725866Y-83803222D02*
X160703541Y-81780897D01*
%TO.C,D14*%
X161470000Y-111130000D02*
X161470000Y-103830000D01*
X166970000Y-103830000D02*
X165820000Y-103830000D01*
X166970000Y-111130000D02*
X166970000Y-103830000D01*
%TO.C,J5*%
X127990000Y-88510000D02*
X127990000Y-96190000D01*
X127990000Y-88510000D02*
X130650000Y-88510000D01*
X127990000Y-96190000D02*
X130650000Y-96190000D01*
X129320000Y-85910000D02*
X130650000Y-85910000D01*
X130650000Y-85910000D02*
X130650000Y-87240000D01*
X130650000Y-88510000D02*
X130650000Y-96190000D01*
%TO.C,D16*%
X175700000Y-111130000D02*
X175700000Y-103830000D01*
X181200000Y-103830000D02*
X180050000Y-103830000D01*
X181200000Y-111130000D02*
X181200000Y-103830000D01*
%TO.C,D4*%
X174294133Y-83803222D02*
X175651778Y-85160867D01*
X175651778Y-85160867D02*
X177674103Y-83138542D01*
X176316458Y-81780897D02*
X174294133Y-83803222D01*
%TO.C,C7*%
X171971248Y-101995000D02*
X172493752Y-101995000D01*
X171971248Y-103465000D02*
X172493752Y-103465000D01*
%TO.C,R4*%
X157302936Y-85735000D02*
X157757064Y-85735000D01*
X157302936Y-87205000D02*
X157757064Y-87205000D01*
%TO.C,C3*%
X179811252Y-87835000D02*
X179288748Y-87835000D01*
X179811252Y-89305000D02*
X179288748Y-89305000D01*
D10*
%TO.C,TP5*%
X159800000Y-104990000D02*
G75*
G02*
X157260000Y-104990000I-1270000J0D01*
G01*
X157260000Y-104990000D02*
G75*
G02*
X159800000Y-104990000I1270000J0D01*
G01*
D11*
%TO.C,G\u002A\u002A\u002A*%
G36*
X181244554Y-93902668D02*
G01*
X181245937Y-94102864D01*
X181245668Y-94283347D01*
X181243884Y-94435891D01*
X181240719Y-94552269D01*
X181236311Y-94624254D01*
X181232319Y-94644113D01*
X181192287Y-94657150D01*
X181118776Y-94663922D01*
X181100238Y-94664191D01*
X181022866Y-94657567D01*
X180984789Y-94631318D01*
X180972050Y-94598121D01*
X180967749Y-94550533D01*
X180964604Y-94453525D01*
X180962712Y-94316395D01*
X180962174Y-94148442D01*
X180963088Y-93958965D01*
X180964149Y-93856676D01*
X180972434Y-93181300D01*
X181104573Y-93181300D01*
X181236712Y-93181300D01*
X181244554Y-93902668D01*
G37*
G36*
X180796249Y-98143844D02*
G01*
X180796249Y-98320029D01*
X180348446Y-98328135D01*
X179900642Y-98336241D01*
X179900642Y-98629117D01*
X179900642Y-98921994D01*
X180355787Y-98921994D01*
X180810931Y-98921994D01*
X180810931Y-99099101D01*
X180804612Y-99215230D01*
X180786163Y-99279440D01*
X180774046Y-99290362D01*
X180736899Y-99293473D01*
X180648049Y-99295905D01*
X180514518Y-99297615D01*
X180343328Y-99298561D01*
X180141500Y-99298699D01*
X179916057Y-99297986D01*
X179724277Y-99296781D01*
X178711394Y-99289046D01*
X178711394Y-99112861D01*
X178711394Y-98936676D01*
X179122492Y-98921994D01*
X179533590Y-98907312D01*
X179541985Y-98621824D01*
X179550379Y-98336336D01*
X179130887Y-98328182D01*
X178711394Y-98320029D01*
X178711394Y-98143844D01*
X178711394Y-97967659D01*
X179753821Y-97967659D01*
X180796249Y-97967659D01*
X180796249Y-98143844D01*
G37*
G36*
X180796249Y-95029582D02*
G01*
X180796249Y-95233470D01*
X180129862Y-95499408D01*
X179463475Y-95765347D01*
X180129862Y-95780029D01*
X180796249Y-95794711D01*
X180805136Y-95949201D01*
X180804759Y-96054881D01*
X180787675Y-96109507D01*
X180775592Y-96118439D01*
X180738070Y-96121690D01*
X180648860Y-96124250D01*
X180514996Y-96126073D01*
X180343515Y-96127111D01*
X180141453Y-96127317D01*
X179915845Y-96126645D01*
X179724277Y-96125452D01*
X178711394Y-96117717D01*
X178702729Y-95920281D01*
X178694064Y-95722846D01*
X178820185Y-95665872D01*
X178886932Y-95637228D01*
X178997383Y-95591532D01*
X179140591Y-95533238D01*
X179305613Y-95466799D01*
X179481502Y-95396670D01*
X179489544Y-95393481D01*
X180032781Y-95178063D01*
X179372087Y-95163381D01*
X178711394Y-95148699D01*
X178711394Y-94987196D01*
X178711394Y-94825694D01*
X179753821Y-94825694D01*
X180796249Y-94825694D01*
X180796249Y-95029582D01*
G37*
G36*
X180796065Y-96293122D02*
G01*
X180806502Y-96342179D01*
X180805525Y-96437414D01*
X180805056Y-96446653D01*
X180796249Y-96614086D01*
X180495357Y-96691264D01*
X180370597Y-96724088D01*
X180268694Y-96752452D01*
X180202016Y-96772818D01*
X180182512Y-96780767D01*
X180186578Y-96810902D01*
X180205211Y-96880972D01*
X180233475Y-96975520D01*
X180266436Y-97079083D01*
X180299158Y-97176204D01*
X180326706Y-97251421D01*
X180344146Y-97289275D01*
X180345222Y-97290482D01*
X180377579Y-97301458D01*
X180448860Y-97319136D01*
X180503693Y-97331206D01*
X180639708Y-97361578D01*
X180728208Y-97389590D01*
X180779386Y-97423790D01*
X180803434Y-97472731D01*
X180810543Y-97544961D01*
X180810931Y-97588951D01*
X180810931Y-97754934D01*
X180700816Y-97736514D01*
X180608338Y-97719146D01*
X180530000Y-97701411D01*
X180524194Y-97699858D01*
X180477048Y-97693767D01*
X180472478Y-97719234D01*
X180476010Y-97729367D01*
X180472228Y-97768984D01*
X180421935Y-97806010D01*
X180385472Y-97822596D01*
X180285689Y-97855225D01*
X180219198Y-97847719D01*
X180171455Y-97794009D01*
X180139238Y-97719853D01*
X180091159Y-97589504D01*
X179943509Y-97552564D01*
X179428230Y-97423650D01*
X179238181Y-97375580D01*
X179066440Y-97331146D01*
X178921481Y-97292620D01*
X178811777Y-97262277D01*
X178745800Y-97242389D01*
X178731006Y-97236602D01*
X178712962Y-97197469D01*
X178701589Y-97119122D01*
X178697835Y-97038231D01*
X179262786Y-97038231D01*
X179301956Y-97042688D01*
X179358299Y-97049710D01*
X179452275Y-97068237D01*
X179564822Y-97094459D01*
X179579447Y-97098139D01*
X179734652Y-97137378D01*
X179841413Y-97163345D01*
X179908206Y-97177225D01*
X179943509Y-97180204D01*
X179955798Y-97173466D01*
X179953551Y-97158197D01*
X179950497Y-97150010D01*
X179932088Y-97096087D01*
X179906162Y-97013688D01*
X179898089Y-96987016D01*
X179867421Y-96913061D01*
X179833303Y-96870534D01*
X179821806Y-96866503D01*
X179776173Y-96873452D01*
X179689857Y-96891951D01*
X179578932Y-96918474D01*
X179540153Y-96928262D01*
X179407703Y-96965112D01*
X179314149Y-96997249D01*
X179264255Y-97022386D01*
X179262786Y-97038231D01*
X178697835Y-97038231D01*
X178697016Y-97020583D01*
X178699373Y-96920870D01*
X178708788Y-96839003D01*
X178725392Y-96794002D01*
X178727985Y-96791912D01*
X178763456Y-96780191D01*
X178847972Y-96756598D01*
X178973516Y-96723142D01*
X179132071Y-96681836D01*
X179315617Y-96634690D01*
X179516138Y-96583716D01*
X179725616Y-96530925D01*
X179936032Y-96478326D01*
X180139369Y-96427933D01*
X180327610Y-96381755D01*
X180492735Y-96341804D01*
X180626728Y-96310090D01*
X180721570Y-96288625D01*
X180769244Y-96279421D01*
X180772039Y-96279220D01*
X180796065Y-96293122D01*
G37*
%TO.C,kibuzzard-662EB6E1*%
G36*
X133959735Y-90597998D02*
G01*
X133701737Y-90597998D01*
X132673873Y-90597998D01*
X131800808Y-90597998D01*
X131503595Y-90597998D01*
X131245597Y-90597998D01*
X131025095Y-90267245D01*
X131503595Y-90267245D01*
X131610406Y-90314458D01*
X131693610Y-90333615D01*
X131800808Y-90340000D01*
X131909426Y-90331830D01*
X131997919Y-90307320D01*
X132066288Y-90266471D01*
X132131884Y-90177655D01*
X132153750Y-90058266D01*
X132147171Y-89986091D01*
X132127434Y-89927461D01*
X132060096Y-89840774D01*
X132058849Y-89840000D01*
X132257465Y-89840000D01*
X132264140Y-89953100D01*
X132284168Y-90052461D01*
X132317546Y-90138084D01*
X132364276Y-90209969D01*
X132446147Y-90282208D01*
X132549346Y-90325552D01*
X132673873Y-90340000D01*
X132758432Y-90334776D01*
X132832542Y-90319102D01*
X132941675Y-90273437D01*
X132893688Y-90123282D01*
X132815514Y-90157337D01*
X132692449Y-90174365D01*
X132581962Y-90152500D01*
X132507465Y-90086904D01*
X132476075Y-90020083D01*
X132457241Y-89936233D01*
X132450963Y-89835356D01*
X132456188Y-89748669D01*
X132471861Y-89677461D01*
X132526041Y-89576068D01*
X132601892Y-89521889D01*
X132689353Y-89505635D01*
X132804678Y-89521889D01*
X132890592Y-89561362D01*
X132940127Y-89409659D01*
X132908394Y-89391084D01*
X132856536Y-89367864D01*
X132833502Y-89361672D01*
X133099570Y-89361672D01*
X133099570Y-90319876D01*
X133701737Y-90319876D01*
X133701737Y-90161981D01*
X133291520Y-90161981D01*
X133291520Y-89361672D01*
X133099570Y-89361672D01*
X132833502Y-89361672D01*
X132784555Y-89348514D01*
X132692449Y-89340000D01*
X132601698Y-89348320D01*
X132518301Y-89373282D01*
X132443997Y-89414303D01*
X132380530Y-89470805D01*
X132328866Y-89542206D01*
X132289972Y-89627926D01*
X132265592Y-89727384D01*
X132257465Y-89840000D01*
X132058849Y-89840000D01*
X131970313Y-89785046D01*
X131876660Y-89747121D01*
X131817062Y-89723901D01*
X131762883Y-89695263D01*
X131723409Y-89658111D01*
X131707929Y-89609350D01*
X131724785Y-89548290D01*
X131775353Y-89511655D01*
X131859632Y-89499443D01*
X131968765Y-89514923D01*
X132054678Y-89552074D01*
X132110406Y-89405015D01*
X131999725Y-89360124D01*
X131928324Y-89345031D01*
X131845700Y-89340000D01*
X131750843Y-89348428D01*
X131670605Y-89373712D01*
X131604988Y-89415851D01*
X131539392Y-89506409D01*
X131517527Y-89626378D01*
X131542294Y-89740155D01*
X131604988Y-89816780D01*
X131689353Y-89867864D01*
X131779137Y-89903467D01*
X131844152Y-89930557D01*
X131902976Y-89963065D01*
X131946319Y-90004087D01*
X131963347Y-90056718D01*
X131956381Y-90102384D01*
X131930839Y-90142632D01*
X131880530Y-90170495D01*
X131800808Y-90180557D01*
X131723603Y-90175139D01*
X131659168Y-90158885D01*
X131559322Y-90112446D01*
X131503595Y-90267245D01*
X131025095Y-90267245D01*
X130740265Y-89840000D01*
X131245597Y-89082002D01*
X131503595Y-89082002D01*
X133701737Y-89082002D01*
X133959735Y-89082002D01*
X133959735Y-90597998D01*
G37*
D12*
%TO.C,D5*%
X177650000Y-89985000D02*
X177650000Y-91905000D01*
X177650000Y-91905000D02*
X180510000Y-91905000D01*
X180510000Y-89985000D02*
X177650000Y-89985000D01*
D10*
%TO.C,TP2*%
X158520000Y-100960000D02*
G75*
G02*
X155980000Y-100960000I-1270000J0D01*
G01*
X155980000Y-100960000D02*
G75*
G02*
X158520000Y-100960000I1270000J0D01*
G01*
D12*
%TO.C,RN2*%
X165840000Y-74450000D02*
X165840000Y-76550000D01*
X171180000Y-74450000D02*
X171180000Y-76550000D01*
%TO.C,C2*%
X172531252Y-98785000D02*
X172008748Y-98785000D01*
X172531252Y-100255000D02*
X172008748Y-100255000D01*
D10*
%TO.C,TP3*%
X158530000Y-82300000D02*
G75*
G02*
X155990000Y-82300000I-1270000J0D01*
G01*
X155990000Y-82300000D02*
G75*
G02*
X158530000Y-82300000I1270000J0D01*
G01*
D12*
%TO.C,C4*%
X157248748Y-92595000D02*
X157771252Y-92595000D01*
X157248748Y-94065000D02*
X157771252Y-94065000D01*
%TO.C,J6*%
X128750000Y-106370000D02*
X128750000Y-109030000D01*
X136430000Y-106370000D02*
X128750000Y-106370000D01*
X136430000Y-106370000D02*
X136430000Y-109030000D01*
X136430000Y-109030000D02*
X128750000Y-109030000D01*
X137700000Y-106370000D02*
X139030000Y-106370000D01*
X139030000Y-106370000D02*
X139030000Y-107700000D01*
%TO.C,R1*%
X179777064Y-85805000D02*
X179322936Y-85805000D01*
X179777064Y-87275000D02*
X179322936Y-87275000D01*
%TO.C,R3*%
X157282936Y-94625000D02*
X157737064Y-94625000D01*
X157282936Y-96095000D02*
X157737064Y-96095000D01*
%TO.C,C8*%
X179078748Y-101985000D02*
X179601252Y-101985000D01*
X179078748Y-103455000D02*
X179601252Y-103455000D01*
%TO.C,J7*%
X128750000Y-110870000D02*
X128750000Y-113530000D01*
X136430000Y-110870000D02*
X128750000Y-110870000D01*
X136430000Y-110870000D02*
X136430000Y-113530000D01*
X136430000Y-113530000D02*
X128750000Y-113530000D01*
X137700000Y-110870000D02*
X139030000Y-110870000D01*
X139030000Y-110870000D02*
X139030000Y-112200000D01*
%TO.C,U3*%
X152930000Y-105035000D02*
X150980000Y-105035000D01*
X152930000Y-105035000D02*
X154880000Y-105035000D01*
X152930000Y-110155000D02*
X150980000Y-110155000D01*
X152930000Y-110155000D02*
X154880000Y-110155000D01*
X155870000Y-110390000D02*
X155390000Y-110390000D01*
X155630000Y-110060000D01*
X155870000Y-110390000D01*
G36*
X155870000Y-110390000D02*
G01*
X155390000Y-110390000D01*
X155630000Y-110060000D01*
X155870000Y-110390000D01*
G37*
%TO.C,M1*%
X128730000Y-115430000D02*
X128730000Y-118090000D01*
X133870000Y-115430000D02*
X128730000Y-115430000D01*
X133870000Y-115430000D02*
X133870000Y-118090000D01*
X133870000Y-118090000D02*
X128730000Y-118090000D01*
X135140000Y-115430000D02*
X136470000Y-115430000D01*
X136470000Y-115430000D02*
X136470000Y-116760000D01*
D11*
%TO.C,kibuzzard-662EB6D3*%
G36*
X133389756Y-87090372D02*
G01*
X133414524Y-87186347D01*
X133435421Y-87281548D01*
X133453997Y-87380619D01*
X133266691Y-87380619D01*
X133286041Y-87281548D01*
X133307712Y-87186347D01*
X133332480Y-87090372D01*
X133361118Y-86987430D01*
X133389756Y-87090372D01*
G37*
G36*
X132635112Y-86983560D02*
G01*
X132698579Y-87055542D01*
X132731087Y-87159257D01*
X132740375Y-87280000D01*
X132737472Y-87348305D01*
X132728765Y-87410805D01*
X132690065Y-87513746D01*
X132618858Y-87581858D01*
X132509725Y-87606625D01*
X132492697Y-87606625D01*
X132475669Y-87605077D01*
X132475669Y-86961115D01*
X132503533Y-86957245D01*
X132531397Y-86956471D01*
X132635112Y-86983560D01*
G37*
G36*
X133993729Y-88037998D02*
G01*
X133735731Y-88037998D01*
X133531397Y-88037998D01*
X132489601Y-88037998D01*
X131786815Y-88037998D01*
X131489601Y-88037998D01*
X131231603Y-88037998D01*
X131011101Y-87707245D01*
X131489601Y-87707245D01*
X131596412Y-87754458D01*
X131679616Y-87773615D01*
X131786815Y-87780000D01*
X131895432Y-87771830D01*
X131977715Y-87749040D01*
X132285267Y-87749040D01*
X132389756Y-87766842D01*
X132489601Y-87772260D01*
X132583061Y-87765488D01*
X132606631Y-87759876D01*
X132989601Y-87759876D01*
X133187743Y-87759876D01*
X133231087Y-87538514D01*
X133486505Y-87538514D01*
X133531397Y-87759876D01*
X133735731Y-87759876D01*
X133710189Y-87651238D01*
X133684338Y-87545759D01*
X133658177Y-87443437D01*
X133631706Y-87344272D01*
X133604926Y-87248266D01*
X133571209Y-87131829D01*
X133537395Y-87018584D01*
X133503484Y-86908531D01*
X133469477Y-86801672D01*
X133262047Y-86801672D01*
X133229249Y-86907661D01*
X133195870Y-87016649D01*
X133161911Y-87128636D01*
X133127372Y-87243622D01*
X133099570Y-87338824D01*
X133071892Y-87438050D01*
X133044338Y-87541300D01*
X133016907Y-87648576D01*
X132989601Y-87759876D01*
X132606631Y-87759876D01*
X132668394Y-87745170D01*
X132744051Y-87710147D01*
X132808486Y-87659257D01*
X132860924Y-87591726D01*
X132900592Y-87506780D01*
X132925553Y-87403259D01*
X132933873Y-87280000D01*
X132926327Y-87159450D01*
X132903688Y-87057864D01*
X132867503Y-86973885D01*
X132819322Y-86906161D01*
X132759144Y-86854497D01*
X132686969Y-86818700D01*
X132604733Y-86797802D01*
X132514369Y-86790836D01*
X132407558Y-86795480D01*
X132285267Y-86814056D01*
X132285267Y-87749040D01*
X131977715Y-87749040D01*
X131983925Y-87747320D01*
X132052294Y-87706471D01*
X132117890Y-87617655D01*
X132139756Y-87498266D01*
X132133177Y-87426091D01*
X132113440Y-87367461D01*
X132046103Y-87280774D01*
X131956319Y-87225046D01*
X131862666Y-87187121D01*
X131803068Y-87163901D01*
X131748889Y-87135263D01*
X131709415Y-87098111D01*
X131693935Y-87049350D01*
X131710791Y-86988290D01*
X131761359Y-86951655D01*
X131845638Y-86939443D01*
X131954771Y-86954923D01*
X132040685Y-86992074D01*
X132096412Y-86845015D01*
X131985731Y-86800124D01*
X131914330Y-86785031D01*
X131831706Y-86780000D01*
X131736849Y-86788428D01*
X131656612Y-86813712D01*
X131590994Y-86855851D01*
X131525398Y-86946409D01*
X131503533Y-87066378D01*
X131528301Y-87180155D01*
X131590994Y-87256780D01*
X131675359Y-87307864D01*
X131765143Y-87343467D01*
X131830158Y-87370557D01*
X131888982Y-87403065D01*
X131932325Y-87444087D01*
X131949353Y-87496718D01*
X131942387Y-87542384D01*
X131916846Y-87582632D01*
X131866536Y-87610495D01*
X131786815Y-87620557D01*
X131709609Y-87615139D01*
X131645174Y-87598885D01*
X131545329Y-87552446D01*
X131489601Y-87707245D01*
X131011101Y-87707245D01*
X130726271Y-87280000D01*
X131231603Y-86522002D01*
X131489601Y-86522002D01*
X133735731Y-86522002D01*
X133993729Y-86522002D01*
X133993729Y-88037998D01*
G37*
%TO.C,kibuzzard-662EBB86*%
G36*
X154401797Y-110699912D02*
G01*
X154456709Y-110726869D01*
X154492053Y-110775391D01*
X154503834Y-110849073D01*
X154491853Y-110926749D01*
X154455911Y-110977668D01*
X154396406Y-111005823D01*
X154313738Y-111015208D01*
X154233866Y-111015208D01*
X154233866Y-110695719D01*
X154282588Y-110691725D01*
X154331310Y-110690927D01*
X154401797Y-110699912D01*
G37*
G36*
X155431097Y-111786241D02*
G01*
X154971353Y-111786241D01*
X154705112Y-111786241D01*
X154233866Y-111786241D01*
X153914377Y-111786241D01*
X152454313Y-111786241D01*
X152053355Y-111786241D01*
X151594888Y-111786241D01*
X151328647Y-111786241D01*
X150952130Y-110531182D01*
X151594888Y-110531182D01*
X151594888Y-110694121D01*
X151855272Y-110694121D01*
X151855272Y-111520000D01*
X152053355Y-111520000D01*
X152053355Y-110694121D01*
X152313738Y-110694121D01*
X152313738Y-110531182D01*
X152454313Y-110531182D01*
X152454313Y-111520000D01*
X153088498Y-111520000D01*
X153189137Y-111520000D01*
X153369649Y-111520000D01*
X153361661Y-110751629D01*
X153478275Y-111170160D01*
X153622045Y-111170160D01*
X153743450Y-110751629D01*
X153733866Y-111520000D01*
X153914377Y-111520000D01*
X154037380Y-111520000D01*
X154233866Y-111520000D01*
X154233866Y-111186134D01*
X154304153Y-111186134D01*
X154422275Y-111177348D01*
X154521051Y-111150990D01*
X154600479Y-111107061D01*
X154658608Y-111043429D01*
X154693486Y-110957966D01*
X154705112Y-110850671D01*
X154693575Y-110744441D01*
X154658963Y-110660043D01*
X154601278Y-110597476D01*
X154522648Y-110554434D01*
X154425204Y-110528608D01*
X154308946Y-110520000D01*
X154246645Y-110521597D01*
X154174760Y-110525591D01*
X154102077Y-110532780D01*
X154037380Y-110543962D01*
X154037380Y-111520000D01*
X153914377Y-111520000D01*
X153910783Y-111393602D01*
X153906390Y-111270000D01*
X153900998Y-111148195D01*
X153894409Y-111027188D01*
X153886422Y-110905982D01*
X153876837Y-110783578D01*
X153866254Y-110658978D01*
X153855272Y-110531182D01*
X153692332Y-110531182D01*
X153663578Y-110615847D01*
X153628435Y-110725272D01*
X153588498Y-110846677D01*
X153548562Y-110968882D01*
X153511821Y-110853866D01*
X153473482Y-110730863D01*
X153437540Y-110617444D01*
X153409585Y-110531182D01*
X153246645Y-110531182D01*
X153236062Y-110639409D01*
X153226677Y-110756422D01*
X153218490Y-110879824D01*
X153211502Y-111007220D01*
X153205312Y-111137013D01*
X153199521Y-111267604D01*
X153194129Y-111396198D01*
X153189137Y-111520000D01*
X153088498Y-111520000D01*
X153088498Y-111357061D01*
X152650799Y-111357061D01*
X152650799Y-111079105D01*
X153000639Y-111079105D01*
X153000639Y-110916166D01*
X152650799Y-110916166D01*
X152650799Y-110694121D01*
X153053355Y-110694121D01*
X153053355Y-110531182D01*
X152454313Y-110531182D01*
X152313738Y-110531182D01*
X151594888Y-110531182D01*
X150952130Y-110531182D01*
X150868903Y-110253759D01*
X151328647Y-110253759D01*
X151594888Y-110253759D01*
X154705112Y-110253759D01*
X154971353Y-110253759D01*
X155431097Y-111786241D01*
G37*
D12*
%TO.C,R7*%
X148847064Y-77615000D02*
X148392936Y-77615000D01*
X148847064Y-79085000D02*
X148392936Y-79085000D01*
%TO.C,C12*%
X147225000Y-108676252D02*
X147225000Y-108153748D01*
X148695000Y-108676252D02*
X148695000Y-108153748D01*
%TO.C,D6*%
X174294133Y-98086779D02*
X176316458Y-100109104D01*
X175651778Y-96729134D02*
X174294133Y-98086779D01*
X177674103Y-98751459D02*
X175651778Y-96729134D01*
D11*
%TO.C,kibuzzard-662EB7B6*%
G36*
X135418305Y-89740209D02*
G01*
X135480805Y-89748916D01*
X135583746Y-89787616D01*
X135651858Y-89858824D01*
X135676625Y-89967957D01*
X135676625Y-89984985D01*
X135675077Y-90002012D01*
X135031115Y-90002012D01*
X135027245Y-89974149D01*
X135026471Y-89946285D01*
X135053560Y-89842570D01*
X135125542Y-89779102D01*
X135229257Y-89746594D01*
X135350000Y-89737307D01*
X135418305Y-89740209D01*
G37*
G36*
X135417337Y-92060642D02*
G01*
X135480031Y-92064706D01*
X135586068Y-92086378D01*
X135658050Y-92132817D01*
X135684365Y-92210991D01*
X135658050Y-92289938D01*
X135586842Y-92335604D01*
X135480805Y-92357276D01*
X135417531Y-92361339D01*
X135350000Y-92362693D01*
X135282663Y-92361339D01*
X135219969Y-92357276D01*
X135113932Y-92335604D01*
X135041950Y-92289938D01*
X135015635Y-92210991D01*
X135041950Y-92132043D01*
X135113158Y-92086378D01*
X135219195Y-92064706D01*
X135282469Y-92060642D01*
X135350000Y-92059288D01*
X135417337Y-92060642D01*
G37*
G36*
X136107998Y-90952477D02*
G01*
X136107998Y-91111920D01*
X136107998Y-92209443D01*
X136107998Y-92556192D01*
X136107998Y-95781166D01*
X134592002Y-96235965D01*
X134592002Y-95781166D01*
X134592002Y-92556192D01*
X134592002Y-92210991D01*
X134850000Y-92210991D01*
X134864018Y-92311438D01*
X134906072Y-92396061D01*
X134976161Y-92464861D01*
X135046836Y-92504818D01*
X135132701Y-92533359D01*
X135233756Y-92550484D01*
X135350000Y-92556192D01*
X135466244Y-92550629D01*
X135567299Y-92533940D01*
X135653164Y-92506124D01*
X135723839Y-92467183D01*
X135793928Y-92398985D01*
X135835982Y-92313072D01*
X135850000Y-92209443D01*
X135835982Y-92108308D01*
X135793928Y-92023684D01*
X135723839Y-91955573D01*
X135653164Y-91916293D01*
X135567299Y-91888235D01*
X135466244Y-91871401D01*
X135350000Y-91865789D01*
X135233756Y-91871304D01*
X135132701Y-91887848D01*
X135046836Y-91915422D01*
X134976161Y-91954025D01*
X134906072Y-92021792D01*
X134864018Y-92107448D01*
X134850000Y-92210991D01*
X134592002Y-92210991D01*
X134592002Y-91714087D01*
X134871672Y-91714087D01*
X135829876Y-91714087D01*
X135829876Y-91111920D01*
X135671981Y-91111920D01*
X135671981Y-91522136D01*
X134871672Y-91522136D01*
X134871672Y-91714087D01*
X134592002Y-91714087D01*
X134592002Y-90952477D01*
X134871672Y-90952477D01*
X135829876Y-90952477D01*
X135829876Y-90337926D01*
X135671981Y-90337926D01*
X135671981Y-90762074D01*
X135402632Y-90762074D01*
X135402632Y-90423065D01*
X135244737Y-90423065D01*
X135244737Y-90762074D01*
X135029567Y-90762074D01*
X135029567Y-90371981D01*
X134871672Y-90371981D01*
X134871672Y-90952477D01*
X134592002Y-90952477D01*
X134592002Y-89963313D01*
X134860836Y-89963313D01*
X134865480Y-90070124D01*
X134884056Y-90192415D01*
X135819040Y-90192415D01*
X135836842Y-90087926D01*
X135842260Y-89988080D01*
X135835488Y-89894621D01*
X135815170Y-89809288D01*
X135780147Y-89733630D01*
X135729257Y-89669195D01*
X135661726Y-89616757D01*
X135576780Y-89577090D01*
X135473259Y-89552128D01*
X135350000Y-89543808D01*
X135229450Y-89551354D01*
X135127864Y-89573994D01*
X135043885Y-89610178D01*
X134976161Y-89658359D01*
X134924497Y-89718537D01*
X134888700Y-89790712D01*
X134867802Y-89872949D01*
X134860836Y-89963313D01*
X134592002Y-89963313D01*
X134592002Y-89543808D01*
X134592002Y-86318834D01*
X136107998Y-85864035D01*
X136107998Y-86318834D01*
X136107998Y-89543808D01*
X136107998Y-89988080D01*
X136107998Y-90952477D01*
G37*
D12*
%TO.C,D1*%
X156510000Y-91905000D02*
X159370000Y-91905000D01*
X159370000Y-89985000D02*
X156510000Y-89985000D01*
X159370000Y-91905000D02*
X159370000Y-89985000D01*
%TO.C,C1*%
X157538748Y-78155000D02*
X158061252Y-78155000D01*
X157538748Y-79625000D02*
X158061252Y-79625000D01*
D13*
%TO.C,SW1*%
X162280000Y-84680000D02*
X162280000Y-90333000D01*
X162280000Y-97180000D02*
X162280000Y-92330000D01*
X174780000Y-84680000D02*
X174780000Y-97180000D01*
X164363000Y-97739000D02*
G75*
G02*
X164259000Y-97739000I-52000J0D01*
G01*
X164259000Y-97739000D02*
G75*
G02*
X164363000Y-97739000I52000J0D01*
G01*
D12*
%TO.C,R8*%
X144552936Y-77625000D02*
X145007064Y-77625000D01*
X144552936Y-79095000D02*
X145007064Y-79095000D01*
%TO.C,D15*%
X168570000Y-111130000D02*
X168570000Y-103830000D01*
X174070000Y-103830000D02*
X172920000Y-103830000D01*
X174070000Y-111130000D02*
X174070000Y-103830000D01*
%TO.C,R5*%
X157737064Y-96635000D02*
X157282936Y-96635000D01*
X157737064Y-98105000D02*
X157282936Y-98105000D01*
D11*
%TO.C,kibuzzard-662EB907*%
G36*
X170814505Y-71725372D02*
G01*
X170868297Y-71752074D01*
X170903127Y-71797740D01*
X170914737Y-71863529D01*
X170871393Y-71971115D01*
X170814505Y-71999559D01*
X170730526Y-72009040D01*
X170688731Y-72009040D01*
X170688731Y-71721115D01*
X170719690Y-71717245D01*
X170746006Y-71716471D01*
X170814505Y-71725372D01*
G37*
G36*
X169300186Y-71743560D02*
G01*
X169363653Y-71815542D01*
X169396161Y-71919257D01*
X169405449Y-72040000D01*
X169402546Y-72108305D01*
X169393839Y-72170805D01*
X169355139Y-72273746D01*
X169283932Y-72341858D01*
X169174799Y-72366625D01*
X169157771Y-72366625D01*
X169140743Y-72365077D01*
X169140743Y-71721115D01*
X169168607Y-71717245D01*
X169196471Y-71716471D01*
X169300186Y-71743560D01*
G37*
G36*
X168558700Y-71731950D02*
G01*
X168604365Y-71803158D01*
X168626037Y-71909195D01*
X168630101Y-71972469D01*
X168631455Y-72040000D01*
X168630101Y-72107337D01*
X168626037Y-72170031D01*
X168604365Y-72276068D01*
X168557926Y-72348050D01*
X168479752Y-72374365D01*
X168400805Y-72348050D01*
X168355139Y-72276842D01*
X168333467Y-72170805D01*
X168329404Y-72107531D01*
X168328050Y-72040000D01*
X168329404Y-71972663D01*
X168333467Y-71909969D01*
X168355139Y-71803932D01*
X168400805Y-71731950D01*
X168479752Y-71705635D01*
X168558700Y-71731950D01*
G37*
G36*
X171884499Y-72797998D02*
G01*
X171429701Y-72797998D01*
X171171703Y-72797998D01*
X169738266Y-72797998D01*
X169154675Y-72797998D01*
X168481300Y-72797998D01*
X167776966Y-72797998D01*
X167094303Y-72797998D01*
X165868297Y-72797998D01*
X165610299Y-72797998D01*
X165239402Y-71561672D01*
X165868297Y-71561672D01*
X165868297Y-72519876D01*
X166482848Y-72519876D01*
X166482848Y-72361981D01*
X166058700Y-72361981D01*
X166058700Y-72092632D01*
X166397709Y-72092632D01*
X166397709Y-71934737D01*
X166058700Y-71934737D01*
X166058700Y-71719567D01*
X166448793Y-71719567D01*
X166448793Y-71561672D01*
X166615975Y-71561672D01*
X166615975Y-72519876D01*
X166787802Y-72519876D01*
X166787802Y-71883653D01*
X166845335Y-71989862D01*
X166900289Y-72095900D01*
X166952663Y-72201765D01*
X167002456Y-72307630D01*
X167049670Y-72413667D01*
X167094303Y-72519876D01*
X167247554Y-72519876D01*
X167247554Y-72040000D01*
X167360557Y-72040000D01*
X167367233Y-72153100D01*
X167387260Y-72252461D01*
X167420639Y-72338084D01*
X167467368Y-72409969D01*
X167549240Y-72482208D01*
X167652439Y-72525552D01*
X167776966Y-72540000D01*
X167861525Y-72534776D01*
X167935635Y-72519102D01*
X168044768Y-72473437D01*
X167996780Y-72323282D01*
X167918607Y-72357337D01*
X167795542Y-72374365D01*
X167685054Y-72352500D01*
X167610557Y-72286904D01*
X167579168Y-72220083D01*
X167560334Y-72136233D01*
X167554345Y-72040000D01*
X168134551Y-72040000D01*
X168140114Y-72156244D01*
X168156803Y-72257299D01*
X168184619Y-72343164D01*
X168223560Y-72413839D01*
X168291758Y-72483928D01*
X168377671Y-72525982D01*
X168481300Y-72540000D01*
X168582436Y-72525982D01*
X168616527Y-72509040D01*
X168950341Y-72509040D01*
X169054830Y-72526842D01*
X169154675Y-72532260D01*
X169248135Y-72525488D01*
X169333467Y-72505170D01*
X169409125Y-72470147D01*
X169473560Y-72419257D01*
X169525998Y-72351726D01*
X169565666Y-72266780D01*
X169590627Y-72163259D01*
X169598947Y-72040000D01*
X169591401Y-71919450D01*
X169568762Y-71817864D01*
X169532577Y-71733885D01*
X169484396Y-71666161D01*
X169424218Y-71614497D01*
X169352043Y-71578700D01*
X169285036Y-71561672D01*
X169738266Y-71561672D01*
X169738266Y-72519876D01*
X170352817Y-72519876D01*
X170498328Y-72519876D01*
X170688731Y-72519876D01*
X170688731Y-72166935D01*
X170787802Y-72166935D01*
X170840240Y-72254590D01*
X170889195Y-72341084D01*
X170933506Y-72428738D01*
X170972012Y-72519876D01*
X171171703Y-72519876D01*
X171127585Y-72418483D01*
X171074180Y-72311672D01*
X171016904Y-72209505D01*
X170961176Y-72120495D01*
X171028901Y-72076765D01*
X171074180Y-72016780D01*
X171099721Y-71944799D01*
X171108235Y-71865077D01*
X171101850Y-71789807D01*
X171082693Y-71724985D01*
X171009164Y-71626687D01*
X170956533Y-71593019D01*
X170894613Y-71569412D01*
X170824180Y-71555480D01*
X170746006Y-71550836D01*
X170691827Y-71552384D01*
X170626811Y-71556254D01*
X170559474Y-71563994D01*
X170498328Y-71575604D01*
X170498328Y-72519876D01*
X170352817Y-72519876D01*
X170352817Y-72361981D01*
X169928669Y-72361981D01*
X169928669Y-72092632D01*
X170267678Y-72092632D01*
X170267678Y-71934737D01*
X169928669Y-71934737D01*
X169928669Y-71719567D01*
X170318762Y-71719567D01*
X170318762Y-71561672D01*
X169738266Y-71561672D01*
X169285036Y-71561672D01*
X169269807Y-71557802D01*
X169179443Y-71550836D01*
X169072632Y-71555480D01*
X168950341Y-71574056D01*
X168950341Y-72509040D01*
X168616527Y-72509040D01*
X168667059Y-72483928D01*
X168735170Y-72413839D01*
X168774450Y-72343164D01*
X168802508Y-72257299D01*
X168819342Y-72156244D01*
X168824954Y-72040000D01*
X168819439Y-71923756D01*
X168802895Y-71822701D01*
X168775321Y-71736836D01*
X168736718Y-71666161D01*
X168668951Y-71596072D01*
X168583295Y-71554018D01*
X168479752Y-71540000D01*
X168379305Y-71554018D01*
X168294682Y-71596072D01*
X168225882Y-71666161D01*
X168185925Y-71736836D01*
X168157384Y-71822701D01*
X168140259Y-71923756D01*
X168134551Y-72040000D01*
X167554345Y-72040000D01*
X167554056Y-72035356D01*
X167559280Y-71948669D01*
X167574954Y-71877461D01*
X167629133Y-71776068D01*
X167704985Y-71721889D01*
X167792446Y-71705635D01*
X167907771Y-71721889D01*
X167993684Y-71761362D01*
X168043220Y-71609659D01*
X168011486Y-71591084D01*
X167959628Y-71567864D01*
X167887647Y-71548514D01*
X167795542Y-71540000D01*
X167704791Y-71548320D01*
X167621393Y-71573282D01*
X167547090Y-71614303D01*
X167483622Y-71670805D01*
X167431958Y-71742206D01*
X167393065Y-71827926D01*
X167368684Y-71927384D01*
X167360557Y-72040000D01*
X167247554Y-72040000D01*
X167247554Y-71561672D01*
X167075728Y-71561672D01*
X167075728Y-72151455D01*
X167048444Y-72091084D01*
X167016130Y-72021424D01*
X166979752Y-71945960D01*
X166940279Y-71868173D01*
X166898676Y-71789033D01*
X166855913Y-71709505D01*
X166812570Y-71632686D01*
X166769226Y-71561672D01*
X166615975Y-71561672D01*
X166448793Y-71561672D01*
X165868297Y-71561672D01*
X165239402Y-71561672D01*
X165155501Y-71282002D01*
X165610299Y-71282002D01*
X165868297Y-71282002D01*
X171171703Y-71282002D01*
X171429701Y-71282002D01*
X171884499Y-72797998D01*
G37*
D12*
%TO.C,R2*%
X179332936Y-83805000D02*
X179787064Y-83805000D01*
X179332936Y-85275000D02*
X179787064Y-85275000D01*
D11*
%TO.C,kibuzzard-662EBA34*%
G36*
X151211115Y-73824303D02*
G01*
X151239559Y-73881192D01*
X151249040Y-73965170D01*
X151249040Y-74006966D01*
X150961115Y-74006966D01*
X150957245Y-73976006D01*
X150956471Y-73949690D01*
X150965372Y-73881192D01*
X150992074Y-73827399D01*
X151037740Y-73792570D01*
X151103529Y-73780960D01*
X151211115Y-73824303D01*
G37*
G36*
X151184992Y-74530960D02*
G01*
X151234334Y-74565789D01*
X151261618Y-74623452D01*
X151270712Y-74703560D01*
X151270712Y-74780960D01*
X150961115Y-74780960D01*
X150957245Y-74733746D01*
X150956471Y-74686533D01*
X150965178Y-74618228D01*
X150991300Y-74565015D01*
X151038320Y-74530766D01*
X151109721Y-74519350D01*
X151184992Y-74530960D01*
G37*
G36*
X151347337Y-72969621D02*
G01*
X151410031Y-72973684D01*
X151516068Y-72995356D01*
X151588050Y-73041796D01*
X151614365Y-73119969D01*
X151588050Y-73198916D01*
X151516842Y-73244582D01*
X151410805Y-73266254D01*
X151347531Y-73270317D01*
X151280000Y-73271672D01*
X151212663Y-73270317D01*
X151149969Y-73266254D01*
X151043932Y-73244582D01*
X150971950Y-73198916D01*
X150945635Y-73119969D01*
X150971950Y-73041022D01*
X151043158Y-72995356D01*
X151149195Y-72973684D01*
X151212469Y-72969621D01*
X151280000Y-72968266D01*
X151347337Y-72969621D01*
G37*
G36*
X152037998Y-73118421D02*
G01*
X152037998Y-73523994D01*
X152037998Y-74780960D01*
X152037998Y-75731424D01*
X152037998Y-76505418D01*
X152037998Y-76763416D01*
X150522002Y-77218215D01*
X150522002Y-76763416D01*
X150522002Y-76505418D01*
X150801672Y-76505418D01*
X151759876Y-76505418D01*
X151759876Y-75890867D01*
X151601981Y-75890867D01*
X151601981Y-76315015D01*
X151332632Y-76315015D01*
X151332632Y-75976006D01*
X151174737Y-75976006D01*
X151174737Y-76315015D01*
X150959567Y-76315015D01*
X150959567Y-75924923D01*
X150801672Y-75924923D01*
X150801672Y-76505418D01*
X150522002Y-76505418D01*
X150522002Y-75731424D01*
X150801672Y-75731424D01*
X151759876Y-75731424D01*
X151759876Y-75116873D01*
X151601981Y-75116873D01*
X151601981Y-75541022D01*
X151332632Y-75541022D01*
X151332632Y-75202012D01*
X151174737Y-75202012D01*
X151174737Y-75541022D01*
X150959567Y-75541022D01*
X150959567Y-75150929D01*
X150801672Y-75150929D01*
X150801672Y-75731424D01*
X150522002Y-75731424D01*
X150522002Y-74708204D01*
X150790836Y-74708204D01*
X150792384Y-74768576D01*
X150796254Y-74838235D01*
X150803220Y-74908669D01*
X150814056Y-74971362D01*
X151759876Y-74971362D01*
X151759876Y-74780960D01*
X151436347Y-74780960D01*
X151436347Y-74712848D01*
X151427833Y-74598383D01*
X151402291Y-74502666D01*
X151359721Y-74425697D01*
X151298060Y-74369367D01*
X151215243Y-74335569D01*
X151111269Y-74324303D01*
X151008328Y-74335483D01*
X150926543Y-74369023D01*
X150865913Y-74424923D01*
X150824204Y-74501118D01*
X150799178Y-74595545D01*
X150790836Y-74708204D01*
X150522002Y-74708204D01*
X150522002Y-73949690D01*
X150790836Y-73949690D01*
X150792384Y-74003870D01*
X150796254Y-74068885D01*
X150803994Y-74136223D01*
X150815604Y-74197368D01*
X151759876Y-74197368D01*
X151759876Y-74006966D01*
X151406935Y-74006966D01*
X151406935Y-73907895D01*
X151494590Y-73855457D01*
X151581084Y-73806502D01*
X151668738Y-73762190D01*
X151759876Y-73723684D01*
X151759876Y-73523994D01*
X151658483Y-73568111D01*
X151551672Y-73621517D01*
X151449505Y-73678793D01*
X151360495Y-73734520D01*
X151316765Y-73666796D01*
X151256780Y-73621517D01*
X151184799Y-73595975D01*
X151105077Y-73587461D01*
X151029807Y-73593847D01*
X150964985Y-73613003D01*
X150866687Y-73686533D01*
X150833019Y-73739164D01*
X150809412Y-73801084D01*
X150795480Y-73871517D01*
X150790836Y-73949690D01*
X150522002Y-73949690D01*
X150522002Y-73119969D01*
X150780000Y-73119969D01*
X150794018Y-73220416D01*
X150836072Y-73305040D01*
X150906161Y-73373839D01*
X150976836Y-73413796D01*
X151062701Y-73442337D01*
X151163756Y-73459462D01*
X151280000Y-73465170D01*
X151396244Y-73459607D01*
X151497299Y-73442918D01*
X151583164Y-73415103D01*
X151653839Y-73376161D01*
X151723928Y-73307964D01*
X151765982Y-73222050D01*
X151780000Y-73118421D01*
X151765982Y-73017286D01*
X151723928Y-72932663D01*
X151653839Y-72864551D01*
X151583164Y-72825271D01*
X151497299Y-72797214D01*
X151396244Y-72780379D01*
X151280000Y-72774768D01*
X151163756Y-72780283D01*
X151062701Y-72796827D01*
X150976836Y-72824400D01*
X150906161Y-72863003D01*
X150836072Y-72930771D01*
X150794018Y-73016426D01*
X150780000Y-73119969D01*
X150522002Y-73119969D01*
X150522002Y-72641641D01*
X150801672Y-72641641D01*
X150906548Y-72651896D01*
X151019938Y-72660991D01*
X151139520Y-72668924D01*
X151262972Y-72675697D01*
X151388746Y-72681695D01*
X151515294Y-72687307D01*
X151639907Y-72692531D01*
X151759876Y-72697368D01*
X151759876Y-72522446D01*
X151015294Y-72530186D01*
X151420867Y-72417183D01*
X151420867Y-72277864D01*
X151015294Y-72160217D01*
X151759876Y-72169505D01*
X151759876Y-71994582D01*
X151637392Y-71998065D01*
X151517616Y-72002322D01*
X151399582Y-72007546D01*
X151282322Y-72013932D01*
X151164868Y-72021672D01*
X151046254Y-72030960D01*
X150925511Y-72041215D01*
X150801672Y-72051858D01*
X150801672Y-72209752D01*
X150883715Y-72237616D01*
X150989752Y-72271672D01*
X151107399Y-72310372D01*
X151225820Y-72349071D01*
X151114365Y-72384675D01*
X150995170Y-72421827D01*
X150885263Y-72456656D01*
X150801672Y-72483746D01*
X150801672Y-72641641D01*
X150522002Y-72641641D01*
X150522002Y-71994582D01*
X150522002Y-71736584D01*
X152037998Y-71281785D01*
X152037998Y-71736584D01*
X152037998Y-71994582D01*
X152037998Y-73118421D01*
G37*
D12*
%TO.C,RN3*%
X174740000Y-74420000D02*
X174740000Y-76520000D01*
X180080000Y-74420000D02*
X180080000Y-76520000D01*
D13*
%TO.C,U2*%
X143245000Y-71970000D02*
X144770000Y-71970000D01*
X145120000Y-72100000D02*
X148320000Y-72100000D01*
X145120000Y-77000000D02*
X145120000Y-72100000D01*
X148320000Y-72100000D02*
X148320000Y-77000000D01*
X148320000Y-77000000D02*
X145120000Y-77000000D01*
D12*
%TO.C,D7*%
X167550000Y-100085000D02*
X167550000Y-102945000D01*
X169470000Y-100085000D02*
X167550000Y-100085000D01*
X169470000Y-102945000D02*
X169470000Y-100085000D01*
%TO.C,C5*%
X157268748Y-87765000D02*
X157791252Y-87765000D01*
X157268748Y-89235000D02*
X157791252Y-89235000D01*
%TO.C,R6*%
X157787064Y-83735000D02*
X157332936Y-83735000D01*
X157787064Y-85205000D02*
X157332936Y-85205000D01*
D10*
%TO.C,TP4*%
X139370000Y-116700000D02*
G75*
G02*
X136830000Y-116700000I-1270000J0D01*
G01*
X136830000Y-116700000D02*
G75*
G02*
X139370000Y-116700000I1270000J0D01*
G01*
D12*
%TO.C,D3*%
X167550000Y-78945000D02*
X167550000Y-81805000D01*
X167550000Y-81805000D02*
X169470000Y-81805000D01*
X169470000Y-81805000D02*
X169470000Y-78945000D01*
%TO.C,J8*%
X130770000Y-75490000D02*
X130770000Y-74160000D01*
X132100000Y-75490000D02*
X130770000Y-75490000D01*
X133370000Y-72830000D02*
X141050000Y-72830000D01*
X133370000Y-75490000D02*
X133370000Y-72830000D01*
X133370000Y-75490000D02*
X141050000Y-75490000D01*
X141050000Y-75490000D02*
X141050000Y-72830000D01*
D11*
%TO.C,kibuzzard-662EB6F1*%
G36*
X133704000Y-91584453D02*
G01*
X133778673Y-91595529D01*
X133851902Y-91613872D01*
X133922980Y-91639304D01*
X133991223Y-91671581D01*
X134055973Y-91710391D01*
X134116608Y-91755361D01*
X134172543Y-91806057D01*
X134223239Y-91861992D01*
X134268209Y-91922627D01*
X134307019Y-91987377D01*
X134339296Y-92055620D01*
X134364728Y-92126698D01*
X134383070Y-92199926D01*
X134394147Y-92274600D01*
X134397851Y-92350000D01*
X134394147Y-92425400D01*
X134383070Y-92500074D01*
X134364728Y-92573302D01*
X134339296Y-92644380D01*
X134307019Y-92712623D01*
X134268209Y-92777373D01*
X134223239Y-92838008D01*
X134172543Y-92893943D01*
X134116608Y-92944639D01*
X134055973Y-92989609D01*
X133991223Y-93028419D01*
X133922980Y-93060696D01*
X133851902Y-93086128D01*
X133778673Y-93104471D01*
X133704000Y-93115547D01*
X133628600Y-93119251D01*
X133359348Y-93119251D01*
X133199413Y-93119251D01*
X131905390Y-93119251D01*
X131310883Y-93119251D01*
X131031400Y-93119251D01*
X130762149Y-93119251D01*
X130762149Y-91850000D01*
X131031400Y-91850000D01*
X131049978Y-91940468D01*
X131076634Y-92053554D01*
X131097995Y-92138189D01*
X131121151Y-92226234D01*
X131146101Y-92317690D01*
X131172488Y-92410941D01*
X131199952Y-92504371D01*
X131228492Y-92597981D01*
X131270899Y-92731260D01*
X131310883Y-92850000D01*
X131516053Y-92850000D01*
X131546927Y-92763929D01*
X131577083Y-92675884D01*
X131606521Y-92585864D01*
X131634793Y-92495396D01*
X131661449Y-92406004D01*
X131686489Y-92317690D01*
X131720819Y-92189055D01*
X131751109Y-92066478D01*
X131777159Y-91952585D01*
X131798767Y-91850000D01*
X131905390Y-91850000D01*
X131905390Y-92014782D01*
X132123484Y-92014782D01*
X132123484Y-92685218D01*
X131905390Y-92685218D01*
X131905390Y-92850000D01*
X132540285Y-92850000D01*
X132540285Y-92685218D01*
X132323807Y-92685218D01*
X132323807Y-92014782D01*
X132540285Y-92014782D01*
X132540285Y-91850000D01*
X132700221Y-91850000D01*
X132700221Y-92850000D01*
X132879542Y-92850000D01*
X132879542Y-92186026D01*
X132939585Y-92296868D01*
X132996936Y-92407530D01*
X133051594Y-92518013D01*
X133103560Y-92628496D01*
X133152833Y-92739158D01*
X133199413Y-92850000D01*
X133359348Y-92850000D01*
X133359348Y-91850000D01*
X133180027Y-91850000D01*
X133180027Y-92465509D01*
X133151554Y-92402504D01*
X133117830Y-92329806D01*
X133079865Y-92251050D01*
X133038670Y-92169871D01*
X132995253Y-92087278D01*
X132950625Y-92004281D01*
X132905390Y-91924111D01*
X132860156Y-91850000D01*
X132700221Y-91850000D01*
X132540285Y-91850000D01*
X131905390Y-91850000D01*
X131798767Y-91850000D01*
X131590366Y-91850000D01*
X131575827Y-91934006D01*
X131558056Y-92030937D01*
X131537862Y-92135743D01*
X131516053Y-92243376D01*
X131492628Y-92351616D01*
X131467588Y-92458239D01*
X131441739Y-92558199D01*
X131415891Y-92646446D01*
X131389841Y-92556987D01*
X131363387Y-92456624D01*
X131337539Y-92350000D01*
X131313306Y-92241761D01*
X131290891Y-92134330D01*
X131270495Y-92030129D01*
X131253533Y-91933805D01*
X131241416Y-91850000D01*
X131031400Y-91850000D01*
X130762149Y-91850000D01*
X130762149Y-91580749D01*
X131031400Y-91580749D01*
X133359348Y-91580749D01*
X133628600Y-91580749D01*
X133704000Y-91584453D01*
G37*
D12*
%TO.C,D8*%
X160703541Y-100109104D02*
X162725866Y-98086779D01*
X161368221Y-96729134D02*
X159345896Y-98751459D01*
X162725866Y-98086779D02*
X161368221Y-96729134D01*
D10*
%TO.C,TP1*%
X181070000Y-68100000D02*
G75*
G02*
X178530000Y-68100000I-1270000J0D01*
G01*
X178530000Y-68100000D02*
G75*
G02*
X181070000Y-68100000I1270000J0D01*
G01*
D12*
%TO.C,C6*%
X164881248Y-101985000D02*
X165403752Y-101985000D01*
X164881248Y-103455000D02*
X165403752Y-103455000D01*
%TO.C,U1*%
X159580000Y-72165000D02*
X157380000Y-72165000D01*
X159580000Y-72165000D02*
X161780000Y-72165000D01*
X159580000Y-77635000D02*
X157380000Y-77635000D01*
X159580000Y-77635000D02*
X161780000Y-77635000D01*
X163770000Y-77415000D02*
X163440000Y-77175000D01*
X163770000Y-76935000D01*
X163770000Y-77415000D01*
G36*
X163770000Y-77415000D02*
G01*
X163440000Y-77175000D01*
X163770000Y-76935000D01*
X163770000Y-77415000D01*
G37*
D10*
%TO.C,TP6*%
X159800000Y-109420000D02*
G75*
G02*
X157260000Y-109420000I-1270000J0D01*
G01*
X157260000Y-109420000D02*
G75*
G02*
X159800000Y-109420000I1270000J0D01*
G01*
%TD*%
M02*
